<svg xmlns="http://www.w3.org/2000/svg" width="800" height="400" viewBox="0 0 800 400" version="1.1"><path d="M 148.447 65.500 C 145.639 70.292, 144.063 70.986, 141.902 68.381 C 140.822 67.081, 139.218 66.859, 133.743 67.250 C 129.995 67.519, 126.627 68.039, 126.259 68.407 C 125.891 68.775, 126.091 70.402, 126.702 72.022 C 127.557 74.286, 127.488 76.050, 126.407 79.643 C 125.633 82.214, 124.970 87.959, 124.934 92.409 C 124.869 100.343, 116.366 197.426, 116.080 193.500 C 115.999 192.400, 113.338 165.232, 110.165 133.126 L 104.396 74.751 100.713 71.376 C 98.687 69.519, 96.325 68, 95.464 68 C 94.603 68, 92.376 69.661, 90.517 71.691 C 86.480 76.097, 87.361 70.105, 80.994 136.500 C 78.251 165.100, 75.893 189.400, 75.753 190.500 C 75.485 192.620, 64.890 85.214, 64.960 81.071 C 64.982 79.735, 64.011 75.572, 62.803 71.821 C 60.918 65.967, 60.275 65, 58.271 65 C 51.989 65, 45.108 71.025, 41.333 79.831 C 40.083 82.748, 40.099 83.830, 41.466 88.530 C 43.129 94.251, 45.878 97.672, 44.575 92.399 C 43.128 86.543, 45.852 91.565, 48.427 99.500 C 51.543 109.099, 53.276 118.440, 52.806 123.092 C 52.549 125.627, 51.987 124, 50.610 116.734 C 49.591 111.363, 48.428 106.764, 48.024 106.515 C 47.619 106.265, 47.455 107.059, 47.657 108.280 C 47.860 109.501, 51.167 135.475, 55.007 166 C 58.847 196.525, 62.235 222.955, 62.536 224.732 C 62.959 227.228, 64.080 228.549, 67.451 230.524 C 72.063 233.227, 75.783 233.171, 78.112 230.365 C 78.883 229.436, 80.983 206.890, 84.040 166.713 C 86.643 132.496, 88.824 104.727, 88.887 105.004 C 88.949 105.282, 91.048 125.982, 93.550 151.004 C 97.082 186.310, 98.046 199.730, 97.855 210.921 L 97.608 225.343 101.372 229.669 C 103.442 232.049, 106.142 234.249, 107.372 234.557 C 110.239 235.277, 128.559 229.441, 130.956 227.044 C 132.463 225.537, 132.629 224.482, 131.930 220.864 C 130.269 212.263, 131.093 201.347, 137.554 146.380 C 143.229 98.102, 144.620 88.635, 147.920 75.811 C 150.016 67.665, 151.585 61, 151.407 61 C 151.230 61, 149.898 63.025, 148.447 65.500 M 195.631 67.500 C 196.066 71.241, 196.878 73.063, 198.856 74.735 L 201.500 76.970 201.565 94.735 C 201.601 104.506, 201.490 107.775, 201.319 102 C 201.147 96.225, 200.729 90.375, 200.389 89 C 198.649 81.962, 198.135 94.874, 198.070 147.250 C 198.015 192.029, 198.264 203.997, 199.250 203.984 C 199.938 203.976, 203.200 203.339, 206.500 202.568 L 212.500 201.168 208.580 204.477 C 206.423 206.297, 201.819 209.297, 198.348 211.143 C 194.877 212.989, 191.827 215.037, 191.572 215.693 C 191.316 216.349, 191.533 218.371, 192.053 220.186 C 192.574 222.001, 193 224.881, 193 226.586 C 193 230.797, 197.859 233.561, 203.570 232.599 C 205.731 232.235, 213.350 231.544, 220.500 231.064 C 227.650 230.583, 234.963 229.866, 236.750 229.470 L 240 228.750 240 222.458 C 240 216.759, 240.259 215.974, 242.750 214.115 C 246.080 211.631, 245.868 211.617, 233.413 213.494 C 223.171 215.038, 210.775 215.370, 207.801 214.180 C 206.390 213.615, 207.108 212.375, 212.031 206.870 L 217.960 200.240 218.022 137.717 C 218.093 67.069, 218.258 68.810, 211.452 68.361 C 200.761 67.657, 199.009 67.234, 197.043 64.884 L 195.049 62.500 195.631 67.500 M 633.712 68.784 C 627.820 74.766, 627.319 79.087, 631.918 84.234 C 634.738 87.390, 634.948 87.455, 638.168 86.147 C 646.853 82.619, 653.312 81.784, 667.500 82.354 C 675.200 82.663, 683.075 83.314, 685 83.800 L 688.500 84.684 684 85.948 C 681.525 86.643, 676.350 87.844, 672.500 88.616 C 661.562 90.811, 661 90.977, 661 92.019 C 661 92.559, 662.237 93.034, 663.750 93.076 C 666.392 93.149, 666.363 93.202, 663 94.414 L 659.500 95.677 658.975 121.588 C 658.686 135.840, 658.298 147.275, 658.114 147 C 657.929 146.725, 657.481 136.725, 657.118 124.779 C 656.657 109.644, 656.082 102.682, 655.221 101.821 C 654.240 100.840, 654.038 113.971, 654.243 165.543 L 654.500 230.500 663.415 230.791 C 669.873 231.002, 672.557 230.727, 673.150 229.791 C 673.601 229.081, 673.976 197.992, 673.985 160.704 L 674 92.908 679.250 90.464 C 682.138 89.119, 685.331 88.015, 686.346 88.010 C 689.016 87.996, 693.788 84.312, 695.550 80.903 C 696.815 78.457, 696.867 77.287, 695.859 73.923 C 695.193 71.701, 693.940 69.520, 693.074 69.078 C 690.222 67.621, 673.788 66.499, 655.863 66.538 C 641.872 66.569, 638.327 66.310, 638.720 65.288 C 639.539 63.153, 638.644 63.778, 633.712 68.784 M 243.922 66.500 C 243.749 68.781, 243.123 73.796, 242.451 78.275 C 241.599 83.952, 243.235 86.446, 248.455 87.426 C 252.831 88.247, 263.211 93.471, 265.508 96.008 L 267.323 98.015 263.912 97.377 C 262.035 97.026, 260.050 96.685, 259.500 96.619 C 258.868 96.544, 258.316 105.879, 258 122 C 257.725 136.025, 257.130 146.928, 256.678 146.228 C 256.225 145.529, 255.775 134.688, 255.678 122.137 C 255.520 101.833, 255.325 99.364, 253.911 99.733 C 252.508 100.100, 252.245 104.718, 251.661 139.238 C 251.298 160.737, 251 190.669, 251 205.754 L 251 233.180 259.750 232.460 C 264.563 232.064, 269.542 231.348, 270.815 230.870 C 272.088 230.391, 276.494 230, 280.605 230 C 285.974 230, 289.125 229.466, 291.790 228.103 C 296.404 225.743, 307.681 214.122, 308.488 210.894 C 309.012 208.800, 308.426 113.684, 307.751 91.136 L 307.500 82.771 302.500 78.348 C 296.425 72.974, 287.741 68.487, 280.719 67.093 C 273.604 65.681, 244.020 65.204, 243.922 66.500 M 420.647 67.594 C 416.374 70.497, 416.322 71.742, 420.137 79.727 C 422.342 84.342, 425.190 87.011, 432.500 91.309 L 437.278 94.118 434.139 97.357 C 432.412 99.138, 431 101.549, 431 102.716 C 431 103.882, 430.712 105.586, 430.361 106.502 C 429.845 107.845, 429.540 107.910, 428.782 106.834 C 428.192 105.996, 428.033 115.806, 428.354 133.233 C 428.634 148.486, 428.512 161.183, 428.082 161.449 C 427.652 161.715, 427.053 150.954, 426.751 137.535 C 426.450 124.117, 425.820 112.544, 425.352 111.819 C 424.540 110.561, 423.096 225.018, 423.864 229.738 C 424.065 230.969, 424.683 231.696, 425.238 231.353 C 425.793 231.010, 433.279 230.790, 441.873 230.864 C 464.035 231.054, 465.497 228.862, 444 227.674 C 440.975 227.507, 445.337 227.287, 453.693 227.185 C 471.044 226.974, 471.894 226.580, 471.180 219.085 L 470.790 215 457.395 215 L 444 215 444 184 C 444 166.950, 444.213 153, 444.474 153 C 444.735 153, 445.654 154.364, 446.516 156.031 L 448.084 159.063 459.730 158.781 L 471.376 158.500 472.216 155.254 C 472.677 153.468, 474.202 150.318, 475.604 148.254 L 478.153 144.500 463.060 144.224 C 453.784 144.054, 447.202 144.357, 445.983 145.009 L 444 146.070 444 120.066 L 444 94.061 438.750 90.594 C 435.863 88.688, 432.392 86.237, 431.037 85.149 L 428.575 83.170 432.537 82.390 C 439.710 80.978, 458.099 81.564, 462.876 83.357 C 468.229 85.367, 472.373 85.461, 473.912 83.606 C 474.796 82.541, 479 69.408, 479 67.710 C 479 67.537, 469.386 67.272, 457.635 67.123 C 445.885 66.973, 434.523 66.445, 432.385 65.949 C 426.410 64.563, 424.769 64.793, 420.647 67.594 M 342.176 66.870 C 341.091 67.558, 341.140 68.400, 342.449 71.532 C 344.062 75.391, 345.414 75.380, 346.223 71.500 C 347.119 67.198, 348.176 90.561, 347.507 99.904 C 347.057 106.196, 347.246 113.087, 348.027 118.799 C 348.815 124.566, 348.966 130.249, 348.449 134.645 L 347.643 141.500 346.967 136.500 C 346.596 133.750, 345.963 121.380, 345.562 109.011 C 345.160 96.641, 344.433 85.841, 343.946 85.011 C 343.418 84.109, 343.049 95.291, 343.030 112.750 L 343 142 339.500 142 C 337.575 142, 336.008 142.113, 336.017 142.250 C 336.224 145.261, 340.296 157.670, 341.523 159.025 C 343.041 160.703, 343.170 164.212, 342.868 195.653 L 342.534 230.425 346.017 231.210 C 347.933 231.642, 352.087 231.728, 355.250 231.400 C 360.100 230.897, 361 231.054, 361 232.402 C 361 233.281, 361.450 234, 362 234 C 362.649 234, 363 221, 363 197 L 363 160 373.500 160 L 384 160 384 194.858 L 384 229.715 390.147 230.358 C 393.527 230.711, 397.465 230.993, 398.897 230.985 C 404.658 230.951, 404.339 235.576, 404.163 154.580 C 404.073 113.550, 404 77.284, 404 73.990 L 404 68 394 68 L 384 68 384 105 L 384 142 373.407 142 L 362.813 142 363.386 109.750 C 363.700 92.012, 364.080 75.745, 364.229 73.601 L 364.500 69.702 358 67.855 C 351.113 65.898, 344.371 65.478, 342.176 66.870 M 166.316 67.743 L 158.132 68.079 158.035 135.491 C 157.955 191.051, 157.690 203.497, 156.529 206.276 C 155.264 209.304, 155.356 210.696, 157.433 219.911 C 160.477 233.418, 160.833 233.745, 170.733 232.124 C 175.005 231.424, 178.996 230.215, 179.602 229.437 C 180.409 228.401, 180.357 226.078, 179.405 220.761 C 178.431 215.322, 178.092 197.338, 178.053 149.082 C 178.018 106.310, 177.624 82.505, 176.881 78.240 C 176.068 73.567, 176.062 71.160, 176.860 69.408 C 177.796 67.353, 177.704 67.030, 176.229 67.204 C 175.278 67.315, 170.817 67.558, 166.316 67.743 M 555.734 69.712 C 550.922 71.944, 550.656 72.269, 549.560 77.268 C 549.051 79.590, 549.703 80.837, 553.613 85.018 C 556.721 88.340, 559.081 90, 560.695 90 L 563.117 90 562.961 159.250 C 562.875 197.338, 563.098 229.224, 563.456 230.109 C 563.813 230.995, 565.249 232.331, 566.646 233.078 C 568.903 234.286, 569.615 234.190, 573.041 232.219 C 575.161 230.998, 578.270 230, 579.948 230 L 583 230 583 192.902 L 583 155.804 586.216 157.840 L 589.431 159.876 596.193 194.615 C 599.912 213.722, 603.369 229.769, 603.876 230.276 C 604.409 230.809, 608.456 230.892, 613.491 230.472 C 621.650 229.793, 622.159 229.617, 621.762 227.624 C 621.529 226.456, 618.928 213.070, 615.982 197.878 L 610.625 170.256 614.335 165.922 C 620.663 158.529, 621 156.023, 621 116.366 C 621 92.763, 620.635 80.292, 619.896 78.671 C 619.014 76.735, 619.137 75.720, 620.511 73.624 L 622.230 71 619.049 71 C 617.300 71, 614.886 70.438, 613.684 69.750 C 612.164 68.880, 603.745 68.348, 586.001 68 L 560.501 67.500 555.734 69.712 M 736 68.044 C 731.875 68.426, 724.981 68.797, 720.680 68.869 C 713.762 68.985, 712.363 69.342, 708.550 71.965 C 706.180 73.596, 703.961 75.658, 703.620 76.547 C 702.553 79.329, 702.944 110.878, 704.108 115.807 C 705.596 122.116, 714.873 141.384, 724.662 158.500 C 729.065 166.200, 735.072 176.887, 738.010 182.250 C 740.948 187.613, 743.700 192, 744.126 192 C 744.552 192, 745.329 191.234, 745.853 190.298 C 747.379 187.572, 748.261 198.339, 747.180 206.500 L 746.253 213.500 746.126 207.332 C 745.987 200.549, 745.267 197.717, 743.895 198.565 C 743.403 198.869, 743 204.682, 743 211.482 C 743 223.420, 742.908 223.956, 740.332 227.018 C 738.864 228.762, 736.726 230.608, 735.582 231.120 C 734.095 231.785, 734.899 231.901, 738.390 231.526 C 741.079 231.237, 745.362 231, 747.907 231 C 751.974 231, 753.168 230.446, 757.767 226.422 L 763 221.845 762.983 203.672 L 762.966 185.500 759.708 177.500 C 757.915 173.100, 750.926 159.728, 744.176 147.784 C 737.426 135.841, 730.021 122.116, 727.720 117.284 L 723.538 108.500 723.178 94.948 C 722.775 79.798, 722.528 80.417, 730.288 77.091 L 735.009 75.067 738.544 82.088 C 740.489 85.950, 742.777 92.195, 743.629 95.967 L 745.177 102.824 750.992 103.499 C 757.845 104.294, 759.817 103.457, 762.363 98.668 L 764.227 95.164 757.434 82.092 C 749.463 66.753, 749.523 66.793, 736 68.044 M 505.065 69.135 C 502.076 69.631, 499.471 70.195, 499.277 70.389 C 499.084 70.583, 499.355 71.812, 499.881 73.121 C 500.407 74.429, 501.123 76.387, 501.472 77.472 C 501.972 79.023, 502.288 79.151, 502.955 78.074 C 504.046 76.308, 503.112 101.354, 501.914 106 C 501.417 107.925, 500.983 111.750, 500.948 114.500 C 500.913 117.250, 500.490 121.300, 500.008 123.500 C 498.767 129.166, 499.748 108.685, 501.186 98.931 C 502.009 93.348, 502.008 90.855, 501.181 89.431 C 500.368 88.029, 500.054 87.911, 500.034 89 C 499.988 91.617, 489.946 182.399, 489.443 184.750 C 489.029 186.687, 488.304 187.008, 484.231 187.059 C 480.502 187.105, 479.838 187.348, 481.094 188.205 C 482.382 189.084, 482.528 190.146, 481.855 193.745 C 481.118 197.692, 481.278 198.411, 483.262 200.066 C 484.493 201.093, 486.051 201.948, 486.725 201.967 C 487.502 201.988, 487.782 203.007, 487.492 204.750 C 486.766 209.110, 485.006 225.285, 485.003 227.630 C 485 229.664, 485.431 229.755, 494.488 229.630 C 500.265 229.551, 504.139 229.076, 504.393 228.416 C 504.622 227.820, 505.137 222.280, 505.538 216.105 C 506.031 208.484, 506.727 204.415, 507.704 203.439 C 508.725 202.418, 511.555 202, 517.443 202 L 525.742 202 526.344 206.750 C 526.675 209.363, 527.247 215.654, 527.615 220.732 L 528.284 229.963 532.892 229.859 C 535.426 229.802, 539.525 230.055, 542 230.421 C 544.475 230.787, 547.069 230.699, 547.765 230.225 C 548.766 229.544, 547.161 213.967, 540.112 155.931 C 534.893 112.957, 531.379 80.426, 531.641 77.500 C 531.887 74.750, 531.684 71.905, 531.191 71.178 C 529.195 68.240, 516.464 67.245, 505.065 69.135 M 24 81.066 C 24 83.435, 26.262 86.069, 30.356 88.469 C 37.526 92.670, 38.080 91.212, 31.873 84.478 C 28.046 80.326, 24 78.573, 24 81.066 M 764.808 83.733 C 765.379 88.980, 772.140 96.125, 771.921 91.250 C 771.826 89.136, 766.873 80.791, 765.427 80.309 C 764.797 80.099, 764.557 81.426, 764.808 83.733 M 257.199 81.920 C 255.384 82.387, 253.674 82.993, 253.399 83.267 C 253.125 83.542, 255.154 85.154, 257.909 86.849 C 260.664 88.544, 264.736 91.574, 266.959 93.582 L 271 97.233 271 155.616 L 271 214 276.944 214 C 281.786 214, 283.409 213.552, 285.694 211.587 L 288.500 209.174 288.500 147.378 L 288.500 85.582 282.500 83.740 C 275.656 81.638, 262.095 80.662, 257.199 81.920 M 592 85.549 C 591.175 85.724, 588.813 86.142, 586.750 86.479 L 583 87.091 583 112.181 L 583 137.271 587.019 147.289 C 591.655 158.843, 593.767 161.240, 595.846 157.304 C 600.568 148.364, 601 144.899, 601 115.998 C 601 90.444, 600.859 88.182, 599.171 86.655 C 597.454 85.101, 595.526 84.803, 592 85.549 M 272.727 99.606 C 271.761 100.573, 273.105 103, 274.607 103 C 275.373 103, 276 102.605, 276 102.122 C 276 100.875, 273.432 98.901, 272.727 99.606 M 515.715 102 C 515.341 103.925, 514.580 110.450, 514.024 116.500 C 512.550 132.558, 508 185.162, 508 186.153 C 508 186.619, 511.728 187, 516.285 187 L 524.569 187 520.878 145.750 C 518.847 123.063, 517.008 103.150, 516.791 101.500 L 516.396 98.500 515.715 102 M 39.964 110.067 C 39.104 111.675, 39.212 112.675, 40.452 114.567 C 43.616 119.396, 46.769 116.733, 44.441 111.198 C 42.884 107.495, 41.525 107.151, 39.964 110.067 M 328.355 142.517 C 327.404 144.996, 328.796 147, 331.469 147 C 335.174 147, 334.623 143.138, 330.712 141.694 C 329.580 141.276, 328.715 141.578, 328.355 142.517 M 682.004 160.250 C 682.010 162.310, 686.269 168.611, 686.736 167.252 C 686.972 166.565, 686.192 164.428, 685.001 162.502 C 682.694 158.769, 681.998 158.246, 682.004 160.250 M 688.324 172 C 688.615 172.825, 692.201 180.925, 696.292 190 C 700.383 199.075, 705.407 211, 707.457 216.500 C 712.219 229.282, 713.769 231.010, 720.424 230.967 C 725.778 230.932, 728.286 229.545, 731.291 224.959 L 732.931 222.457 723.484 206.478 C 718.289 197.690, 713.650 189.895, 713.176 189.155 C 712.702 188.416, 709.656 187.198, 706.407 186.450 C 702.523 185.555, 699.986 184.345, 699 182.916 C 696.557 179.377, 687.748 170.370, 688.324 172 M 472.667 186.667 C 471.401 187.932, 472.009 188.785, 474.645 189.447 C 477.830 190.246, 480.291 188.427, 477.992 186.974 C 476.244 185.869, 473.616 185.717, 472.667 186.667 M 127.736 193 C 127.349 196.025, 126.590 201.650, 126.049 205.500 C 125.508 209.350, 125.089 214.750, 125.119 217.500 C 125.167 222.009, 125.259 222.208, 126.058 219.531 C 127.216 215.651, 129.316 193.222, 128.823 190 C 128.582 188.429, 128.179 189.544, 127.736 193 M 767.362 214.500 C 766.544 216.631, 768.089 219.377, 770.357 219.823 C 772.693 220.283, 772.468 216.733, 770.021 214.519 C 768.130 212.808, 768.011 212.807, 767.362 214.500 M 465.500 229 C 463.903 229.686, 464.267 229.874, 467.309 229.930 C 469.609 229.972, 470.873 229.604, 470.500 229 C 469.770 227.819, 468.248 227.819, 465.500 229 M 472.542 231.932 C 471.907 232.960, 475.734 236, 477.663 236 C 480.259 236, 479.925 234.013, 477.082 232.543 C 473.591 230.737, 473.304 230.699, 472.542 231.932 M 384 251.836 C 373.390 256.491, 366.758 260.158, 366.279 261.634 C 366.076 262.258, 366.552 263.409, 367.335 264.192 C 368.118 264.976, 369.015 267.615, 369.327 270.058 C 369.640 272.501, 369.661 273.712, 369.374 272.750 C 369.088 271.788, 368.436 271, 367.927 271 C 367.403 271, 367 276.920, 367 284.606 L 367 298.212 358 297.500 C 353.050 297.108, 349.015 297.173, 349.033 297.644 C 349.051 298.115, 350.321 300.300, 351.854 302.500 L 354.641 306.500 360.940 306.396 L 367.240 306.293 366.782 314.201 C 366.349 321.686, 366.457 322.214, 368.797 324.055 C 372.294 326.806, 374.127 326.496, 378 322.500 C 379.866 320.575, 380.854 319, 380.196 319 C 379.376 319, 379 316.679, 379 311.617 C 379 303.029, 378.990 303.036, 390.225 303.014 L 396.950 303 395.975 305.565 C 395.439 306.976, 395 312.651, 395 318.176 L 395 328.223 391.250 327.453 C 386.529 326.483, 375.997 326.102, 376.008 326.901 C 376.018 327.580, 383.265 331.718, 393.255 336.750 C 400.992 340.646, 401.411 340.598, 414.883 334.257 C 420.208 331.751, 421.881 330.538, 420.883 329.907 C 419.984 329.337, 421.260 329.025, 424.527 329.015 C 427.436 329.006, 430.492 328.344, 431.777 327.443 C 433.814 326.017, 434 325.077, 433.999 316.193 L 433.997 306.500 439.391 306.836 C 444.539 307.157, 444.870 307.028, 446.642 303.997 C 447.664 302.250, 449.850 300.223, 451.500 299.492 C 454.251 298.274, 453.648 298.156, 444.250 298.082 L 434 298 433.889 282.250 C 433.828 273.587, 433.824 265.600, 433.880 264.500 C 433.935 263.400, 433.197 261.576, 432.239 260.446 C 430.575 258.484, 409 247.543, 409 248.661 C 409 248.957, 412.399 252.436, 416.554 256.394 C 423.717 263.216, 424.053 263.732, 423.054 266.359 C 422.474 267.883, 422 275.593, 422 283.492 L 422 297.853 413.498 298.177 L 404.995 298.500 404.998 289.193 C 405 280.143, 403.618 271.478, 401.864 269.550 C 401.353 268.988, 401 269.498, 401 270.800 C 401 272.010, 400.550 273, 400 273 C 399.450 273, 399 273.620, 399 274.378 C 399 275.135, 398.325 276.315, 397.500 277 C 396.355 277.950, 396 280.542, 396 287.938 L 396 297.631 387.500 297.865 L 379 298.099 379 281.581 C 379 266.743, 379.214 264.651, 381.101 261.031 C 382.256 258.814, 383.606 257, 384.101 257 C 384.595 257, 385 256.523, 385 255.941 C 385 255.359, 384.550 255.160, 384 255.500 C 383.450 255.840, 383 255.862, 383 255.550 C 383 255.237, 385.250 253.597, 388 251.905 C 390.750 250.213, 393 248.642, 393 248.414 C 393 247.855, 393.540 247.649, 384 251.836 M 369.349 291 C 369.349 295.675, 369.522 297.587, 369.732 295.250 C 369.943 292.913, 369.943 289.087, 369.732 286.750 C 369.522 284.413, 369.349 286.325, 369.349 291 M 406 315.311 L 406 328.022 414 324 L 422 319.978 422 313.096 C 422 305.220, 421.773 305, 413.618 305 C 410.748 305, 407.860 304.460, 407.200 303.800 C 406.267 302.867, 406 305.425, 406 315.311" stroke="none" fill="#fffcfc" fill-rule="evenodd"/><path d="" stroke="none" fill="#fcfcfc" fill-rule="evenodd"/></svg>