<svg xmlns="http://www.w3.org/2000/svg" width="256" height="53" viewBox="0 0 256 53" version="1.1"><path d="M 169.449 12.339 C 171.104 13.549, 171.122 13.739, 169.640 14.308 C 168.738 14.654, 168 14.484, 168 13.929 C 168 13.375, 167.371 13.501, 166.603 14.211 C 165.412 15.310, 165.441 15.634, 166.800 16.410 C 167.836 17.001, 168.524 16.928, 168.767 16.199 C 168.983 15.551, 170.482 15.267, 172.320 15.526 C 175.266 15.940, 175.316 15.901, 173 15 C 170.895 14.181, 171.053 14.128, 174 14.664 C 180.005 15.757, 185 15.837, 185 14.839 C 185 14.313, 185.498 14.190, 186.107 14.566 C 186.907 15.061, 186.894 15.447, 186.059 15.963 C 185.232 16.475, 185.343 17.040, 186.453 17.961 C 187.316 18.677, 187.942 20.628, 187.868 22.372 L 187.737 25.500 187 22 C 186.281 18.582, 186.262 18.571, 186.202 21.500 C 186.168 23.150, 186.505 25.400, 186.951 26.500 C 187.633 28.184, 187.878 27.896, 188.506 24.673 C 188.955 22.367, 188.813 19.884, 188.147 18.423 C 187.466 16.929, 187.418 16, 188.021 16 C 188.560 16, 189 16.525, 189 17.167 C 189 17.808, 189.280 18.054, 189.622 17.712 C 189.964 17.370, 188.922 15.768, 187.306 14.152 C 184.938 11.784, 184.010 11.415, 182.523 12.247 C 181.226 12.973, 180.131 12.939, 178.839 12.131 C 177.438 11.257, 176.523 11.281, 175 12.232 C 173.407 13.227, 172.596 13.229, 171.014 12.241 C 168.350 10.577, 167.144 10.653, 169.449 12.339 M 15.667 12.667 C 13.873 14.460, 15.581 15.066, 21.670 14.796 C 25.893 14.608, 28.492 14.041, 28.754 13.250 C 29.055 12.337, 27.437 12, 22.750 12 C 19.221 12, 16.033 12.300, 15.667 12.667 M 28.230 18.490 C 24.093 24.979, 24.064 25, 19.417 25 C 15.470 25, 14.939 24.779, 15.952 23.558 C 16.610 22.765, 18.543 21.977, 20.247 21.808 C 21.952 21.639, 23.531 20.938, 23.756 20.250 C 24.054 19.343, 22.514 19, 18.142 19 C 12.416 19, 9.411 20.400, 11.872 21.921 C 12.679 22.420, 12.582 23.170, 11.532 24.559 C 10.724 25.627, 10.049 26.837, 10.032 27.250 C 10.014 27.663, 13.713 27.999, 18.250 27.998 L 26.500 27.996 29.384 23.432 C 31.310 20.383, 32.600 19.200, 33.269 19.869 C 33.939 20.539, 33.665 21.474, 32.446 22.686 C 30.680 24.441, 30.727 24.510, 33.868 24.818 C 35.653 24.992, 37.362 25.780, 37.664 26.568 C 38.168 27.881, 42 28.683, 42 27.475 C 42 26.939, 34.188 14.114, 33.024 12.740 C 32.670 12.322, 30.512 14.909, 28.230 18.490 M 175.605 12.831 C 175.320 13.290, 175.631 13.709, 176.294 13.761 C 176.957 13.813, 178.625 14.118, 180 14.439 C 181.375 14.760, 181.825 14.731, 181 14.376 C 180.175 14.021, 178.740 13.339, 177.811 12.862 C 176.882 12.385, 175.889 12.371, 175.605 12.831 M 183.500 13 C 183.160 13.550, 183.359 14, 183.941 14 C 184.523 14, 185 13.550, 185 13 C 185 12.450, 184.802 12, 184.559 12 C 184.316 12, 183.840 12.450, 183.500 13 M 172 16.863 C 168.685 17.466, 168.471 17.752, 167.954 22.250 C 167.654 24.863, 167.770 27, 168.213 27 C 168.655 27, 168.471 27.875, 167.803 28.944 C 166.799 30.551, 166.911 31.245, 168.449 32.944 C 169.473 34.075, 169.806 35, 169.190 35 C 166.878 35, 165.979 31.079, 166.645 23.910 C 167.182 18.129, 167.050 16.817, 165.969 17.177 C 165.230 17.423, 164.450 18.272, 164.236 19.063 C 163.920 20.232, 164.046 20.220, 164.909 19 C 165.721 17.851, 165.969 18.552, 165.969 22 C 165.969 24.475, 165.631 25.968, 165.218 25.318 C 164.805 24.669, 164.541 26.383, 164.633 29.129 C 164.735 32.188, 165.445 34.834, 166.468 35.964 C 168.808 38.551, 177.197 41.225, 178.500 39.800 C 179.198 39.036, 179.019 38.873, 177.909 39.260 C 177.034 39.565, 175.684 39.410, 174.909 38.916 C 174.014 38.344, 175.323 38.183, 178.500 38.474 C 182.130 38.806, 183.030 38.658, 181.784 37.935 C 180.840 37.387, 177.690 37.143, 174.784 37.392 C 171.345 37.687, 170.198 37.548, 171.500 36.993 L 173.500 36.141 171.500 36.030 C 169.796 35.935, 170.018 35.475, 173 32.922 C 176.435 29.981, 177.161 26.890, 174.956 24.592 C 173.665 23.248, 171.007 25.854, 171.734 27.750 C 172.265 29.133, 172.454 29.088, 173.105 27.427 C 173.762 25.749, 173.868 25.824, 173.930 28.009 C 173.973 29.539, 173.170 31.037, 171.874 31.847 C 169.856 33.107, 169.770 33.018, 170.197 30.112 C 170.444 28.427, 170.222 26.907, 169.704 26.735 C 169.186 26.562, 171.271 24.526, 174.338 22.210 C 179.880 18.026, 181.682 17.087, 180.500 19 C 180.160 19.550, 180.359 20, 180.941 20 C 181.523 20, 182 20.702, 182 21.559 C 182 22.463, 182.475 22.825, 183.130 22.420 C 183.803 22.004, 184.081 22.257, 183.817 23.048 C 183.104 25.189, 181 25.340, 181 23.250 C 181 20.581, 180.048 19.904, 177.906 21.050 C 176.741 21.674, 176.306 22.635, 176.712 23.692 C 177.278 25.168, 177.434 25.138, 178.105 23.427 C 178.730 21.830, 178.871 21.981, 178.930 24.309 C 178.971 25.941, 178.581 26.859, 178 26.500 C 177.450 26.160, 177 26.584, 177 27.441 C 177 29.624, 178.016 29.360, 181.685 26.223 C 183.680 24.518, 184.988 22.379, 185.185 20.500 C 185.458 17.904, 185.163 17.486, 183 17.396 C 181.625 17.339, 179.375 17.053, 178 16.760 C 176.625 16.467, 173.925 16.513, 172 16.863 M 179.211 29.581 C 175.795 32.119, 173 34.602, 173 35.098 C 173 35.594, 174.546 36, 176.435 36 C 178.324 36, 181.020 36.437, 182.425 36.972 C 184.215 37.652, 184.909 37.614, 184.741 36.847 C 184.608 36.243, 185.125 35.523, 185.889 35.245 C 186.819 34.907, 187.042 35.196, 186.563 36.120 C 186.170 36.879, 186.737 36.493, 187.824 35.263 C 189.025 33.903, 189.800 31.589, 189.800 29.365 C 189.800 26.916, 189.516 26.165, 188.942 27.094 C 188.469 27.858, 188.304 29.612, 188.573 30.992 C 188.842 32.371, 188.244 31.580, 187.243 29.233 L 185.422 24.965 179.211 29.581 M 163.195 29.500 C 163.215 31.150, 163.439 31.704, 163.693 30.731 C 163.947 29.758, 163.930 28.408, 163.656 27.731 C 163.382 27.054, 163.175 27.850, 163.195 29.500 M 9 32 C 9 33.111, 9.667 34, 10.500 34 C 11.325 34, 12 34.498, 12 35.107 C 12 35.716, 11.325 35.955, 10.500 35.638 C 9.675 35.322, 9 35.530, 9 36.101 C 9 37.581, 13.256 36.764, 13.777 35.184 C 14.016 34.460, 13.263 33.620, 12.105 33.317 C 10.947 33.014, 10 32.339, 10 31.816 C 10 31.293, 10.956 31.169, 12.125 31.540 C 13.555 31.994, 14.027 31.852, 13.566 31.107 C 12.362 29.158, 9 29.816, 9 32 M 15 33.571 C 15 36.727, 15.173 36.970, 16.482 35.661 C 17.297 34.846, 18.503 33.999, 19.162 33.779 C 21.062 33.146, 19.288 30, 17.031 30 C 15.369 30, 15 30.648, 15 33.571 M 21 33.500 C 21 36.702, 21.270 37.101, 23.250 36.820 C 25.012 36.569, 25.500 35.850, 25.500 33.500 C 25.500 31.150, 25.012 30.431, 23.250 30.180 C 21.270 29.899, 21 30.298, 21 33.500 M 27 33.430 C 27 35.394, 27.450 37, 28 37 C 28.550 37, 29 36.495, 29 35.878 C 29 35.072, 29.400 35.087, 30.415 35.929 C 31.590 36.905, 31.802 36.544, 31.665 33.802 C 31.535 31.201, 31.023 30.432, 29.250 30.180 C 27.277 29.900, 27 30.301, 27 33.430 M 33.817 33.559 C 34.311 37.789, 36 38.130, 36 34 C 36 30.839, 37.386 29.959, 38.362 32.500 C 38.678 33.325, 39.626 34, 40.469 34 C 41.311 34, 42 34.480, 42 35.067 C 42 35.701, 41.136 35.860, 39.875 35.460 C 38.445 35.006, 37.973 35.148, 38.434 35.893 C 39.638 37.842, 43 37.184, 43 35 C 43 33.889, 42.333 33, 41.500 33 C 40.675 33, 40 32.502, 40 31.893 C 40 31.284, 40.675 31.045, 41.500 31.362 C 42.325 31.678, 43 31.545, 43 31.065 C 43 30.585, 40.843 30.175, 38.208 30.155 L 33.415 30.118 33.817 33.559 M 16 32 C 16 32.550, 16.450 33, 17 33 C 17.550 33, 18 32.550, 18 32 C 18 31.450, 17.550 31, 17 31 C 16.450 31, 16 31.450, 16 32 M 22 33.500 C 22 34.875, 22.450 36, 23 36 C 23.550 36, 24 34.875, 24 33.500 C 24 32.125, 23.550 31, 23 31 C 22.450 31, 22 32.125, 22 33.500 M 29 32 C 29 32.550, 29.477 33, 30.059 33 C 30.641 33, 30.840 32.550, 30.500 32 C 30.160 31.450, 29.684 31, 29.441 31 C 29.198 31, 29 31.450, 29 32 M 186.015 31.718 C 186.007 32.388, 184.762 33.607, 183.250 34.428 C 181.501 35.377, 181.092 35.934, 182.128 35.960 C 183.023 35.982, 184.333 35.304, 185.039 34.453 C 186.065 33.217, 186.489 33.166, 187.146 34.203 C 187.599 34.916, 187.969 35.050, 187.969 34.500 C 187.969 33.950, 187.533 32.825, 187 32 C 186.388 31.052, 186.025 30.948, 186.015 31.718 M 166.722 35.050 C 167.944 36.337, 169.138 37.189, 169.374 36.944 C 169.611 36.700, 168.611 35.648, 167.152 34.606 L 164.500 32.712 166.722 35.050" stroke="none" fill="#252525" fill-rule="evenodd"/><path d="M 14.220 2.578 C 4.934 7.205, 0.044 15.285, 0.044 26 C 0.044 33.393, 2.032 38.689, 6.880 44.211 C 14.092 52.425, 27.622 54.862, 37.590 49.743 C 43.314 46.803, 48.514 41.401, 50.748 36.073 C 54.272 27.669, 51.718 14.580, 45.196 7.624 C 37.970 -0.086, 24.099 -2.345, 14.220 2.578 M 203.500 11.888 C 199.986 12.799, 194.356 15.614, 193.599 16.840 C 193.309 17.310, 194.385 18.953, 195.991 20.491 C 198.831 23.212, 198.982 23.242, 201.504 21.589 C 203.181 20.491, 205.583 19.999, 208.299 20.200 L 212.500 20.510 206.680 22.460 C 198.141 25.320, 193.943 29.326, 193.275 35.252 L 192.740 40 208.370 40 L 224 40 224 36 L 224 32 215.250 31.929 L 206.500 31.857 212.500 29.844 C 221.702 26.757, 224.732 22.678, 222.379 16.545 C 220.979 12.897, 210.027 10.195, 203.500 11.888 M 234.500 12.394 C 230.392 13.688, 225.975 16.086, 226.032 16.991 C 226.049 17.271, 227.201 18.794, 228.591 20.375 C 231.103 23.232, 231.140 23.239, 234.310 21.539 C 236.203 20.523, 238.923 19.983, 241 20.212 C 244.676 20.617, 244.602 20.674, 236.741 23.476 C 229.631 26.010, 226 30.101, 226 35.577 L 226 40 241 40 L 256 40 256 36 L 256 32 247.750 31.948 L 239.500 31.896 246 29.488 C 249.575 28.164, 253.287 26.112, 254.250 24.929 C 258.346 19.895, 254.868 13.781, 246.942 12.081 C 240.793 10.762, 239.582 10.793, 234.500 12.394 M 15.667 12.667 C 13.873 14.460, 15.581 15.066, 21.670 14.796 C 25.893 14.608, 28.492 14.041, 28.754 13.250 C 29.055 12.337, 27.437 12, 22.750 12 C 19.221 12, 16.033 12.300, 15.667 12.667 M 28.230 18.490 C 24.093 24.979, 24.064 25, 19.417 25 C 15.470 25, 14.939 24.779, 15.952 23.558 C 16.610 22.765, 18.543 21.977, 20.247 21.808 C 21.952 21.639, 23.531 20.938, 23.756 20.250 C 24.054 19.343, 22.514 19, 18.142 19 C 12.416 19, 9.411 20.400, 11.872 21.921 C 12.679 22.420, 12.582 23.170, 11.532 24.559 C 10.724 25.627, 10.049 26.837, 10.032 27.250 C 10.014 27.663, 13.713 27.999, 18.250 27.998 L 26.500 27.996 29.384 23.432 C 31.310 20.383, 32.600 19.200, 33.269 19.869 C 33.939 20.539, 33.665 21.474, 32.446 22.686 C 30.680 24.441, 30.727 24.510, 33.868 24.818 C 35.653 24.992, 37.362 25.780, 37.664 26.568 C 38.168 27.881, 42 28.683, 42 27.475 C 42 26.939, 34.188 14.114, 33.024 12.740 C 32.670 12.322, 30.512 14.909, 28.230 18.490 M 56 12.878 C 56 13.360, 56.675 14.315, 57.500 15 C 58.679 15.979, 59 18.785, 59 28.122 L 59 40 64.500 40 L 70 40 70 33.277 L 70 26.554 76.837 33.338 C 83.611 40.060, 83.719 40.120, 88.587 39.811 L 93.500 39.500 93.500 26 L 93.500 12.500 87.750 12.200 L 82 11.900 82 18.121 L 82 24.341 76.416 18.170 L 70.832 12 63.416 12 C 59.337 12, 56 12.395, 56 12.878 M 95.436 13.305 C 95.161 14.023, 95.062 20.211, 95.218 27.055 L 95.500 39.500 101.250 39.800 L 107 40.100 107 35.050 L 107 30 113 30 L 119 30 119 35 L 119 40 124.500 40 L 130 40 130 26 L 130 12 124.500 12 L 119 12 119 16.500 L 119 21 113 21 L 107 21 107 16.500 L 107 12 101.469 12 C 97.841 12, 95.765 12.449, 95.436 13.305 M 132 26 L 132 40 146 40 L 160 40 160 35.500 L 160 31 152 31 L 144 31 144 21.500 L 144 12 138 12 L 132 12 132 26 M 168 13.594 C 168 14.470, 167.213 15.396, 166.250 15.650 C 164.779 16.039, 164.469 17.455, 164.307 24.516 C 164.122 32.607, 164.219 33.007, 166.928 35.286 C 169.437 37.397, 170.623 37.632, 177.871 37.459 C 184.177 37.308, 186 37.571, 186 38.632 C 186 39.384, 186.675 40, 187.500 40 C 188.325 40, 189 39.325, 189 38.500 C 189 37.675, 188.270 37, 187.378 37 C 186.171 37, 186.028 36.671, 186.820 35.717 C 188.282 33.955, 190.195 28.762, 189.142 29.412 C 188.673 29.702, 188.347 26.946, 188.418 23.288 C 188.527 17.621, 188.212 16.303, 186.292 14.383 C 185.052 13.143, 183.778 12.550, 183.460 13.065 C 183.142 13.579, 183.359 14, 183.941 14 C 185.747 14, 185.103 15.660, 183.250 15.780 C 179.735 16.008, 174.960 14.874, 175.533 13.947 C 175.902 13.349, 176.819 13.368, 177.995 13.997 C 179.025 14.549, 180.461 14.980, 181.184 14.955 C 181.908 14.930, 181.150 14.328, 179.500 13.618 C 177.307 12.674, 176.029 12.616, 174.750 13.404 C 173.472 14.191, 172.464 14.147, 171.014 13.241 C 168.426 11.625, 168 11.675, 168 13.594 M 167.500 15.811 C 165.877 17.182, 165.448 18.943, 165.224 25.157 C 164.965 32.362, 165.102 32.935, 167.540 34.852 C 169.675 36.532, 171.042 36.787, 175.315 36.305 C 181.041 35.659, 186 33.572, 186 31.808 C 186 31.180, 186.289 30.956, 186.643 31.309 C 187.513 32.180, 185.040 35.033, 182.535 36.048 C 181.125 36.620, 180.980 36.893, 182.061 36.937 C 182.920 36.971, 184.545 36.141, 185.672 35.091 C 187.453 33.432, 187.693 32.120, 187.509 25.073 C 187.392 20.613, 187.044 16.710, 186.734 16.401 C 186.425 16.091, 185.273 16.319, 184.175 16.906 C 182.714 17.688, 181.150 17.617, 178.340 16.640 C 171.243 14.172, 169.590 14.046, 167.500 15.811 M 168.399 16.333 C 167.794 17.028, 166.981 20.812, 166.594 24.743 C 165.962 31.156, 166.101 32.101, 167.945 33.945 C 170.045 36.045, 173 36.720, 173 35.098 C 173 34.602, 175.802 32.114, 179.227 29.569 C 184.655 25.536, 185.535 25.170, 186.091 26.721 C 186.441 27.699, 186.604 26.102, 186.453 23.172 C 186.136 17.033, 185.521 15.628, 185.194 20.293 C 185.038 22.512, 183.972 24.339, 181.734 26.223 C 178.006 29.362, 177 29.621, 177 27.441 C 177 26.584, 177.450 26.160, 178 26.500 C 178.581 26.859, 178.971 25.941, 178.930 24.309 C 178.871 21.981, 178.730 21.830, 178.105 23.427 C 177.434 25.138, 177.278 25.168, 176.712 23.692 C 176.306 22.635, 176.741 21.674, 177.906 21.050 C 180.048 19.904, 181 20.581, 181 23.250 C 181 25.340, 183.104 25.189, 183.817 23.048 C 184.081 22.257, 183.803 22.004, 183.130 22.420 C 182.475 22.825, 182 22.463, 182 21.559 C 182 20.702, 181.523 20, 180.941 20 C 180.359 20, 180.160 19.550, 180.500 19 C 181.682 17.087, 179.880 18.026, 174.338 22.210 C 171.271 24.526, 169.186 26.562, 169.704 26.735 C 170.222 26.907, 170.444 28.427, 170.197 30.112 C 169.770 33.018, 169.856 33.107, 171.874 31.847 C 173.170 31.037, 173.973 29.539, 173.930 28.009 C 173.868 25.824, 173.762 25.749, 173.105 27.427 C 172.454 29.088, 172.265 29.133, 171.734 27.750 C 171.057 25.985, 173.367 23.491, 174.837 24.399 C 175.345 24.713, 175.977 26.097, 176.240 27.474 C 176.612 29.423, 176 30.525, 173.478 32.449 L 170.238 34.920 168.413 32.904 C 166.908 31.241, 166.801 30.548, 167.803 28.944 C 168.471 27.875, 168.655 27, 168.213 27 C 167.770 27, 167.654 24.863, 167.954 22.250 C 168.472 17.747, 168.682 17.468, 172 16.882 C 173.925 16.542, 174.749 16.204, 173.832 16.132 C 172.914 16.059, 171.564 15.791, 170.832 15.534 C 170.099 15.278, 169.005 15.638, 168.399 16.333 M 9 32 C 9 33.111, 9.667 34, 10.500 34 C 11.325 34, 12 34.498, 12 35.107 C 12 35.716, 11.325 35.955, 10.500 35.638 C 9.675 35.322, 9 35.530, 9 36.101 C 9 37.581, 13.256 36.764, 13.777 35.184 C 14.016 34.460, 13.263 33.620, 12.105 33.317 C 10.947 33.014, 10 32.339, 10 31.816 C 10 31.293, 10.956 31.169, 12.125 31.540 C 13.555 31.994, 14.027 31.852, 13.566 31.107 C 12.362 29.158, 9 29.816, 9 32 M 15 33.571 C 15 36.727, 15.173 36.970, 16.482 35.661 C 17.297 34.846, 18.503 33.999, 19.162 33.779 C 21.062 33.146, 19.288 30, 17.031 30 C 15.369 30, 15 30.648, 15 33.571 M 21 33.500 C 21 36.702, 21.270 37.101, 23.250 36.820 C 25.012 36.569, 25.500 35.850, 25.500 33.500 C 25.500 31.150, 25.012 30.431, 23.250 30.180 C 21.270 29.899, 21 30.298, 21 33.500 M 27 33.430 C 27 35.394, 27.450 37, 28 37 C 28.550 37, 29 36.495, 29 35.878 C 29 35.072, 29.400 35.087, 30.415 35.929 C 31.590 36.905, 31.802 36.544, 31.665 33.802 C 31.535 31.201, 31.023 30.432, 29.250 30.180 C 27.277 29.900, 27 30.301, 27 33.430 M 33.817 33.559 C 34.311 37.789, 36 38.130, 36 34 C 36 30.839, 37.386 29.959, 38.362 32.500 C 38.678 33.325, 39.626 34, 40.469 34 C 41.311 34, 42 34.480, 42 35.067 C 42 35.701, 41.136 35.860, 39.875 35.460 C 38.445 35.006, 37.973 35.148, 38.434 35.893 C 39.638 37.842, 43 37.184, 43 35 C 43 33.889, 42.333 33, 41.500 33 C 40.675 33, 40 32.502, 40 31.893 C 40 31.284, 40.675 31.045, 41.500 31.362 C 42.325 31.678, 43 31.545, 43 31.065 C 43 30.585, 40.843 30.175, 38.208 30.155 L 33.415 30.118 33.817 33.559 M 16 32 C 16 32.550, 16.450 33, 17 33 C 17.550 33, 18 32.550, 18 32 C 18 31.450, 17.550 31, 17 31 C 16.450 31, 16 31.450, 16 32 M 22 33.500 C 22 34.875, 22.450 36, 23 36 C 23.550 36, 24 34.875, 24 33.500 C 24 32.125, 23.550 31, 23 31 C 22.450 31, 22 32.125, 22 33.500 M 29 32 C 29 32.550, 29.477 33, 30.059 33 C 30.641 33, 30.840 32.550, 30.500 32 C 30.160 31.450, 29.684 31, 29.441 31 C 29.198 31, 29 31.450, 29 32 M 175.051 39.031 C 176.105 39.683, 180 39.226, 180 38.450 C 180 38.276, 178.623 38.173, 176.940 38.221 C 175.238 38.269, 174.400 38.629, 175.051 39.031" stroke="none" fill="#f7f7f7" fill-rule="evenodd"/></svg>