<svg xmlns="http://www.w3.org/2000/svg" width="1360" height="448" viewBox="0 0 1360 448" version="1.1"><path d="M 659.803 39.746 C 665.470 39.925, 674.470 39.924, 679.803 39.745 C 685.136 39.565, 680.500 39.419, 669.500 39.420 C 658.500 39.421, 654.136 39.568, 659.803 39.746 M 628.149 93.066 C 626.417 95.853, 625 98.553, 625 99.066 C 625 99.619, 635.120 100, 649.826 100 L 674.651 100 676.641 97.750 C 677.735 96.513, 679.436 94.206, 680.421 92.624 C 681.892 90.260, 681.970 89.596, 680.855 88.890 C 680.110 88.417, 668.655 88.024, 655.399 88.015 L 631.299 88 628.149 93.066 M 682.930 105.647 C 677.193 114.855, 670.236 126.014, 667.470 130.444 L 662.440 138.500 645.507 138.775 C 636.193 138.926, 627.927 138.802, 627.137 138.499 C 625.973 138.052, 626.090 137.527, 627.755 135.724 C 628.885 134.501, 630.677 131.925, 631.738 130 L 633.666 126.500 643.083 126.251 C 648.262 126.114, 653.473 125.778, 654.662 125.504 C 656.667 125.042, 663 116.279, 663 113.967 C 663 113.317, 654.643 113.058, 639.250 113.232 L 615.500 113.500 612.250 118.363 C 607.696 125.177, 607.901 126.384, 613.500 125.753 C 616.079 125.462, 618 125.658, 618 126.212 C 618 126.744, 614.853 132.426, 611.006 138.839 L 604.013 150.500 634.756 150.780 C 651.665 150.934, 666.468 150.824, 667.650 150.536 C 669.098 150.183, 673.047 144.868, 679.746 134.256 C 685.216 125.590, 690.447 117.037, 691.371 115.250 C 692.295 113.463, 693.468 112, 693.977 112 C 694.487 112, 696.682 115.036, 698.857 118.747 L 702.810 125.495 698.715 126.497 C 695.212 127.355, 694.156 128.294, 691.400 133 L 688.178 138.500 699.299 138.785 C 711.672 139.101, 712.111 139.300, 716.765 146.666 L 719.500 150.996 726.250 150.998 C 729.962 150.999, 733 150.721, 733 150.381 C 733 148.713, 698.639 94.379, 695.576 91.203 L 693.360 88.905 682.930 105.647 M 567.336 123 C 567.336 127.125, 567.513 128.813, 567.728 126.750 C 567.944 124.688, 567.944 121.313, 567.728 119.250 C 567.513 117.188, 567.336 118.875, 567.336 123 M 772.425 143 C 772.425 154.825, 772.569 159.662, 772.746 153.750 C 772.923 147.838, 772.923 138.162, 772.746 132.250 C 772.569 126.338, 772.425 131.175, 772.425 143 M 566.992 160.795 L 567.483 169.500 567.786 161.595 C 567.953 157.247, 567.732 153.330, 567.295 152.890 C 566.858 152.450, 566.721 156.008, 566.992 160.795 M 606.039 159.275 C 602.945 160.841, 601.512 166.550, 603.460 169.555 C 604.595 171.309, 606.992 172.376, 614.817 174.612 C 615.605 174.837, 616.007 176.095, 615.817 177.744 C 615.399 181.379, 611.279 181.954, 606.558 179.036 C 602.642 176.616, 601.003 177.769, 603.016 181.529 C 605.498 186.168, 612.169 187.019, 617.750 183.409 C 619.449 182.310, 619.983 181.041, 619.930 178.227 C 619.812 172.005, 618.782 170.603, 613.489 169.465 C 608.003 168.285, 605.887 166.046, 607.930 163.584 C 609.840 161.283, 613.734 161.643, 616.462 164.372 C 618.675 166.584, 618.867 166.618, 619.323 164.872 C 620.278 161.221, 618.970 159.257, 615.164 158.628 C 610.017 157.777, 608.834 157.861, 606.039 159.275 M 627.667 158.667 C 627.300 159.033, 627 164.572, 627 170.976 C 627 179.447, 627.386 183.146, 628.418 184.557 C 630.402 187.271, 631.446 185.711, 631.126 180.512 L 630.854 176.088 635.994 175.406 C 642.500 174.543, 644.486 172.002, 643.751 165.481 C 643.017 158.972, 641.821 158, 634.544 158 C 631.128 158, 628.033 158.300, 627.667 158.667 M 653.312 158.955 C 650.731 160.057, 649.014 165.373, 649.006 172.282 C 648.994 182.564, 654.042 187.503, 662.097 185.089 C 664.922 184.243, 666.397 183.104, 667.138 181.196 C 668.694 177.190, 667.724 162.296, 665.780 160.352 C 663.906 158.478, 656.397 157.636, 653.312 158.955 M 674.667 158.667 C 674.300 159.033, 674 165.060, 674 172.060 C 674 182.770, 674.252 184.883, 675.590 185.396 C 678.218 186.405, 679 185.137, 679 179.871 C 679 175.306, 679.192 174.889, 681.158 175.180 C 682.563 175.388, 684.256 177.246, 686.006 180.500 C 687.485 183.250, 689.327 185.500, 690.098 185.500 C 691.599 185.500, 691.586 185.220, 689.786 178.490 C 688.869 175.061, 688.883 173.587, 689.850 171.780 C 692.456 166.912, 691.217 160.413, 687.407 158.965 C 684.521 157.867, 675.673 157.660, 674.667 158.667 M 696.180 160.250 C 696.415 161.898, 697.169 162.500, 699 162.500 L 701.500 162.500 702 174 C 702.464 184.667, 702.645 185.500, 704.500 185.500 C 706.355 185.500, 706.536 184.667, 707 174.011 C 707.458 163.495, 707.669 162.495, 709.500 162.202 C 713.744 161.524, 714.313 161.082, 712.990 159.488 C 712.086 158.399, 709.624 158, 703.808 158 C 696.139 158, 695.872 158.079, 696.180 160.250 M 718.975 161.565 C 717.857 164.507, 717.734 167.143, 718.609 169.423 C 719.366 171.395, 725.184 174.243, 727.585 173.817 C 730.074 173.375, 732.973 178.427, 731.230 180.170 C 730.021 181.379, 728.093 181.072, 719.750 178.340 C 717.387 177.566, 717.464 180.116, 719.893 183.116 C 721.306 184.862, 722.800 185.455, 725.784 185.455 C 733.738 185.455, 737.228 181.250, 734.964 174.392 C 733.734 170.663, 731.477 169, 727.648 169 C 723.872 169, 722 167.982, 722 165.928 C 722 161.703, 730.420 161.546, 733.580 165.712 C 734.817 167.343, 734.939 167.231, 734.968 164.450 C 735.014 160.011, 733.401 159, 726.275 159 C 720.406 159, 719.880 159.185, 718.975 161.565 M 631.451 164.337 C 631.112 165.690, 630.984 167.855, 631.167 169.148 C 631.442 171.089, 632.092 171.500, 634.891 171.500 C 639.157 171.500, 640.819 169.238, 639.444 165.303 C 638.687 163.139, 637.735 162.429, 635.266 162.189 C 632.581 161.928, 631.970 162.272, 631.451 164.337 M 654.927 164.136 C 653.237 167.294, 654.189 178.618, 656.324 180.753 C 657.898 182.327, 658.296 182.345, 660.776 180.956 C 663.289 179.549, 663.523 178.882, 663.792 172.329 C 664.017 166.843, 663.716 164.859, 662.470 163.613 C 660.170 161.312, 656.295 161.581, 654.927 164.136 M 679.667 162.667 C 678.385 163.949, 678.978 170.054, 680.439 170.615 C 682.569 171.432, 687.419 168.776, 687.847 166.558 C 688.453 163.411, 681.995 160.338, 679.667 162.667 M 175.250 279.749 C 189.413 279.906, 212.588 279.906, 226.750 279.749 C 240.913 279.593, 229.325 279.465, 201 279.465 C 172.675 279.465, 161.088 279.593, 175.250 279.749 M 309.250 279.749 C 323.413 279.906, 346.588 279.906, 360.750 279.749 C 374.913 279.593, 363.325 279.465, 335 279.465 C 306.675 279.465, 295.088 279.593, 309.250 279.749 M 517.250 279.750 C 539.663 279.900, 576.338 279.900, 598.750 279.750 C 621.163 279.600, 602.825 279.477, 558 279.477 C 513.175 279.477, 494.838 279.600, 517.250 279.750 M 721.250 279.749 C 732.663 279.909, 751.338 279.909, 762.750 279.749 C 774.163 279.588, 764.825 279.457, 742 279.457 C 719.175 279.457, 709.837 279.588, 721.250 279.749 M 852.250 279.749 C 865.862 279.906, 888.138 279.906, 901.750 279.749 C 915.362 279.592, 904.225 279.463, 877 279.463 C 849.775 279.463, 838.638 279.592, 852.250 279.749 M 978 279.694 C 996.373 280.407, 1015.774 280.436, 1015.348 279.750 C 1015.091 279.337, 1004.896 279.091, 992.691 279.201 C 980.486 279.312, 973.875 279.534, 978 279.694 M 1035.872 280.750 C 1034.661 282.295, 1034.685 282.356, 1036.078 281.270 C 1037.190 280.404, 1044.145 279.954, 1059.578 279.749 L 1081.500 279.459 1059.372 279.229 C 1039.324 279.022, 1037.116 279.164, 1035.872 280.750 M 1245.352 279.745 L 1296.204 280.018 1295.852 288.439 C 1295.659 293.071, 1295.857 296.221, 1296.294 295.440 C 1296.731 294.659, 1296.956 290.753, 1296.794 286.760 L 1296.500 279.500 1245.500 279.486 L 1194.500 279.472 1245.352 279.745 M 795.748 295.309 C 796.298 304.577, 796.754 305.380, 796.884 297.309 C 796.948 293.354, 796.636 289.893, 796.190 289.618 C 795.745 289.343, 795.546 291.903, 795.748 295.309 M 939.990 298.795 L 940.480 306.500 940.789 299.599 C 940.959 295.804, 940.739 292.337, 940.299 291.894 C 939.860 291.452, 939.720 294.558, 939.990 298.795 M 858.750 320.743 C 862.737 320.932, 869.263 320.932, 873.250 320.743 C 877.237 320.553, 873.975 320.397, 866 320.397 C 858.025 320.397, 854.763 320.553, 858.750 320.743 M 835.998 347.250 C 835.999 347.663, 842.862 347.917, 851.250 347.815 C 866.709 347.628, 864.884 347.244, 846.248 346.764 C 840.609 346.619, 835.997 346.837, 835.998 347.250 M 325 352 L 302.500 352.558 325.250 352.779 C 339.897 352.921, 348 352.644, 348 352 C 348 351.450, 347.887 351.099, 347.750 351.221 C 347.613 351.343, 337.375 351.693, 325 352 M 298.195 375.746 C 304.077 375.922, 313.977 375.923, 320.195 375.747 C 326.413 375.571, 321.600 375.427, 309.500 375.426 C 297.400 375.425, 292.313 375.569, 298.195 375.746 M 812 385.622 C 812 386.852, 812.319 386.980, 813.319 386.150 C 814.104 385.499, 820.684 384.931, 829.569 384.749 L 844.500 384.442 828.250 384.221 C 813.836 384.025, 812 384.183, 812 385.622 M 116.992 387.833 C 116.446 388.017, 116.036 388.917, 116.079 389.833 C 116.128 390.873, 116.348 391.030, 116.662 390.250 C 117.051 389.286, 125.796 388.952, 154.833 388.789 C 175.550 388.673, 188 388.451, 182.500 388.297 C 165.475 387.817, 118.038 387.482, 116.992 387.833 M 1182.684 388.748 C 1193.235 388.910, 1210.785 388.911, 1221.684 388.749 C 1232.583 388.587, 1223.950 388.455, 1202.500 388.455 C 1181.050 388.454, 1172.133 388.587, 1182.684 388.748 M 243.998 403.250 C 243.999 403.663, 249.063 403.924, 255.250 403.832 C 266.796 403.659, 265.446 403.250, 251.748 402.771 C 247.484 402.622, 243.996 402.837, 243.998 403.250 M 814.287 407.740 C 817.469 407.939, 822.419 407.937, 825.287 407.736 C 828.154 407.535, 825.550 407.372, 819.500 407.374 C 813.450 407.376, 811.104 407.541, 814.287 407.740 M 43.349 437 C 43.349 441.675, 43.522 443.587, 43.732 441.250 C 43.943 438.913, 43.943 435.087, 43.732 432.750 C 43.522 430.413, 43.349 432.325, 43.349 437" stroke="none" fill="#131213" fill-rule="evenodd"/><path d="M 646 40.918 C 645.175 41.389, 642.614 42.086, 640.308 42.465 C 638.003 42.845, 634.420 44.021, 632.347 45.078 C 630.274 46.135, 627.827 47, 626.911 47 C 625.995 47, 624.709 47.646, 624.053 48.436 C 623.398 49.225, 621.590 50.151, 620.035 50.492 C 618.480 50.834, 616.416 51.988, 615.449 53.057 C 614.481 54.126, 613.310 55, 612.845 55 C 612.380 55, 611.212 55.686, 610.250 56.525 C 609.288 57.364, 605.800 60.244, 602.500 62.926 C 594.092 69.757, 587.513 76.808, 586.465 80.111 C 586.135 81.150, 585.434 82, 584.908 82 C 584.381 82, 583.523 83.125, 583 84.500 C 582.477 85.875, 581.636 87, 581.130 87 C 579.875 87, 572.221 102.637, 570.270 109.186 C 569.400 112.109, 568.499 117.875, 568.269 122 C 568.038 126.125, 567.434 129.928, 566.925 130.450 C 565.669 131.740, 565.737 151.720, 567 152.500 C 567.550 152.840, 568 156.744, 568 161.175 C 568 169.366, 569.618 176.329, 573.116 183.198 C 574.152 185.232, 575 187.525, 575 188.293 C 575 189.061, 575.900 190.505, 577 191.500 C 578.100 192.495, 579 194.114, 579 195.096 C 579 196.078, 579.439 197.153, 579.976 197.485 C 580.512 197.817, 582.553 200.501, 584.511 203.451 C 586.469 206.400, 588.730 209.066, 589.535 209.375 C 590.341 209.684, 591 210.559, 591 211.319 C 591 212.079, 593.273 214.680, 596.051 217.100 C 598.829 219.520, 602.766 222.962, 604.801 224.749 C 606.835 226.536, 608.921 227.999, 609.436 227.999 C 609.950 228, 611.330 228.901, 612.502 230.002 C 615.763 233.065, 631.374 240.719, 635.935 241.489 C 638.165 241.866, 640.231 242.565, 640.527 243.043 C 640.822 243.521, 641.730 243.657, 642.545 243.344 C 643.359 243.032, 644.650 243.294, 645.413 243.927 C 647.704 245.829, 664.701 247.261, 676.739 246.568 C 685.347 246.071, 690.261 245.181, 697.739 242.764 C 703.107 241.028, 707.725 239.546, 708 239.470 C 708.275 239.394, 709.767 238.808, 711.315 238.166 C 712.863 237.525, 714.369 237, 714.661 237 C 715.647 237, 727.199 229.522, 730.494 226.750 C 732.293 225.238, 734.204 224, 734.741 224 C 735.972 224, 748 211.963, 748 210.731 C 748 210.230, 749.237 208.452, 750.750 206.780 C 757.569 199.241, 757.266 199.696, 763.557 187.500 C 770.749 173.556, 771.349 170.146, 771.392 143 C 771.426 121.632, 771.232 118.865, 769.257 112.500 C 766.085 102.278, 764.710 98.796, 762.750 96.027 C 761.788 94.668, 761 93.117, 761 92.581 C 761 91.277, 755.831 83.708, 754.253 82.700 C 753.564 82.260, 753 81.511, 753 81.035 C 753 79.821, 749.564 75.864, 742 68.368 C 732.992 59.441, 732.483 59, 731.175 59 C 730.538 59, 729.455 58.100, 728.768 57 C 728.081 55.900, 727.022 55, 726.414 55 C 725.807 55, 724.495 54.100, 723.500 53 C 722.505 51.900, 720.920 51, 719.980 51 C 719.039 51, 717.197 50.159, 715.885 49.130 C 714.573 48.102, 711.925 46.925, 710 46.515 C 708.075 46.105, 705.891 45.278, 705.147 44.677 C 704.403 44.076, 700.803 42.804, 697.147 41.850 C 691.856 40.469, 686.116 40.110, 669 40.088 C 657.175 40.073, 646.825 40.446, 646 40.918 M 628.149 93.066 C 626.417 95.853, 625 98.553, 625 99.066 C 625 99.619, 635.120 100, 649.826 100 L 674.651 100 676.641 97.750 C 677.735 96.513, 679.436 94.206, 680.421 92.624 C 681.892 90.260, 681.970 89.596, 680.855 88.890 C 680.110 88.417, 668.655 88.024, 655.399 88.015 L 631.299 88 628.149 93.066 M 682.930 105.647 C 677.193 114.855, 670.236 126.014, 667.470 130.444 L 662.440 138.500 645.507 138.775 C 636.193 138.926, 627.927 138.802, 627.137 138.499 C 625.973 138.052, 626.090 137.527, 627.755 135.724 C 628.885 134.501, 630.677 131.925, 631.738 130 L 633.666 126.500 643.083 126.251 C 648.262 126.114, 653.473 125.778, 654.662 125.504 C 656.667 125.042, 663 116.279, 663 113.967 C 663 113.317, 654.643 113.058, 639.250 113.232 L 615.500 113.500 612.250 118.363 C 607.696 125.177, 607.901 126.384, 613.500 125.753 C 616.079 125.462, 618 125.658, 618 126.212 C 618 126.744, 614.853 132.426, 611.006 138.839 L 604.013 150.500 634.756 150.780 C 651.665 150.934, 666.468 150.824, 667.650 150.536 C 669.098 150.183, 673.047 144.868, 679.746 134.256 C 685.216 125.590, 690.447 117.037, 691.371 115.250 C 692.295 113.463, 693.468 112, 693.977 112 C 694.487 112, 696.682 115.036, 698.857 118.747 L 702.810 125.495 698.715 126.497 C 695.212 127.355, 694.156 128.294, 691.400 133 L 688.178 138.500 699.299 138.785 C 711.672 139.101, 712.111 139.300, 716.765 146.666 L 719.500 150.996 726.250 150.998 C 729.962 150.999, 733 150.721, 733 150.381 C 733 148.713, 698.639 94.379, 695.576 91.203 L 693.360 88.905 682.930 105.647 M 606.039 159.275 C 602.945 160.841, 601.512 166.550, 603.460 169.555 C 604.595 171.309, 606.992 172.376, 614.817 174.612 C 615.605 174.837, 616.007 176.095, 615.817 177.744 C 615.399 181.379, 611.279 181.954, 606.558 179.036 C 602.642 176.616, 601.003 177.769, 603.016 181.529 C 605.498 186.168, 612.169 187.019, 617.750 183.409 C 619.449 182.310, 619.983 181.041, 619.930 178.227 C 619.812 172.005, 618.782 170.603, 613.489 169.465 C 608.003 168.285, 605.887 166.046, 607.930 163.584 C 609.840 161.283, 613.734 161.643, 616.462 164.372 C 618.675 166.584, 618.867 166.618, 619.323 164.872 C 620.278 161.221, 618.970 159.257, 615.164 158.628 C 610.017 157.777, 608.834 157.861, 606.039 159.275 M 627.667 158.667 C 627.300 159.033, 627 164.572, 627 170.976 C 627 179.447, 627.386 183.146, 628.418 184.557 C 630.402 187.271, 631.446 185.711, 631.126 180.512 L 630.854 176.088 635.994 175.406 C 642.500 174.543, 644.486 172.002, 643.751 165.481 C 643.017 158.972, 641.821 158, 634.544 158 C 631.128 158, 628.033 158.300, 627.667 158.667 M 653.312 158.955 C 650.731 160.057, 649.014 165.373, 649.006 172.282 C 648.994 182.564, 654.042 187.503, 662.097 185.089 C 664.922 184.243, 666.397 183.104, 667.138 181.196 C 668.694 177.190, 667.724 162.296, 665.780 160.352 C 663.906 158.478, 656.397 157.636, 653.312 158.955 M 674.667 158.667 C 674.300 159.033, 674 165.060, 674 172.060 C 674 182.770, 674.252 184.883, 675.590 185.396 C 678.218 186.405, 679 185.137, 679 179.871 C 679 175.306, 679.192 174.889, 681.158 175.180 C 682.563 175.388, 684.256 177.246, 686.006 180.500 C 687.485 183.250, 689.327 185.500, 690.098 185.500 C 691.599 185.500, 691.586 185.220, 689.786 178.490 C 688.869 175.061, 688.883 173.587, 689.850 171.780 C 692.456 166.912, 691.217 160.413, 687.407 158.965 C 684.521 157.867, 675.673 157.660, 674.667 158.667 M 696.180 160.250 C 696.415 161.898, 697.169 162.500, 699 162.500 L 701.500 162.500 702 174 C 702.464 184.667, 702.645 185.500, 704.500 185.500 C 706.355 185.500, 706.536 184.667, 707 174.011 C 707.458 163.495, 707.669 162.495, 709.500 162.202 C 713.744 161.524, 714.313 161.082, 712.990 159.488 C 712.086 158.399, 709.624 158, 703.808 158 C 696.139 158, 695.872 158.079, 696.180 160.250 M 718.975 161.565 C 717.857 164.507, 717.734 167.143, 718.609 169.423 C 719.366 171.395, 725.184 174.243, 727.585 173.817 C 730.074 173.375, 732.973 178.427, 731.230 180.170 C 730.021 181.379, 728.093 181.072, 719.750 178.340 C 717.387 177.566, 717.464 180.116, 719.893 183.116 C 721.306 184.862, 722.800 185.455, 725.784 185.455 C 733.738 185.455, 737.228 181.250, 734.964 174.392 C 733.734 170.663, 731.477 169, 727.648 169 C 723.872 169, 722 167.982, 722 165.928 C 722 161.703, 730.420 161.546, 733.580 165.712 C 734.817 167.343, 734.939 167.231, 734.968 164.450 C 735.014 160.011, 733.401 159, 726.275 159 C 720.406 159, 719.880 159.185, 718.975 161.565 M 631.451 164.337 C 631.112 165.690, 630.984 167.855, 631.167 169.148 C 631.442 171.089, 632.092 171.500, 634.891 171.500 C 639.157 171.500, 640.819 169.238, 639.444 165.303 C 638.687 163.139, 637.735 162.429, 635.266 162.189 C 632.581 161.928, 631.970 162.272, 631.451 164.337 M 654.927 164.136 C 653.237 167.294, 654.189 178.618, 656.324 180.753 C 657.898 182.327, 658.296 182.345, 660.776 180.956 C 663.289 179.549, 663.523 178.882, 663.792 172.329 C 664.017 166.843, 663.716 164.859, 662.470 163.613 C 660.170 161.312, 656.295 161.581, 654.927 164.136 M 679.667 162.667 C 678.385 163.949, 678.978 170.054, 680.439 170.615 C 682.569 171.432, 687.419 168.776, 687.847 166.558 C 688.453 163.411, 681.995 160.338, 679.667 162.667 M 143 281.677 C 140.525 282.461, 137.106 283.788, 135.403 284.626 C 131.008 286.789, 119.251 297.626, 118.424 300.276 C 118.043 301.499, 117.449 302.725, 117.106 303 C 116.245 303.689, 111.701 310.954, 110.225 314 C 108.989 316.553, 108.218 317.968, 106.138 321.500 C 105.490 322.600, 104.269 325.009, 103.424 326.852 C 102.579 328.696, 101.457 330.721, 100.930 331.352 C 98.867 333.824, 95.168 339.896, 94.561 341.807 C 94.210 342.914, 93.265 344.365, 92.461 345.032 C 91.658 345.699, 91 347.035, 91 348 C 91 348.965, 90.299 350.337, 89.442 351.048 C 88.585 351.759, 87.232 353.727, 86.435 355.420 C 85.638 357.114, 83.895 360.300, 82.562 362.500 C 81.228 364.700, 79.432 367.850, 78.571 369.500 C 77.709 371.150, 76.216 373.698, 75.252 375.162 C 74.288 376.626, 72.022 380.451, 70.215 383.662 C 68.409 386.873, 66.487 390.175, 65.945 391 C 65.403 391.825, 64.320 393.886, 63.538 395.580 C 62.756 397.273, 61.415 399.241, 60.558 399.952 C 59.701 400.663, 59 402.058, 59 403.051 C 59 404.044, 58.244 405.613, 57.320 406.537 C 55.740 408.117, 54.368 410.351, 50.587 417.500 C 49.714 419.150, 47.875 422.483, 46.500 424.907 C 44.399 428.611, 44 430.614, 44 437.457 C 44 442.457, 44.463 446.063, 45.200 446.800 C 47.043 448.643, 77.018 448.437, 81.532 446.551 C 83.439 445.754, 85 444.426, 85 443.601 C 85 442.775, 85.598 441.740, 86.328 441.300 C 87.058 440.860, 88.521 438.821, 89.578 436.768 C 90.635 434.716, 93.715 429.316, 96.423 424.768 C 99.131 420.221, 102.625 414.025, 104.189 411 C 105.752 407.975, 107.587 404.626, 108.266 403.558 C 113.822 394.818, 116 390.874, 116 389.548 C 116 388.697, 116.563 387.984, 117.250 387.965 C 117.938 387.946, 135.086 387.962, 155.357 387.999 C 182.043 388.049, 192.601 387.746, 193.618 386.902 C 194.391 386.260, 195.915 383.883, 197.005 381.618 C 198.095 379.353, 199.877 376.150, 200.965 374.500 C 202.053 372.850, 203.869 369.925, 205 368 C 206.131 366.075, 207.941 363.150, 209.023 361.500 C 211.289 358.044, 215 350.252, 215 348.952 C 215 346.421, 209.595 346, 177.066 346 C 158.330 346, 143 345.804, 143 345.565 C 143 344.066, 145.631 338.760, 148.570 334.331 C 150.456 331.487, 152 328.059, 152 326.711 C 152 323.222, 154.084 323.035, 194 322.941 C 212.975 322.896, 229.256 322.554, 230.180 322.180 C 232.157 321.380, 237 314.526, 237 312.527 C 237 311.766, 237.741 310.402, 238.646 309.497 C 240.556 307.587, 244 301.109, 244 299.426 C 244 298.306, 248.413 292.102, 251.477 288.916 C 252.315 288.045, 253 285.682, 253 283.666 L 253 280 200.250 280.126 C 157.639 280.228, 146.635 280.526, 143 281.677 M 275.061 282.574 C 271.520 283.936, 267.020 286.265, 265.061 287.750 C 259.233 292.167, 251.989 300.185, 251.342 302.935 C 251.009 304.346, 249.945 306.400, 248.977 307.500 C 248.009 308.600, 245.930 311.873, 244.358 314.774 C 242.786 317.674, 240.600 321.579, 239.500 323.451 C 231.346 337.325, 227 345.109, 227 345.837 C 227 346.306, 226.100 347.505, 225 348.500 C 223.900 349.495, 223 351.085, 223 352.033 C 223 352.980, 222.348 354.296, 221.551 354.958 C 220.754 355.619, 219.594 357.699, 218.974 359.580 C 218.353 361.461, 217.436 363, 216.936 363 C 216.436 363, 215.330 364.462, 214.477 366.250 C 211.916 371.622, 209.735 375.470, 208.952 376 C 208.545 376.275, 205.895 380.986, 203.063 386.469 C 200.231 391.951, 197.258 397.162, 196.457 398.047 C 195.656 398.933, 194.999 400.072, 194.999 400.579 C 194.998 401.085, 193.198 404.092, 190.999 407.261 C 188.799 410.429, 187 413.406, 187 413.876 C 187 414.346, 186.171 415.803, 185.159 417.115 C 182.111 421.063, 180.748 428.467, 181.977 434.391 C 182.807 438.388, 183.822 440.156, 186.527 442.314 C 193.566 447.930, 194.266 448, 243.758 448 L 289.264 448 292.632 445.918 C 294.484 444.774, 296 443.382, 296 442.827 C 296 442.271, 296.924 440.620, 298.053 439.158 C 301.763 434.355, 305 428.936, 305 427.527 C 305 426.766, 305.573 425.548, 306.273 424.821 C 306.973 424.095, 309.091 420.462, 310.978 416.750 C 312.865 413.038, 314.761 410, 315.191 410 C 315.621 410, 316.650 408.538, 317.477 406.750 C 319.513 402.349, 324.916 392.848, 326.433 391 C 328.946 387.939, 333.114 378.739, 332.597 377.393 C 331.856 375.462, 286.662 375.326, 284.997 377.250 C 283.027 379.525, 276.857 389.434, 274.878 393.500 C 269.778 403.981, 270.214 403.757, 254.642 403.900 L 243.783 404 244.470 401.250 C 244.847 399.738, 245.745 397.825, 246.466 397 C 247.187 396.175, 249.050 393.025, 250.607 390 C 252.164 386.975, 254.126 383.748, 254.969 382.829 C 255.811 381.910, 258.741 376.735, 261.481 371.329 C 264.220 365.923, 266.837 361.340, 267.295 361.145 C 267.754 360.950, 268.573 359.825, 269.116 358.645 C 269.659 357.465, 271.188 354.700, 272.514 352.500 C 273.840 350.300, 275.859 346.925, 277 345 C 278.141 343.075, 280.160 339.700, 281.486 337.500 C 282.812 335.300, 284.401 332.377, 285.017 331.004 C 285.633 329.632, 287.167 327.157, 288.426 325.504 L 290.715 322.500 302.857 322.809 C 315.536 323.131, 317.064 323.793, 313.458 327.399 C 312.610 328.247, 311.441 330.304, 310.861 331.970 C 310.280 333.637, 309.398 335, 308.902 335 C 308.406 335, 308 335.520, 308 336.156 C 308 336.791, 306.972 338.704, 305.716 340.406 C 304.460 342.108, 302.885 344.759, 302.216 346.297 C 299.615 352.279, 298.806 352.075, 324.695 351.963 L 348.389 351.861 350.695 348.736 C 351.963 347.018, 353 345.079, 353 344.428 C 353 343.777, 353.701 342.663, 354.558 341.952 C 355.415 341.241, 356.756 339.273, 357.538 337.580 C 359.010 334.391, 360.158 332.410, 363.210 327.790 C 364.194 326.300, 365 324.595, 365 324 C 365 323.405, 365.900 321.587, 367 319.960 C 371.506 313.291, 372.746 311.296, 375.053 307 C 376.382 304.525, 378.264 301.427, 379.235 300.115 C 380.206 298.803, 381 296.913, 381 295.915 C 381 294.916, 381.563 293.740, 382.250 293.300 C 383.736 292.349, 388 283.579, 388 281.473 C 388 280.193, 381.009 280.006, 334.750 280.049 L 281.500 280.098 275.061 282.574 M 468.399 282.372 C 465.043 283.542, 460.993 285.371, 459.399 286.436 C 455.290 289.180, 448.277 296.917, 446.912 300.212 C 446.277 301.745, 445.351 303, 444.854 303 C 444.357 303, 443.488 304.012, 442.924 305.250 C 442.359 306.488, 440.804 309.300, 439.468 311.500 C 438.133 313.700, 436.487 316.625, 435.811 318 C 435.135 319.375, 432.313 324.456, 429.541 329.291 C 426.768 334.126, 423.861 339.297, 423.079 340.783 C 422.298 342.268, 421.061 344.082, 420.329 344.813 C 419.598 345.545, 418.999 346.673, 418.999 347.321 C 418.998 347.970, 417.251 351.016, 415.117 354.090 C 412.982 357.165, 410.941 360.612, 410.579 361.750 C 410.218 362.888, 409.265 364.365, 408.461 365.032 C 407.658 365.699, 407 367.021, 407 367.969 C 407 368.918, 406.100 370.732, 405 372 C 403.900 373.268, 402.999 374.800, 402.999 375.403 C 402.998 376.006, 401.303 378.975, 399.231 382 C 397.160 385.025, 394.901 388.625, 394.213 390 C 393.524 391.375, 391.875 394.300, 390.549 396.500 C 389.223 398.700, 387.428 401.850, 386.562 403.500 C 385.695 405.150, 383.895 408.300, 382.562 410.500 C 381.228 412.700, 379.441 415.850, 378.589 417.500 C 377.737 419.150, 376.616 421.175, 376.097 422 C 374.561 424.444, 368.876 434.178, 366.348 438.692 C 365.057 440.998, 364 444.036, 364 445.442 L 364 448 387.516 448 L 411.032 448 412.701 444.500 C 413.619 442.575, 414.731 441, 415.172 441 C 415.613 441, 416.645 439.538, 417.466 437.750 C 418.288 435.962, 419.386 433.825, 419.908 433 C 420.429 432.175, 421.104 430.825, 421.407 430 C 421.710 429.175, 423.101 426.700, 424.499 424.500 C 425.897 422.300, 427.774 418.813, 428.672 416.750 C 429.569 414.688, 430.685 413, 431.152 413 C 431.618 413, 432 412.480, 432 411.844 C 432 411.209, 433.028 409.296, 434.284 407.594 C 435.540 405.892, 437.124 403.375, 437.804 402 C 438.483 400.625, 440.125 397.700, 441.451 395.500 C 442.777 393.300, 444.572 390.150, 445.438 388.500 C 446.305 386.850, 448.113 383.700, 449.456 381.500 C 450.798 379.300, 452.372 376.454, 452.952 375.175 C 453.533 373.896, 454.681 372.176, 455.504 371.353 C 456.327 370.530, 457 369.266, 457 368.543 C 457 367.819, 458.738 364.589, 460.863 361.364 C 465.409 354.463, 470.342 345.910, 472.609 341 C 473.498 339.075, 474.512 337.275, 474.862 337 C 475.213 336.725, 476.400 334.737, 477.500 332.581 C 478.600 330.426, 479.939 327.851, 480.475 326.859 C 482.174 323.718, 486.120 322.922, 498.538 323.216 C 509.875 323.485, 510.482 323.605, 510.150 325.500 C 509.958 326.600, 509.486 327.725, 509.102 328 C 508.145 328.686, 499.923 343.120, 495.147 352.500 C 494.306 354.150, 493.030 356.095, 492.309 356.821 C 491.589 357.548, 491 358.731, 491 359.449 C 491 360.167, 490.299 361.337, 489.442 362.048 C 488.585 362.759, 487.236 364.727, 486.444 366.420 C 485.652 368.114, 484.106 370.850, 483.007 372.500 C 481.909 374.150, 480.114 377.300, 479.018 379.500 C 476.934 383.683, 475.739 385.741, 472.834 390.150 C 471.874 391.607, 470.786 394.006, 470.416 395.480 C 470.045 396.955, 469.126 398.398, 468.371 398.688 C 467.617 398.977, 467 399.809, 467 400.536 C 467 401.262, 466.402 402.455, 465.671 403.187 C 464.240 404.617, 462.052 408.409, 459.432 414 C 458.529 415.925, 457.276 418.121, 456.646 418.880 C 455.089 420.756, 449.387 430.697, 447.401 435 C 446.512 436.925, 445.158 438.860, 444.392 439.300 C 443.572 439.771, 443 441.724, 443 444.050 L 443 448 465.609 448 L 488.218 448 490.592 445.750 C 491.897 444.512, 492.973 442.993, 492.983 442.372 C 492.992 441.752, 493.675 440.685, 494.500 440 C 495.325 439.315, 496 437.754, 496 436.531 C 496 435.307, 496.919 433.247, 498.042 431.952 C 499.164 430.657, 501.495 427.131, 503.220 424.115 C 504.946 421.099, 507.852 416.363, 509.679 413.589 C 511.505 410.815, 513 408.005, 513 407.344 C 513 406.683, 513.631 405.512, 514.402 404.741 C 515.172 403.970, 517.052 400.901, 518.578 397.920 C 521.641 391.939, 536.195 367.070, 539.137 362.790 C 540.162 361.300, 541 359.682, 541 359.194 C 541 358.705, 541.900 357.268, 543 356 C 544.100 354.732, 545 353.070, 545 352.306 C 545 351.543, 545.830 349.700, 546.844 348.210 C 551.223 341.773, 554.031 337.089, 557.160 331 C 558.997 327.425, 560.950 324.169, 561.500 323.765 C 562.050 323.361, 568.688 323.024, 576.250 323.015 C 587.562 323.003, 590 323.255, 590 324.441 C 590 325.234, 589.543 326.164, 588.985 326.509 C 588.427 326.854, 587.289 328.568, 586.458 330.318 C 584.428 334.591, 582.625 337.625, 580.855 339.743 C 580.047 340.709, 578.847 342.625, 578.187 344 C 577.527 345.375, 575.857 348.300, 574.476 350.500 C 573.095 352.700, 571.521 355.546, 570.979 356.825 C 570.436 358.104, 569.319 359.824, 568.496 360.647 C 567.673 361.470, 567 362.941, 567 363.916 C 567 364.892, 566.100 366.505, 565 367.500 C 563.900 368.495, 563 370.123, 563 371.116 C 563 372.109, 562.172 373.727, 561.160 374.711 C 560.148 375.695, 559.033 377.175, 558.681 378 C 558.330 378.825, 556.905 381.300, 555.515 383.500 C 554.125 385.700, 552.288 389.013, 551.433 390.863 C 550.578 392.713, 548.732 395.958, 547.331 398.075 C 544.425 402.467, 541.797 407.074, 539.569 411.682 C 538.723 413.432, 537.567 415.150, 537 415.500 C 536.433 415.850, 535.298 417.568, 534.478 419.318 C 533.657 421.068, 531.895 424.300, 530.562 426.500 C 529.228 428.700, 527.415 431.850, 526.533 433.500 C 525.650 435.150, 524.267 437.690, 523.460 439.144 C 522.653 440.598, 521.713 443.186, 521.371 444.894 L 520.750 448 544.656 448 L 568.562 448 569.763 445.250 C 570.423 443.738, 571.760 441.306, 572.732 439.847 C 575.830 435.198, 579.521 428.604, 580.903 425.250 C 581.640 423.462, 582.608 422, 583.054 422 C 583.500 422, 584.134 421.153, 584.462 420.119 C 584.791 419.084, 585.946 417.215, 587.030 415.966 C 588.113 414.716, 589 412.889, 589 411.906 C 589 410.923, 589.456 409.836, 590.014 409.491 C 590.572 409.146, 591.935 407.207, 593.042 405.182 C 594.150 403.157, 595.933 400.150, 597.004 398.500 C 599.585 394.522, 602.568 389.237, 604.451 385.304 C 605.293 383.547, 608.388 378.097, 611.330 373.195 C 614.272 368.292, 616.980 363.655, 617.350 362.890 C 617.719 362.126, 620.032 358.350, 622.490 354.500 C 624.948 350.650, 627.871 345.700, 628.986 343.500 C 630.102 341.300, 632.179 337.475, 633.603 335 C 635.027 332.525, 637.521 327.925, 639.146 324.778 C 640.770 321.631, 642.534 318.788, 643.065 318.460 C 643.596 318.132, 644.708 316.432, 645.536 314.682 C 646.364 312.932, 648.150 309.700, 649.504 307.500 C 651.418 304.392, 651.971 302.119, 651.984 297.307 C 652.004 289.674, 649.425 284.768, 643.916 281.957 L 640.080 280 557.290 280.122 L 474.500 280.244 468.399 282.372 M 696 280.916 C 695.175 281.386, 692.989 282.093, 691.143 282.488 C 687.208 283.329, 682.688 286.243, 676.962 291.629 C 672.837 295.509, 667 303.331, 667 304.979 C 667 305.462, 666.413 306.452, 665.695 307.179 C 664.977 307.905, 662.870 311.650, 661.012 315.500 C 659.155 319.350, 657.267 322.650, 656.817 322.833 C 656.368 323.017, 656 323.649, 656 324.239 C 656 324.829, 654.940 326.704, 653.644 328.406 C 652.348 330.108, 650.968 332.512, 650.576 333.750 C 650.185 334.988, 649.490 336, 649.030 336 C 648.571 336, 647.696 337.238, 647.085 338.750 C 646.474 340.262, 644.670 343.750, 643.075 346.500 C 638.325 354.694, 636 359.305, 636 360.533 C 636 361.169, 635.063 362.538, 633.917 363.575 C 632.772 364.611, 631.191 366.819, 630.404 368.480 C 629.617 370.141, 626.959 374.650, 624.497 378.500 C 622.035 382.350, 619.759 386.175, 619.438 387 C 619.118 387.825, 618.453 389.175, 617.961 390 C 617.469 390.825, 615.139 394.814, 612.783 398.863 C 610.427 402.913, 607.511 407.863, 606.301 409.863 C 605.092 411.864, 603.598 414.624, 602.982 415.998 C 602.365 417.372, 601.229 419.195, 600.457 420.048 C 599.684 420.901, 598.357 423.571, 597.506 425.982 C 596.097 429.976, 596.107 430.813, 597.620 435.432 C 598.614 438.467, 600.796 442.004, 603.061 444.250 L 606.843 448 653.517 448 C 696.730 448, 700.388 447.867, 702.846 446.208 C 704.306 445.223, 707.300 443.535, 709.500 442.458 C 716.517 439.023, 719.450 436.137, 725.770 426.447 C 726.469 425.376, 727.757 422.925, 728.632 421 C 729.508 419.075, 730.512 417.275, 730.862 417 C 731.213 416.725, 732.300 414.925, 733.278 413 C 734.256 411.075, 737.038 406.350, 739.462 402.500 C 744.226 394.933, 748 387.872, 748 386.529 C 748 386.067, 749.125 384.214, 750.500 382.411 C 751.875 380.608, 753 378.950, 753 378.726 C 753 378.300, 760.758 365.365, 765.130 358.500 C 767.900 354.152, 770.247 349.917, 772.058 346 C 772.694 344.625, 773.611 342.825, 774.096 342 C 774.582 341.175, 775.996 338.751, 777.240 336.614 C 778.483 334.477, 779.950 332.001, 780.500 331.111 C 786.647 321.167, 789 317.115, 789 316.473 C 789 316.052, 790.575 313.334, 792.500 310.434 C 795.608 305.751, 796 304.427, 796 298.601 C 796 289.339, 793.883 284.606, 788.594 282.045 C 784.533 280.080, 782.680 280.001, 740.934 280.030 C 717.045 280.047, 696.825 280.445, 696 280.916 M 824.737 281.250 C 823.831 281.938, 821.706 285.200, 820.012 288.500 C 818.319 291.800, 816.048 295.850, 814.965 297.500 C 813.882 299.150, 812.305 301.850, 811.461 303.500 C 810.616 305.150, 808.609 308.525, 807 311 C 805.391 313.475, 803.392 316.850, 802.557 318.500 C 800.926 321.725, 799.610 323.941, 796.790 328.210 C 795.806 329.700, 795 331.557, 795 332.337 C 795 333.117, 794.299 334.337, 793.442 335.048 C 792.585 335.759, 791.244 337.727, 790.462 339.420 C 789.680 341.114, 788.474 343.400, 787.782 344.500 C 787.090 345.600, 785.033 348.860, 783.211 351.745 C 781.390 354.630, 779.428 358.343, 778.852 359.995 C 778.276 361.648, 777.467 363, 777.054 363 C 776.641 363, 775.549 364.688, 774.626 366.750 C 772.787 370.860, 770.019 375.854, 767.004 380.500 C 765.933 382.150, 764.127 385.075, 762.991 387 C 761.855 388.925, 759.848 392.300, 758.531 394.500 C 757.215 396.700, 755.477 399.908, 754.671 401.628 C 753.864 403.348, 752.708 405.062, 752.102 405.437 C 751.496 405.812, 751 406.922, 751 407.904 C 751 408.886, 750.100 410.505, 749 411.500 C 747.900 412.495, 747 414.108, 747 415.084 C 747 416.059, 746.244 417.613, 745.320 418.537 C 743.653 420.204, 741.127 424.360, 739.066 428.825 C 738.475 430.104, 737.319 431.824, 736.496 432.647 C 735.673 433.470, 735 434.941, 735 435.916 C 735 436.892, 734.100 438.505, 733 439.500 C 731.759 440.623, 731 442.580, 731 444.655 L 731 448 788 448 C 822.053 448, 845 447.629, 845 447.079 C 845 446.573, 846.462 445.840, 848.250 445.449 C 850.038 445.059, 852.573 443.898, 853.885 442.870 C 855.197 441.841, 856.772 440.986, 857.385 440.968 C 858.823 440.928, 864 436.384, 864 435.163 C 864 434.650, 866.025 431.770, 868.500 428.764 C 870.975 425.757, 873 422.929, 873 422.478 C 873 422.026, 873.636 420.947, 874.414 420.079 C 875.191 419.210, 877.341 415.575, 879.192 412 C 881.043 408.425, 883.782 403.596, 885.279 401.270 C 886.775 398.943, 888 396.602, 888 396.067 C 888 395.533, 889.800 391.677, 892 387.500 C 896.114 379.688, 896.892 375.402, 894.803 372.056 C 893.790 370.433, 893.981 369.828, 896.053 368.105 C 897.399 366.985, 899.960 365.359, 901.745 364.490 C 906.495 362.178, 911.083 357.035, 914.811 349.842 C 916.619 346.354, 919.387 341.703, 920.962 339.507 C 922.537 337.312, 925.971 331.237, 928.593 326.007 C 931.215 320.778, 934.127 315.600, 935.065 314.500 C 936.003 313.400, 937.077 311.488, 937.452 310.250 C 937.828 309.012, 938.554 308, 939.067 308 C 939.580 308, 940 304.552, 940 300.338 C 940 291.269, 937.334 285.574, 931.467 282.113 L 927.886 280 877.134 280 C 838.077 280, 826.003 280.288, 824.737 281.250 M 966.588 283.860 C 965.235 286.003, 963.421 289.274, 962.557 291.128 C 961.693 292.983, 959.887 296.300, 958.544 298.500 C 957.202 300.700, 955.628 303.546, 955.048 304.825 C 954.467 306.104, 953.319 307.824, 952.496 308.647 C 951.673 309.470, 951 310.716, 951 311.416 C 951 312.117, 950.100 313.505, 949 314.500 C 947.900 315.495, 947 316.855, 947 317.520 C 947 318.186, 946.100 319.874, 945 321.273 C 943.900 322.671, 943 324.325, 943 324.948 C 943 326.024, 942.316 327.172, 937.185 334.710 C 935.983 336.475, 935 338.595, 935 339.421 C 935 340.246, 934.156 341.727, 933.124 342.711 C 932.092 343.695, 930.904 345.616, 930.483 346.981 C 929.768 349.300, 926.291 354.879, 924.862 356 C 924.512 356.275, 923.481 358.075, 922.573 360 C 920.610 364.160, 917.887 369.021, 914.451 374.500 C 913.071 376.700, 911.461 379.738, 910.873 381.250 C 910.285 382.762, 909.433 384, 908.980 384 C 908.526 384, 907.635 385.575, 907 387.500 C 906.365 389.425, 905.474 391, 905.020 391 C 904.567 391, 903.745 392.293, 903.194 393.874 C 902.643 395.454, 900.574 399.049, 898.596 401.863 C 896.618 404.677, 895 407.633, 895 408.431 C 895 409.229, 894.605 410.126, 894.122 410.425 C 893.056 411.083, 883 428.635, 883 429.837 C 883 430.306, 882.100 431.505, 881 432.500 C 879.900 433.495, 879 434.855, 879 435.520 C 879 436.186, 878.100 437.874, 877 439.273 C 875.900 440.671, 875 443.207, 875 444.908 L 875 448 898.890 448 L 922.780 448 924.936 443.750 C 930.037 433.696, 933.990 426.416, 934.959 425.292 C 935.531 424.628, 936 423.693, 936 423.214 C 936 422.277, 941.983 412.828, 943.101 412 C 943.472 411.725, 944.507 409.925, 945.401 408 C 946.295 406.075, 949.013 401.350, 951.440 397.500 C 953.867 393.650, 955.886 389.520, 955.927 388.321 C 955.967 387.123, 956.605 385.538, 957.344 384.799 C 958.083 384.060, 959.930 381.440, 961.449 378.978 C 962.968 376.515, 965.252 372.925, 966.524 371 C 967.795 369.075, 970.110 365.198, 971.668 362.383 C 974.835 356.662, 982.341 343.690, 985.699 338.137 C 986.908 336.136, 988.325 333.577, 988.848 332.449 C 989.371 331.321, 991.145 328.396, 992.791 325.949 C 994.436 323.502, 996.505 319.925, 997.389 318 C 998.273 316.075, 999.894 313.150, 1000.993 311.500 C 1002.091 309.850, 1003.886 306.700, 1004.982 304.500 C 1006.078 302.300, 1007.538 299.600, 1008.226 298.500 C 1008.913 297.400, 1010.973 294.130, 1012.803 291.233 C 1014.967 287.807, 1016.020 285.010, 1015.815 283.233 L 1015.500 280.500 992.274 280.232 L 969.048 279.963 966.588 283.860 M 1034.073 283.728 C 1032.383 285.778, 1031 287.958, 1031 288.573 C 1031 289.187, 1030.100 290.505, 1029 291.500 C 1027.900 292.495, 1027 294.071, 1027 295.002 C 1027 295.933, 1026.100 297.732, 1025 299 C 1023.900 300.268, 1022.999 301.800, 1022.999 302.403 C 1022.998 303.006, 1021.198 306.092, 1018.999 309.261 C 1016.799 312.429, 1015 315.406, 1015 315.876 C 1015 316.346, 1014.169 317.803, 1013.152 319.115 C 1012.136 320.427, 1011.003 322.738, 1010.633 324.250 C 1010.264 325.762, 1009.558 327, 1009.064 327 C 1008.571 327, 1006.748 329.813, 1005.015 333.250 C 1003.282 336.688, 1000.561 341.525, 998.969 344 C 997.377 346.475, 995.386 349.850, 994.544 351.500 C 993.702 353.150, 991.872 356.300, 990.478 358.500 C 989.083 360.700, 987.461 363.738, 986.873 365.250 C 986.285 366.762, 985.467 368, 985.054 368 C 984.641 368, 983.571 369.688, 982.675 371.750 C 980.583 376.567, 975.310 385.791, 972.884 388.874 C 971.848 390.192, 971 391.627, 971 392.064 C 971 392.501, 969.295 395.478, 967.210 398.679 C 965.126 401.881, 962.879 405.625, 962.218 407 C 961.556 408.375, 960.632 410.175, 960.165 411 C 959.698 411.825, 958.803 413.400, 958.176 414.500 C 957.549 415.600, 955.903 418.793, 954.518 421.596 C 950.030 430.680, 951.649 439.679, 958.856 445.714 L 961.500 447.928 1014.179 447.964 L 1066.858 448 1071.679 440.286 C 1077.365 431.188, 1077.809 430.458, 1080.760 425.386 C 1083.433 420.792, 1084.860 418.479, 1087.317 414.756 C 1088.316 413.243, 1088.991 410.766, 1088.817 409.252 L 1088.500 406.500 1051.250 406.238 C 1030.763 406.094, 1014 405.702, 1014 405.369 C 1014 405.035, 1015.575 402.169, 1017.500 399 C 1019.425 395.831, 1021 392.767, 1021 392.191 C 1021 391.614, 1021.563 390.548, 1022.250 389.821 C 1022.938 389.095, 1024.400 386.738, 1025.500 384.583 C 1028.032 379.625, 1030.507 375.323, 1033.027 371.500 C 1034.114 369.850, 1035.727 366.925, 1036.610 365 C 1037.493 363.075, 1038.842 361.140, 1039.608 360.700 C 1040.373 360.260, 1041.010 359.360, 1041.022 358.700 C 1041.034 358.040, 1041.924 356.375, 1043 355 C 1044.076 353.625, 1044.966 351.782, 1044.978 350.905 C 1044.990 350.028, 1045.900 348.495, 1047 347.500 C 1048.100 346.505, 1049 345.067, 1049 344.305 C 1049 343.542, 1049.835 341.700, 1050.857 340.210 C 1053.821 335.883, 1056.395 331.695, 1057.746 329 C 1058.435 327.625, 1059.881 325.150, 1060.959 323.500 C 1062.037 321.850, 1063.971 318.475, 1065.256 316 C 1072.172 302.677, 1073.462 300.351, 1074.829 298.743 C 1078.225 294.747, 1084.160 282.860, 1083.551 281.272 C 1083.175 280.294, 1077.763 280, 1060.104 280 L 1037.146 280 1034.073 283.728 M 1186.164 282.153 C 1176.377 285.613, 1167.935 293.803, 1161.066 306.500 C 1159.281 309.800, 1157.248 313.175, 1156.550 314 C 1155.056 315.764, 1148.084 327.746, 1143.849 335.827 C 1140.209 342.773, 1138.387 346.037, 1137.055 348 C 1133.996 352.507, 1131.337 356.787, 1130.221 359 C 1129.528 360.375, 1127.866 363.300, 1126.528 365.500 C 1125.190 367.700, 1123.816 370.175, 1123.476 371 C 1123.135 371.825, 1122.429 373.175, 1121.908 374 C 1121.386 374.825, 1120.269 377.009, 1119.424 378.852 C 1118.579 380.696, 1117.457 382.721, 1116.930 383.352 C 1115.079 385.569, 1111 392.097, 1111 392.841 C 1111 393.255, 1110.325 394.472, 1109.500 395.547 C 1106.135 399.929, 1103 405.168, 1103 406.410 C 1103 407.136, 1102.100 408.874, 1101 410.273 C 1099.900 411.671, 1099 413.237, 1099 413.753 C 1099 414.268, 1098.100 415.505, 1097 416.500 C 1095.900 417.495, 1095 419.108, 1095 420.084 C 1095 421.059, 1094.325 422.532, 1093.500 423.357 C 1091.699 425.159, 1091.446 435.050, 1093.118 438.316 C 1093.733 439.517, 1095.850 442.188, 1097.821 444.250 L 1101.406 448 1154.168 448 L 1206.931 448 1211.715 440.750 C 1214.347 436.762, 1217.066 432.375, 1217.758 431 C 1218.451 429.625, 1220.117 426.700, 1221.461 424.500 C 1222.805 422.300, 1224.233 419.825, 1224.635 419 C 1225.036 418.175, 1226.219 416.328, 1227.263 414.896 C 1228.387 413.353, 1229.026 411.110, 1228.830 409.396 L 1228.500 406.500 1191.749 406 C 1171.536 405.725, 1155.018 405.171, 1155.043 404.768 C 1155.143 403.110, 1158.250 396.608, 1159.574 395.283 C 1160.358 394.499, 1161 393.284, 1161 392.584 C 1161 391.883, 1161.823 390.565, 1162.829 389.655 C 1164.464 388.175, 1168.745 388, 1203.289 388 C 1232.966 388, 1242.165 387.710, 1242.975 386.750 C 1245.421 383.847, 1249 377.813, 1249 376.590 C 1249 375.864, 1249.916 374.105, 1251.035 372.682 C 1252.155 371.259, 1254.018 367.936, 1255.177 365.297 C 1256.336 362.659, 1257.619 360.275, 1258.029 360 C 1259.285 359.157, 1264 350.206, 1264 348.665 C 1264 347.867, 1263.288 346.941, 1262.418 346.607 C 1261.548 346.273, 1244.673 346, 1224.918 346 C 1186.187 346, 1186.874 346.103, 1190.790 340.885 C 1191.774 339.573, 1193.130 337.375, 1193.802 336 C 1196.568 330.346, 1200.129 324.537, 1201.276 323.808 C 1201.949 323.380, 1219.532 323.024, 1240.349 323.015 L 1278.198 323 1281.154 319.835 C 1282.781 318.094, 1284.777 315.281, 1285.592 313.585 C 1288.192 308.167, 1290.286 304.515, 1291.104 303.972 C 1293.538 302.356, 1295.957 294.057, 1295.978 287.250 L 1296 280 1243.750 280.133 C 1195.298 280.256, 1191.112 280.403, 1186.164 282.153 M 704.406 320.250 C 701.206 323.957, 698.024 328.806, 696.967 331.587 C 696.057 333.981, 691.510 341.462, 686.865 348.210 C 685.839 349.700, 685 351.405, 685 352 C 685 352.595, 684.194 354.300, 683.210 355.790 C 680.319 360.167, 679.051 362.315, 677.481 365.500 C 676.667 367.150, 674.873 370.300, 673.494 372.500 C 672.115 374.700, 670.265 378.075, 669.381 380 C 668.498 381.925, 667.472 383.725, 667.101 384 C 665.694 385.043, 660 394.402, 660 395.671 C 660 396.402, 659.594 397, 659.098 397 C 658.602 397, 657.696 398.433, 657.085 400.185 C 656.475 401.937, 655.251 404.170, 654.366 405.148 C 653.481 406.126, 653.023 407.617, 653.347 408.463 C 653.848 409.767, 656.664 410, 671.914 410 L 689.891 410 691.397 407.250 C 692.225 405.738, 693.477 403.375, 694.180 402 C 694.883 400.625, 695.995 399.160, 696.651 398.744 C 697.307 398.328, 698.139 396.643, 698.500 395 C 698.861 393.357, 699.700 391.672, 700.364 391.256 C 701.028 390.840, 703.129 387.425, 705.033 383.667 C 706.937 379.909, 709.058 376.367, 709.747 375.795 C 710.436 375.223, 711 374.131, 711 373.367 C 711 372.604, 712.595 369.710, 714.545 366.935 C 716.495 364.161, 718.544 360.903, 719.097 359.696 C 719.650 358.488, 721.092 355.853, 722.301 353.839 C 723.511 351.826, 725.978 347.551, 727.785 344.339 C 729.591 341.128, 731.509 337.825, 732.047 337 C 732.585 336.175, 733.923 333.700, 735.020 331.500 C 736.117 329.300, 738.136 325.517, 739.507 323.093 C 740.878 320.669, 742 318.531, 742 318.343 C 742 318.154, 733.978 318, 724.174 318 C 706.931 318, 706.285 318.073, 704.406 320.250 M 848.997 323.165 C 847.407 324.905, 845.539 327.718, 844.845 329.415 C 844.152 331.112, 843.003 333.095, 842.292 333.821 C 841.582 334.548, 841 335.725, 841 336.437 C 841 337.148, 840.128 338.839, 839.062 340.194 C 837.996 341.549, 836.822 343.860, 836.454 345.329 L 835.783 348 850.642 347.985 C 858.814 347.976, 866.051 347.620, 866.724 347.192 C 867.396 346.764, 868.971 344.569, 870.224 342.314 C 873.260 336.843, 879.740 325.939, 881.271 323.722 C 883.348 320.716, 880.470 320.032, 865.694 320.015 L 851.887 320 848.997 323.165 M 812 386.300 C 812 387.565, 811.498 389.102, 810.884 389.716 C 809.691 390.909, 807.841 393.953, 805.849 398 C 805.172 399.375, 803.720 401.518, 802.622 402.763 C 799.440 406.372, 801.559 407.177, 815.663 407.717 C 829.619 408.251, 833.375 407.487, 835.069 403.768 C 835.638 402.521, 837.188 399.700, 838.514 397.500 C 843.408 389.382, 845.061 385.908, 844.479 384.966 C 844.135 384.410, 837.112 384, 827.941 384 L 812 384 812 386.300" stroke="none" fill="#fbfbfb" fill-rule="evenodd"/></svg>