<svg width="250" height="50" viewBox="0 0 250 50" fill="none" xmlns="http://www.w3.org/2000/svg">
<g id="EA_Sports_FC_24_logo 2" clip-path="url(#clip0_35_648)">
<g id="Clip path group">
<mask id="mask0_35_648" style="mask-type:luminance" maskUnits="userSpaceOnUse" x="0" y="0" width="250" height="50">
<g id="clip0_1092_23022">
<path id="Vector" d="M250 0H0V49.2704H250V0Z" fill="white"/>
</g>
</mask>
<g mask="url(#mask0_35_648)">
<g id="Group">
<path id="Vector_2" d="M29.6592 2.84082C15.2453 2.84082 3.55811 12.6006 3.55811 24.6403C3.55811 36.68 15.2424 46.4399 29.6562 46.4399C44.0699 46.4399 55.7542 36.68 55.7542 24.6403C55.7542 12.6006 44.0729 2.84082 29.6592 2.84082Z" fill="black"/>
<path id="Vector_3" d="M34.0667 29.458H32.2222V31.3608H34.0667C34.2301 31.3608 34.3637 31.3112 34.4676 31.2145C34.5686 31.1127 34.6192 30.9812 34.6192 30.8249V30.0062C34.6192 29.8476 34.5716 29.7184 34.4676 29.6143C34.3667 29.5101 34.2301 29.4605 34.0667 29.4605V29.458Z" fill="white"/>
<path id="Vector_4" d="M27.1257 29.458H25.7743C25.5991 29.458 25.4625 29.5076 25.3586 29.6118C25.2576 29.716 25.207 29.8451 25.207 30.0037V33.4151C25.207 33.5689 25.2546 33.6979 25.3586 33.802C25.4655 33.9087 25.5991 33.9658 25.7743 33.9658H27.1257C27.2891 33.9658 27.4257 33.9112 27.5297 33.802C27.6396 33.6979 27.6929 33.5689 27.6929 33.4151V30.0037C27.6929 29.8451 27.6396 29.716 27.5297 29.6118C27.4257 29.5076 27.2891 29.458 27.1257 29.458Z" fill="white"/>
<path id="Vector_5" d="M20.3748 29.458H18.4531V31.5221H20.3748C20.5382 31.5221 20.6778 31.4701 20.7818 31.3683C20.8887 31.264 20.9422 31.1351 20.9422 30.9762V30.0062C20.9422 29.8451 20.8887 29.7184 20.7818 29.6143C20.6778 29.5101 20.5382 29.4605 20.3748 29.4605V29.458Z" fill="white"/>
<path id="Vector_6" d="M29.4928 0C13.2049 0 0 11.03 0 24.6351C0 38.2403 13.2049 49.2704 29.4928 49.2704C45.7806 49.2704 58.9857 38.2403 58.9857 24.6351C58.9857 11.03 45.7836 0 29.4928 0ZM18.471 11.4021H33.6331L31.3106 14.4735L16.1542 14.4809L18.4739 11.4021H18.471ZM15.3969 33.6185C15.3969 34.0129 15.2335 34.3478 14.9098 34.6207C14.5801 34.8987 14.1762 35.0375 13.7128 35.0375H11.714C11.2388 35.0375 10.8408 34.9035 10.523 34.6406C10.2022 34.3751 10.0478 34.0476 10.0478 33.6457V32.9859H11.2774L11.4585 33.5987C11.5417 33.8516 11.7496 33.9807 12.0882 33.9807H13.4396C13.6089 33.9807 13.7455 33.931 13.8524 33.8244C13.9534 33.7226 14.0039 33.5887 14.0039 33.4349V32.7079C14.0039 32.3507 13.8168 32.1697 13.4396 32.1697H11.7407C11.2774 32.1697 10.8734 32.0332 10.5378 31.7578C10.2111 31.48 10.0478 31.1475 10.0478 30.7556V29.7954C10.0478 29.4109 10.2111 29.0784 10.5378 28.8056C10.8734 28.5276 11.2774 28.3912 11.7407 28.3912H13.7128C14.1762 28.3912 14.5712 28.5251 14.8979 28.7882C15.2187 29.0537 15.3761 29.3812 15.3761 29.7806V30.3784H14.1554L13.9712 29.8376C13.8762 29.5796 13.6623 29.4531 13.3475 29.4531H12.0139C11.8387 29.4531 11.7021 29.5051 11.6011 29.6094C11.4912 29.7135 11.4437 29.845 11.4437 30.0038V30.5646C11.4437 30.9143 11.6308 31.0879 12.0139 31.0879H13.7128C14.1732 31.0879 14.5682 31.2269 14.9009 31.5097C15.2335 31.79 15.3969 32.12 15.3969 32.5046V33.6309V33.6185ZM22.3498 31.1822C22.3498 31.5743 22.1835 31.9066 21.8567 32.1796C21.5211 32.455 21.1173 32.5938 20.6509 32.5938H18.456V35.035H17.0482V28.3813H20.6509C21.1173 28.3813 21.5211 28.5178 21.8567 28.7956C22.1835 29.0685 22.3498 29.401 22.3498 29.7831V31.1822ZM29.0979 33.6085C29.0979 34.0129 28.9375 34.3478 28.5988 34.6207C28.2662 34.8987 27.8741 35.0375 27.3989 35.0375H25.4951C25.0199 35.0375 24.619 34.8987 24.2893 34.6207C23.9595 34.3478 23.7903 34.0129 23.7903 33.6085V29.7831C23.7903 29.401 23.9595 29.0685 24.2893 28.7956C24.619 28.5178 25.0229 28.3813 25.4951 28.3813H27.3989C27.8741 28.3813 28.2662 28.5178 28.5988 28.7907C28.9375 29.0587 29.0979 29.396 29.0979 29.7831V33.6085ZM29.4482 26.7985H10.2497L14.9187 20.6385H11.4912L13.8227 17.5572H28.1028L25.7683 20.6385H19.365L17.0007 23.7222H27.3069L36.7308 11.2955L48.4597 26.7985H44.0343L41.7028 23.7197H34.7676L37.0991 20.6335H39.3713L36.728 17.1329L29.4452 26.796L29.4482 26.7985ZM34.8569 35.0375L33.5588 32.4326H32.2224V35.0375H30.8144V28.3838H34.337C34.8093 28.3838 35.2102 28.5203 35.537 28.7981C35.8666 29.071 36.0329 29.4034 36.0329 29.7854V30.9466C36.0329 31.2468 35.9319 31.5246 35.7359 31.7653C35.528 32.0059 35.2667 32.1771 34.9607 32.2887L36.3567 35.0375H34.8597H34.8569ZM42.3977 29.4581H40.3544V35.0375H38.9437V29.4581H36.918V28.3838H42.3977V29.4581ZM48.7835 33.6185C48.7835 34.0129 48.6201 34.3478 48.2905 34.6207C47.9578 34.8987 47.5569 35.0375 47.0845 35.0375H45.0917C44.6164 35.0375 44.2245 34.9035 43.9007 34.6406C43.5829 34.3751 43.4225 34.0476 43.4225 33.6457V32.9859H44.6491L44.8333 33.5987C44.9194 33.8516 45.1243 33.9807 45.4658 33.9807H46.8173C46.9866 33.9807 47.1291 33.931 47.2331 33.8244C47.334 33.7226 47.3845 33.5887 47.3845 33.4349V32.7079C47.3845 32.3507 47.1974 32.1697 46.8173 32.1697H45.1213C44.6521 32.1697 44.2482 32.0332 43.9245 31.7578C43.5977 31.48 43.4255 31.1475 43.4255 30.7556V29.7954C43.4255 29.4109 43.5947 29.0784 43.9245 28.8056C44.2482 28.5276 44.6521 28.3912 45.1213 28.3912H47.0875C47.5599 28.3912 47.9518 28.5251 48.2755 28.7882C48.5963 29.0537 48.7567 29.3812 48.7567 29.7806V30.3784H47.5331L47.3489 29.8376C47.2509 29.5796 47.04 29.4531 46.7282 29.4531H45.3916C45.2224 29.4531 45.0768 29.5051 44.9789 29.6094C44.8778 29.7135 44.8243 29.845 44.8243 30.0038V30.5646C44.8243 30.9143 45.0174 31.0879 45.3916 31.0879H47.0875C47.5509 31.0879 47.9489 31.2269 48.2755 31.5097C48.6171 31.79 48.7835 32.12 48.7835 32.5046V33.6309V33.6185ZM49.6447 28.7113H49.3447V29.2447H49.1933V28.7113H48.8933V28.6021H49.6447V28.7113ZM50.5387 29.2447V28.8478C50.5387 28.8303 50.5387 28.8106 50.5417 28.7782C50.5269 28.8031 50.5239 28.8254 50.5032 28.8478L50.2595 29.1628H50.2357L49.9835 28.8403C49.9715 28.8229 49.9537 28.7981 49.9359 28.7757C49.9359 28.8006 49.9507 28.8229 49.9507 28.8453V29.2422H49.8201V28.5972H49.9507L50.2537 28.9866L50.5565 28.5972H50.6724V29.2422H50.5327L50.5387 29.2447Z" fill="white"/>
<path id="Vector_7" d="M111.295 44.3213H138.985L150.057 28.337H137.289L132.608 35.0924L123.234 35.0999L137.708 14.1786H147.078L141.967 21.5617L154.744 21.5715L166.259 4.95215H138.091C133.912 4.94967 130.051 6.81034 127.96 9.82958L107.683 39.094C106.073 41.4163 108.081 44.3238 111.292 44.3238" fill="white"/>
<path id="Vector_8" d="M207.546 10.1446C209.144 7.83982 207.153 4.95456 203.965 4.95207C196.842 4.94712 188.338 4.94216 183.201 4.95456C178.852 4.96697 174.866 6.89462 172.68 10.0205C171.59 11.581 169.312 14.8607 166.568 18.8227H179.72L182.993 14.0867H192.065L186.868 21.6013H172.606C167.806 21.5939 163.363 23.7174 160.936 27.1783C156.645 33.2938 150.206 42.4829 148.94 44.3213H183.854L190.183 35.1767H168.4L171.403 30.8451H193.18C194.614 28.7711 202.646 17.2076 207.542 10.1446" fill="white"/>
<path id="Vector_9" d="M93.8424 20.9436L98.5262 14.1757H120.671L127.086 4.94434H99.0312C94.781 4.94434 90.8516 6.83726 88.722 9.91107L64.8782 44.3185H77.6555L87.4687 30.17H109.611L115.984 20.9411H93.8394L93.8424 20.9436Z" fill="white"/>
<path id="Vector_10" d="M250 4.95426L238.361 21.6605L244.426 21.7002L238.171 30.8448L232.093 30.82L222.863 44.3185H210.13L219.375 30.8225L208.879 30.8348C203.724 30.8398 200.486 26.1882 203.046 22.447L215.016 4.95178L227.653 4.94434L216.292 21.6085L225.607 21.7002L237.065 4.95426H250.004H250Z" fill="white"/>
</g>
</g>
</g>
</g>
<defs>
<clipPath id="clip0_35_648">
<rect width="250" height="50" fill="white"/>
</clipPath>
</defs>
</svg>
