<svg width="64" height="64" viewBox="0 0 64 64" fill="none" xmlns="http://www.w3.org/2000/svg">
    <path d="M31.9527 0C14.3055 0 0 14.3091 0 31.9527C0 49.6036 14.3055 63.9055 31.9527 63.9055C49.6 63.9055 63.9055 49.6036 63.9055 31.9527C63.9055 14.3091 49.6 0 31.9527 0ZM19.2218 19.3818H37.5891L34.8 23.8473H16.4327L19.2218 19.3818ZM49.9091 41.6982L47.1164 37.24H38.9636L41.76 32.7745H44.3345L41.2218 27.8036L32.5382 41.6945H9.37455L14.9527 32.7709H10.8582L13.6436 28.3055H31.5527L28.7636 32.7782H20.2218L17.4291 37.2436H30.0618L41.2218 19.3818L55.1709 41.7018H49.9091V41.6982Z" fill="#FFFFFF"/>
</svg>