<svg width="250" height="51" viewBox="0 0 250 51" fill="none" xmlns="http://www.w3.org/2000/svg">
<g id="Apex_Legends_logo 2" clip-path="url(#clip0_35_733)">
<g id="Layer_2">
<g id="Layer_1-2">
<path id="Vector" d="M101.233 0.404318H69.989L66.2157 5.68271H69.989V36.7604H88.395V26.2037H101.233C103.225 26.2055 105.199 26.0895 107.041 25.8625C108.883 25.6354 110.557 25.3017 111.968 24.8805C113.378 24.4593 114.498 23.9588 115.261 23.4078C116.025 22.8568 116.418 22.2661 116.418 21.6695V4.9385C116.418 4.3419 116.025 3.75116 115.261 3.20015C114.498 2.64914 113.378 2.14868 111.968 1.72747C110.557 1.30625 108.883 0.97255 107.041 0.745498C105.199 0.518446 103.225 0.402504 101.233 0.404318ZM97.9201 20.9253H88.7171V5.68271H97.9201V20.9253Z" fill="white"/>
<path id="Vector_2" d="M132.661 5.68269H136.481V36.7742H178.401V31.482H154.933V21.2284H171.452V15.9501H154.933V5.68269H178.401V0.404297H136.481L132.661 5.68269Z" fill="white"/>
<path id="Vector_3" d="M236.287 17.3144L250 0.404297H230.49L221.977 11.8569L212.728 0.404297H198.279L194.46 5.68269H198.279L207.712 17.3144V19.8503L194 36.7742H213.464L221.977 25.3216L231.226 36.7742H250L236.287 19.8503V17.3144Z" fill="white"/>
<path id="Vector_4" d="M40.0791 0.404297H14.6328L5.42978 26.2036H3.72722V26.3277L0 31.482H3.72722L1.88662 36.7604H18.406L19.9706 31.482H34.7874L36.3519 36.7604H52.8253L40.0791 0.404297ZM21.443 26.2036L27.333 5.68269L33.2689 26.2036H21.443Z" fill="white"/>
<path id="Vector_5" d="M44.9567 45.374V46.5455H2.71488L1.88661 45.374H44.9567Z" fill="white"/>
<path id="Vector_6" d="M206.93 45.374V46.5455H249.172L250 45.374H206.93Z" fill="white"/>
<path id="Vector_7" d="M79.0999 50.4045H89.1772V49.2331H83.0112V46.5456H87.6127V45.3742H83.0112V42.48H89.1772V41.3086H79.0999V50.4045Z" fill="white"/>
<path id="Vector_8" d="M64.8353 42.48V41.3086H60.924V50.4045H71.0013V49.2331H64.8353V42.48Z" fill="white"/>
<path id="Vector_9" d="M106.893 41.3086H100.957C100.273 41.3156 99.6245 41.4011 99.145 41.5473C98.6654 41.6935 98.3916 41.8892 98.3802 42.0942V49.6327C98.3921 49.8363 98.6674 50.0306 99.1481 50.1745C99.6288 50.3185 100.277 50.401 100.957 50.4045H106.893C107.573 50.401 108.221 50.3185 108.702 50.1745C109.183 50.0306 109.458 49.8363 109.47 49.6327V45.3742H104.362L103.534 46.5456H105.559V49.302H102.292V42.5489H105.559V43.7204L109.47 43.4585V42.1631C109.502 42.0554 109.459 41.947 109.344 41.8445C109.229 41.742 109.045 41.6477 108.804 41.5675C108.562 41.4873 108.267 41.4229 107.938 41.3784C107.61 41.3338 107.254 41.3101 106.893 41.3086Z" fill="white"/>
<path id="Vector_10" d="M118.673 50.4045H128.75V49.2331H122.584V46.5456H127.14V45.3742H122.584V42.48H128.75V41.3086H118.673V50.4045Z" fill="white"/>
<path id="Vector_11" d="M146.42 46.5456L141.45 41.3086H137.953V50.4045H141.819V45.3742L147.018 50.4045H150.331V41.3086H146.42V46.5456Z" fill="white"/>
<path id="Vector_12" d="M168.047 41.3086H159.534V50.4045H168.047C168.727 50.401 169.375 50.3185 169.856 50.1745C170.337 50.0306 170.612 49.8363 170.624 49.6327V42.0942C170.624 41.8882 170.354 41.6904 169.872 41.5435C169.39 41.3966 168.735 41.3122 168.047 41.3086ZM166.759 49.2331H163.446V42.48H166.759V49.2331Z" fill="white"/>
<path id="Vector_13" d="M188.34 45.3738H183.738V42.4796H187.051V43.6511L190.963 43.3892V42.0111C190.963 41.9085 190.895 41.807 190.762 41.7125C190.63 41.618 190.436 41.5323 190.192 41.4604C189.948 41.3886 189.658 41.332 189.34 41.294C189.022 41.2561 188.682 41.2375 188.34 41.2393H182.45C182.102 41.2354 181.755 41.2531 181.431 41.2912C181.107 41.3293 180.813 41.3871 180.567 41.4608C180.32 41.5345 180.128 41.6227 180 41.7197C179.873 41.8168 179.814 41.9207 179.827 42.0248V45.7046C179.839 45.9105 180.121 46.1068 180.611 46.2511C181.102 46.3955 181.762 46.4764 182.45 46.4763H187.051V49.2327H183.738V48.0061L179.827 48.2542V49.6323C179.85 49.8372 180.136 50.0315 180.624 50.1751C181.112 50.3187 181.766 50.4007 182.45 50.4041H188.34C189.028 50.4042 189.688 50.3233 190.178 50.1789C190.669 50.0346 190.951 49.8383 190.963 49.6323V46.1594C190.951 45.9521 190.671 45.7544 190.181 45.6078C189.692 45.4612 189.032 45.3773 188.34 45.3738Z" fill="white"/>
</g>
</g>
</g>
<defs>
<clipPath id="clip0_35_733">
<rect width="250" height="50" fill="white" transform="translate(0 0.404297)"/>
</clipPath>
</defs>
</svg>
