<svg xmlns="http://www.w3.org/2000/svg" width="257" height="132" viewBox="0 0 257 132" version="1.1"><path d="M 111.241 21.986 C 110.558 23.079, 110 24.204, 110 24.486 C 110 25.610, 127.634 24.966, 128.800 23.800 C 131.776 20.824, 130.137 20, 121.241 20 C 113.584 20, 112.325 20.250, 111.241 21.986 M 128.940 29.295 L 123.500 37.961 117.215 37.980 C 111.237 37.999, 110.982 37.902, 112 36 C 112.819 34.470, 114.094 34, 117.428 34 C 121.580 34, 123 32.960, 123 29.918 C 123 29.413, 119.426 29, 115.057 29 C 107.955 29, 106.946 29.238, 105.529 31.250 C 104.121 33.251, 104.114 33.536, 105.473 33.823 C 107.459 34.244, 107.394 34.886, 105 38.500 C 103.907 40.150, 103.010 41.837, 103.007 42.250 C 103.003 42.663, 108.135 43, 114.410 43 L 125.821 43 129.926 36.500 C 134.192 29.746, 135.354 28.875, 136.415 31.640 C 136.811 32.671, 136.293 33.807, 135.022 34.697 C 131.625 37.077, 132.493 39, 136.965 39 C 139.906 39, 141.206 39.516, 142 41 C 142.701 42.310, 144.094 43, 146.035 43 L 149 43 143.701 34.508 C 140.786 29.837, 137.497 24.803, 136.391 23.322 L 134.380 20.628 128.940 29.295 M 102.667 45.667 C 101.143 47.191, 102.144 50.104, 104.500 51 C 107.749 52.235, 107.724 53.371, 104.460 52.748 C 102.858 52.441, 102.056 52.675, 102.287 53.381 C 102.907 55.270, 107.669 55.306, 108.390 53.427 C 109.127 51.507, 107.421 49, 105.378 49 C 104.620 49, 104 48.501, 104 47.892 C 104 47.189, 104.980 47.029, 106.675 47.454 C 109.018 48.043, 109.189 47.932, 108.052 46.563 C 106.721 44.958, 103.852 44.481, 102.667 45.667 M 110.713 45.621 C 109.615 46.718, 109.869 55, 111 55 C 111.550 55, 112 54.356, 112 53.570 C 112 52.783, 113.013 51.995, 114.250 51.820 C 116.012 51.569, 116.500 50.850, 116.500 48.500 C 116.500 46.033, 116.050 45.447, 113.963 45.204 C 112.567 45.041, 111.104 45.229, 110.713 45.621 M 119.709 45.624 C 119.319 46.014, 119 48.283, 119 50.667 C 119 54.832, 119.118 55, 122.055 55 C 125.075 55, 125.106 54.947, 124.805 50.250 C 124.555 46.352, 124.134 45.448, 122.459 45.208 C 121.336 45.047, 120.099 45.235, 119.709 45.624 M 127.713 45.621 C 126.615 46.718, 126.869 55, 128 55 C 128.550 55, 129 54.325, 129 53.500 C 129 52.675, 129.464 52, 130.031 52 C 130.599 52, 131.322 52.675, 131.638 53.500 C 132.749 56.394, 133.594 54.955, 133.547 50.250 C 133.504 45.924, 133.274 45.474, 130.963 45.204 C 129.567 45.041, 128.104 45.229, 127.713 45.621 M 135 46 C 135 46.550, 135.450 47, 136 47 C 136.550 47, 137 48.800, 137 51 C 137 53.200, 137.450 55, 138 55 C 138.550 55, 139 53.200, 139 51 C 139 48.800, 139.450 47, 140 47 C 140.550 47, 141 46.550, 141 46 C 141 45.450, 139.650 45, 138 45 C 136.350 45, 135 45.450, 135 46 M 143.709 45.624 C 142.147 47.186, 143.116 50.094, 145.500 51 C 146.875 51.523, 148 52.239, 148 52.592 C 148 52.945, 146.875 53.018, 145.500 52.755 C 143.824 52.435, 143 52.726, 143 53.639 C 143 54.485, 144.136 55, 146 55 C 148.562 55, 149 54.622, 149 52.406 C 149 50.654, 148.351 49.643, 147 49.290 C 145.900 49.002, 145 48.339, 145 47.816 C 145 47.293, 145.953 47.168, 147.118 47.538 C 148.649 48.023, 149.113 47.834, 148.790 46.855 C 148.295 45.354, 144.820 44.513, 143.709 45.624 M 112 48.500 C 112 49.325, 112.675 50, 113.500 50 C 114.325 50, 115 49.325, 115 48.500 C 115 47.675, 114.325 47, 113.500 47 C 112.675 47, 112 47.675, 112 48.500 M 121 50 C 121 51.650, 121.450 53, 122 53 C 122.550 53, 123 51.650, 123 50 C 123 48.350, 122.550 47, 122 47 C 121.450 47, 121 48.350, 121 50 M 129.192 48.075 C 129.389 48.666, 129.978 49.150, 130.500 49.150 C 131.022 49.150, 131.611 48.666, 131.808 48.075 C 132.005 47.484, 131.417 47, 130.500 47 C 129.583 47, 128.995 47.484, 129.192 48.075" stroke="none" fill="#212121" fillRule="evenodd"/><path d="M 117.500 4.358 C 105.859 7.361, 97.767 14.037, 92.662 24.849 C 89.910 30.679, 89.522 32.550, 89.522 40 C 89.522 47.438, 89.909 49.312, 92.619 55 C 104.144 79.184, 134.984 84.022, 152.869 64.452 C 166.831 49.177, 165.723 27.087, 150.289 12.981 C 141.628 5.065, 128.323 1.566, 117.500 4.358 M 111.241 21.986 C 110.558 23.079, 110 24.204, 110 24.486 C 110 25.610, 127.634 24.966, 128.800 23.800 C 131.776 20.824, 130.137 20, 121.241 20 C 113.584 20, 112.325 20.250, 111.241 21.986 M 128.940 29.295 L 123.500 37.961 117.215 37.980 C 111.237 37.999, 110.982 37.902, 112 36 C 112.819 34.470, 114.094 34, 117.428 34 C 121.580 34, 123 32.960, 123 29.918 C 123 29.413, 119.426 29, 115.057 29 C 107.955 29, 106.946 29.238, 105.529 31.250 C 104.121 33.251, 104.114 33.536, 105.473 33.823 C 107.459 34.244, 107.394 34.886, 105 38.500 C 103.907 40.150, 103.010 41.837, 103.007 42.250 C 103.003 42.663, 108.135 43, 114.410 43 L 125.821 43 129.926 36.500 C 134.192 29.746, 135.354 28.875, 136.415 31.640 C 136.811 32.671, 136.293 33.807, 135.022 34.697 C 131.625 37.077, 132.493 39, 136.965 39 C 139.906 39, 141.206 39.516, 142 41 C 142.701 42.310, 144.094 43, 146.035 43 L 149 43 143.701 34.508 C 140.786 29.837, 137.497 24.803, 136.391 23.322 L 134.380 20.628 128.940 29.295 M 102.667 45.667 C 101.143 47.191, 102.144 50.104, 104.500 51 C 107.749 52.235, 107.724 53.371, 104.460 52.748 C 102.858 52.441, 102.056 52.675, 102.287 53.381 C 102.907 55.270, 107.669 55.306, 108.390 53.427 C 109.127 51.507, 107.421 49, 105.378 49 C 104.620 49, 104 48.501, 104 47.892 C 104 47.189, 104.980 47.029, 106.675 47.454 C 109.018 48.043, 109.189 47.932, 108.052 46.563 C 106.721 44.958, 103.852 44.481, 102.667 45.667 M 110.713 45.621 C 109.615 46.718, 109.869 55, 111 55 C 111.550 55, 112 54.356, 112 53.570 C 112 52.783, 113.013 51.995, 114.250 51.820 C 116.012 51.569, 116.500 50.850, 116.500 48.500 C 116.500 46.033, 116.050 45.447, 113.963 45.204 C 112.567 45.041, 111.104 45.229, 110.713 45.621 M 119.709 45.624 C 119.319 46.014, 119 48.283, 119 50.667 C 119 54.832, 119.118 55, 122.055 55 C 125.075 55, 125.106 54.947, 124.805 50.250 C 124.555 46.352, 124.134 45.448, 122.459 45.208 C 121.336 45.047, 120.099 45.235, 119.709 45.624 M 127.713 45.621 C 126.615 46.718, 126.869 55, 128 55 C 128.550 55, 129 54.325, 129 53.500 C 129 52.675, 129.464 52, 130.031 52 C 130.599 52, 131.322 52.675, 131.638 53.500 C 132.749 56.394, 133.594 54.955, 133.547 50.250 C 133.504 45.924, 133.274 45.474, 130.963 45.204 C 129.567 45.041, 128.104 45.229, 127.713 45.621 M 135 46 C 135 46.550, 135.450 47, 136 47 C 136.550 47, 137 48.800, 137 51 C 137 53.200, 137.450 55, 138 55 C 138.550 55, 139 53.200, 139 51 C 139 48.800, 139.450 47, 140 47 C 140.550 47, 141 46.550, 141 46 C 141 45.450, 139.650 45, 138 45 C 136.350 45, 135 45.450, 135 46 M 143.709 45.624 C 142.147 47.186, 143.116 50.094, 145.500 51 C 146.875 51.523, 148 52.239, 148 52.592 C 148 52.945, 146.875 53.018, 145.500 52.755 C 143.824 52.435, 143 52.726, 143 53.639 C 143 54.485, 144.136 55, 146 55 C 148.562 55, 149 54.622, 149 52.406 C 149 50.654, 148.351 49.643, 147 49.290 C 145.900 49.002, 145 48.339, 145 47.816 C 145 47.293, 145.953 47.168, 147.118 47.538 C 148.649 48.023, 149.113 47.834, 148.790 46.855 C 148.295 45.354, 144.820 44.513, 143.709 45.624 M 112 48.500 C 112 49.325, 112.675 50, 113.500 50 C 114.325 50, 115 49.325, 115 48.500 C 115 47.675, 114.325 47, 113.500 47 C 112.675 47, 112 47.675, 112 48.500 M 121 50 C 121 51.650, 121.450 53, 122 53 C 122.550 53, 123 51.650, 123 50 C 123 48.350, 122.550 47, 122 47 C 121.450 47, 121 48.350, 121 50 M 129.192 48.075 C 129.389 48.666, 129.978 49.150, 130.500 49.150 C 131.022 49.150, 131.611 48.666, 131.808 48.075 C 132.005 47.484, 131.417 47, 130.500 47 C 129.583 47, 128.995 47.484, 129.192 48.075 M 150.907 85.325 C 146.267 87.773, 142.046 93.672, 142.016 97.750 C 142.001 99.836, 142.438 100, 148.031 100 C 152.903 100, 154.167 99.663, 154.604 98.250 C 155.682 94.761, 156.745 93.494, 158.857 93.180 C 161.393 92.803, 162.485 94.933, 161.588 98.506 C 161.242 99.882, 155.794 106.084, 149.480 112.288 C 139.557 122.037, 138 124.004, 138 126.784 L 138 130 153.941 130 C 162.709 130, 170.076 129.662, 170.314 129.250 C 170.551 128.838, 171.055 126.362, 171.434 123.750 L 172.123 119 164.811 118.991 L 157.500 118.983 164.787 112.017 C 174.878 102.372, 177.829 95.437, 174.544 89.085 C 171.347 82.902, 159.172 80.965, 150.907 85.325 M 186.830 85.027 C 182.442 87.345, 178.951 91.939, 178.690 95.739 C 178.508 98.389, 178.708 98.512, 183.694 98.800 C 188.324 99.068, 189.070 98.823, 190.559 96.550 C 191.711 94.792, 193.126 94, 195.115 94 C 197.608 94, 198 94.380, 198 96.800 C 198 100.337, 196.356 102, 192.859 102 C 189.696 102, 189.488 102.251, 188.608 107.134 C 187.972 110.660, 188.056 110.788, 191.420 111.419 C 197.818 112.619, 197.057 120, 190.534 120 C 187.775 120, 187.079 119.579, 186.820 117.750 C 186.529 115.702, 185.961 115.500, 180.500 115.500 L 174.500 115.500 174.192 119.208 C 173.573 126.660, 178.401 130.312, 189.025 130.428 C 198.032 130.527, 204.584 127.227, 207.799 120.973 C 210.535 115.651, 210.137 111.500, 206.589 108.373 L 204.175 106.247 207.039 104.129 C 211.933 100.511, 212.994 92.098, 209.118 87.648 C 204.791 82.680, 193.735 81.380, 186.830 85.027 M 11.521 85.226 C 10.893 87.067, 4 126.734, 4 128.508 C 4 129.675, 5.392 130, 10.387 130 L 16.774 130 17.975 123.250 C 19.956 112.125, 19.063 113, 28.442 113 L 36.750 113 37.375 109.875 C 38.937 102.067, 38.874 102, 30 102 C 21.615 102, 21.395 101.858, 22.630 97.250 C 23.206 95.100, 23.695 95, 33.598 95 C 45.064 95, 44.536 95.341, 45.233 87.500 L 45.500 84.500 28.728 84.226 C 15.838 84.015, 11.855 84.246, 11.521 85.226 M 49 84.992 C 49 86.401, 42 126.139, 41.379 128.250 C 40.925 129.797, 41.664 130, 47.758 130 L 54.652 130 58.339 108.750 C 60.367 97.063, 62.021 86.713, 62.013 85.750 C 62.002 84.264, 61.019 84, 55.500 84 C 51.869 84, 49 84.438, 49 84.992 M 65.590 86.750 C 64.954 89.823, 58 129.225, 58 129.754 C 58 129.940, 61.038 129.958, 64.750 129.796 L 71.500 129.500 72.904 121.250 L 74.307 113 82.595 113 C 87.153 113, 91.137 112.587, 91.449 112.083 C 91.760 111.579, 92.298 109.104, 92.644 106.583 L 93.272 102 85.136 102 L 77 102 77 98.500 L 77 95 87.867 95 L 98.735 95 99.720 90.019 C 100.262 87.279, 100.471 84.804, 100.186 84.519 C 99.900 84.234, 92.127 84, 82.913 84 L 66.159 84 65.590 86.750 M 103.427 96.750 C 99.751 103.763, 94.551 113.633, 91.871 118.685 C 89.192 123.737, 87 128.371, 87 128.983 C 87 129.713, 89.149 129.993, 93.246 129.798 C 99.383 129.505, 99.524 129.434, 101.254 125.750 L 103.016 122 110.448 122 L 117.879 122 118.190 125.750 L 118.500 129.500 125.250 129.796 C 129.481 129.981, 132 129.700, 132 129.043 C 132 128.466, 130.425 118.290, 128.500 106.430 C 126.575 94.570, 125 84.671, 125 84.433 C 125 84.195, 121.650 84, 117.556 84 L 110.112 84 103.427 96.750 M 218.667 84.667 C 218.300 85.033, 218 95.383, 218 107.667 L 218 130 236.500 130 L 255 130 255 107 L 255 84 237.167 84 C 227.358 84, 219.033 84.300, 218.667 84.667 M 220 96.500 L 220 107 236.436 107 L 252.871 107 253.186 96.498 L 253.500 85.996 236.750 85.998 L 220 86 220 96.500 M 223.667 91.667 C 223.300 92.033, 223 94.058, 223 96.167 C 223 99.333, 223.348 100, 225 100 C 226.111 100, 227 99.333, 227 98.500 C 227 97.675, 227.417 97, 227.927 97 C 228.436 97, 229.059 96.213, 229.311 95.250 C 229.562 94.287, 229.820 94.963, 229.884 96.750 C 229.975 99.295, 230.434 100, 232 100 C 233.704 100, 234 99.333, 234 95.500 L 234 91 229.167 91 C 226.508 91, 224.033 91.300, 223.667 91.667 M 235 95.506 C 235 98.834, 235.389 100, 236.500 100 C 237.325 100, 238 99.325, 238 98.500 C 238 97.675, 238.450 97, 239 97 C 239.550 97, 240 97.600, 240 98.333 C 240 99.249, 241.424 99.667, 244.543 99.667 C 248.961 99.667, 249.069 99.592, 248.491 96.960 C 248.062 95.006, 248.346 94.081, 249.512 93.634 C 252.728 92.400, 250.015 91.462, 242.585 91.239 L 235 91.012 235 95.506 M 111.324 105 L 108.310 111.500 111.755 111.816 C 113.650 111.990, 115.424 111.909, 115.697 111.636 C 115.970 111.363, 115.776 108.296, 115.266 104.820 L 114.338 98.500 111.324 105 M 220 118.500 L 220 129 236.500 129 L 253 129 253 118.500 L 253 108 236.500 108 L 220 108 220 118.500 M 226.177 112.680 C 226.469 114.195, 227.856 114.461, 236.313 114.626 C 244.960 114.794, 246.074 114.622, 245.794 113.158 C 245.529 111.772, 243.866 111.453, 235.658 111.213 C 226.749 110.952, 225.870 111.088, 226.177 112.680 M 226.189 117.745 C 226.480 119.255, 227.805 119.497, 236.013 119.537 C 246.714 119.590, 248 119.360, 248 117.393 C 248 116.286, 245.725 116, 236.927 116 C 226.931 116, 225.886 116.170, 226.189 117.745 M 226 122.500 C 226 123.738, 227.833 124, 236.500 124 C 245.167 124, 247 123.738, 247 122.500 C 247 121.262, 245.167 121, 236.500 121 C 227.833 121, 226 121.262, 226 122.500" stroke="none" fill="#f9f9f9" fillRule="evenodd"/></svg>
