<svg width="250" height="50" viewBox="0 0 250 50" fill="none" xmlns="http://www.w3.org/2000/svg">
<g id="F1_23_game_logo 2" clip-path="url(#clip0_35_677)">
<path id="Vector" d="M37.4953 28.4301L21.0105 49.8152H0L26.136 15.0806C35.8332 2.22538 40.5429 0.0622988 57.1203 0.0622988H122.601L108.379 18.6655H58.9702C46.5947 18.6655 43.9629 19.9634 37.4519 28.3692M106.254 21.6325H59.2924C46.8248 21.6325 44.8855 22.9304 39.2055 30.471L24.7986 49.7539H44.285L48.9027 43.5736C51.9503 39.4945 53.3358 39.0618 59.523 39.0618H93.2322L106.254 21.6325ZM111.333 49.7539L148.598 0.000976562H125.463L88.2913 49.7539H111.333Z" fill="white"/>
<path id="Vector_2" d="M152.014 49.9386V36.5891C152.014 25.2172 158.293 17.9236 168.037 17.9236H188.77V15.0806H152.014V0.24707H186.692C194.912 0.24707 200.868 6.92202 200.868 16.069C200.868 25.896 195.465 32.262 187.108 32.262H164.666V35.1051H200.36V49.9995H152.06L152.014 49.9386Z" fill="white"/>
<path id="Vector_3" d="M202.301 49.8769V34.9818H236.934V32.1388H202.301V17.8002H236.934V14.9571H202.301V0.0620117H236.796C245.153 0.0620117 250.002 4.82099 250.002 13.1644C250.002 19.3448 247.924 23.424 244.091 24.6602L243.353 24.9074L244.091 25.2164C248.478 26.8852 250.002 32.0768 250.002 36.4028C250.002 44.9935 245.384 49.8762 237.303 49.8762L202.301 49.8769Z" fill="white"/>
<path id="Vector_4" d="M126.904 49.6395C125.788 49.6395 124.82 49.1418 124.076 48.0462C123.332 46.9507 122.96 45.7558 122.96 44.1624C122.96 42.569 123.332 41.3739 124.076 40.2785C124.82 39.183 125.788 38.6851 126.904 38.6851C128.02 38.6851 128.987 39.183 129.731 40.2785C130.475 41.3739 130.847 42.6686 130.847 44.1624C130.847 45.6562 130.475 46.9507 129.731 48.0462C128.987 49.0424 128.094 49.6395 126.904 49.6395ZM124.523 40.8759C123.927 41.7722 123.555 42.8676 123.555 44.1623C123.555 45.4569 123.853 46.5522 124.523 47.449C125.118 48.345 125.936 48.8427 126.904 48.8427C127.871 48.8427 128.615 48.345 129.285 47.449C129.954 46.5522 130.252 45.4569 130.252 44.1623C130.252 42.8676 129.954 41.7722 129.285 40.8759C128.615 39.9795 127.871 39.4816 126.904 39.4816C125.936 39.4816 125.192 39.9795 124.523 40.8759ZM126.01 44.959V47.15H125.267V41.075H126.829C127.425 41.075 127.797 41.1746 128.094 41.4734C128.392 41.7722 128.54 42.2701 128.54 42.9672C128.54 43.9631 128.243 44.5606 127.722 44.7598L128.615 47.15H127.871L126.978 44.959H126.01ZM126.01 41.9713V44.1623H127.052C127.052 44.1623 127.573 44.1623 127.647 43.8635C127.797 43.6643 127.871 43.4651 127.871 43.0668C127.871 42.6684 127.797 42.3696 127.647 42.2701C127.499 42.0709 127.201 42.0709 126.904 42.0709H126.085L126.01 41.9713Z" fill="white"/>
</g>
<defs>
<clipPath id="clip0_35_677">
<rect width="250" height="50" fill="white"/>
</clipPath>
</defs>
</svg>
