<svg xmlns="http://www.w3.org/2000/svg" width="1000" height="381" viewBox="0 0 1000 381" version="1.1"><path d="M 360 44.548 L 360 72.095 366.250 71.798 L 372.500 71.500 372.662 59.167 C 372.850 44.903, 373.313 42.353, 375.861 41.544 C 378.419 40.732, 380.992 41.881, 381.040 43.857 C 381.063 44.761, 381.175 51.350, 381.290 58.500 L 381.500 71.500 387.750 71.798 L 394 72.095 394 55.498 C 394 37.123, 393.280 34.231, 388.033 31.517 C 384.082 29.474, 379.204 29.606, 374.985 31.871 L 371.500 33.742 371.823 25.371 L 372.147 17 366.073 17 L 360 17 360 44.548 M 320.664 23.985 C 319.749 27.277, 319 30.202, 319 30.485 C 319 30.768, 322.038 31, 325.750 30.999 L 332.500 30.999 332.500 51.249 L 332.500 71.500 339.250 71.796 L 346 72.091 346 51.546 L 346 31 352.500 31 L 359 31 359 24.500 L 359 18 340.664 18 L 322.328 18 320.664 23.985 M 409.500 31.207 C 401.057 34.158, 396 41.705, 396 51.356 C 396 70.371, 416.366 78.336, 433.888 66.175 C 435.015 65.392, 434.655 64.346, 431.969 60.606 C 430.149 58.073, 428.494 56, 428.291 56 C 428.087 56, 426.156 56.900, 424 58 C 419.895 60.094, 415.428 60.557, 413.166 59.124 C 412.224 58.527, 415.384 55.996, 423.916 50.513 C 430.562 46.242, 436 42.370, 436 41.909 C 436 40.026, 429.252 33.565, 425.509 31.865 C 421.102 29.863, 414.160 29.578, 409.500 31.207 M 219.500 32.595 C 203.006 35.515, 185.349 42.901, 173 52.046 C 157.759 63.334, 147.614 77.980, 142.881 95.529 C 139.884 106.642, 139.906 126.079, 142.929 137.500 C 151.122 168.461, 168.460 182.682, 218 199.076 C 229.825 202.989, 242.836 207.776, 246.914 209.712 C 263.461 217.570, 269.612 229.701, 263.598 242.617 C 256.659 257.519, 231.061 263.895, 206.050 256.951 C 192.198 253.105, 177.544 244.406, 161.281 230.375 L 156.500 226.250 139.165 251.263 C 129.630 265.021, 122.212 276.552, 122.680 276.888 C 123.148 277.225, 128.092 280.930, 133.666 285.122 C 157.206 302.828, 178.735 313.095, 202 317.710 C 214.277 320.145, 245.359 320.077, 257 317.590 C 274.090 313.938, 290.226 307.391, 300.330 300.009 C 323.833 282.838, 336.190 255.497, 334.682 224 C 333.692 203.320, 327.890 187.626, 316.735 175.452 C 304.227 161.802, 292.632 155.699, 256.943 143.981 C 230.065 135.156, 220.726 130.767, 215.010 124.274 C 207.433 115.666, 207.735 103.558, 215.720 95.785 C 222.185 89.491, 229.874 86.637, 241.604 86.179 C 258.301 85.526, 272.182 90.172, 285.875 100.996 C 288.662 103.198, 291.328 105, 291.801 105 C 292.520 105, 302.960 92.032, 323.348 65.811 C 325.464 63.089, 327.039 60.721, 326.848 60.548 C 324.859 58.750, 307.921 48.449, 302.424 45.695 C 277.637 33.276, 244.886 28.102, 219.500 32.595 M 57.454 99.556 C 32.729 136.834, 12.380 167.821, 12.234 168.417 C 12.087 169.013, 18.986 191.100, 27.565 217.500 C 36.144 243.900, 47.385 278.496, 52.544 294.379 C 57.703 310.262, 62.228 323.537, 62.599 323.879 C 62.970 324.221, 63.439 324.050, 63.641 323.500 C 63.842 322.950, 84.087 292.226, 108.629 255.224 L 153.250 187.948 130.150 116.724 C 117.445 77.551, 106.005 42.413, 104.729 38.639 L 102.409 31.779 57.454 99.556 M 862.830 62.750 C 797.568 145.441, 772 177.999, 772 178.413 C 772 178.664, 775.369 182.283, 779.487 186.455 C 792.919 200.061, 799.109 216.793, 799.133 239.552 C 799.148 253.375, 797.964 261.191, 794.311 271.375 C 790.545 281.879, 784.402 291.596, 776.502 299.550 C 769.864 306.233, 759.425 314, 757.081 314 C 756.486 314, 756 314.450, 756 315 C 756 315.656, 777.583 316, 818.750 316 L 881.500 315.999 881.500 342.250 L 881.500 368.500 916.750 368.763 L 952 369.026 952 342.513 L 952 316 969 316 L 986 316 986 280 L 986 244 969 244 L 952 244 952 138.500 L 952 33 919.155 33 L 886.310 33 862.830 62.750 M 412.856 42.516 C 411.402 43.306, 409.753 45.270, 409.192 46.880 L 408.171 49.807 414.075 46.153 C 417.321 44.144, 419.983 42.163, 419.989 41.750 C 420.007 40.514, 415.687 40.978, 412.856 42.516 M 95.133 52.750 C 92.785 58.663, 90.468 64.400, 89.984 65.500 C 88.424 69.047, 78.341 93.136, 73.032 106 C 67.559 119.258, 62.522 131.357, 53.672 152.500 C 50.679 159.650, 47.955 166.412, 47.618 167.527 C 47.048 169.419, 46.491 169.507, 39.253 168.848 C 27.451 167.774, 14 167.855, 14 169 C 14 169.550, 14.707 170, 15.571 170 C 17.164 170, 45.145 177.812, 45.762 178.429 C 45.946 178.613, 46.274 180.955, 46.491 183.633 C 46.707 186.312, 47.184 190.077, 47.551 192.001 C 47.918 193.926, 48.366 196.850, 48.547 198.500 C 48.728 200.150, 49.121 203.525, 49.421 206 C 49.721 208.475, 50.223 212.750, 50.536 215.500 C 50.849 218.250, 51.278 221.850, 51.490 223.500 C 51.702 225.150, 52.115 228.525, 52.407 231 C 52.700 233.475, 53.180 237.075, 53.476 239 C 53.998 242.403, 54.752 249.668, 55.162 255.250 C 55.273 256.762, 55.619 258, 55.932 258 C 56.244 258, 56.564 259.913, 56.643 262.250 C 56.722 264.587, 57.100 268.975, 57.484 272 C 57.868 275.025, 58.223 278.738, 58.273 280.250 C 58.323 281.762, 58.619 283.001, 58.932 283.001 C 59.244 283.002, 59.560 284.689, 59.633 286.751 C 59.811 291.746, 60.932 303.996, 61.441 306.500 C 61.664 307.600, 61.881 309.923, 61.923 311.662 C 61.977 313.886, 62.448 314.757, 63.510 314.601 C 65.754 314.272, 66.448 313.178, 69.279 305.500 C 70.698 301.650, 75.755 289.275, 80.515 278 C 85.276 266.725, 90.422 254.350, 91.952 250.500 C 99.120 232.459, 117.350 189.355, 118.322 188.150 C 119.176 187.091, 122.806 186.875, 135.110 187.150 C 143.745 187.342, 150.601 187.162, 150.346 186.750 C 150.091 186.337, 149.102 186, 148.148 186 C 147.194 186, 142.383 184.853, 137.457 183.451 C 132.531 182.049, 126.250 180.269, 123.500 179.496 C 119.066 178.249, 118.491 177.773, 118.418 175.295 C 118.326 172.135, 117.187 161.028, 116.492 156.500 C 116.238 154.850, 115.795 151.475, 115.507 149 C 115.218 146.525, 114.757 143.150, 114.481 141.500 C 113.868 137.832, 112.963 129.479, 112.775 125.750 C 112.699 124.237, 112.381 123, 112.068 122.999 C 111.756 122.999, 111.439 121.086, 111.365 118.749 C 111.290 116.412, 110.912 112.025, 110.524 109 C 110.136 105.975, 109.777 102.263, 109.727 100.750 C 109.677 99.237, 109.381 97.999, 109.068 97.999 C 108.756 97.998, 108.443 96.311, 108.373 94.249 C 108.240 90.329, 107.322 81.628, 106.500 76.500 C 106.236 74.850, 105.775 71.250, 105.476 68.500 C 105.177 65.750, 104.761 62.150, 104.552 60.500 C 104.343 58.850, 104.133 56.038, 104.086 54.250 C 104.039 52.462, 103.554 51, 103.009 51 C 101.994 51, 102.156 65.774, 103.192 67.559 C 103.492 68.076, 103.634 72.449, 103.507 77.276 C 103.380 82.103, 103.571 86.235, 103.931 86.457 C 104.291 86.680, 104.520 90.831, 104.440 95.681 C 104.359 100.532, 104.545 104.944, 104.853 105.488 C 105.160 106.031, 105.525 110.531, 105.664 115.488 C 105.803 120.444, 106.061 129.675, 106.237 136 C 106.413 142.325, 106.816 147.950, 107.132 148.500 C 107.448 149.050, 107.641 153.468, 107.560 158.319 C 107.480 163.169, 107.683 167.304, 108.013 167.508 C 108.342 167.712, 108.563 169.818, 108.502 172.189 L 108.393 176.500 103.947 176.182 C 101.501 176.007, 97.813 175.782, 95.751 175.682 C 93.689 175.582, 92.002 175.238, 92.001 174.917 C 92.001 174.596, 91.438 174.327, 90.750 174.319 C 88.525 174.294, 77.573 173.004, 75 172.465 C 72.231 171.884, 65.007 170.987, 60.738 170.694 C 59.219 170.589, 58.138 170.053, 58.336 169.502 C 58.535 168.951, 67.818 141.050, 78.967 107.500 C 90.115 73.950, 99.567 45.887, 99.971 45.138 C 100.465 44.222, 100.975 44.876, 101.528 47.138 L 102.351 50.500 102.750 47.105 C 103.104 44.090, 101.994 42.072, 99.951 42.015 C 99.649 42.007, 97.480 46.837, 95.133 52.750 M 445.040 57.234 C 444.378 58.842, 403.774 299.473, 401.713 314 C 401.528 315.302, 405.745 315.535, 433.660 315.764 L 465.820 316.027 466.367 312.264 C 466.669 310.194, 467.827 302.650, 468.941 295.500 C 470.055 288.350, 472.349 273.275, 474.038 262 C 475.726 250.725, 477.498 240.375, 477.975 239 L 478.842 236.500 478.921 238.916 C 478.964 240.245, 481.925 257.659, 485.500 277.613 C 489.075 297.568, 492 314.369, 492 314.948 C 492 315.661, 501.665 316, 521.981 316 L 551.962 316 552.474 313.750 C 552.755 312.512, 555.909 295.750, 559.482 276.500 C 563.055 257.250, 566.279 240.375, 566.646 239 C 567.081 237.372, 567.932 241.557, 569.087 251 C 570.063 258.975, 572.242 276.200, 573.930 289.277 C 575.619 302.354, 577 313.716, 577 314.527 C 577 315.795, 581.674 316, 610.628 316 L 644.256 316 643.628 312.250 C 643.283 310.188, 642.728 307.505, 642.394 306.289 L 641.787 304.078 646.943 306.565 C 675.799 320.486, 718.937 321.570, 746.511 309.068 C 766.123 300.175, 780.656 283.787, 786.909 263.513 C 789.083 256.464, 789.381 253.636, 789.392 240 C 789.403 225.823, 789.174 223.811, 786.713 216.422 C 781.961 202.158, 773.826 191.729, 760.960 183.406 C 752.197 177.737, 745.094 174.764, 721.763 167.002 C 696.290 158.527, 690.727 154.746, 690.727 145.906 C 690.727 142.699, 691.403 141.179, 694.038 138.461 C 698.838 133.509, 705.271 131.673, 716.021 132.187 C 723.671 132.552, 725.780 133.085, 732.161 136.258 C 736.197 138.265, 742.200 142.152, 745.500 144.894 C 748.800 147.637, 751.780 149.570, 752.123 149.190 C 752.466 148.811, 758.727 140.850, 766.037 131.500 C 773.347 122.150, 780.864 112.611, 782.742 110.302 L 786.156 106.104 779.328 101.050 C 764.534 90.098, 742.920 81.266, 725.091 78.885 C 713.388 77.323, 694.588 78.305, 684.500 81.007 C 660.954 87.312, 642.415 101.020, 633.027 119.066 C 627.277 130.118, 625.621 137.302, 625.667 151 C 625.730 169.787, 630.555 183.174, 641.469 194.841 C 652.289 206.410, 663.026 212.342, 688.525 220.842 C 707.739 227.246, 713.321 229.467, 717.713 232.451 C 729.362 240.367, 726.899 252.373, 712.500 257.858 C 704.877 260.762, 698.480 261.254, 689.349 259.639 C 678.405 257.703, 669.208 253.165, 662.371 246.328 C 659.337 243.294, 656.739 240.966, 656.598 241.156 C 649.956 250.037, 635.672 268.006, 635.439 267.772 C 635.261 267.595, 630.370 241.811, 624.570 210.475 C 618.769 179.139, 610.985 137.181, 607.271 117.235 L 600.520 80.970 572.524 81.235 L 544.529 81.500 533.885 127.500 C 525.195 165.053, 523.112 172.857, 522.541 170 C 522.156 168.075, 516.815 141.525, 510.671 111 L 499.500 55.500 472.736 55.234 L 445.972 54.967 445.040 57.234 M 774 81.500 C 774 82.333, 774.889 83, 776 83 C 777.733 83, 778 83.667, 778 88 C 778 92.333, 778.267 93, 780 93 C 781.733 93, 782 92.333, 782 88 C 782 84.222, 782.367 83, 783.500 83 C 784.325 83, 785 82.325, 785 81.500 C 785 80.348, 783.722 80, 779.500 80 C 775.278 80, 774 80.348, 774 81.500 M 787 86.573 C 787 92.305, 787.224 93.100, 788.750 92.784 C 790.002 92.525, 790.443 91.578, 790.299 89.461 C 790.105 86.613, 790.155 86.576, 791.611 88.500 C 793.106 90.476, 793.141 90.477, 794.562 88.559 C 795.918 86.729, 796 86.800, 796 89.809 C 796 92.333, 796.418 93, 798 93 C 799.795 93, 800 92.333, 800 86.500 C 800 80.730, 799.782 80, 798.057 80 C 796.988 80, 795.448 80.950, 794.635 82.111 L 793.156 84.222 791.837 82.111 C 791.112 80.950, 789.727 80, 788.759 80 C 787.259 80, 787 80.966, 787 86.573 M 332 130.374 L 332 179.748 334.559 184.327 C 340.942 195.747, 344.134 210.538, 344.093 228.500 C 344.052 246.463, 340.894 261.382, 334.435 274.128 C 332.115 278.706, 332 279.812, 332 297.467 L 332 316 366 316 L 400 316 400 198.500 L 400 81 366 81 L 332 81 332 130.374 M 871.024 162.756 C 865.262 170.865, 849.871 192.463, 836.823 210.750 L 813.097 244 847.549 244 L 882 244 882 196 C 882 169.600, 881.888 148.003, 881.750 148.006 C 881.612 148.009, 876.786 154.647, 871.024 162.756 M 56.737 179.734 C 56.516 180.155, 56.462 182.300, 56.616 184.500 C 57.255 193.594, 58.184 213.091, 58.379 221.512 C 58.494 226.469, 58.834 230.969, 59.135 231.512 C 59.435 232.056, 59.612 236.325, 59.527 241 C 59.441 245.675, 59.624 249.950, 59.931 250.500 C 60.239 251.050, 60.597 255.550, 60.726 260.500 C 61.447 288.147, 63.051 311.384, 64.326 312.659 C 64.780 313.114, 107.044 186.754, 106.597 186.277 C 106.482 186.155, 104.388 185.847, 101.944 185.593 C 99.500 185.339, 95.250 184.813, 92.500 184.424 C 89.750 184.035, 86.938 183.706, 86.250 183.692 C 85.563 183.678, 85 183.404, 85 183.083 C 85 182.762, 83.313 182.440, 81.250 182.368 C 79.188 182.295, 75.475 181.983, 73 181.675 C 70.525 181.368, 66.354 180.886, 63.731 180.605 C 61.108 180.324, 58.552 179.841, 58.050 179.531 C 57.549 179.221, 56.958 179.312, 56.737 179.734" stroke="none" fill="#ffffff" fillRule="evenodd"/><path d="M 96.728 48.574 C 95.293 52.190, 94.394 55.864, 94.730 56.738 C 95.107 57.720, 94.933 58.076, 94.275 57.670 C 93.689 57.308, 92.875 57.796, 92.466 58.756 C 91.761 60.410, 91.009 69, 91.570 69 C 91.715 69, 93.751 63.263, 96.094 56.250 C 100.303 43.651, 100.365 43.541, 101.387 47 L 102.421 50.500 102.785 47.105 C 103.108 44.083, 101.974 42.069, 99.918 42.015 C 99.598 42.007, 98.162 44.958, 96.728 48.574 M 102 54 C 102 55.650, 102.450 57, 103 57 C 103.550 57, 104 55.650, 104 54 C 104 52.350, 103.550 51, 103 51 C 102.450 51, 102 52.350, 102 54 M 85.238 85.738 C 82.383 94.342, 80.215 101.548, 80.420 101.753 C 80.625 101.958, 83.136 95.094, 86 86.500 C 88.864 77.906, 91.033 70.699, 90.818 70.485 C 90.604 70.271, 88.093 77.135, 85.238 85.738 M 80.600 87.600 C 78.598 92.382, 77.125 96.458, 77.326 96.659 C 77.526 96.860, 79.324 93.107, 81.320 88.320 C 83.316 83.533, 84.790 79.456, 84.594 79.261 C 84.399 79.066, 82.602 82.818, 80.600 87.600 M 71.045 110.545 C 69.294 114.752, 68.034 118.367, 68.245 118.578 C 68.455 118.789, 70.064 115.522, 71.818 111.318 C 73.573 107.114, 74.833 103.500, 74.619 103.286 C 74.405 103.072, 72.797 106.338, 71.045 110.545 M 66.744 141.244 C 61.409 157.268, 57.213 170.546, 57.418 170.752 C 57.624 170.957, 62.160 158.019, 67.500 142 C 72.840 125.981, 77.036 112.703, 76.825 112.492 C 76.615 112.281, 72.078 125.220, 66.744 141.244 M 61.091 134.591 C 59.329 138.788, 58.054 142.388, 58.258 142.591 C 58.461 142.795, 60.064 139.522, 61.818 135.318 C 63.573 131.114, 64.848 127.514, 64.651 127.318 C 64.455 127.121, 62.853 130.394, 61.091 134.591 M 51.091 158.591 C 49.329 162.788, 48.054 166.388, 48.258 166.591 C 48.461 166.795, 50.064 163.522, 51.818 159.318 C 53.573 155.114, 54.848 151.514, 54.651 151.318 C 54.455 151.121, 52.853 154.394, 51.091 158.591 M 14 169 C 14 169.550, 14.863 170, 15.918 170 C 16.973 170, 18.661 170.267, 19.668 170.594 C 21.224 171.099, 21.274 171.013, 20 170.024 C 18.845 169.127, 21.724 168.965, 32.500 169.319 C 42.067 169.633, 44.283 169.536, 39.500 169.014 C 28.875 167.852, 14 167.844, 14 169 M 41.208 176.692 C 43.797 177.590, 46.108 179.039, 46.342 179.913 C 46.702 181.255, 46.786 181.235, 46.884 179.785 C 47.020 177.769, 44.848 176.463, 40 175.648 C 37.119 175.163, 37.332 175.347, 41.208 176.692 M 119 178.925 C 120.916 180.029, 142.552 186.026, 144.234 185.920 C 145.338 185.850, 119.310 178.050, 118 178.058 C 117.725 178.059, 118.175 178.450, 119 178.925 M 103.612 195.624 C 102.726 198.227, 102.033 200.839, 102.073 201.428 C 102.113 202.018, 103.012 200.061, 104.070 197.080 C 105.128 194.099, 105.821 191.487, 105.609 191.276 C 105.398 191.065, 104.499 193.021, 103.612 195.624 M 99.111 209.138 C 97.950 212.576, 97.033 215.863, 97.074 216.444 C 97.115 217.025, 98.237 214.384, 99.567 210.576 C 100.898 206.768, 101.814 203.480, 101.604 203.270 C 101.393 203.060, 100.272 205.701, 99.111 209.138 M 108.133 209.133 C 106.949 211.983, 106.145 214.479, 106.347 214.680 C 106.549 214.882, 107.683 212.716, 108.867 209.867 C 110.051 207.017, 110.855 204.521, 110.653 204.320 C 110.451 204.118, 109.317 206.284, 108.133 209.133 M 99.640 229.640 C 97.623 234.406, 96.134 238.467, 96.332 238.665 C 96.530 238.863, 98.343 235.126, 100.360 230.360 C 102.377 225.594, 103.866 221.533, 103.668 221.335 C 103.470 221.137, 101.657 224.874, 99.640 229.640 M 88.207 257.207 C 85.903 262.786, 84.177 267.511, 84.372 267.706 C 84.568 267.901, 86.619 263.502, 88.931 257.931 C 91.243 252.360, 92.969 247.635, 92.766 247.432 C 92.562 247.229, 90.511 251.628, 88.207 257.207 M 79.741 268.241 C 76.059 279.317, 73.214 288.547, 73.419 288.752 C 73.624 288.958, 76.811 280.069, 80.500 269 C 84.189 257.931, 87.034 248.701, 86.822 248.488 C 86.609 248.276, 83.423 257.164, 79.741 268.241 M 78.656 280.156 C 76.097 286.305, 74.164 291.498, 74.361 291.694 C 74.558 291.891, 76.814 287.023, 79.375 280.875 C 81.936 274.727, 83.869 269.535, 83.670 269.337 C 83.472 269.138, 81.215 274.007, 78.656 280.156 M 61.038 303.209 C 61.470 305.569, 61.863 307.613, 61.911 307.750 C 61.960 307.887, 62 309.535, 62 311.412 C 62 313.885, 62.415 314.762, 63.510 314.601 C 65.684 314.282, 66.404 313.204, 68.863 306.581 C 70.537 302.074, 70.780 300.404, 69.884 299.581 C 69.006 298.775, 68.863 298.946, 69.321 300.250 C 69.660 301.212, 69.574 302, 69.131 302 C 68.688 302, 67.488 304.461, 66.466 307.470 C 65.443 310.478, 64.435 312.768, 64.225 312.558 C 63.747 312.080, 63.036 307.568, 62.732 303.084 C 62.604 301.205, 61.995 299.499, 61.377 299.293 C 60.583 299.028, 60.484 300.177, 61.038 303.209" stroke="none" fill="#fcfcfb" fillRule="evenodd"/></svg>