<svg xmlns="http://www.w3.org/2000/svg" width="428" height="101" viewBox="0 0 428 101" version="1.1"><path d="M 30.068 25.904 C 28.931 27.502, 28 29.077, 28 29.404 C 28 29.732, 33.592 30, 40.427 30 C 52.662 30, 52.887 29.959, 54.927 27.365 C 56.067 25.916, 57 24.341, 57 23.865 C 57 23.389, 51.406 23, 44.568 23 L 32.136 23 30.068 25.904 M 54.368 36.497 L 46.500 48.995 38.250 48.997 C 33.712 48.999, 30 48.753, 30 48.450 C 30 48.148, 30.687 46.573, 31.526 44.950 C 32.947 42.201, 33.444 42, 38.810 42 C 44.148 42, 44.698 41.781, 46.341 39 L 48.113 36 35.772 36 L 23.431 36 21.659 39 L 19.887 42 22.443 42 C 23.850 42, 25 42.247, 25 42.548 C 25 42.849, 23.425 45.558, 21.500 48.567 C 19.575 51.577, 18 54.255, 18 54.519 C 18 54.784, 25.313 54.997, 34.250 54.994 L 50.500 54.988 56.491 45.494 C 59.787 40.272, 62.727 36, 63.026 36 C 63.324 36, 64.366 37.350, 65.341 39 C 67.047 41.889, 67.045 42, 65.272 42 C 63.714 42, 60 46.511, 60 48.404 C 60 48.732, 62.688 49, 65.974 49 C 71.601 49, 72.039 49.175, 73.500 52 C 74.830 54.571, 75.620 55, 79.033 55 L 83.014 55 78.146 47.250 C 65.534 27.169, 63.457 24.010, 62.868 24.005 C 62.520 24.002, 58.695 29.624, 54.368 36.497 M 18.200 59.200 C 15.498 61.902, 17.608 66, 21.700 66 C 23.099 66, 24 66.600, 24 67.531 C 24 69.413, 20.774 70.822, 20.227 69.180 C 19.774 67.821, 17 67.561, 17 68.878 C 17 70.618, 19.937 72.138, 22.690 71.822 C 25.146 71.541, 25.539 71.027, 25.810 67.750 C 26.107 64.166, 25.985 64, 23.060 64 C 20.667 64, 20 63.564, 20 62 C 20 59.781, 21.958 59.358, 23.783 61.183 C 25.257 62.657, 26.449 61.613, 25.655 59.543 C 24.949 57.704, 19.928 57.472, 18.200 59.200 M 29 65.026 C 29 70.291, 29.328 72.059, 30.250 71.755 C 30.938 71.529, 31.640 70.393, 31.812 69.232 C 32.025 67.785, 32.969 67.023, 34.812 66.810 C 37.230 66.531, 37.500 66.098, 37.500 62.500 C 37.500 58.509, 37.490 58.499, 33.250 58.193 L 29 57.885 29 65.026 M 41.412 59.369 C 41.123 60.122, 41.024 63.160, 41.193 66.119 C 41.482 71.188, 41.663 71.519, 44.310 71.822 C 45.856 71.999, 47.769 71.607, 48.560 70.950 C 50.330 69.481, 50.505 60.905, 48.800 59.200 C 47.164 57.564, 42.060 57.681, 41.412 59.369 M 53 65 C 53 69, 53.429 72, 54 72 C 54.550 72, 55 70.875, 55 69.500 C 55 68.078, 55.577 67, 56.339 67 C 57.076 67, 58.192 68.125, 58.818 69.500 C 59.445 70.875, 60.417 72, 60.979 72 C 62.236 72, 62.240 71.762, 61.038 68.601 C 60.422 66.981, 60.422 65.857, 61.038 65.476 C 62.389 64.642, 62.237 60.637, 60.800 59.200 C 60.140 58.540, 58.115 58, 56.300 58 L 53 58 53 65 M 63 58.883 C 63 59.369, 63.900 60.002, 65 60.290 C 66.699 60.734, 67 61.654, 67 66.406 C 67 69.483, 67.450 72, 68 72 C 68.556 72, 69 69.333, 69 66 C 69 60.609, 69.209 60, 71.059 60 C 72.191 60, 72.840 59.550, 72.500 59 C 71.738 57.767, 63 57.660, 63 58.883 M 75.200 59.200 C 72.498 61.902, 74.608 66, 78.700 66 C 80.099 66, 81 66.600, 81 67.531 C 81 69.413, 77.774 70.822, 77.227 69.180 C 76.789 67.868, 74 67.539, 74 68.800 C 74 72.234, 81.301 73.175, 83.020 69.962 C 84.749 66.732, 83.334 64, 79.933 64 C 77.667 64, 77 63.545, 77 62 C 77 59.781, 78.958 59.358, 80.783 61.183 C 82.257 62.657, 83.449 61.613, 82.655 59.543 C 81.949 57.704, 76.928 57.472, 75.200 59.200 M 32 62.500 C 32 64.482, 32.439 65.062, 33.750 64.810 C 34.712 64.624, 35.500 63.585, 35.500 62.500 C 35.500 61.415, 34.712 60.376, 33.750 60.190 C 32.439 59.938, 32 60.518, 32 62.500 M 43.398 61.405 C 42.305 64.254, 43.454 69.475, 45.250 69.815 C 46.730 70.096, 47 69.365, 47 65.073 C 47 61.184, 46.643 60, 45.469 60 C 44.626 60, 43.695 60.632, 43.398 61.405 M 55 62 C 55 63.333, 55.667 64, 57 64 C 58.333 64, 59 63.333, 59 62 C 59 60.667, 58.333 60, 57 60 C 55.667 60, 55 60.667, 55 62" stroke="none" fill="#232323" fill-rule="evenodd"/><path d="M 35 2.276 C 21.986 6.729, 11.952 14.985, 6.014 26.126 C 1.640 34.331, 0.026 40.905, 0.012 50.568 C -0.008 64.332, 5.008 76.627, 14.582 86.277 C 24.296 96.069, 36.304 100.967, 50.645 100.988 C 64.607 101.008, 76.339 96.148, 86.422 86.168 C 96.119 76.569, 100.967 64.675, 100.988 50.432 C 101.022 27.417, 85.666 7.257, 63.632 1.390 C 55.594 -0.750, 42.675 -0.350, 35 2.276 M 160.204 12.128 C 157.841 13.298, 154.854 15.660, 153.566 17.377 C 151.182 20.556, 111 89.582, 111 90.498 C 111 90.774, 116.063 90.993, 122.250 90.985 L 133.500 90.969 141.826 76.506 L 150.153 62.043 169.271 61.771 L 188.390 61.500 193.608 52.500 C 196.477 47.550, 198.515 43.173, 198.136 42.774 C 197.758 42.375, 189.508 41.925, 179.804 41.774 L 162.159 41.500 165.671 35.250 L 169.182 29 188.079 29 L 206.975 29 209.306 25.250 C 210.588 23.188, 213.101 18.913, 214.892 15.750 L 218.147 10 191.323 10.001 C 165.982 10.002, 164.263 10.119, 160.204 12.128 M 227.500 11.890 C 225.300 12.905, 222.543 14.808, 221.374 16.118 C 217.804 20.117, 183 81.321, 183 83.598 C 183 84.771, 183.933 86.916, 185.073 88.365 L 187.145 91 212.823 90.986 L 238.500 90.973 247.500 75.316 C 252.450 66.704, 256.650 59.285, 256.833 58.829 C 257.017 58.373, 252.050 58, 245.796 58 L 234.426 58 230.688 64.500 L 226.949 71 219.393 71 L 211.837 71 213.799 67.750 C 214.879 65.963, 220.362 56.513, 225.984 46.750 L 236.207 29 243.677 29 L 251.147 29 247.923 34.750 C 246.150 37.913, 244.317 40.928, 243.850 41.450 C 243.382 41.973, 243 42.985, 243 43.700 C 243 44.687, 245.628 45, 253.925 45 L 264.849 45 273.108 30.750 C 277.650 22.912, 282.228 15.038, 283.282 13.250 L 285.198 10 258.349 10.022 C 234.386 10.042, 231.070 10.242, 227.500 11.890 M 304.392 12.035 C 302.133 13.153, 299.358 15.065, 298.225 16.284 C 296.272 18.386, 285 37.275, 285 38.447 C 285 38.751, 290.175 39, 296.500 39 L 308.001 39 310.750 34.014 L 313.500 29.029 320.823 29.014 L 328.147 29 324.891 34.750 C 323.100 37.913, 321.158 41.288, 320.577 42.250 C 319.648 43.787, 317.752 44.001, 305.009 44.010 C 291.858 44.019, 290.032 44.240, 285.500 46.377 C 282.750 47.674, 279.527 49.807, 278.338 51.118 C 276.261 53.407, 255 89.229, 255 90.439 C 255 90.764, 268.580 90.910, 285.178 90.765 L 315.355 90.500 320.638 81.500 L 325.921 72.500 307.409 72.228 L 288.897 71.955 291.133 67.978 L 293.368 64 312.087 64 L 330.805 64 342.782 43.250 C 357.780 17.265, 357.241 18.352, 356.437 15.712 C 354.711 10.043, 354.515 10, 330.595 10.001 C 310.394 10.002, 308.148 10.176, 304.392 12.035 M 356.750 28.888 C 345.272 49.034, 344.261 52.248, 347.616 57.928 C 350.309 62.487, 352.757 63.380, 363.750 63.818 C 369.387 64.043, 374 64.359, 374 64.521 C 374 64.682, 370.850 70.298, 367 77 C 363.150 83.702, 360 89.594, 360 90.093 C 360 90.592, 364.923 91, 370.940 91 L 381.879 91 389.555 77.500 L 397.230 64 402.551 64 L 407.873 64 413.422 54.250 L 418.971 44.500 414.025 44 L 409.078 43.500 418.161 28 C 423.156 19.475, 427.461 11.938, 427.728 11.250 C 428.100 10.294, 425.509 10, 416.728 10 L 405.241 10 395.558 27 L 385.875 44 378.378 44 C 374.255 44, 371.074 43.663, 371.309 43.250 C 371.544 42.837, 375.330 36.200, 379.723 28.500 C 384.116 20.800, 388.241 13.488, 388.890 12.250 L 390.070 10 378.785 10.010 L 367.500 10.020 356.750 28.888 M 30.068 25.904 C 28.931 27.502, 28 29.077, 28 29.404 C 28 29.732, 33.592 30, 40.427 30 C 52.662 30, 52.887 29.959, 54.927 27.365 C 56.067 25.916, 57 24.341, 57 23.865 C 57 23.389, 51.406 23, 44.568 23 L 32.136 23 30.068 25.904 M 54.368 36.497 L 46.500 48.995 38.250 48.997 C 33.712 48.999, 30 48.753, 30 48.450 C 30 48.148, 30.687 46.573, 31.526 44.950 C 32.947 42.201, 33.444 42, 38.810 42 C 44.148 42, 44.698 41.781, 46.341 39 L 48.113 36 35.772 36 L 23.431 36 21.659 39 L 19.887 42 22.443 42 C 23.850 42, 25 42.247, 25 42.548 C 25 42.849, 23.425 45.558, 21.500 48.567 C 19.575 51.577, 18 54.255, 18 54.519 C 18 54.784, 25.313 54.997, 34.250 54.994 L 50.500 54.988 56.491 45.494 C 59.787 40.272, 62.727 36, 63.026 36 C 63.324 36, 64.366 37.350, 65.341 39 C 67.047 41.889, 67.045 42, 65.272 42 C 63.714 42, 60 46.511, 60 48.404 C 60 48.732, 62.688 49, 65.974 49 C 71.601 49, 72.039 49.175, 73.500 52 C 74.830 54.571, 75.620 55, 79.033 55 L 83.014 55 78.146 47.250 C 65.534 27.169, 63.457 24.010, 62.868 24.005 C 62.520 24.002, 58.695 29.624, 54.368 36.497 M 18.200 59.200 C 15.498 61.902, 17.608 66, 21.700 66 C 23.099 66, 24 66.600, 24 67.531 C 24 69.413, 20.774 70.822, 20.227 69.180 C 19.774 67.821, 17 67.561, 17 68.878 C 17 70.618, 19.937 72.138, 22.690 71.822 C 25.146 71.541, 25.539 71.027, 25.810 67.750 C 26.107 64.166, 25.985 64, 23.060 64 C 20.667 64, 20 63.564, 20 62 C 20 59.781, 21.958 59.358, 23.783 61.183 C 25.257 62.657, 26.449 61.613, 25.655 59.543 C 24.949 57.704, 19.928 57.472, 18.200 59.200 M 29 65.026 C 29 70.291, 29.328 72.059, 30.250 71.755 C 30.938 71.529, 31.640 70.393, 31.812 69.232 C 32.025 67.785, 32.969 67.023, 34.812 66.810 C 37.230 66.531, 37.500 66.098, 37.500 62.500 C 37.500 58.509, 37.490 58.499, 33.250 58.193 L 29 57.885 29 65.026 M 41.412 59.369 C 41.123 60.122, 41.024 63.160, 41.193 66.119 C 41.482 71.188, 41.663 71.519, 44.310 71.822 C 45.856 71.999, 47.769 71.607, 48.560 70.950 C 50.330 69.481, 50.505 60.905, 48.800 59.200 C 47.164 57.564, 42.060 57.681, 41.412 59.369 M 53 65 C 53 69, 53.429 72, 54 72 C 54.550 72, 55 70.875, 55 69.500 C 55 68.078, 55.577 67, 56.339 67 C 57.076 67, 58.192 68.125, 58.818 69.500 C 59.445 70.875, 60.417 72, 60.979 72 C 62.236 72, 62.240 71.762, 61.038 68.601 C 60.422 66.981, 60.422 65.857, 61.038 65.476 C 62.389 64.642, 62.237 60.637, 60.800 59.200 C 60.140 58.540, 58.115 58, 56.300 58 L 53 58 53 65 M 63 58.883 C 63 59.369, 63.900 60.002, 65 60.290 C 66.699 60.734, 67 61.654, 67 66.406 C 67 69.483, 67.450 72, 68 72 C 68.556 72, 69 69.333, 69 66 C 69 60.609, 69.209 60, 71.059 60 C 72.191 60, 72.840 59.550, 72.500 59 C 71.738 57.767, 63 57.660, 63 58.883 M 75.200 59.200 C 72.498 61.902, 74.608 66, 78.700 66 C 80.099 66, 81 66.600, 81 67.531 C 81 69.413, 77.774 70.822, 77.227 69.180 C 76.789 67.868, 74 67.539, 74 68.800 C 74 72.234, 81.301 73.175, 83.020 69.962 C 84.749 66.732, 83.334 64, 79.933 64 C 77.667 64, 77 63.545, 77 62 C 77 59.781, 78.958 59.358, 80.783 61.183 C 82.257 62.657, 83.449 61.613, 82.655 59.543 C 81.949 57.704, 76.928 57.472, 75.200 59.200 M 32 62.500 C 32 64.482, 32.439 65.062, 33.750 64.810 C 34.712 64.624, 35.500 63.585, 35.500 62.500 C 35.500 61.415, 34.712 60.376, 33.750 60.190 C 32.439 59.938, 32 60.518, 32 62.500 M 43.398 61.405 C 42.305 64.254, 43.454 69.475, 45.250 69.815 C 46.730 70.096, 47 69.365, 47 65.073 C 47 61.184, 46.643 60, 45.469 60 C 44.626 60, 43.695 60.632, 43.398 61.405 M 55 62 C 55 63.333, 55.667 64, 57 64 C 58.333 64, 59 63.333, 59 62 C 59 60.667, 58.333 60, 57 60 C 55.667 60, 55 60.667, 55 62" stroke="none" fill="#fbfbfb" fill-rule="evenodd"/></svg>