<svg width="257" height="143" viewBox="0 0 257 143" fill="none" xmlns="http://www.w3.org/2000/svg">
<path d="M19.07 106.99H40.66L42.39 96.94H8.12L0 142.88H12.76L15.79 125.48H33.25L34.99 115.43H17.59L19.07 106.99Z" fill="white"/>
<path d="M46.8602 96.94L38.7402 142.88H51.4302L59.5502 96.94H46.8602Z" fill="white"/>
<path d="M90.8708 115.43H73.4709L74.9509 106.99H96.5409L98.2809 96.94H64.0009L55.8809 142.88H68.6409L71.6708 125.48H89.1309L90.8708 115.43Z" fill="white"/>
<path d="M108.921 96.88L84.8906 142.88H97.1306L101.001 134.83H116.911L117.941 142.88H130.571L123.161 96.88H108.921ZM105.571 125.23L113.301 108.67H113.561L115.691 125.23H105.571Z" fill="white"/>
<path d="M155.47 132.51L159.84 128.6C166.03 123.06 175.36 116.01 175.36 106.89C175.36 98.67 168.64 95.74 161.34 95.74C152.08 95.74 144.06 99.85 142.3 109.24C142.23 109.44 141.91 111.59 141.84 111.78H153.38C153.9 108.52 154.88 105.06 158.99 105.06C161.21 105.06 163.03 106.23 163.03 108.65C163.03 112.95 157.62 117.91 154.23 121.17L138.84 135.84L137.6 142.88H169.75L171.51 132.84H155.4L155.47 132.51Z" fill="white"/>
<path d="M195.99 128.6C202.18 123.06 211.51 116.01 211.51 106.89C211.51 98.67 204.79 95.74 197.49 95.74C188.23 95.74 180.21 99.85 178.45 109.24C178.38 109.44 178.06 111.59 177.99 111.78H189.53C190.05 108.52 191.03 105.06 195.14 105.06C197.36 105.06 199.18 106.23 199.18 108.65C199.18 112.95 193.77 117.91 190.38 121.17L174.99 135.84L173.75 142.88H205.9L207.66 132.84H191.55L191.62 132.51L195.99 128.6Z" fill="white"/>
<path d="M219.68 96.94V142.88H256.43V96.94H219.68Z" fill="black"/>
<path d="M256.03 120.11H220.08V142.48H256.03V120.11Z" fill="white"/>
<path d="M256.03 97.34H220.08V119.71H256.03V97.34Z" fill="white"/>
<path d="M227.619 109.15H229.479L230.139 107.33H227.619V105.65H230.749L231.419 103.83H225.029V112.15H227.619V109.15Z" fill="black"/>
<path d="M234.799 103.83H232.209V112.15H234.799V103.83Z" fill="black"/>
<path d="M239.17 109.15H241.03L241.69 107.33H239.17V105.65H242.3L242.97 103.83H236.58V112.15H239.17V109.15Z" fill="black"/>
<path d="M244.179 112.15L244.499 111.03H247.429L247.769 112.15H250.379L247.349 103.83H244.659L241.629 112.15H244.179ZM245.959 105.97L246.989 109.43H244.949L245.959 105.97Z" fill="black"/>
<path d="M249.47 105.96C249.58 106.07 249.71 106.16 249.87 106.23C250.02 106.3 250.18 106.33 250.36 106.33C250.53 106.33 250.69 106.3 250.85 106.23C251 106.16 251.13 106.08 251.25 105.96C251.36 105.85 251.45 105.72 251.52 105.56C251.59 105.41 251.62 105.25 251.62 105.07C251.62 104.9 251.59 104.74 251.52 104.58C251.45 104.42 251.36 104.3 251.25 104.18C251.14 104.07 251.01 103.98 250.85 103.91C250.7 103.84 250.54 103.81 250.36 103.81C250.19 103.81 250.03 103.84 249.87 103.91C249.72 103.98 249.59 104.07 249.47 104.18C249.36 104.29 249.27 104.42 249.2 104.58C249.13 104.73 249.1 104.89 249.1 105.07C249.1 105.24 249.13 105.4 249.2 105.56C249.27 105.72 249.36 105.85 249.47 105.96ZM249.48 104.68C249.53 104.56 249.6 104.45 249.68 104.36C249.77 104.27 249.86 104.2 249.98 104.15C250.09 104.1 250.22 104.08 250.35 104.08C250.48 104.08 250.6 104.1 250.72 104.15C250.83 104.2 250.93 104.27 251.02 104.36C251.11 104.45 251.17 104.56 251.22 104.68C251.27 104.8 251.29 104.94 251.29 105.08C251.29 105.23 251.27 105.36 251.22 105.48C251.17 105.6 251.1 105.71 251.02 105.8C250.93 105.89 250.84 105.96 250.72 106.01C250.61 106.06 250.48 106.08 250.35 106.08C250.22 106.08 250.1 106.06 249.98 106.01C249.87 105.96 249.77 105.89 249.68 105.8C249.59 105.71 249.53 105.6 249.48 105.48C249.43 105.36 249.41 105.22 249.41 105.08C249.41 104.94 249.43 104.8 249.48 104.68Z" fill="black"/>
<path d="M250.129 105.17H250.289L250.659 105.78H250.929L250.549 105.16C250.669 105.15 250.759 105.11 250.819 105.05C250.879 104.99 250.919 104.9 250.919 104.78C250.919 104.63 250.879 104.52 250.789 104.46C250.699 104.4 250.569 104.36 250.399 104.36H249.869V105.77H250.129V105.17ZM250.129 104.57H250.369C250.399 104.57 250.439 104.57 250.469 104.58C250.499 104.58 250.529 104.59 250.559 104.61C250.589 104.62 250.609 104.64 250.629 104.67C250.649 104.7 250.659 104.73 250.659 104.77C250.659 104.82 250.649 104.86 250.639 104.88C250.619 104.91 250.599 104.93 250.579 104.94C250.549 104.95 250.519 104.96 250.489 104.97C250.459 104.97 250.419 104.98 250.379 104.98H250.149V104.57H250.129Z" fill="black"/>
<path d="M227.768 126.88C227.888 127.01 228.038 127.11 228.218 127.18C228.398 127.25 228.608 127.28 228.848 127.28C229.088 127.28 229.288 127.25 229.468 127.18C229.648 127.11 229.798 127.01 229.928 126.88C230.048 126.75 230.148 126.59 230.208 126.41C230.268 126.22 230.298 126.02 230.298 125.79C230.298 125.56 230.268 125.35 230.208 125.16C230.148 124.97 230.058 124.82 229.928 124.69C229.808 124.56 229.658 124.46 229.478 124.39C229.298 124.32 229.088 124.29 228.848 124.29C228.608 124.29 228.398 124.32 228.218 124.39C228.038 124.46 227.888 124.56 227.768 124.69C227.648 124.82 227.558 124.98 227.488 125.16C227.428 125.34 227.398 125.55 227.398 125.79C227.398 126.02 227.428 126.23 227.488 126.41C227.558 126.59 227.648 126.75 227.768 126.88ZM228.238 125.43C228.268 125.32 228.298 125.22 228.358 125.14C228.408 125.06 228.478 124.99 228.558 124.94C228.638 124.89 228.738 124.87 228.858 124.87C228.978 124.87 229.078 124.9 229.158 124.94C229.238 124.99 229.308 125.06 229.358 125.14C229.408 125.22 229.448 125.32 229.478 125.43C229.508 125.54 229.518 125.66 229.518 125.78C229.518 125.9 229.508 126.01 229.478 126.13C229.448 126.24 229.418 126.34 229.358 126.43C229.308 126.52 229.238 126.58 229.158 126.64C229.078 126.69 228.978 126.72 228.858 126.72C228.738 126.72 228.638 126.69 228.558 126.64C228.478 126.59 228.408 126.52 228.358 126.43C228.308 126.34 228.268 126.25 228.238 126.13C228.208 126.02 228.198 125.9 228.198 125.78C228.198 125.66 228.208 125.54 228.238 125.43Z" fill="black"/>
<path d="M231.7 126.06H232.81V125.52H231.7V124.88H232.86V124.33H230.93V127.23H231.7V126.06Z" fill="black"/>
<path d="M234.209 126.06H235.329V125.52H234.209V124.88H235.379V124.33H233.439V127.23H234.209V126.06Z" fill="black"/>
<path d="M236.78 124.33H236.01V127.23H236.78V124.33Z" fill="black"/>
<path d="M237.999 126.95C238.159 127.07 238.339 127.15 238.539 127.2C238.739 127.25 238.929 127.28 239.129 127.28C239.329 127.28 239.489 127.27 239.619 127.24C239.749 127.22 239.869 127.19 239.989 127.16L239.949 126.55C239.839 126.59 239.729 126.63 239.609 126.66C239.489 126.69 239.359 126.7 239.229 126.7C239.089 126.7 238.959 126.68 238.839 126.64C238.719 126.6 238.619 126.54 238.539 126.46C238.459 126.38 238.389 126.29 238.339 126.17C238.289 126.06 238.269 125.93 238.269 125.79C238.269 125.65 238.289 125.53 238.329 125.41C238.369 125.3 238.429 125.2 238.509 125.11C238.589 125.03 238.679 124.96 238.789 124.91C238.899 124.86 239.029 124.84 239.159 124.84C239.289 124.84 239.419 124.86 239.539 124.89C239.659 124.92 239.789 124.97 239.909 125.04L239.969 124.41C239.829 124.37 239.689 124.33 239.549 124.3C239.409 124.27 239.259 124.26 239.109 124.26C238.869 124.26 238.649 124.29 238.449 124.35C238.249 124.41 238.069 124.51 237.919 124.63C237.769 124.76 237.659 124.91 237.569 125.1C237.489 125.29 237.449 125.51 237.449 125.76C237.449 126.03 237.499 126.27 237.599 126.46C237.719 126.68 237.839 126.83 237.999 126.95Z" fill="black"/>
<path d="M241.35 124.33H240.58V127.23H241.35V124.33Z" fill="black"/>
<path d="M242.92 126.61H244.01L244.23 127.23H245.08L243.96 124.33H243.01L241.91 127.23H242.69L242.92 126.61ZM243.47 124.93L243.82 126.06H243.09L243.47 124.93Z" fill="black"/>
<path d="M247.54 126.66H246.35V124.33H245.58V127.23H247.54V126.66Z" fill="black"/>
<path d="M229.368 131.57H228.178V129.25H227.398V132.15H229.368V131.57Z" fill="black"/>
<path d="M230.729 129.25H229.959V132.15H230.729V129.25Z" fill="black"/>
<path d="M231.88 129.57C231.73 129.7 231.62 129.85 231.53 130.04C231.45 130.23 231.41 130.45 231.41 130.7C231.41 130.97 231.46 131.21 231.56 131.4C231.66 131.59 231.79 131.74 231.95 131.86C232.11 131.98 232.29 132.06 232.49 132.11C232.69 132.16 232.88 132.19 233.08 132.19C233.28 132.19 233.44 132.18 233.57 132.15C233.7 132.13 233.82 132.1 233.94 132.07L233.9 131.46C233.8 131.5 233.68 131.54 233.56 131.57C233.44 131.6 233.31 131.61 233.18 131.61C233.04 131.61 232.91 131.59 232.79 131.55C232.67 131.51 232.57 131.45 232.49 131.37C232.41 131.29 232.34 131.2 232.29 131.08C232.24 130.97 232.22 130.84 232.22 130.7C232.22 130.56 232.24 130.44 232.28 130.32C232.32 130.21 232.38 130.11 232.46 130.02C232.54 129.94 232.63 129.87 232.74 129.82C232.85 129.77 232.98 129.75 233.11 129.75C233.24 129.75 233.37 129.77 233.49 129.8C233.61 129.83 233.74 129.88 233.86 129.95L233.92 129.32C233.78 129.28 233.64 129.24 233.5 129.21C233.36 129.18 233.21 129.17 233.06 129.17C232.82 129.17 232.6 129.2 232.4 129.26C232.2 129.35 232.02 129.45 231.88 129.57Z" fill="black"/>
<path d="M235.239 130.94H236.439V130.39H235.239V129.8H236.509V129.25H234.469V132.15H236.549V131.6H235.239V130.94Z" fill="black"/>
<path d="M237.928 130.17H237.938L238.948 132.15H239.908V129.25H239.198L239.208 131.22L238.228 129.25H237.238V132.15H237.948L237.928 130.17Z" fill="black"/>
<path d="M240.93 130.76C241.03 130.82 241.14 130.87 241.26 130.91C241.38 130.94 241.49 130.98 241.59 131.01C241.69 131.04 241.78 131.09 241.84 131.13C241.91 131.18 241.94 131.25 241.94 131.34C241.94 131.4 241.93 131.45 241.9 131.48C241.87 131.52 241.84 131.55 241.79 131.57C241.75 131.59 241.69 131.6 241.64 131.61C241.58 131.62 241.52 131.62 241.46 131.62C241.3 131.62 241.15 131.6 241.02 131.57C240.88 131.53 240.77 131.49 240.67 131.43L240.6 132.07C240.73 132.11 240.87 132.14 241.03 132.16C241.19 132.18 241.33 132.19 241.47 132.19C241.63 132.19 241.79 132.18 241.94 132.15C242.09 132.12 242.23 132.07 242.35 132C242.47 131.93 242.56 131.83 242.64 131.71C242.71 131.59 242.75 131.43 242.75 131.24C242.75 131.07 242.72 130.93 242.65 130.82C242.58 130.72 242.5 130.63 242.4 130.57C242.3 130.51 242.19 130.46 242.07 130.42C241.95 130.39 241.84 130.35 241.74 130.32C241.64 130.29 241.55 130.25 241.49 130.21C241.42 130.17 241.39 130.11 241.39 130.03C241.39 129.97 241.41 129.92 241.44 129.88C241.48 129.84 241.52 129.82 241.57 129.8C241.62 129.78 241.68 129.77 241.74 129.77C241.8 129.77 241.85 129.76 241.9 129.76C242.01 129.76 242.12 129.77 242.23 129.79C242.34 129.81 242.44 129.84 242.54 129.89L242.59 129.29C242.49 129.26 242.38 129.23 242.25 129.21C242.12 129.19 241.98 129.18 241.84 129.18C241.69 129.18 241.55 129.19 241.4 129.22C241.25 129.25 241.12 129.29 241 129.36C240.88 129.43 240.78 129.52 240.7 129.63C240.62 129.74 240.58 129.89 240.58 130.06C240.58 130.24 240.61 130.38 240.68 130.48C240.75 130.62 240.83 130.7 240.93 130.76Z" fill="black"/>
<path d="M245.429 129.8V129.25H243.389V132.15H245.479V131.6H244.159V130.94H245.359V130.39H244.159V129.8H245.429Z" fill="black"/>
<path d="M246.148 129.25V132.15H247.198C247.448 132.15 247.668 132.12 247.878 132.07C248.088 132.02 248.268 131.94 248.418 131.82C248.568 131.71 248.688 131.56 248.778 131.37C248.868 131.18 248.908 130.96 248.908 130.69C248.908 130.41 248.868 130.18 248.778 129.99C248.698 129.8 248.578 129.66 248.428 129.55C248.278 129.44 248.098 129.36 247.888 129.32C247.678 129.28 247.448 129.25 247.198 129.25H246.148V129.25ZM247.888 130.04C248.048 130.19 248.128 130.41 248.128 130.7C248.128 130.99 248.048 131.21 247.898 131.36C247.738 131.51 247.518 131.58 247.228 131.58H246.928V129.83H247.228C247.508 129.82 247.728 129.89 247.888 130.04Z" fill="black"/>
<path d="M228.18 136.05H228.48C228.84 136.05 229.12 135.97 229.33 135.8C229.53 135.64 229.63 135.41 229.63 135.11C229.63 134.78 229.52 134.54 229.31 134.39C229.1 134.24 228.77 134.16 228.33 134.16H227.41V137.06H228.18V136.05V136.05ZM228.18 134.71H228.38C228.45 134.71 228.51 134.72 228.57 134.73C228.63 134.74 228.68 134.76 228.72 134.79C228.76 134.82 228.8 134.86 228.82 134.91C228.85 134.96 228.86 135.02 228.86 135.1C228.86 135.18 228.85 135.24 228.82 135.29C228.8 135.34 228.76 135.38 228.72 135.41C228.68 135.44 228.63 135.46 228.57 135.48C228.51 135.49 228.45 135.5 228.38 135.5H228.18V134.71Z" fill="black"/>
<path d="M232.24 136.03C232.22 135.96 232.19 135.9 232.16 135.84C232.13 135.79 232.1 135.74 232.06 135.71C232.02 135.67 231.97 135.65 231.91 135.63V135.62C232.1 135.58 232.24 135.49 232.33 135.37C232.42 135.25 232.47 135.09 232.47 134.89C232.47 134.77 232.45 134.66 232.4 134.57C232.35 134.48 232.28 134.4 232.2 134.34C232.11 134.28 232.02 134.23 231.9 134.21C231.79 134.18 231.67 134.17 231.54 134.17H230.16V137.07H230.93V135.92H231.09C231.16 135.92 231.22 135.93 231.27 135.95C231.32 135.97 231.37 136 231.41 136.05C231.45 136.1 231.49 136.16 231.52 136.24C231.55 136.32 231.59 136.42 231.63 136.55L231.8 137.07H232.61L232.33 136.28C232.3 136.18 232.27 136.1 232.24 136.03ZM231.65 135.22C231.61 135.26 231.57 135.3 231.52 135.32C231.47 135.34 231.41 135.36 231.34 135.36C231.27 135.36 231.21 135.37 231.15 135.37H230.95V134.71H231.15C231.22 134.71 231.3 134.71 231.36 134.72C231.43 134.73 231.49 134.74 231.54 134.77C231.59 134.79 231.63 134.82 231.66 134.87C231.69 134.91 231.71 134.97 231.71 135.03C231.71 135.11 231.69 135.18 231.65 135.22Z" fill="black"/>
<path d="M235.589 134.51C235.469 134.38 235.319 134.28 235.139 134.21C234.959 134.14 234.749 134.11 234.509 134.11C234.269 134.11 234.059 134.14 233.879 134.21C233.699 134.28 233.549 134.38 233.429 134.51C233.309 134.64 233.219 134.8 233.149 134.98C233.089 135.16 233.059 135.37 233.059 135.61C233.059 135.84 233.089 136.05 233.149 136.23C233.209 136.42 233.299 136.57 233.429 136.7C233.549 136.83 233.699 136.93 233.879 137C234.059 137.07 234.269 137.1 234.509 137.1C234.749 137.1 234.949 137.07 235.129 137C235.309 136.93 235.459 136.83 235.589 136.7C235.709 136.57 235.809 136.41 235.869 136.23C235.929 136.04 235.959 135.84 235.959 135.61C235.959 135.38 235.929 135.17 235.869 134.98C235.809 134.8 235.709 134.64 235.589 134.51ZM235.129 135.96C235.099 136.07 235.069 136.17 235.009 136.26C234.959 136.35 234.889 136.41 234.809 136.47C234.729 136.52 234.629 136.55 234.509 136.55C234.389 136.55 234.289 136.52 234.209 136.47C234.129 136.42 234.059 136.35 234.009 136.26C233.959 136.17 233.919 136.08 233.889 135.96C233.859 135.84 233.849 135.73 233.849 135.61C233.849 135.49 233.859 135.37 233.889 135.26C233.919 135.15 233.949 135.05 234.009 134.97C234.059 134.89 234.129 134.82 234.209 134.77C234.289 134.72 234.389 134.69 234.509 134.69C234.629 134.69 234.729 134.72 234.809 134.77C234.889 134.82 234.959 134.89 235.009 134.97C235.059 135.05 235.099 135.15 235.129 135.26C235.159 135.37 235.169 135.49 235.169 135.61C235.159 135.73 235.149 135.85 235.129 135.96Z" fill="black"/>
<path d="M238.889 134.46C238.739 134.35 238.559 134.27 238.349 134.23C238.139 134.19 237.909 134.16 237.659 134.16H236.609V137.06H237.659C237.909 137.06 238.129 137.03 238.339 136.98C238.549 136.93 238.729 136.85 238.879 136.73C239.029 136.62 239.149 136.46 239.239 136.28C239.329 136.09 239.369 135.87 239.369 135.6C239.369 135.32 239.329 135.09 239.239 134.9C239.159 134.72 239.039 134.57 238.889 134.46ZM238.339 136.27C238.179 136.42 237.959 136.49 237.669 136.49H237.369V134.74H237.669C237.949 134.74 238.179 134.81 238.329 134.96C238.489 135.11 238.569 135.33 238.569 135.62C238.569 135.9 238.489 136.12 238.339 136.27Z" fill="black"/>
<path d="M240.34 136.83C240.45 136.92 240.59 136.99 240.74 137.04C240.9 137.09 241.07 137.11 241.26 137.11C241.45 137.11 241.62 137.09 241.78 137.04C241.94 136.99 242.07 136.92 242.18 136.83C242.29 136.74 242.38 136.62 242.44 136.47C242.5 136.33 242.53 136.15 242.53 135.96V134.16H241.76V135.83C241.76 135.93 241.75 136.02 241.74 136.1C241.73 136.18 241.7 136.26 241.66 136.32C241.62 136.39 241.57 136.44 241.51 136.47C241.45 136.51 241.37 136.53 241.27 136.53C241.17 136.53 241.09 136.51 241.03 136.47C240.97 136.43 240.92 136.38 240.88 136.32C240.84 136.26 240.82 136.18 240.8 136.1C240.79 136.02 240.78 135.93 240.78 135.83V134.16H240.01V135.96C240.01 136.16 240.04 136.33 240.1 136.47C240.15 136.62 240.23 136.74 240.34 136.83Z" fill="black"/>
<path d="M245.27 136.49C245.15 136.52 245.02 136.53 244.89 136.53C244.75 136.53 244.62 136.51 244.5 136.47C244.38 136.43 244.28 136.37 244.19 136.29C244.11 136.21 244.04 136.12 243.99 136C243.94 135.89 243.92 135.76 243.92 135.62C243.92 135.48 243.94 135.36 243.98 135.24C244.02 135.13 244.08 135.03 244.16 134.94C244.24 134.86 244.33 134.79 244.44 134.74C244.55 134.69 244.68 134.67 244.81 134.67C244.94 134.67 245.07 134.69 245.19 134.72C245.31 134.75 245.44 134.8 245.56 134.87L245.62 134.24C245.48 134.2 245.34 134.16 245.2 134.13C245.06 134.1 244.91 134.09 244.76 134.09C244.52 134.09 244.3 134.12 244.1 134.18C243.9 134.24 243.72 134.34 243.57 134.46C243.42 134.59 243.31 134.74 243.22 134.93C243.14 135.12 243.1 135.34 243.1 135.59C243.1 135.86 243.15 136.1 243.25 136.29C243.35 136.48 243.48 136.63 243.64 136.75C243.8 136.87 243.98 136.95 244.18 137C244.38 137.05 244.57 137.08 244.77 137.08C244.97 137.08 245.13 137.07 245.26 137.04C245.39 137.02 245.51 136.99 245.63 136.96L245.59 136.35C245.51 136.43 245.4 136.46 245.27 136.49Z" fill="black"/>
<path d="M246 134.74H246.71V137.06H247.48V134.74H248.2V134.16H246V134.74Z" fill="black"/>
<path d="M127.52 89.4C152.207 89.4 172.22 69.3871 172.22 44.7C172.22 20.0129 152.207 0 127.52 0C102.833 0 82.8203 20.0129 82.8203 44.7C82.8203 69.3871 102.833 89.4 127.52 89.4Z" fill="white"/>
<path d="M156.92 51.89H158.06V52.09H157.61V53.06H157.38V52.09H156.93V51.89H156.92ZM103.6 56.38H101.03C100.45 56.38 100.17 56.06 100.17 55.43V54.41C100.17 54.12 100.24 53.88 100.41 53.69C100.56 53.5 100.77 53.41 101.04 53.41H103.06C103.54 53.41 103.86 53.64 104 54.11L104.28 55.09H106.13V54.01C106.13 53.29 105.89 52.69 105.41 52.21C104.92 51.73 104.32 51.49 103.62 51.49H100.63C99.9303 51.49 99.3103 51.74 98.8103 52.24C98.3203 52.74 98.0703 53.34 98.0703 54.04V55.78C98.0703 56.49 98.3203 57.1 98.8103 57.6C99.3203 58.1 99.9303 58.35 100.63 58.35H103.21C103.78 58.35 104.07 58.68 104.07 59.33V60.65C104.07 60.93 103.99 61.17 103.84 61.36C103.68 61.55 103.47 61.64 103.21 61.64H101.16C100.64 61.64 100.33 61.4 100.2 60.95L99.9303 59.84H98.0703V61.04C98.0703 61.77 98.3103 62.37 98.7903 62.85C99.2703 63.33 99.8703 63.57 100.59 63.57H103.62C104.32 63.57 104.93 63.32 105.43 62.82C105.92 62.33 106.17 61.72 106.17 61V58.96C106.17 58.26 105.92 57.66 105.42 57.15C104.9 56.64 104.3 56.38 103.6 56.38ZM115.94 52.25C116.44 52.74 116.69 53.35 116.69 54.04V56.58C116.69 57.29 116.44 57.89 115.94 58.39C115.43 58.89 114.82 59.14 114.11 59.14H110.78V63.57H108.65V51.5H114.11C114.82 51.5 115.43 51.75 115.94 52.25ZM114.56 54.44C114.56 54.15 114.48 53.92 114.32 53.73C114.16 53.54 113.95 53.45 113.71 53.45H110.8V57.2H113.71C113.96 57.2 114.17 57.1 114.32 56.92C114.48 56.73 114.56 56.5 114.56 56.21V54.44ZM135.8 58.58L137.92 63.57H135.65L133.68 58.85H131.65V63.57H129.51V51.5H134.85C135.57 51.5 136.17 51.75 136.67 52.25C137.17 52.74 137.42 53.35 137.42 54.04V56.15C137.42 56.7 137.27 57.2 136.97 57.64C136.66 58.07 136.26 58.38 135.8 58.58ZM135.29 54.44C135.29 54.15 135.22 53.92 135.06 53.73C134.91 53.54 134.7 53.45 134.45 53.45H131.66V56.9H134.45C134.7 56.9 134.9 56.81 135.06 56.63C135.21 56.44 135.29 56.21 135.29 55.92V54.44ZM138.77 53.45H141.84V63.57H143.98V53.45H147.08V51.5H138.78V53.45H138.77ZM154.18 56.38H151.61C151.04 56.38 150.75 56.06 150.75 55.43V54.41C150.75 54.12 150.83 53.88 150.98 53.69C151.13 53.5 151.35 53.41 151.61 53.41H153.64C154.12 53.41 154.43 53.64 154.58 54.11L154.86 55.09H156.72V54.01C156.72 53.29 156.47 52.69 155.99 52.21C155.5 51.73 154.9 51.49 154.19 51.49H151.2C150.49 51.49 149.88 51.74 149.39 52.24C148.89 52.74 148.64 53.34 148.64 54.04V55.78C148.64 56.49 148.9 57.1 149.39 57.6C149.88 58.1 150.49 58.35 151.2 58.35H153.77C154.35 58.35 154.63 58.68 154.63 59.33V60.65C154.63 60.93 154.55 61.17 154.4 61.36C154.24 61.55 154.03 61.64 153.77 61.64H151.72C151.21 61.64 150.89 61.4 150.76 60.95L150.48 59.84H148.62V61.04C148.62 61.77 148.86 62.37 149.35 62.85C149.84 63.33 150.43 63.57 151.16 63.57H154.18C154.9 63.57 155.5 63.32 156.01 62.82C156.51 62.33 156.76 61.72 156.76 61V58.96C156.76 58.26 156.51 57.66 155.99 57.15C155.49 56.64 154.89 56.38 154.18 56.38ZM159.45 51.89L158.99 52.6L158.53 51.89H158.33V53.06H158.53V52.34C158.53 52.3 158.51 52.26 158.51 52.21C158.53 52.25 158.56 52.3 158.58 52.33L158.96 52.91H159L159.37 52.34C159.4 52.3 159.41 52.26 159.43 52.21C159.42 52.27 159.42 52.31 159.42 52.34V53.06H159.63V51.89H159.45V51.89ZM126.16 52.24C126.67 52.73 126.92 53.34 126.92 54.04V60.98C126.92 61.71 126.68 62.32 126.16 62.82C125.66 63.32 125.06 63.57 124.34 63.57H121.46C120.74 63.57 120.13 63.32 119.63 62.82C119.13 62.33 118.88 61.72 118.88 60.98V54.04C118.88 53.35 119.14 52.74 119.63 52.25C120.13 51.75 120.74 51.5 121.46 51.5H124.34C125.06 51.5 125.66 51.75 126.16 52.24ZM124.79 54.44C124.79 54.15 124.71 53.92 124.54 53.73C124.38 53.54 124.18 53.45 123.93 53.45H121.88C121.61 53.45 121.41 53.54 121.25 53.73C121.1 53.92 121.02 54.15 121.02 54.44V60.63C121.02 60.91 121.09 61.14 121.25 61.33C121.41 61.53 121.62 61.63 121.88 61.63H123.93C124.18 61.63 124.38 61.53 124.54 61.33C124.71 61.14 124.79 60.91 124.79 60.63V54.44ZM133.79 20.69H110.81L107.3 26.28L130.27 26.27L133.79 20.69ZM142.5 37.44H139.05L135.52 43.04H146.03L149.56 48.62H156.27L138.49 20.49L124.21 43.04H108.59L112.17 37.45H121.87L125.41 31.86H103.77L100.24 37.45H105.43L98.3503 48.63L127.45 48.62L138.49 31.09L142.5 37.44Z" fill="black"/>
</svg>
