<svg xmlns="http://www.w3.org/2000/svg" width="400" height="193" viewBox="0 0 400 193" version="1.1"><path d="M 186.644 13.500 C 185.672 26.440, 184.950 31, 183.872 31 C 183.392 31, 182.961 28.863, 182.912 26.250 C 182.864 23.637, 182.499 19.250, 182.101 16.500 L 181.377 11.500 180.725 19 C 180.366 23.125, 179.859 29.736, 179.599 33.691 L 179.126 40.883 183.379 42.507 C 187.320 44.012, 187.938 44.008, 191.816 42.457 L 196 40.783 196 33.531 C 196 23.649, 194.923 15.942, 193.906 18.543 C 193.485 19.619, 193.109 22.386, 193.070 24.691 C 192.897 35.013, 189.110 26.529, 188.882 15.307 C 188.649 3.873, 187.440 2.896, 186.644 13.500 M 50.169 49.297 C 49.577 50.010, 46.484 51.648, 43.296 52.936 C 35.622 56.037, 34.469 57.140, 35.971 59.947 C 37.422 62.657, 38.516 78.439, 37.593 83.354 C 37.179 85.564, 36.337 87, 35.455 87 C 33.622 87, 33.655 87.960, 35.576 90.500 C 36.714 92.006, 37.047 94.886, 36.923 102.149 C 36.831 107.456, 37.076 112.314, 37.466 112.945 C 37.856 113.576, 37.874 116.282, 37.506 118.959 C 36.935 123.109, 36.406 124.003, 33.914 125.036 C 31.159 126.177, 24.451 132.784, 25.243 133.576 C 25.444 133.778, 27.385 133.070, 29.555 132.003 C 38.188 127.761, 51.858 125.711, 51.250 128.750 C 50.938 130.309, 52.637 130.396, 53.581 128.868 C 54.049 128.111, 56.467 127.930, 60.890 128.321 C 66.518 128.818, 69.431 129.915, 80.500 135.702 L 93.500 142.500 102 142.481 C 110.141 142.463, 110.829 142.279, 118.304 138.131 C 126.917 133.351, 128.894 131.607, 133.128 125.054 C 137.279 118.629, 136.675 118.095, 131.126 123.285 C 128.446 125.792, 123.509 129.229, 120.155 130.922 C 115.128 133.460, 112.864 134, 107.258 134 C 100.139 134, 88.469 131.287, 81.254 127.955 C 73.459 124.354, 60.014 121, 53.378 121 L 46.979 121 47.239 89.556 C 47.498 58.396, 47.520 58.094, 49.750 56.017 C 51.105 54.755, 52 52.744, 52 50.961 C 52 47.659, 51.731 47.414, 50.169 49.297 M 170.687 52.805 C 167.750 55.871, 167.225 59.112, 169.378 60.899 C 170.460 61.797, 170.869 61.609, 171.284 60.021 C 171.665 58.567, 172.643 58, 174.775 58 L 177.738 58 177.991 66.750 C 178.398 80.824, 178.388 81.376, 177.702 84.079 C 177.335 85.527, 175.832 87.223, 174.274 87.949 L 171.500 89.242 174 90.317 C 175.375 90.909, 176.703 91.545, 176.951 91.731 C 177.199 91.917, 177.525 95.897, 177.676 100.575 C 177.897 107.435, 177.656 109.195, 176.432 109.665 C 175.101 110.175, 175.121 110.477, 176.595 112.105 C 177.936 113.587, 178.168 115.232, 177.741 120.232 C 177.446 123.679, 176.885 127.287, 176.495 128.250 C 175.398 130.958, 178.121 130.420, 182.850 126.994 L 187 123.987 187 109.494 C 187 97.277, 187.236 95, 188.500 95 C 189.325 95, 190.900 95.900, 192 97 C 193.701 98.701, 194.009 100.382, 194.060 108.250 C 194.092 113.338, 194.567 119.750, 195.115 122.500 C 195.663 125.250, 196.232 128.502, 196.381 129.726 C 196.537 131.013, 198.654 133.482, 201.394 135.575 C 204.003 137.567, 205.885 139.448, 205.577 139.756 C 205.269 140.064, 205.473 140.865, 206.030 141.536 C 206.708 142.353, 206.713 143.624, 206.046 145.378 C 204.871 148.468, 204.960 148.491, 209.782 146.346 C 211.827 145.436, 213.899 144.781, 214.386 144.891 C 214.873 145.001, 220.654 142.525, 227.232 139.389 C 239.632 133.478, 246.229 131.946, 251.126 133.840 C 254.226 135.040, 255.266 139.389, 253.483 143.702 C 252.306 146.548, 252.391 146.964, 255.331 152.831 C 256.249 154.663, 257 156.576, 257 157.081 C 257 159.817, 246.811 156.385, 245.025 153.047 C 243.702 150.575, 244.553 146.901, 246.301 147.541 C 246.961 147.782, 248.171 147.552, 248.992 147.031 C 250.162 146.288, 250.221 145.821, 249.269 144.869 C 247.532 143.132, 243.219 145.280, 242.472 148.255 C 241.120 153.644, 247 159.988, 253.357 159.996 C 255.559 159.999, 256.074 160.365, 255.603 161.593 C 253.614 166.776, 253.787 167.999, 256.928 170.932 L 260.071 173.869 256.786 178.353 C 254.979 180.819, 252.825 183.029, 252 183.263 C 250.817 183.600, 250.909 183.867, 252.436 184.524 C 253.856 185.135, 254.656 184.865, 255.436 183.514 C 256.021 182.501, 257.625 180.367, 259.001 178.773 C 261.455 175.929, 261.589 175.898, 266.190 177.128 C 269.505 178.015, 271.032 178.992, 271.401 180.461 C 271.688 181.604, 272.840 183.525, 273.961 184.728 C 275.083 185.932, 276 187.385, 276 187.958 C 276 188.531, 276.450 189, 277 189 C 278.726 189, 278.088 185.536, 276.137 184.317 C 275.112 183.677, 274.043 182.274, 273.762 181.199 C 273.301 179.437, 273.753 179.256, 278.326 179.372 L 283.401 179.500 284.967 175.316 C 287.065 169.715, 287.485 169.438, 290.719 171.519 C 297.894 176.137, 303 181.227, 303 183.760 C 303 185.175, 303.296 186.037, 303.658 185.675 C 304.020 185.313, 304.915 185.514, 305.646 186.121 C 306.652 186.956, 307.134 186.814, 307.625 185.536 C 308.411 183.487, 301.057 175.673, 293.320 170.337 C 288.585 167.071, 288.221 166.548, 289.092 164.258 C 289.616 162.881, 289.779 160.340, 289.455 158.614 C 288.982 156.090, 289.370 155.001, 291.433 153.063 C 293.633 150.996, 294 149.798, 294 144.679 C 294 139.525, 293.521 137.985, 290.500 133.434 C 286.463 127.353, 286.371 127, 288.812 127 C 290.713 127, 294.999 131.994, 295.001 134.210 C 295.001 134.919, 295.880 137.750, 296.954 140.500 C 298.738 145.069, 298.917 145.241, 299.030 142.500 C 299.098 140.850, 299.272 137.925, 299.415 136 C 299.566 133.990, 298.877 131.063, 297.798 129.124 C 296.764 127.267, 296.128 125.539, 296.384 125.283 C 297.592 124.075, 301.201 126.482, 302.447 129.326 L 303.837 132.500 303.918 128.644 C 303.975 125.982, 303.280 123.933, 301.674 122.025 C 299.500 119.441, 299.175 119.352, 296.674 120.663 C 294.193 121.963, 294 121.917, 294 120.032 C 294 117.627, 292.737 117.407, 290.992 119.510 C 289.121 121.764, 279.077 124.477, 277.700 123.100 C 276.034 121.434, 273.871 121.773, 271.411 124.084 C 268.195 127.105, 262.559 128.098, 255.205 126.939 C 247.769 125.767, 244.600 126.458, 231.255 132.157 C 220.512 136.745, 215.266 137.336, 211.334 134.400 C 205.369 129.947, 204.800 128.268, 203.850 112.333 C 203.363 104.175, 202.749 96.525, 202.484 95.333 C 202.220 94.141, 200.407 92.178, 198.455 90.972 L 194.907 88.779 198.953 85.043 L 203 81.307 202.985 68.404 C 202.976 61.307, 202.639 55, 202.235 54.390 C 200.167 51.265, 194.981 50, 184.237 50 C 173.641 50, 173.308 50.069, 170.687 52.805 M 277.626 57.245 C 278.686 59.293, 279.481 63.876, 279.785 69.673 L 280.265 78.857 276.028 77.398 C 272.150 76.062, 271.525 76.093, 268.646 77.775 L 265.500 79.612 265.500 94.534 L 265.500 109.455 272.402 113.227 C 276.198 115.302, 279.980 117, 280.807 117 C 281.634 117, 283.816 115.852, 285.656 114.449 L 289 111.898 288.994 88.199 C 288.991 74.977, 288.532 62.855, 287.956 60.779 C 286.718 56.322, 283.736 54, 279.252 54 L 275.949 54 277.626 57.245 M 187.610 61.750 C 187.053 64.547, 186.761 72.089, 186.915 79.729 C 186.997 83.815, 187.081 83.920, 189.390 82.868 C 192.788 81.320, 194 77.923, 194 69.953 C 194 64.333, 193.616 62.616, 192 61 C 189.304 58.304, 188.262 58.482, 187.610 61.750 M 110.011 67.125 C 110.017 67.331, 110.692 69.709, 111.511 72.409 C 112.330 75.109, 113 79.046, 113 81.159 C 113 84.540, 112.714 85, 110.615 85 C 109.184 85, 107.584 85.985, 106.615 87.465 C 104.386 90.867, 104.476 91, 109 91 L 113 91 113 103.427 L 113 115.854 116.728 118.927 C 121.299 122.695, 124.589 123.095, 123.503 119.750 C 122.284 115.997, 121.483 105.921, 121.794 98.250 L 122.088 91 125.976 91 C 129.126 91, 130.256 90.449, 131.932 88.096 C 134.786 84.087, 134.630 82.810, 131.435 84.025 C 127.769 85.418, 122.019 85.253, 121.906 83.750 C 121.855 83.063, 121.731 80.361, 121.630 77.746 C 121.415 72.154, 118.397 68.427, 113.250 67.399 C 111.463 67.042, 110.005 66.919, 110.011 67.125 M 318.531 70.950 C 318.208 71.472, 318.821 72.369, 319.892 72.942 C 323.407 74.823, 324.248 80.103, 323.862 97.855 L 323.500 114.500 326.728 114.812 C 333.055 115.423, 333.208 115.009, 333.052 97.656 C 332.975 89.045, 333.186 82, 333.522 82 C 333.857 82, 335.002 82.466, 336.066 83.035 C 337.844 83.987, 338 85.261, 338 98.869 C 338 107.007, 338.193 113.860, 338.429 114.096 C 338.666 114.332, 340.914 114.362, 343.427 114.162 L 347.994 113.799 347.941 98.288 C 347.913 89.758, 348.178 82.490, 348.530 82.139 C 348.883 81.788, 350.033 82.562, 351.086 83.861 C 352.778 85.947, 353 87.931, 353 100.936 C 353 114.924, 353.111 115.752, 355.250 117.694 C 357.678 119.899, 362.504 121.425, 364.042 120.474 C 364.606 120.125, 364.384 118.710, 363.496 116.993 C 362.339 114.755, 362 110.223, 362 96.984 C 362 86.832, 361.568 79.062, 360.939 77.886 C 359.186 74.610, 355.522 73.807, 350.852 75.676 C 346.998 77.218, 346.544 77.209, 343.425 75.530 C 340.198 73.792, 340.006 73.799, 336.644 75.783 L 333.184 77.824 330.842 75.317 C 326.689 70.871, 320.038 68.512, 318.531 70.950 M 218.482 74.642 C 213.016 78.269, 210 81.107, 210 82.623 C 210 83.610, 210.828 83.552, 213.662 82.368 C 215.937 81.417, 218.587 81.075, 220.662 81.464 C 223.530 82.002, 224 82.497, 224 84.974 C 224 87.598, 223.519 87.998, 218.676 89.406 C 211.312 91.547, 209.841 93.493, 209.240 101.894 C 208.564 111.342, 209.288 113.587, 213.751 115.876 L 217.471 117.785 225.236 113.881 L 233 109.978 233 93.009 L 233 76.041 229.040 74.020 C 223.959 71.428, 223.264 71.469, 218.482 74.642 M 303.500 76.161 C 293.663 81.187, 294.102 80.237, 294.062 96.570 L 294.026 110.918 297.357 113.459 C 299.190 114.857, 301.174 116, 301.768 116 C 302.361 116, 306.256 114.161, 310.423 111.913 L 317.999 107.827 317.913 92.418 C 317.828 77.141, 317.805 76.992, 315.279 75.005 C 311.943 72.381, 310.652 72.508, 303.500 76.161 M 63.204 77.439 C 53.388 82.728, 54 81.388, 54 97.616 L 54 111.987 58.104 114.961 L 62.209 117.934 66.354 115.820 C 68.635 114.658, 72.195 112.637, 74.266 111.331 L 78.032 108.955 77.940 94.360 C 77.889 86.333, 77.602 79.127, 77.302 78.346 C 76.775 76.971, 71.924 73.977, 70.300 74.023 C 69.860 74.035, 66.667 75.572, 63.204 77.439 M 89.203 77.633 L 81.907 81.091 82.203 87.296 L 82.500 93.500 89.500 97.067 L 96.500 100.634 96.805 105.317 C 96.972 107.893, 96.713 110, 96.229 110 C 94.557 110, 91 105.364, 91 103.186 C 91 101.983, 90.766 101, 90.480 101 C 89.029 101, 82.001 106.193, 82.004 107.263 C 82.011 109.549, 85.697 114.486, 88.612 116.111 C 91.391 117.662, 91.774 117.597, 98.750 114.392 L 106 111.061 106 103.509 L 106 95.956 98.250 92.195 C 90.822 88.589, 90.487 88.278, 90.190 84.716 C 90.019 82.672, 90.304 81, 90.823 81 C 91.342 81, 93.393 82.800, 95.381 85 C 97.369 87.200, 99.309 89, 99.693 89 C 100.939 89, 106 83.663, 106 82.348 C 106 80.333, 99.970 73.991, 98.146 74.087 C 97.241 74.135, 93.217 75.731, 89.203 77.633 M 139.454 76.051 C 137.529 78.178, 137.534 78.202, 140.315 80.595 C 143.635 83.450, 144.863 83.625, 144.912 81.250 C 144.932 80.287, 145.073 78.375, 145.224 77 C 145.590 73.681, 142.116 73.109, 139.454 76.051 M 238 91.375 C 238 100.931, 237.720 110.149, 237.378 111.860 C 236.617 115.666, 238.532 116.729, 243.756 115.399 L 247.290 114.500 247.084 97.750 C 246.909 83.428, 247.096 81, 248.380 81 C 251.017 81, 251.489 83.196, 252 97.838 C 252.495 112.044, 252.526 112.199, 255.306 114.588 C 256.897 115.956, 259.386 117, 261.056 117 C 264.349 117, 264.603 116.382, 262.468 113.559 C 261.316 112.036, 261 108.095, 261 95.263 C 261 79.233, 260.951 78.860, 258.545 76.455 C 255.670 73.579, 254.023 73.420, 249.790 75.609 C 246.931 77.087, 246.405 77.087, 243.306 75.609 C 241.450 74.724, 239.497 74, 238.966 74 C 238.382 74, 238 80.865, 238 91.375 M 365.755 77.500 C 366.350 80.610, 367.717 80.745, 368.294 77.750 L 368.728 75.500 368.864 77.750 C 368.973 79.553, 369.596 80, 372 80 C 374.533 80, 375 79.611, 375 77.500 C 375 75.176, 374.657 75, 370.139 75 C 365.492 75, 365.298 75.111, 365.755 77.500 M 303.894 89.750 C 303.836 94.563, 303.877 99.850, 303.985 101.500 C 304.177 104.430, 306.467 108, 308.155 108 C 308.620 108, 309 102.925, 309 96.723 C 309 88.134, 308.629 84.915, 307.443 83.223 C 306.587 82, 305.462 81, 304.943 81 C 304.424 81, 303.952 84.938, 303.894 89.750 M 63 94 C 63 105.052, 63.175 106.175, 65.213 108.213 L 67.426 110.426 68.287 106.463 C 68.761 104.283, 68.973 98.505, 68.760 93.623 C 68.443 86.378, 68.027 84.493, 66.495 83.373 C 65.462 82.618, 64.254 82, 63.809 82 C 63.364 82, 63 87.400, 63 94 M 138 96.893 C 138 111.781, 137.956 111.655, 142.750 110.370 C 144.928 109.786, 145 109.376, 145 97.500 C 145 86.676, 144.794 85.174, 143.250 84.730 C 142.287 84.453, 140.713 83.903, 139.750 83.506 C 138.132 82.840, 138 83.850, 138 96.893 M 276.226 84.774 C 274.209 86.791, 274 87.979, 274 97.441 C 274 103.184, 274.390 108.123, 274.866 108.417 C 275.343 108.712, 276.568 108.030, 277.588 106.903 C 279.735 104.530, 280.602 94.296, 279.272 87.024 L 278.453 82.547 276.226 84.774 M 148.318 86.052 C 148.678 87.398, 148.979 93.338, 148.986 99.250 L 149 110 153 110 L 157 110 157 101.500 C 157 96.825, 157.398 93, 157.883 93 C 159.244 93, 159.823 96.394, 159.281 101.202 C 158.569 107.516, 160.928 112.606, 164.979 113.495 C 168.750 114.324, 169.503 113.809, 168.169 111.315 C 167.622 110.294, 167.051 105.193, 166.900 99.979 C 166.749 94.766, 166.272 89.765, 165.841 88.868 C 164.682 86.458, 162.107 85.810, 158.468 87.010 C 155.732 87.914, 154.666 87.736, 151.452 85.839 L 147.663 83.604 148.318 86.052 M 221.278 92.629 C 216.525 96.632, 216.823 106.759, 221.781 109.696 C 223.642 110.798, 223.828 110.602, 224.150 107.196 C 224.343 105.163, 224.275 100.633, 224 97.129 L 223.500 90.759 221.278 92.629 M 268.153 133.905 C 262.552 136.140, 256.569 144.961, 258.211 148.564 C 259.218 150.773, 259.226 150.774, 261.204 148.796 C 263.299 146.701, 263.574 146.708, 275.897 149.138 C 279.030 149.756, 282.231 151.140, 283.528 152.437 L 285.763 154.672 287.429 151.850 C 289.977 147.537, 287.885 138.829, 283.352 134.882 C 280.450 132.355, 273.203 131.889, 268.153 133.905 M 265.507 156.989 C 265.157 157.555, 265.558 157.723, 266.448 157.382 C 267.302 157.054, 268 157.284, 268 157.893 C 268 158.502, 267.325 159, 266.500 159 C 265.667 159, 265 159.889, 265 161 C 265 163.228, 266.960 163.640, 268.800 161.800 C 270.781 159.819, 270.293 156, 268.059 156 C 266.991 156, 265.843 156.445, 265.507 156.989 M 272.668 169.422 C 271.904 171.414, 268.023 171.770, 264.688 170.154 C 263.141 169.404, 261.603 169.063, 261.271 169.396 C 260.939 169.728, 261.192 170, 261.833 170 C 262.475 170, 263 170.498, 263 171.107 C 263 171.716, 262.302 171.946, 261.448 171.618 C 260.558 171.277, 260.157 171.445, 260.507 172.011 C 260.843 172.555, 261.766 173, 262.559 173 C 263.352 173, 264 173.437, 264 173.971 C 264 175.386, 270.350 176.895, 271.159 175.672 C 271.561 175.065, 272.467 175.324, 273.481 176.338 C 275.406 178.263, 276.446 178.530, 275.395 176.830 C 274.901 176.031, 275.229 175.874, 276.428 176.334 C 277.746 176.840, 277.548 176.252, 275.634 173.977 C 274.231 172.310, 273.338 170.283, 273.649 169.473 C 273.960 168.663, 273.989 168, 273.714 168 C 273.439 168, 272.968 168.640, 272.668 169.422" stroke="none" fill="#fffcfc" fill-rule="evenodd"/><path d="" stroke="none" fill="#fcfcfc" fill-rule="evenodd"/></svg>