<svg width="351" height="97" viewBox="0 0 351 97" fill="none" xmlns="http://www.w3.org/2000/svg">
<g clip-path="url(#clip0_9492_428437)">
<path d="M96.7699 34.53L93.9899 13.43H80.6599V58.55H90.1299V33.92L94.3999 58.55H98.3899L102.66 33.92V58.55H112.27V13.43H99.6799L96.7699 34.53Z" fill="white"/>
<path d="M121.05 13.43L114.62 58.55H124.3L125.04 51.94H130.19L131 58.55H141.83L134.79 13.43H121.05ZM126.06 43.03L127.62 29.32L129.18 43.03H126.07H126.06Z" fill="white"/>
<path d="M160.17 13.43H144.19V58.55H160.23C166.8 58.55 170.25 55.28 170.25 48.18V23.38C170.25 16.16 166.39 13.43 160.16 13.43H160.17ZM158.88 47.15C158.88 49.03 158.41 49.88 156.78 49.88H155.22V21.8H156.91C158.47 21.8 158.87 22.53 158.87 24.41V47.15H158.88Z" fill="white"/>
<path d="M188.57 13.43H172.59V58.55H188.63C195.2 58.55 198.65 55.28 198.65 48.18V23.38C198.65 16.16 194.79 13.43 188.56 13.43H188.57ZM187.28 47.15C187.28 49.03 186.81 49.88 185.18 49.88H183.62V21.8H185.31C186.87 21.8 187.27 22.53 187.27 24.41V47.15H187.28Z" fill="white"/>
<path d="M201.03 58.55H222.36V49.03H212.07V40.05H219.99V30.47H212.07V22.77H222.36V13.43H201.03V58.55Z" fill="white"/>
<path d="M241.32 35.26L235.57 13.43H224.74V58.55H234.42V35.02L241.05 58.55H250.87V13.43H241.32V35.26Z" fill="white"/>
<path d="M312.13 12.87H309.78C301.9 12.87 298.99 17.24 298.99 21.79V28.89H309.36V22.76C309.36 21.61 309.71 21.06 310.81 21.06C311.85 21.06 312.33 21.61 312.33 22.76V25.19C312.33 26.83 311.78 27.98 309.36 31.44C308.05 33.08 306.46 35.26 305 37.26C298.43 45.75 298.15 47.94 298.15 52.61V58.55H323.36V49.88H308.25C308.25 48.97 308.04 48.24 314.54 41.39C316.41 39.51 318.07 37.75 319.52 36.11C323.74 31.56 324.02 29.19 324.02 24.64V22.27C324.02 16.2 319.87 12.87 312.12 12.87H312.13Z" fill="white"/>
<path d="M348.04 40.05V13.12H336.54C333.9 19.9 328.1 32.66 325.21 38.61V49.33H338.56V58.55H348.04V49.33H351.07V40.05H348.04ZM338.56 40.05H332.92C334.11 37.71 337.76 30.07 338.56 28.11V40.05Z" fill="white"/>
<path d="M36 72C55.8823 72 72 55.8823 72 36C72 16.1177 55.8823 0 36 0C16.1177 0 0 16.1177 0 36C0 55.8823 16.1177 72 36 72Z" fill="white"/>
<path d="M59.68 41.8H60.6V41.96H60.23V42.74H60.05V41.96H59.68V41.8ZM16.74 45.42H14.67C14.2 45.42 13.97 45.16 13.97 44.65V43.83C13.97 43.6 14.03 43.41 14.16 43.25C14.28 43.1 14.45 43.02 14.66 43.02H16.29C16.67 43.02 16.93 43.2 17.05 43.58L17.28 44.37H18.77V43.5C18.77 42.92 18.58 42.44 18.19 42.05C17.79 41.66 17.31 41.47 16.75 41.47H14.34C13.77 41.47 13.28 41.67 12.87 42.08C12.47 42.48 12.27 42.97 12.27 43.53V44.93C12.27 45.5 12.47 45.99 12.87 46.4C13.28 46.8 13.77 47 14.34 47H16.41C16.87 47 17.1 47.27 17.1 47.79V48.85C17.1 49.07 17.04 49.27 16.92 49.42C16.79 49.57 16.62 49.65 16.42 49.65H14.77C14.35 49.65 14.1 49.46 14 49.09L13.78 48.2H12.28V49.17C12.28 49.76 12.47 50.24 12.86 50.63C13.25 51.02 13.73 51.21 14.31 51.21H16.75C17.31 51.21 17.81 51.01 18.21 50.6C18.61 50.2 18.81 49.71 18.81 49.14V47.49C18.81 46.93 18.61 46.44 18.2 46.03C17.8 45.62 17.31 45.42 16.75 45.42H16.74ZM26.68 42.09C27.08 42.49 27.28 42.97 27.28 43.53V45.57C27.28 46.14 27.08 46.63 26.68 47.03C26.27 47.43 25.78 47.64 25.21 47.64H22.53V51.21H20.81V41.49H25.21C25.78 41.49 26.27 41.69 26.68 42.1V42.09ZM25.56 43.85C25.56 43.61 25.49 43.43 25.36 43.28C25.23 43.13 25.06 43.06 24.86 43.06H22.52V46.08H24.86C25.06 46.08 25.23 46 25.36 45.85C25.49 45.7 25.56 45.51 25.56 45.28V43.86V43.85ZM42.67 47.19L44.38 51.21H42.55L40.97 47.4H39.34V51.21H37.62V41.49H41.92C42.5 41.49 42.98 41.69 43.38 42.1C43.78 42.5 43.99 42.99 43.99 43.54V45.24C43.99 45.68 43.87 46.08 43.63 46.44C43.38 46.79 43.06 47.04 42.68 47.21L42.67 47.19ZM42.26 43.85C42.26 43.62 42.2 43.43 42.08 43.28C41.96 43.13 41.79 43.06 41.59 43.06H39.34V45.84H41.59C41.79 45.84 41.95 45.77 42.08 45.62C42.2 45.47 42.26 45.28 42.26 45.05V43.85ZM45.07 43.05H47.54V51.2H49.26V43.05H51.75V41.48H45.06V43.05H45.07ZM57.48 45.42H55.41C54.95 45.42 54.72 45.16 54.72 44.65V43.83C54.72 43.6 54.78 43.41 54.91 43.25C55.03 43.1 55.21 43.02 55.41 43.02H57.04C57.42 43.02 57.68 43.2 57.8 43.58L58.03 44.37H59.52V43.5C59.52 42.92 59.32 42.44 58.93 42.05C58.53 41.66 58.05 41.47 57.48 41.47H55.08C54.51 41.47 54.01 41.67 53.62 42.08C53.22 42.48 53.01 42.97 53.01 43.53V44.93C53.01 45.5 53.22 45.99 53.62 46.4C54.02 46.8 54.51 47 55.08 47H57.15C57.61 47 57.84 47.27 57.84 47.79V48.85C57.84 49.07 57.78 49.27 57.66 49.42C57.53 49.57 57.36 49.65 57.15 49.65H55.5C55.09 49.65 54.83 49.46 54.73 49.09L54.51 48.2H53.01V49.17C53.01 49.76 53.21 50.24 53.59 50.63C53.98 51.02 54.46 51.21 55.04 51.21H57.47C58.05 51.21 58.53 51.01 58.94 50.6C59.34 50.2 59.54 49.71 59.54 49.14V47.49C59.54 46.93 59.34 46.44 58.92 46.03C58.52 45.62 58.03 45.42 57.47 45.42H57.48ZM61.72 41.8L61.35 42.37L60.98 41.8H60.82V42.74H60.98V42.16C60.98 42.16 60.96 42.1 60.96 42.06C60.98 42.09 61 42.13 61.02 42.15L61.33 42.62H61.36L61.66 42.16C61.66 42.16 61.69 42.1 61.71 42.06C61.71 42.11 61.71 42.14 61.71 42.16V42.74H61.88V41.8H61.74H61.72ZM34.91 42.08C35.32 42.47 35.52 42.96 35.52 43.53V49.12C35.52 49.71 35.32 50.2 34.91 50.6C34.5 51 34.03 51.21 33.45 51.21H31.13C30.55 51.21 30.06 51.01 29.66 50.6C29.26 50.2 29.05 49.71 29.05 49.12V43.53C29.05 42.97 29.26 42.48 29.66 42.09C30.06 41.69 30.55 41.48 31.13 41.48H33.45C34.03 41.48 34.51 41.68 34.91 42.08ZM33.8 43.85C33.8 43.62 33.74 43.43 33.6 43.28C33.47 43.13 33.31 43.06 33.11 43.06H31.46C31.25 43.06 31.08 43.13 30.95 43.28C30.83 43.43 30.77 43.62 30.77 43.85V48.83C30.77 49.06 30.83 49.24 30.95 49.4C31.08 49.56 31.24 49.64 31.46 49.64H33.11C33.31 49.64 33.48 49.56 33.6 49.4C33.73 49.25 33.8 49.06 33.8 48.83V43.85ZM41.05 16.67H22.54L19.71 21.17H38.21L41.05 16.67ZM48.06 30.16H45.29L42.44 34.67H50.9L53.74 39.17H59.14L44.82 16.51L33.32 34.67H20.74L23.63 30.16H31.44L34.29 25.66H16.86L14.01 30.16H18.19L12.49 39.17H35.93L44.82 25.04L48.05 30.15L48.06 30.16Z" fill="black"/>
<path d="M292.95 13.67C291.29 14.86 288.11 16.49 284.03 15.48C276.95 13.73 274.93 7.64001 274.93 7.64001C274.93 7.64001 272.9 13.74 265.82 15.48C261.73 16.49 258.56 14.86 256.9 13.67H255.62V46.56C255.62 47.39 255.82 49.03 257.17 50.67C258.84 52.69 261.66 54.01 265.57 54.57C268.68 55.02 270.98 56 272.6 57.56C273.8 58.71 274.93 60.69 274.93 60.69C274.93 60.69 276.1 58.66 277.25 57.56C278.87 56 281.17 55.02 284.28 54.57C288.18 54.01 291.02 52.69 292.68 50.67C294.03 49.03 294.24 47.39 294.24 46.56V13.67H292.96H292.95Z" fill="white"/>
<path d="M293.07 14.95C293.07 14.95 289.2 17.96 283.75 16.6C277.39 15.01 274.92 10.25 274.92 10.25C274.92 10.25 272.45 15.01 266.09 16.6C260.64 17.96 256.77 14.95 256.77 14.95V46.55C256.77 47.63 257.22 52.19 265.73 53.41C269.09 53.9 271.6 54.98 273.4 56.71C274.05 57.33 274.54 57.97 274.92 58.55C275.29 57.97 275.78 57.34 276.44 56.71C278.24 54.98 280.75 53.9 284.11 53.41C292.62 52.18 293.07 47.62 293.07 46.55V14.95Z" fill="#013369"/>
<path d="M274.92 55.35C274.92 55.35 277.39 52.3 283.81 51.32C291.16 50.18 290.94 46.73 290.94 46.56V30.01H258.9V46.56C258.9 46.74 258.69 50.19 266.03 51.32C272.45 52.31 274.92 55.35 274.92 55.35Z" fill="white"/>
<path d="M267.45 42.1V34.23L266.46 33.68V31.64H270.96V33.68L270.02 34.23V50.29L267.62 49.57L264.14 39.31V46.07L265.24 46.92V49.01L260.42 47.78V46L261.52 45.57V34.24L260.39 33.68V31.64H264.04L267.45 42.11V42.1Z" fill="#D50A0A"/>
<path d="M275.73 49.3L276.69 50.45V52.49L271.91 50.7V48.97L272.97 48.54V34.23L271.91 33.7V31.64H280.22V35.8H278.39L277.84 34.09H275.73V38.9H277.32L277.95 37.99H279.22V42.26H277.95L277.35 41.39H275.74V49.31L275.73 49.3Z" fill="#D50A0A"/>
<path d="M281.01 50.02V47.98L282.2 47V34.22L281.18 33.69V31.63H285.97V33.69L285.03 34.22V46.21L287.09 45.65L287.48 42.51H289.45V47.76L281.01 50.02Z" fill="#D50A0A"/>
<path d="M259.73 26.61L258.28 25.52H260.05L260.64 23.84L261.23 25.52H263L261.55 26.61L262.09 28.31L260.65 27.3L259.21 28.31L259.74 26.61H259.73Z" fill="white"/>
<path d="M266.01 26.61L264.56 25.52H266.33L266.91 23.84L267.5 25.52H269.27L267.82 26.61L268.36 28.31L266.92 27.3L265.48 28.31L266.01 26.61Z" fill="white"/>
<path d="M259.73 20.94L258.28 19.85H260.05L260.64 18.17L261.23 19.85H263L261.55 20.94L262.09 22.64L260.65 21.63L259.21 22.64L259.74 20.94H259.73Z" fill="white"/>
<path d="M266.01 20.94L264.56 19.85H266.33L266.91 18.17L267.5 19.85H269.27L267.82 20.94L268.36 22.64L266.92 21.63L265.48 22.64L266.01 20.94Z" fill="white"/>
<path d="M290.64 28.31L289.2 27.3L287.76 28.31L288.3 26.61L286.85 25.52H288.62L289.2 23.84L289.78 25.52H291.56L290.1 26.61L290.64 28.31Z" fill="white"/>
<path d="M284.35 28.31L282.91 27.3L281.47 28.31L282 26.61L280.55 25.52H282.32L282.9 23.84L283.49 25.52H285.26L283.81 26.61L284.34 28.31H284.35Z" fill="white"/>
<path d="M290.64 22.64L289.2 21.63L287.76 22.64L288.3 20.94L286.85 19.85H288.62L289.2 18.17L289.78 19.85H291.56L290.1 20.94L290.64 22.64Z" fill="white"/>
<path d="M284.35 22.64L282.91 21.63L281.47 22.64L282 20.94L280.55 19.85H282.32L282.9 18.17L283.49 19.85H285.26L283.81 20.94L284.34 22.64H284.35Z" fill="white"/>
<path d="M278.91 16.39C278.91 16.39 278.16 16.78 277.11 17.81C277.34 17.94 277.61 18.13 277.76 18.26C277.6 18.4 277.44 18.55 277.29 18.69C276.61 18.13 275.9 17.84 275.35 17.71C275.53 17.58 275.73 17.45 275.92 17.33C276.21 17.41 276.5 17.52 276.5 17.52C277.68 16.62 278.7 16.23 278.7 16.23C278.7 16.23 278.58 16.17 278.27 16.18C273.62 16.24 269.34 19.71 270.15 25.65C270.23 26.28 270.48 27.43 270.79 27.93C270.89 26.94 271.26 24.75 272.37 22.41C271.99 22.27 271.67 22.22 271.67 22.22C271.78 21.99 271.93 21.68 271.93 21.68C272.74 21.83 273.47 22.18 274.09 22.67C273.94 22.91 273.84 23.07 273.77 23.19C273.55 23.02 273.33 22.87 273.09 22.74C271.85 24.9 271.28 26.95 271.04 28.02C271.05 28.09 271.18 28.12 271.29 28.11C276.39 27.45 278.77 24.85 279.5 22.03C279.98 20.18 279.82 18.25 279.18 16.67C279.14 16.56 279.05 16.37 278.9 16.39H278.91ZM274.53 22C273.87 21.45 273.1 21.11 272.34 20.97C272.34 20.97 272.57 20.59 272.7 20.39C273.63 20.57 274.38 21.01 274.91 21.45C274.77 21.64 274.65 21.83 274.53 22ZM275.37 20.82C274.75 20.3 274.01 19.92 273.16 19.75C273.29 19.58 273.44 19.41 273.58 19.24C274.23 19.35 275.06 19.69 275.78 20.29C275.64 20.46 275.49 20.65 275.36 20.82H275.37ZM276.3 19.7C275.66 19.17 274.93 18.82 274.16 18.66C274.35 18.48 274.54 18.34 274.71 18.2C275.67 18.43 276.32 18.86 276.76 19.23C276.6 19.39 276.45 19.55 276.3 19.71V19.7Z" fill="white"/>
</g>
<defs>
<clipPath id="clip0_9492_428437">
<rect width="351" height="97" fill="white"/>
</clipPath>
</defs>
</svg>
