<svg width="280" height="158" viewBox="0 0 280 158" fill="none" xmlns="http://www.w3.org/2000/svg">
<g id="TS4-EP-14_Game-Box_LOGO">
<path id="Union" fill-rule="evenodd" clip-rule="evenodd" d="M229.916 65.9987H250.044V37.8308L229.916 65.9987ZM269.944 5.68865V65.9987H279.602V86.3142H269.974V101.563H250.044V86.3142H213.999C215.641 85.4408 217.18 84.3856 218.585 83.1684C223.778 78.6359 226.522 72.2783 226.522 64.7801C226.522 56.0391 222.971 50.7141 218.434 47.2561L251.29 5.68865H269.944ZM221.034 22.4982H220.24V19.7786H219.229V19.0942H222.051V19.7786H221.034V22.4982ZM224.434 21.6877L223.483 20.1929L223.489 22.4982H222.755V19.0762H223.573L224.476 20.517L225.372 19.0762H226.167V22.4982H225.439V20.1929L224.494 21.6877H224.434ZM56.7021 27.511C56.7021 33.1722 62.7678 35.0452 69.7902 37.2065V37.2305C80.5374 40.5384 92.7168 44.2905 92.7168 61.4722C92.7168 69.6668 89.666 76.4146 83.8892 80.9832C78.6239 85.1556 71.114 87.4549 62.6895 87.4549C59.9752 87.4538 57.2658 87.2248 54.59 86.7705C47.6879 85.4678 40.5632 82.0818 31.9883 75.0218L41.7487 60.9799C41.8292 61.0565 41.916 61.1395 42.0089 61.2284C44.58 63.6876 51.8353 70.6274 61.8651 70.6274C66.2639 70.6274 73.2382 68.6763 73.2382 62.877C73.2382 57.3299 67.1665 55.3667 60.1321 53.1275L60.1285 53.1263C49.3942 49.6927 37.2295 45.8015 37.2295 29.0599C37.2295 13.451 51.8942 5.04628 65.7344 5.04628C74.3854 5.12668 82.7877 7.94332 89.7321 13.0908L90.4001 13.5951L80.5254 26.0942L79.8755 25.5719C75.9581 22.3661 72.3476 20.3729 66.3301 20.3729C62.4428 20.3729 56.7021 22.6422 56.7021 27.511ZM194.792 37.7768C194.792 41.0547 198.36 42.3094 204.185 44.1104H204.137C212.278 46.6138 223.393 50.0357 223.393 64.75C223.393 78.1676 213.488 86.8365 198.119 86.8365C192.164 86.905 186.281 85.5374 180.969 82.8503L180.813 82.7782L181.613 86.2842H162.664L159.601 62.3427L155.088 86.2842H138.239L133.973 62.5348L130.314 86.2842H112.153L124.64 12.0763H140.05L146.946 46.5838L153.259 19.3464H168.989L179.02 73.2929L185.38 65.2003L185.982 65.9207C188.72 69.0965 192.679 70.7714 197.415 70.7714C199.894 70.7714 205.015 69.5708 205.015 65.8667C205.015 62.6428 201.435 61.3401 195.598 59.467C187.486 56.8856 176.39 53.3376 176.39 38.9835C176.39 25.692 188.804 18.4879 200.49 18.4879C208.144 18.5432 215.55 21.1961 221.491 26.0101L222.093 26.4964L212.465 38.7133L211.863 38.179C208.319 35.0933 205.665 33.5264 200.996 33.5264C198.462 33.5264 194.792 35.0453 194.792 37.7768ZM111.365 86.2842V19.3584H92.2956V47.4903C94.4499 51.0203 95.7978 55.5408 95.7978 61.4482C95.8815 66.4455 94.6755 71.3802 92.2956 75.7783V86.2842H111.365ZM121.456 14.6697C120.011 15.8237 118.228 16.4769 116.378 16.5308H116.39C115.612 16.5593 114.836 16.4276 114.112 16.144C113.387 15.8604 112.729 15.4309 112.178 14.8823C111.627 14.3337 111.195 13.6778 110.909 12.9554C110.623 12.233 110.49 11.4596 110.517 10.6835C110.517 7.30957 112.924 4.84217 116.534 4.84217C118.761 4.84217 120.469 5.89877 121.878 8.09602L114.657 12.7366C115.174 13.1894 115.84 13.4353 116.528 13.427C117.681 13.3235 118.779 12.8876 119.687 12.1723L121.456 14.6697ZM117.864 8.01196C117.482 7.79092 117.048 7.67298 116.606 7.66976C116.245 7.65714 115.885 7.71889 115.549 7.85118C115.213 7.98346 114.908 8.18344 114.653 8.43862C114.397 8.6938 114.198 8.9987 114.066 9.33433C113.934 9.66995 113.873 10.0291 113.886 10.3893V10.5634L117.864 8.01196ZM103.554 16.4107H100.293L100.275 1H103.229V6.22895C103.613 5.78086 104.091 5.42152 104.628 5.17583C105.165 4.93014 105.749 4.80399 106.34 4.80615C108.35 4.80615 109.71 6.09088 109.71 8.27611V16.4107H106.425V9.29069C106.425 8.21608 106.058 7.69979 105.221 7.69979C104.198 7.69979 103.554 8.39017 103.554 9.65688V16.4107ZM92.3678 16.4107H96.0144L96.0204 4.75212H99.5407V1.31217H89.4674L88.4745 4.74611H92.3678V16.4107ZM39.7484 50.3295L30.2259 50.2995L14.9264 87.0323L27.2758 49.8904L19.9538 48.895L12.6341 47.89L14.5678 86.9849L9.68163 47.4942L0.500977 44.9682L10.0216 44.9976L25.3217 8.26416L12.9729 45.4061L20.295 46.4021L27.6146 47.4077L25.681 8.31282L30.5671 47.8035L39.7484 50.3295ZM14.4357 89.2969L40.25 50.3979L25.8143 6L0 44.899L14.4357 89.2969Z" fill="white"/>
<path id="Subtract" fill-rule="evenodd" clip-rule="evenodd" d="M1 101L280 109.374V151.722L19.6336 157L1 101ZM80.5656 121.345V135.632H77.4993V129.669H72.0662V135.632H69V121.345H72.0662V127.017H77.4917V121.345H80.5579H80.5656ZM93.2838 121.583C92.3617 121.192 91.3857 121 90.3483 121C89.2955 121 88.3118 121.192 87.3896 121.583C86.4675 121.973 85.6606 122.502 84.9843 123.177C84.308 123.851 83.7624 124.641 83.3705 125.545C82.9786 126.45 82.7788 127.423 82.7788 128.45C82.7788 129.477 82.9709 130.451 83.3705 131.355C83.7624 132.26 84.3004 133.049 84.9843 133.724C85.6682 134.398 86.4675 134.927 87.3896 135.318C88.3118 135.709 89.3108 135.9 90.3483 135.9C91.3857 135.9 92.3617 135.709 93.2838 135.318C94.206 134.927 95.0052 134.398 95.6969 133.724C96.3885 133.049 96.9264 132.26 97.326 131.355C97.718 130.451 97.9178 129.477 97.9178 128.45C97.9178 127.423 97.718 126.45 97.326 125.545C96.9264 124.641 96.3808 123.851 95.6969 123.177C95.0129 122.502 94.206 121.973 93.2838 121.583ZM92.0466 132.597C91.5163 132.827 90.9477 132.942 90.3483 132.942C89.7335 132.942 89.1571 132.827 88.6269 132.597C88.0966 132.367 87.6279 132.045 87.2359 131.639C86.844 131.232 86.5289 130.757 86.2984 130.213C86.0679 129.669 85.9526 129.086 85.9526 128.458C85.9526 127.829 86.0679 127.247 86.2984 126.703C86.5289 126.158 86.8363 125.683 87.2359 125.277C87.6279 124.871 88.0966 124.549 88.6269 124.319C89.1648 124.089 89.7489 123.974 90.3483 123.974C90.9477 123.974 91.5163 124.089 92.0466 124.319C92.5769 124.549 93.0379 124.871 93.4452 125.277C93.8525 125.683 94.1676 126.158 94.3981 126.703C94.6287 127.247 94.7439 127.829 94.7439 128.458C94.7439 129.086 94.6287 129.669 94.3981 130.213C94.1676 130.757 93.8448 131.232 93.4452 131.639C93.0456 132.045 92.5769 132.367 92.0466 132.597ZM104.073 130.021H103.136V135.632H100.062V121.345H104.565C105.195 121.345 105.825 121.414 106.456 121.56C107.093 121.705 107.662 121.95 108.177 122.303C108.692 122.656 109.099 123.123 109.414 123.713C109.729 124.296 109.883 125.039 109.883 125.936C109.883 126.396 109.814 126.818 109.668 127.193C109.522 127.569 109.33 127.898 109.076 128.19C108.822 128.481 108.53 128.734 108.185 128.956C107.846 129.171 107.485 129.355 107.101 129.508L111.32 135.632H107.593L104.073 130.021ZM103.136 127.983H104.258C104.465 127.983 104.711 127.952 104.995 127.891C105.28 127.829 105.549 127.722 105.802 127.576C106.056 127.431 106.271 127.216 106.448 126.956C106.625 126.687 106.717 126.35 106.717 125.944C106.717 125.538 106.625 125.216 106.448 124.986C106.271 124.756 106.056 124.579 105.802 124.464C105.549 124.35 105.28 124.281 104.995 124.25C104.711 124.219 104.465 124.212 104.258 124.212H103.136V127.983ZM119.397 123.951C119.919 124.135 120.388 124.449 120.795 124.901L120.803 124.894L122.601 122.625C122.271 122.318 121.879 122.05 121.433 121.805C121.034 121.606 120.557 121.414 119.988 121.245C119.42 121.077 118.759 120.992 118.013 120.992C117.268 120.992 116.576 121.107 115.939 121.337C115.308 121.567 114.755 121.889 114.294 122.288C113.833 122.686 113.472 123.154 113.203 123.683C112.934 124.219 112.803 124.786 112.803 125.4C112.803 126.013 112.888 126.526 113.057 126.94C113.233 127.354 113.472 127.714 113.787 128.013C114.102 128.312 114.478 128.565 114.924 128.787C115.37 129.01 115.862 129.217 116.407 129.424C116.968 129.638 117.437 129.815 117.829 129.952C118.221 130.09 118.536 130.221 118.782 130.351C119.028 130.481 119.205 130.635 119.312 130.819C119.42 131.003 119.474 131.233 119.474 131.547C119.474 131.861 119.389 132.106 119.22 132.283C119.051 132.459 118.851 132.604 118.636 132.704C118.413 132.804 118.198 132.865 117.99 132.896C117.775 132.919 117.621 132.934 117.529 132.934H117.068C116.853 132.934 116.607 132.903 116.33 132.842C116.046 132.781 115.746 132.673 115.416 132.513C115.086 132.352 114.763 132.122 114.432 131.807L112.511 134.26C112.865 134.605 113.295 134.896 113.802 135.142C114.233 135.356 114.77 135.555 115.416 135.732C116.061 135.908 116.807 136 117.668 136C118.282 136 118.905 135.908 119.543 135.732C120.181 135.555 120.749 135.272 121.264 134.873C121.779 134.475 122.194 133.961 122.524 133.34C122.855 132.719 123.016 131.953 123.016 131.056C123.016 130.527 122.886 130.014 122.624 129.508C122.394 129.086 122.025 128.649 121.51 128.205C120.995 127.76 120.234 127.385 119.228 127.086L118.845 126.971L118.842 126.97C118.576 126.89 118.322 126.814 118.083 126.741C117.729 126.634 117.422 126.511 117.153 126.373C116.884 126.235 116.669 126.074 116.515 125.882C116.354 125.691 116.277 125.461 116.277 125.185C116.277 124.763 116.43 124.426 116.753 124.173C117.076 123.92 117.46 123.775 117.921 123.736C118.382 123.698 118.874 123.767 119.397 123.951ZM134.244 132.781L133.421 135.64H125.237V121.345H133.114L133.936 124.204H128.311V126.956H132.199V129.815H128.311V132.773H134.244V132.781ZM146.009 130.021H146.947L150.466 135.632H154.193L149.974 129.508C150.359 129.355 150.72 129.171 151.058 128.956C151.404 128.734 151.696 128.481 151.949 128.19C152.203 127.898 152.395 127.569 152.541 127.193C152.687 126.818 152.756 126.396 152.756 125.936C152.756 125.039 152.603 124.296 152.287 123.713C151.972 123.123 151.565 122.656 151.05 122.303C150.535 121.95 149.967 121.705 149.329 121.56C148.699 121.414 148.069 121.345 147.438 121.345H142.935V135.632H146.009V130.021ZM147.131 127.983H146.009V124.212H147.131C147.338 124.212 147.584 124.219 147.869 124.25C148.153 124.281 148.422 124.35 148.676 124.464C148.929 124.579 149.144 124.756 149.321 124.986C149.498 125.216 149.59 125.538 149.59 125.944C149.59 126.35 149.498 126.687 149.321 126.956C149.144 127.216 148.929 127.431 148.676 127.576C148.422 127.722 148.153 127.829 147.869 127.891C147.584 127.952 147.338 127.983 147.131 127.983ZM164.445 135.632L163.546 132.773H158.958L158.059 135.632H154.762L159.742 121.345H162.769L167.742 135.632H164.445ZM159.742 130.328H162.769L161.256 125.568L159.742 130.328ZM182.127 135.632V121.345H179.053V131.125L172.406 121.345H169.332V135.632H172.406V125.997L178.769 135.632H182.127ZM196.29 133.923C195.653 134.551 194.915 135.042 194.093 135.394C193.27 135.747 192.387 135.923 191.441 135.923C190.496 135.923 189.528 135.739 188.659 135.371C187.783 135.004 187.023 134.49 186.377 133.831C185.732 133.172 185.217 132.382 184.84 131.47C184.464 130.558 184.279 129.562 184.279 128.466C184.279 127.369 184.464 126.465 184.84 125.561C185.217 124.656 185.724 123.867 186.377 123.192C187.023 122.518 187.783 121.989 188.659 121.598C189.535 121.207 190.458 121.015 191.441 121.015C192.425 121.015 193.263 121.192 194.093 121.544C194.923 121.897 195.645 122.387 196.275 123.016L194.123 124.978C193.77 124.679 193.37 124.449 192.94 124.281C192.509 124.112 192.048 124.035 191.572 124.035C191.011 124.035 190.481 124.158 189.989 124.396C189.489 124.633 189.059 124.955 188.69 125.361C188.321 125.768 188.029 126.243 187.814 126.772C187.591 127.3 187.484 127.852 187.484 128.427C187.484 129.056 187.591 129.631 187.814 130.159C188.029 130.688 188.329 131.156 188.69 131.547C189.059 131.945 189.489 132.252 189.989 132.474C190.488 132.696 191.011 132.811 191.572 132.811C192.025 132.811 192.448 132.742 192.855 132.597C193.255 132.451 193.624 132.252 193.947 131.991L196.298 133.908L196.29 133.923ZM210 135.632V121.345H206.934V127.017H201.508V121.345H198.442V135.632H201.508V129.669H206.934V135.632H210Z" fill="white"/>
</g>
</svg>
