<svg xmlns="http://www.w3.org/2000/svg" width="1341" height="419" viewBox="0 0 1341 419" version="1.1"><path d="M 89.548 157.031 C 87.047 160.898, 85 164.273, 85 164.531 C 85 164.789, 98.956 165, 116.012 165 L 147.025 165 150.362 159.750 C 152.198 156.863, 154.233 153.488, 154.885 152.250 L 156.070 150 125.084 150 L 94.097 150 89.548 157.031 M 154.543 172.293 C 146.866 184.507, 138.214 198.213, 135.315 202.750 L 130.045 211 109.522 211 C 97.416 211, 89 210.615, 89 210.062 C 89 209.546, 90.883 206.171, 93.184 202.562 L 97.367 196 110.580 196 L 123.793 196 128.396 188.614 C 130.928 184.552, 133 180.945, 133 180.599 C 133 180.253, 119.877 180.089, 103.839 180.235 L 74.678 180.500 70.339 187.475 C 67.952 191.311, 66 194.798, 66 195.225 C 66 195.651, 68.700 196, 72 196 C 75.300 196, 78 196.291, 78 196.646 C 78 197.303, 67.429 214.709, 63.277 220.890 C 62.025 222.754, 61 224.672, 61 225.151 C 61 225.637, 78.358 225.907, 100.179 225.762 L 139.357 225.500 153.879 202.250 C 161.865 189.463, 168.648 179.001, 168.950 179.003 C 169.253 179.005, 171.637 182.492, 174.250 186.753 L 179 194.500 174.955 194.810 C 171.152 195.101, 170.644 195.534, 166.455 202.070 C 164.005 205.893, 162 209.466, 162 210.010 C 162 210.616, 167.408 211, 175.937 211 L 189.874 211 194.187 218.025 C 196.578 221.919, 199.397 225.283, 200.512 225.573 C 201.618 225.862, 205.814 225.963, 209.837 225.799 L 217.149 225.500 198.460 196 C 188.180 179.775, 177.524 162.787, 174.779 158.250 C 172.034 153.713, 169.498 150.019, 169.144 150.043 C 168.790 150.067, 162.219 160.079, 154.543 172.293 M 869.822 151.750 C 887.600 151.903, 916.400 151.903, 933.822 151.749 C 951.245 151.596, 936.700 151.471, 901.500 151.471 C 866.300 151.471, 852.045 151.597, 869.822 151.750 M 766.500 213 C 735.704 243.800, 710.730 268.996, 711.003 268.991 C 711.783 268.977, 823.942 157, 823.176 157 C 822.801 157, 797.296 182.200, 766.500 213 M 1323 215.700 C 1322.725 247.161, 1322.841 272.559, 1323.258 272.142 C 1323.676 271.725, 1323.900 245.984, 1323.758 214.942 L 1323.499 158.500 1323 215.700 M 1243.456 162.912 C 1239.581 163.290, 1235.439 164.280, 1234.250 165.112 C 1230.409 167.803, 1212 185.164, 1212 186.097 C 1212 186.593, 1215.054 187, 1218.788 187 L 1225.575 187 1230.538 181.921 C 1233.267 179.127, 1236.850 175.871, 1238.500 174.686 C 1240.150 173.501, 1238.688 175.290, 1235.250 178.661 C 1231.813 182.033, 1229 185.289, 1229 185.896 C 1229 186.572, 1231.207 187, 1234.695 187 C 1239.395 187, 1240.843 186.567, 1242.978 184.521 C 1245.449 182.154, 1246.152 182.038, 1258.690 181.938 L 1271.815 181.832 1275.658 177.826 C 1279.375 173.951, 1281.964 171.509, 1288.430 165.779 L 1291.500 163.059 1273.875 163.029 C 1264.181 163.013, 1254.956 162.826, 1253.375 162.613 C 1251.794 162.400, 1247.330 162.534, 1243.456 162.912 M 1281.965 173.576 C 1275.384 180.076, 1270 185.755, 1270 186.197 C 1270 186.639, 1273.045 187, 1276.766 187 L 1283.531 187 1295.500 175 L 1307.469 163 1302.316 163 C 1299.482 163, 1296.436 162.721, 1295.546 162.379 C 1294.397 161.938, 1290.469 165.177, 1281.965 173.576 M 1248.250 172.739 C 1251.412 172.937, 1256.588 172.937, 1259.750 172.739 C 1262.912 172.541, 1260.325 172.378, 1254 172.378 C 1247.675 172.378, 1245.088 172.541, 1248.250 172.739 M 1004.343 195.500 C 1004.346 199.900, 1004.522 201.576, 1004.733 199.224 C 1004.945 196.872, 1004.942 193.272, 1004.727 191.224 C 1004.512 189.176, 1004.339 191.100, 1004.343 195.500 M 864.320 191.749 C 878.521 191.906, 901.471 191.906, 915.320 191.749 C 929.169 191.592, 917.550 191.464, 889.500 191.464 C 861.450 191.465, 850.119 191.593, 864.320 191.749 M 1041.250 195.749 C 1056.513 195.905, 1081.487 195.905, 1096.750 195.749 C 1112.013 195.594, 1099.525 195.467, 1069 195.467 C 1038.475 195.467, 1025.987 195.594, 1041.250 195.749 M 1211.667 197.667 C 1210.634 198.699, 1210.880 211, 1211.934 211 C 1212.447 211, 1213.010 209.762, 1213.184 208.250 C 1213.458 205.862, 1213.994 205.459, 1217.250 205.190 C 1221.953 204.800, 1222.207 203, 1217.559 203 C 1213.813 203, 1211.923 201.297, 1214.122 199.904 C 1214.880 199.423, 1216.989 199.024, 1218.809 199.015 C 1220.757 199.006, 1221.864 198.589, 1221.500 198 C 1220.814 196.890, 1212.718 196.616, 1211.667 197.667 M 1294 197.883 C 1294 198.369, 1294.796 198.975, 1295.769 199.229 C 1297.214 199.607, 1297.471 200.546, 1297.169 204.346 C 1296.927 207.386, 1296.334 209, 1295.458 209 C 1294.721 209, 1293.840 209.450, 1293.500 210 C 1293.119 210.616, 1294.823 211, 1297.941 211 C 1300.723 211, 1303 210.550, 1303 210 C 1303 209.450, 1302.325 209, 1301.500 209 C 1300.352 209, 1300 207.735, 1300 203.617 C 1300 198.879, 1299.730 198.161, 1297.750 197.630 C 1294.677 196.807, 1294 196.852, 1294 197.883 M 1275 204.583 C 1275 209.214, 1275.352 211.049, 1276.185 210.772 C 1277.869 210.210, 1277.931 198.003, 1276.250 198.001 C 1275.376 198, 1275 199.983, 1275 204.583 M 1225.223 200.557 C 1222.744 202.292, 1222.142 207.742, 1224.200 209.800 C 1226.154 211.754, 1231.778 211.283, 1232.965 209.066 C 1234.545 206.114, 1234.203 202.494, 1232.171 200.655 C 1229.889 198.589, 1228.068 198.564, 1225.223 200.557 M 1237.200 201.200 C 1235.754 202.646, 1235.583 211, 1237 211 C 1237.550 211, 1238 208.975, 1238 206.500 C 1238 202.667, 1238.296 202, 1240 202 C 1241.100 202, 1242 201.550, 1242 201 C 1242 199.607, 1238.653 199.747, 1237.200 201.200 M 1244.667 200.667 C 1243.599 201.734, 1243.898 211, 1245 211 C 1245.550 211, 1246 208.945, 1246 206.434 C 1246 202.042, 1246.105 201.879, 1248.750 202.184 C 1251.213 202.467, 1251.532 202.945, 1251.809 206.773 C 1252.192 212.086, 1254 211.342, 1254 205.871 C 1254 202.284, 1254.238 201.895, 1256.250 202.180 C 1258.120 202.446, 1258.552 203.217, 1258.807 206.750 C 1258.977 209.088, 1259.539 211, 1260.057 211 C 1261.433 211, 1261.212 202.612, 1259.800 201.200 C 1258.538 199.938, 1245.842 199.491, 1244.667 200.667 M 1263.541 201.360 C 1263.079 202.384, 1263.106 204.859, 1263.601 206.860 C 1264.441 210.260, 1264.780 210.520, 1268.750 210.807 L 1273 211.115 1273 205.557 C 1273 202.501, 1272.550 200, 1272 200 C 1271.450 200, 1271 202.055, 1271 204.566 C 1271 208.958, 1270.895 209.121, 1268.250 208.816 C 1265.805 208.535, 1265.438 208.002, 1264.941 204 C 1264.507 200.513, 1264.192 199.919, 1263.541 201.360 M 1280 200.962 C 1280 201.578, 1281.120 201.836, 1282.614 201.565 C 1285.121 201.111, 1285.157 201.168, 1283.516 202.983 C 1282.560 204.039, 1282.136 205.410, 1282.555 206.088 C 1283.102 206.973, 1283.682 206.788, 1284.692 205.406 C 1285.835 203.844, 1286.232 203.757, 1286.947 204.914 C 1287.424 205.687, 1287.583 206.922, 1287.300 207.659 C 1286.601 209.483, 1282.076 209.362, 1281.362 207.500 C 1280.467 205.169, 1278.823 205.735, 1279.180 208.250 C 1279.457 210.195, 1280.182 210.540, 1284.532 210.795 L 1289.564 211.089 1289.032 205.795 L 1288.500 200.500 1284.250 200.193 C 1281.690 200.007, 1280 200.313, 1280 200.962 M 17.395 214.500 C 17.396 222.200, 17.553 225.218, 17.743 221.206 C 17.934 217.195, 17.932 210.895, 17.741 207.206 C 17.549 203.518, 17.393 206.800, 17.395 214.500 M 1225.607 202.582 C 1225.273 203.452, 1225 205.252, 1225 206.582 C 1225 208.608, 1225.492 209, 1228.031 209 C 1231.433 209, 1232.540 207.288, 1231.589 203.498 C 1230.863 200.607, 1226.615 199.956, 1225.607 202.582 M 586.306 205.747 C 592.800 205.922, 603.150 205.921, 609.306 205.746 C 615.463 205.571, 610.150 205.428, 597.500 205.429 C 584.850 205.429, 579.813 205.573, 586.306 205.747 M 380 219.500 C 375.903 223.625, 372.775 227, 373.050 227 C 373.325 227, 376.903 223.625, 381 219.500 C 385.097 215.375, 388.225 212, 387.950 212 C 387.675 212, 384.097 215.375, 380 219.500 M 446.966 227.717 C 443.960 230.862, 442.624 232.549, 443.997 231.467 C 446.900 229.180, 453 223.056, 453 222.429 C 453 221.529, 452.274 222.165, 446.966 227.717 M 1211 224.490 C 1211 225.816, 1216.927 226, 1259.583 226 C 1298.005 226, 1308.080 225.739, 1307.750 224.750 C 1307.426 223.778, 1296.625 223.442, 1259.167 223.240 C 1216.768 223.012, 1211 223.162, 1211 224.490 M 61.455 235.455 C 57.606 239.303, 58.363 247.225, 62.913 250.718 C 63.786 251.388, 66.832 251.951, 69.683 251.968 C 73.971 251.995, 74.975 252.345, 75.500 254 C 76.478 257.082, 75.128 259.930, 72.360 260.625 C 69.286 261.396, 65 259.589, 65 257.521 C 65 256.489, 64.010 256, 61.921 256 C 58.973 256, 58.870 256.140, 59.521 259.250 C 59.895 261.038, 60.817 263.145, 61.570 263.934 C 63.465 265.919, 74.478 266.617, 77.593 264.950 C 80.960 263.148, 82.508 257.599, 81.101 252.373 C 79.827 247.643, 77.097 246, 70.512 246 C 65.465 246, 64.594 245.126, 65.505 240.976 C 66.107 238.236, 66.501 238, 70.471 238 C 74.265 238, 74.860 238.308, 75.426 240.563 C 75.948 242.642, 76.582 243.067, 78.785 242.813 C 81.144 242.541, 81.462 242.107, 81.210 239.500 C 80.752 234.769, 77.796 233, 70.344 233 C 64.845 233, 63.552 233.357, 61.455 235.455 M 88.225 249.250 L 88.500 265.500 91.250 265.816 L 94 266.133 94 260.066 L 94 254 99.545 254 C 107.322 254, 110 251.311, 110 243.500 C 110 238.897, 109.566 237.475, 107.545 235.455 C 105.321 233.230, 104.287 233, 96.521 233 L 87.950 233 88.225 249.250 M 122.049 234.018 C 116.635 235.291, 116 236.970, 116 250.003 C 116 264.910, 116.747 266, 126.966 266 C 133.217 266, 134.047 265.756, 135.927 263.365 C 137.748 261.051, 138 259.349, 138 249.365 C 138 239.333, 137.765 237.765, 136 236 C 134.900 234.900, 133.213 233.963, 132.250 233.918 C 131.287 233.873, 129.375 233.694, 128 233.521 C 126.625 233.348, 123.947 233.571, 122.049 234.018 M 145 249.500 L 145 266 148 266 L 151 266 151 259.434 L 151 252.867 153.620 253.184 C 155.795 253.446, 156.673 254.560, 158.796 259.750 C 161.082 265.337, 161.652 266, 164.177 266 C 167.538 266, 167.595 265.553, 165 259.500 C 162.610 253.924, 162.491 251.667, 164.500 250 C 165.512 249.160, 166 246.901, 166 243.052 C 166 234.628, 163.924 233, 153.186 233 L 145 233 145 249.500 M 170 235.455 C 170 237.623, 170.560 238.066, 174 238.616 L 178 239.256 178 252.694 L 178 266.133 180.750 265.816 L 183.500 265.500 184 252 L 184.500 238.500 188.500 238 C 191.667 237.604, 192.500 237.083, 192.500 235.500 C 192.500 233.635, 191.739 233.481, 181.250 233.217 L 170 232.934 170 235.455 M 199.763 234.565 C 196.588 236.288, 195.505 239.550, 196.446 244.562 C 197.483 250.092, 200.057 252, 206.481 252 C 211.437 252, 212.020 252.231, 212.566 254.407 C 212.898 255.731, 212.652 257.781, 212.020 258.963 C 210.401 261.988, 203.940 261.503, 202.513 258.250 C 201.817 256.664, 200.674 256, 198.638 256 C 195.918 256, 195.786 256.189, 196.378 259.250 C 197.356 264.310, 200.180 266, 207.656 266 C 213.236 266, 214.433 265.658, 216.666 263.425 C 218.914 261.177, 219.180 260.226, 218.766 255.915 C 218.118 249.177, 216.086 247.222, 208.877 246.407 L 203 245.742 203 242.371 L 203 239 207.433 239 C 211.029 239, 211.989 239.388, 212.518 241.058 C 213.001 242.579, 213.867 243.036, 215.836 242.808 C 218.144 242.541, 218.459 242.099, 218.192 239.500 C 217.738 235.074, 214.520 233.041, 208 233.062 C 204.975 233.072, 201.268 233.748, 199.763 234.565 M 432.975 241.691 C 428.864 245.921, 426.347 248.742, 427.382 247.959 C 430.416 245.665, 441.723 234, 440.912 234 C 440.658 234, 437.086 237.461, 432.975 241.691 M 1211 244.552 L 1211 251.105 1216.250 250.802 C 1221.920 250.476, 1223.218 248.814, 1218.443 247.995 C 1215.726 247.529, 1215.477 247.125, 1215.195 242.745 C 1214.943 238.816, 1214.556 238, 1212.945 238 C 1211.216 238, 1211 238.728, 1211 244.552 M 1223.202 244.171 C 1223.387 247.991, 1223.976 250.498, 1224.750 250.754 C 1225.665 251.056, 1226 249.403, 1226 244.583 C 1226 239.308, 1225.693 238, 1224.452 238 C 1223.190 238, 1222.960 239.139, 1223.202 244.171 M 1229.450 240.435 C 1227.091 244.036, 1227.923 248.210, 1231.324 249.833 C 1234.198 251.204, 1239 250.711, 1239 249.044 C 1239 248.540, 1237.537 247.986, 1235.750 247.813 C 1232.762 247.525, 1232.500 247.218, 1232.500 244 C 1232.500 240.666, 1232.654 240.512, 1235.750 240.754 C 1238.088 240.936, 1239 240.586, 1239 239.504 C 1239 238.417, 1237.896 238, 1235.023 238 C 1231.913 238, 1230.698 238.531, 1229.450 240.435 M 1240.630 240.250 C 1240.299 241.488, 1240.021 244.179, 1240.014 246.231 C 1240.002 249.332, 1240.402 250.063, 1242.379 250.559 C 1245.723 251.398, 1250.273 250.722, 1250.734 249.318 C 1250.967 248.605, 1249.807 248.010, 1247.811 247.818 C 1245.990 247.643, 1244.567 247.050, 1244.648 246.500 C 1244.730 245.950, 1246.192 245.646, 1247.898 245.825 C 1250.192 246.066, 1251 245.741, 1251 244.575 C 1251 243.442, 1250.019 243, 1247.500 243 C 1245.575 243, 1244 242.550, 1244 242 C 1244 241.450, 1245.575 241, 1247.500 241 C 1249.944 241, 1251 240.548, 1251 239.500 C 1251 238.371, 1249.791 238, 1246.117 238 C 1241.898 238, 1241.151 238.306, 1240.630 240.250 M 1254.149 239.722 C 1252.585 242.644, 1253.206 250.500, 1255 250.500 C 1256.060 250.500, 1256.602 249.179, 1256.847 246 L 1257.195 241.500 1259.355 245.988 C 1263.093 253.754, 1267.962 252.414, 1267.648 243.706 C 1267.505 239.748, 1267.064 238.443, 1265.787 238.198 C 1264.445 237.939, 1264.049 238.827, 1263.780 242.688 C 1263.529 246.294, 1263.246 246.999, 1262.649 245.500 C 1259.857 238.492, 1256.154 235.975, 1254.149 239.722 M 1270.667 238.667 C 1270.300 239.033, 1270 240.354, 1270 241.602 C 1270 243.287, 1270.900 244.196, 1273.500 245.136 C 1275.425 245.832, 1277 246.761, 1277 247.201 C 1277 247.640, 1275.425 248, 1273.500 248 C 1269.093 248, 1268.918 249.602, 1273.250 250.287 C 1277.108 250.896, 1281.265 248.642, 1280.809 246.187 C 1280.637 245.259, 1279.034 244.069, 1277.248 243.543 C 1273.176 242.344, 1273.045 241, 1277 241 C 1279 241, 1280 240.500, 1280 239.500 C 1280 238.397, 1278.852 238, 1275.667 238 C 1273.283 238, 1271.033 238.300, 1270.667 238.667 M 1282 243.933 C 1282 250.644, 1283.254 251.738, 1289.587 250.550 C 1294.044 249.714, 1293.985 248, 1289.500 248 C 1287.575 248, 1286 247.550, 1286 247 C 1286 246.450, 1287.575 246, 1289.500 246 C 1291.944 246, 1293 245.548, 1293 244.500 C 1293 243.452, 1291.944 243, 1289.500 243 C 1287.575 243, 1286 242.550, 1286 242 C 1286 241.450, 1287.575 241, 1289.500 241 C 1291.944 241, 1293 240.548, 1293 239.500 C 1293 238.348, 1291.722 238, 1287.500 238 L 1282 238 1282 243.933 M 1295 243.929 C 1295 249.572, 1295.166 250.004, 1297.567 250.606 C 1304.589 252.369, 1310.093 246.831, 1306.934 241.182 C 1305.651 238.887, 1304.681 238.456, 1300.217 238.198 L 1295 237.895 1295 243.929 M 94.195 243.750 L 94.500 248.500 99 248.500 L 103.500 248.500 103.805 243.750 L 104.110 239 99 239 L 93.890 239 94.195 243.750 M 122.451 240.267 C 122.159 241.028, 122.051 245.891, 122.210 251.075 L 122.500 260.500 127 260.500 L 131.500 260.500 131.500 250 L 131.500 239.500 127.241 239.192 C 124.313 238.980, 122.816 239.316, 122.451 240.267 M 151 243.557 L 151 248.115 155.250 247.807 L 159.500 247.500 159.807 243.250 L 160.115 239 155.557 239 L 151 239 151 243.557 M 1299 243.963 C 1299 247.722, 1299.225 248.107, 1301.250 247.820 C 1302.975 247.575, 1303.573 246.741, 1303.813 244.250 C 1303.986 242.463, 1303.685 241, 1303.145 241 C 1302.605 241, 1301.452 240.727, 1300.582 240.393 C 1299.295 239.899, 1299 240.565, 1299 243.963 M 1003.225 258.668 C 1003.101 268.111, 1002.709 276.661, 1002.353 277.668 C 1001.871 279.031, 1002.005 279.225, 1002.877 278.426 C 1003.710 277.662, 1003.962 272.184, 1003.749 259.426 L 1003.451 241.500 1003.225 258.668 M 521.784 251.738 C 524.689 251.941, 529.189 251.939, 531.784 251.734 C 534.378 251.528, 532 251.363, 526.500 251.365 C 521 251.368, 518.878 251.536, 521.784 251.738 M 1225.192 254.802 C 1224.318 255.395, 1223.987 257.453, 1224.192 261.016 C 1224.517 266.645, 1226.414 268.757, 1227.794 265.027 L 1228.586 262.886 1230.448 264.943 C 1231.472 266.074, 1233.192 267, 1234.270 267 C 1236.123 267, 1236.142 266.866, 1234.615 264.535 C 1233.096 262.216, 1233.118 262.007, 1235 261 C 1237.106 259.873, 1237.492 258.323, 1236.180 256.258 C 1235.191 254.700, 1226.950 253.608, 1225.192 254.802 M 1211.202 261.250 C 1211.429 266.007, 1211.858 267.500, 1213 267.500 C 1213.825 267.500, 1214.644 266.488, 1214.820 265.250 C 1215.078 263.432, 1215.777 263, 1218.461 263 C 1221.203 263, 1221.897 262.547, 1222.435 260.404 C 1223.402 256.552, 1221.505 255, 1215.830 255 L 1210.905 255 1211.202 261.250 M 1239.035 256.934 C 1236.193 262.245, 1238.897 267.456, 1244.413 267.300 C 1249.258 267.162, 1251 265.517, 1251 261.078 C 1251 256.312, 1249.561 255, 1244.335 255 C 1241.142 255, 1239.810 255.486, 1239.035 256.934 M 1253.630 257.250 C 1252.754 260.519, 1252.895 265.285, 1253.914 266.895 C 1255.131 268.818, 1263.008 267.709, 1264.715 265.375 C 1266.563 262.848, 1266.297 258.579, 1264.171 256.655 C 1263.103 255.688, 1260.657 255, 1258.288 255 C 1254.928 255, 1254.130 255.386, 1253.630 257.250 M 1268 259.929 C 1268 265.597, 1269.751 268, 1273.880 268 C 1278.176 268, 1279.808 266.059, 1280.172 260.519 C 1280.438 256.474, 1280.182 255.476, 1278.807 255.207 C 1277.437 254.939, 1277.056 255.792, 1276.807 259.688 C 1276.527 264.072, 1276.278 264.500, 1274 264.500 C 1271.675 264.500, 1271.504 264.167, 1271.563 259.750 C 1271.615 255.807, 1271.318 255, 1269.813 255 C 1268.308 255, 1268 255.836, 1268 259.929 M 1283.241 256.986 C 1280.721 261.022, 1282.625 266.781, 1286.599 267.144 C 1290.195 267.472, 1293 266.998, 1293 266.063 C 1293 265.548, 1291.537 264.986, 1289.750 264.813 C 1286.913 264.540, 1286.461 264.098, 1286.193 261.335 C 1285.885 258.160, 1287.852 256.481, 1291.021 257.215 C 1291.697 257.372, 1292.456 256.938, 1292.708 256.250 C 1293.030 255.372, 1291.876 255, 1288.824 255 C 1285.574 255, 1284.169 255.500, 1283.241 256.986 M 1295 256.094 C 1295 256.695, 1295.900 257.423, 1297 257.710 C 1298.607 258.130, 1299 259.074, 1299 262.510 C 1299 265.256, 1299.502 266.979, 1300.402 267.324 C 1302.478 268.121, 1303 267.133, 1303 262.403 C 1303 258.792, 1303.332 258.090, 1305.172 257.820 C 1306.366 257.644, 1307.529 256.938, 1307.755 256.250 C 1308.056 255.335, 1306.403 255, 1301.583 255 C 1297.485 255, 1295 255.413, 1295 256.094 M 747.789 262.249 C 748.273 271.052, 748.720 271.885, 748.864 264.250 C 748.939 260.262, 748.663 257, 748.250 256.999 C 747.837 256.999, 747.630 259.362, 747.789 262.249 M 1242.046 258.445 C 1239.966 260.950, 1241.163 264.461, 1244.215 264.813 C 1246.417 265.067, 1247.052 264.642, 1247.573 262.565 C 1247.926 261.157, 1247.956 259.328, 1247.639 258.502 C 1246.906 256.591, 1243.612 256.558, 1242.046 258.445 M 1256.710 259 C 1255.815 262.423, 1257.035 265, 1259.549 265 C 1262.329 265, 1263.587 261.965, 1262.020 259.038 C 1260.622 256.426, 1257.389 256.403, 1256.710 259 M 769.141 264.389 C 769.185 268.187, 769.523 269.785, 770.090 268.889 C 771.253 267.052, 771.213 261.884, 770.020 260 C 769.362 258.960, 769.092 260.308, 769.141 264.389 M 480.485 271.015 L 473.580 277.974 440.540 278.251 L 407.500 278.528 440.601 278.764 L 473.702 279 481.009 271.991 C 485.028 268.136, 488.108 264.774, 487.853 264.520 C 487.598 264.265, 484.283 267.188, 480.485 271.015 M 340.750 278.749 C 350.788 278.912, 367.213 278.912, 377.250 278.749 C 387.288 278.585, 379.075 278.452, 359 278.452 C 338.925 278.452, 330.713 278.585, 340.750 278.749 M 642.250 278.749 C 653.112 278.910, 670.888 278.910, 681.750 278.749 C 692.612 278.587, 683.725 278.455, 662 278.455 C 640.275 278.455, 631.388 278.587, 642.250 278.749 M 1037.750 278.749 C 1054.388 278.903, 1081.613 278.903, 1098.250 278.749 C 1114.888 278.596, 1101.275 278.470, 1068 278.470 C 1034.725 278.470, 1021.113 278.596, 1037.750 278.749 M 1230.250 278.749 C 1246.062 278.904, 1271.937 278.904, 1287.750 278.749 C 1303.563 278.595, 1290.625 278.468, 1259 278.468 C 1227.375 278.468, 1214.438 278.595, 1230.250 278.749" stroke="none" fill="#121110" fill-rule="evenodd"/><path d="M 129.739 92.595 C 129.412 92.922, 127.874 93.300, 126.322 93.436 C 116.647 94.283, 109.899 95.354, 109.427 96.118 C 109.127 96.603, 107.671 97.003, 106.191 97.006 C 104.711 97.010, 102.211 97.685, 100.636 98.506 C 99.060 99.328, 97.142 100, 96.372 100 C 95.603 100, 94.191 100.428, 93.236 100.952 C 92.281 101.475, 89.700 102.690, 87.500 103.651 C 76.588 108.421, 63.964 117.627, 52.987 128.820 C 40.088 141.973, 32.774 152.260, 29.220 162.250 C 28.291 164.863, 27.207 167, 26.811 167 C 26.415 167, 25.780 168.688, 25.401 170.750 C 25.022 172.813, 24.431 174.725, 24.089 175 C 23.345 175.598, 21.108 183.550, 19.730 190.500 C 18.187 198.280, 17.680 228.657, 18.988 235 C 20.366 241.683, 22.805 250.780, 23.948 253.500 C 24.410 254.600, 25.563 257.750, 26.511 260.500 C 28.983 267.676, 37.048 281.826, 42.995 289.422 C 47.852 295.624, 60.485 308.019, 66.500 312.483 C 77.232 320.449, 101.644 332.019, 107.691 332.005 C 108.896 332.002, 110.133 332.406, 110.439 332.902 C 110.746 333.397, 113.810 334.110, 117.248 334.486 C 120.687 334.861, 125.300 335.455, 127.500 335.807 C 129.700 336.158, 135.100 336.430, 139.500 336.410 C 160.810 336.316, 175.130 332.823, 195.440 322.766 C 230.931 305.192, 255.149 270.198, 261.065 227.941 C 262.509 217.625, 261.162 192.419, 259.010 189.500 C 258.605 188.950, 257.965 186.475, 257.588 184 C 256.566 177.287, 254.453 171.684, 248.349 159.500 C 242.040 146.906, 236.079 138.354, 227.500 129.589 C 221.675 123.637, 219.377 121.701, 208.620 113.683 C 199.974 107.238, 187.105 101.180, 172.500 96.681 C 161.767 93.374, 131.821 90.512, 129.739 92.595 M 89.548 157.031 C 87.047 160.898, 85 164.273, 85 164.531 C 85 164.789, 98.956 165, 116.012 165 L 147.025 165 150.362 159.750 C 152.198 156.863, 154.233 153.488, 154.885 152.250 L 156.070 150 125.084 150 L 94.097 150 89.548 157.031 M 154.543 172.293 C 146.866 184.507, 138.214 198.213, 135.315 202.750 L 130.045 211 109.522 211 C 97.416 211, 89 210.615, 89 210.062 C 89 209.546, 90.883 206.171, 93.184 202.562 L 97.367 196 110.580 196 L 123.793 196 128.396 188.614 C 130.928 184.552, 133 180.945, 133 180.599 C 133 180.253, 119.877 180.089, 103.839 180.235 L 74.678 180.500 70.339 187.475 C 67.952 191.311, 66 194.798, 66 195.225 C 66 195.651, 68.700 196, 72 196 C 75.300 196, 78 196.291, 78 196.646 C 78 197.303, 67.429 214.709, 63.277 220.890 C 62.025 222.754, 61 224.672, 61 225.151 C 61 225.637, 78.358 225.907, 100.179 225.762 L 139.357 225.500 153.879 202.250 C 161.865 189.463, 168.648 179.001, 168.950 179.003 C 169.253 179.005, 171.637 182.492, 174.250 186.753 L 179 194.500 174.955 194.810 C 171.152 195.101, 170.644 195.534, 166.455 202.070 C 164.005 205.893, 162 209.466, 162 210.010 C 162 210.616, 167.408 211, 175.937 211 L 189.874 211 194.187 218.025 C 196.578 221.919, 199.397 225.283, 200.512 225.573 C 201.618 225.862, 205.814 225.963, 209.837 225.799 L 217.149 225.500 198.460 196 C 188.180 179.775, 177.524 162.787, 174.779 158.250 C 172.034 153.713, 169.498 150.019, 169.144 150.043 C 168.790 150.067, 162.219 160.079, 154.543 172.293 M 507 150.618 C 506.175 150.832, 498.975 151.439, 491 151.967 C 468.264 153.471, 459.105 155.333, 449.500 160.404 C 447.850 161.275, 445.938 161.990, 445.250 161.994 C 444.563 161.997, 444 162.401, 444 162.892 C 444 163.382, 442.988 164.047, 441.750 164.370 C 436.471 165.748, 421.629 179.087, 381.455 218.557 C 332.331 266.819, 323 276.187, 323 277.240 C 323 277.658, 339.489 278, 359.642 278 L 396.285 278 423.892 250.615 C 462.452 212.367, 471.012 205.642, 484.500 202.998 C 487.800 202.351, 491.625 201.564, 493 201.251 C 494.375 200.937, 539.658 200.414, 593.628 200.090 L 691.756 199.500 709.059 182.500 C 718.576 173.150, 729.246 162.696, 732.771 159.269 C 736.296 155.842, 738.989 152.467, 738.756 151.769 C 738.418 150.755, 715.286 150.473, 623.417 150.364 C 560.213 150.289, 507.825 150.403, 507 150.618 M 716.773 181.750 C 699.251 199.213, 682.121 216.340, 678.707 219.812 C 675.293 223.284, 669.638 228.909, 666.140 232.312 C 662.642 235.715, 657.157 241.200, 653.950 244.500 C 650.744 247.800, 642.247 256.350, 635.068 263.500 C 627.888 270.650, 622.011 276.837, 622.007 277.250 C 622.003 277.663, 639.888 277.997, 661.750 277.993 L 701.500 277.987 764 215.546 C 798.375 181.204, 826.645 152.407, 826.823 151.553 C 827.111 150.170, 822.849 150, 787.889 150 L 748.632 150 716.773 181.750 M 1009.250 150.662 C 1008.309 151.042, 1008 156.084, 1008 171.075 L 1008 190.984 1066.250 191.242 L 1124.500 191.500 1124.500 193.500 L 1124.500 195.500 1068 195.704 C 1036.925 195.817, 1010.702 196.115, 1009.728 196.367 C 1008.098 196.788, 1007.977 198.338, 1008.228 215.662 L 1008.500 234.500 1066.750 234.758 L 1125 235.016 1125 237.008 L 1125 239 1066.500 239 L 1008 239 1008 258.500 L 1008 278 1068.250 278.076 C 1138.306 278.164, 1141.515 278.121, 1144.358 277.057 C 1145.536 276.616, 1148.300 275.685, 1150.500 274.986 C 1158.330 272.501, 1167.507 264.312, 1168.303 259.099 C 1168.475 257.973, 1168.927 256.740, 1169.308 256.359 C 1169.688 255.978, 1170 254.418, 1170 252.892 C 1170 251.366, 1170.450 249.840, 1171 249.500 C 1173.376 248.032, 1171.028 235.019, 1166.917 226.876 C 1164.940 222.959, 1160.006 218.333, 1156.306 216.926 C 1155.038 216.444, 1154.022 215.701, 1154.048 215.275 C 1154.074 214.849, 1156.516 212.968, 1159.473 211.096 C 1165.563 207.241, 1168.904 201.951, 1170.972 192.891 C 1172.219 187.425, 1172.099 184.725, 1170.241 176.500 C 1166.964 161.992, 1157.133 155.196, 1133.440 151.058 C 1127.359 149.996, 1011.813 149.628, 1009.250 150.662 M 1202 152.752 C 1194.870 156.313, 1195.003 155.128, 1195.002 215.101 C 1195 251.755, 1195.350 269.707, 1196.108 271.881 C 1198.281 278.114, 1197.087 278, 1260.027 278 L 1317.154 278 1320.077 275.077 L 1323 272.154 1322.978 215.327 C 1322.953 152.708, 1323.354 156.764, 1316.785 152.686 C 1314.326 151.159, 1308.956 151, 1259.785 151.002 C 1210.106 151.003, 1205.203 151.151, 1202 152.752 M 837.445 153.284 C 837.174 153.990, 837.075 162.652, 837.226 172.534 L 837.500 190.500 895.500 191.111 C 968.777 191.882, 962.219 191.621, 961.811 193.750 C 961.500 195.367, 958.543 195.550, 922.987 196.162 C 875.364 196.982, 876.149 196.950, 875.454 198.075 C 875.139 198.584, 873.844 199, 872.575 199 C 868.371 199, 856.163 205.976, 850.139 211.821 C 839.350 222.289, 837 230.453, 837 257.467 C 837 268.120, 837.273 277.548, 837.607 278.418 C 838.154 279.843, 846.350 280, 920.062 280 L 1001.909 280 1002.499 276.750 C 1002.824 274.962, 1002.956 265.850, 1002.795 256.500 L 1002.500 239.500 942.250 239.242 L 882 238.984 882 236.992 L 882 235 924 235 C 947.100 235, 966 234.613, 966 234.140 C 966 233.667, 968.423 233.030, 971.384 232.724 C 979.588 231.877, 986.950 227.877, 993.819 220.534 C 1001.891 211.906, 1003.943 206.325, 1004.078 192.639 C 1004.170 183.295, 1003.918 181.764, 1001.491 176.894 C 998.395 170.684, 989.123 160.685, 983.993 158.026 C 982.065 157.026, 977.603 155.261, 974.078 154.104 L 967.670 152 902.803 152 C 850.927 152, 837.839 152.257, 837.445 153.284 M 1243.456 162.912 C 1239.581 163.290, 1235.439 164.280, 1234.250 165.112 C 1230.409 167.803, 1212 185.164, 1212 186.097 C 1212 186.593, 1215.054 187, 1218.788 187 L 1225.575 187 1230.538 181.921 C 1233.267 179.127, 1236.850 175.871, 1238.500 174.686 C 1240.150 173.501, 1238.688 175.290, 1235.250 178.661 C 1231.813 182.033, 1229 185.289, 1229 185.896 C 1229 186.572, 1231.207 187, 1234.695 187 C 1239.395 187, 1240.843 186.567, 1242.978 184.521 C 1245.449 182.154, 1246.152 182.038, 1258.690 181.938 L 1271.815 181.832 1275.658 177.826 C 1279.375 173.951, 1281.964 171.509, 1288.430 165.779 L 1291.500 163.059 1273.875 163.029 C 1264.181 163.013, 1254.956 162.826, 1253.375 162.613 C 1251.794 162.400, 1247.330 162.534, 1243.456 162.912 M 1281.965 173.576 C 1275.384 180.076, 1270 185.755, 1270 186.197 C 1270 186.639, 1273.045 187, 1276.766 187 L 1283.531 187 1295.500 175 L 1307.469 163 1302.316 163 C 1299.482 163, 1296.436 162.721, 1295.546 162.379 C 1294.397 161.938, 1290.469 165.177, 1281.965 173.576 M 1248.250 172.739 C 1251.412 172.937, 1256.588 172.937, 1259.750 172.739 C 1262.912 172.541, 1260.325 172.378, 1254 172.378 C 1247.675 172.378, 1245.088 172.541, 1248.250 172.739 M 1211.667 197.667 C 1210.634 198.699, 1210.880 211, 1211.934 211 C 1212.447 211, 1213.010 209.762, 1213.184 208.250 C 1213.458 205.862, 1213.994 205.459, 1217.250 205.190 C 1221.953 204.800, 1222.207 203, 1217.559 203 C 1213.813 203, 1211.923 201.297, 1214.122 199.904 C 1214.880 199.423, 1216.989 199.024, 1218.809 199.015 C 1220.757 199.006, 1221.864 198.589, 1221.500 198 C 1220.814 196.890, 1212.718 196.616, 1211.667 197.667 M 1294 197.883 C 1294 198.369, 1294.796 198.975, 1295.769 199.229 C 1297.214 199.607, 1297.471 200.546, 1297.169 204.346 C 1296.927 207.386, 1296.334 209, 1295.458 209 C 1294.721 209, 1293.840 209.450, 1293.500 210 C 1293.119 210.616, 1294.823 211, 1297.941 211 C 1300.723 211, 1303 210.550, 1303 210 C 1303 209.450, 1302.325 209, 1301.500 209 C 1300.352 209, 1300 207.735, 1300 203.617 C 1300 198.879, 1299.730 198.161, 1297.750 197.630 C 1294.677 196.807, 1294 196.852, 1294 197.883 M 1275 204.583 C 1275 209.214, 1275.352 211.049, 1276.185 210.772 C 1277.869 210.210, 1277.931 198.003, 1276.250 198.001 C 1275.376 198, 1275 199.983, 1275 204.583 M 1225.223 200.557 C 1222.744 202.292, 1222.142 207.742, 1224.200 209.800 C 1226.154 211.754, 1231.778 211.283, 1232.965 209.066 C 1234.545 206.114, 1234.203 202.494, 1232.171 200.655 C 1229.889 198.589, 1228.068 198.564, 1225.223 200.557 M 1237.200 201.200 C 1235.754 202.646, 1235.583 211, 1237 211 C 1237.550 211, 1238 208.975, 1238 206.500 C 1238 202.667, 1238.296 202, 1240 202 C 1241.100 202, 1242 201.550, 1242 201 C 1242 199.607, 1238.653 199.747, 1237.200 201.200 M 1244.667 200.667 C 1243.599 201.734, 1243.898 211, 1245 211 C 1245.550 211, 1246 208.945, 1246 206.434 C 1246 202.042, 1246.105 201.879, 1248.750 202.184 C 1251.213 202.467, 1251.532 202.945, 1251.809 206.773 C 1252.192 212.086, 1254 211.342, 1254 205.871 C 1254 202.284, 1254.238 201.895, 1256.250 202.180 C 1258.120 202.446, 1258.552 203.217, 1258.807 206.750 C 1258.977 209.088, 1259.539 211, 1260.057 211 C 1261.433 211, 1261.212 202.612, 1259.800 201.200 C 1258.538 199.938, 1245.842 199.491, 1244.667 200.667 M 1263.541 201.360 C 1263.079 202.384, 1263.106 204.859, 1263.601 206.860 C 1264.441 210.260, 1264.780 210.520, 1268.750 210.807 L 1273 211.115 1273 205.557 C 1273 202.501, 1272.550 200, 1272 200 C 1271.450 200, 1271 202.055, 1271 204.566 C 1271 208.958, 1270.895 209.121, 1268.250 208.816 C 1265.805 208.535, 1265.438 208.002, 1264.941 204 C 1264.507 200.513, 1264.192 199.919, 1263.541 201.360 M 1280 200.962 C 1280 201.578, 1281.120 201.836, 1282.614 201.565 C 1285.121 201.111, 1285.157 201.168, 1283.516 202.983 C 1282.560 204.039, 1282.136 205.410, 1282.555 206.088 C 1283.102 206.973, 1283.682 206.788, 1284.692 205.406 C 1285.835 203.844, 1286.232 203.757, 1286.947 204.914 C 1287.424 205.687, 1287.583 206.922, 1287.300 207.659 C 1286.601 209.483, 1282.076 209.362, 1281.362 207.500 C 1280.467 205.169, 1278.823 205.735, 1279.180 208.250 C 1279.457 210.195, 1280.182 210.540, 1284.532 210.795 L 1289.564 211.089 1289.032 205.795 L 1288.500 200.500 1284.250 200.193 C 1281.690 200.007, 1280 200.313, 1280 200.962 M 1225.607 202.582 C 1225.273 203.452, 1225 205.252, 1225 206.582 C 1225 208.608, 1225.492 209, 1228.031 209 C 1231.433 209, 1232.540 207.288, 1231.589 203.498 C 1230.863 200.607, 1226.615 199.956, 1225.607 202.582 M 505.500 205.742 C 498.269 206.034, 481.876 208.917, 480.550 210.131 C 480.027 210.609, 478.865 211, 477.966 211 C 476.117 211, 466.316 217.636, 461.180 222.364 C 459.307 224.089, 446.080 237.200, 431.787 251.500 L 405.799 277.500 439.479 277.763 L 473.159 278.027 483.154 268.598 C 495.521 256.931, 499.665 254.022, 505.736 252.744 C 508.697 252.121, 534.403 251.824, 573.651 251.959 C 622 252.126, 637.352 251.889, 639.151 250.948 C 642.392 249.253, 683 208.894, 683 207.368 C 683 206.690, 682.212 205.918, 681.250 205.652 C 679.539 205.181, 517.359 205.264, 505.500 205.742 M 1211 224.490 C 1211 225.816, 1216.927 226, 1259.583 226 C 1298.005 226, 1308.080 225.739, 1307.750 224.750 C 1307.426 223.778, 1296.625 223.442, 1259.167 223.240 C 1216.768 223.012, 1211 223.162, 1211 224.490 M 61.455 235.455 C 57.606 239.303, 58.363 247.225, 62.913 250.718 C 63.786 251.388, 66.832 251.951, 69.683 251.968 C 73.971 251.995, 74.975 252.345, 75.500 254 C 76.478 257.082, 75.128 259.930, 72.360 260.625 C 69.286 261.396, 65 259.589, 65 257.521 C 65 256.489, 64.010 256, 61.921 256 C 58.973 256, 58.870 256.140, 59.521 259.250 C 59.895 261.038, 60.817 263.145, 61.570 263.934 C 63.465 265.919, 74.478 266.617, 77.593 264.950 C 80.960 263.148, 82.508 257.599, 81.101 252.373 C 79.827 247.643, 77.097 246, 70.512 246 C 65.465 246, 64.594 245.126, 65.505 240.976 C 66.107 238.236, 66.501 238, 70.471 238 C 74.265 238, 74.860 238.308, 75.426 240.563 C 75.948 242.642, 76.582 243.067, 78.785 242.813 C 81.144 242.541, 81.462 242.107, 81.210 239.500 C 80.752 234.769, 77.796 233, 70.344 233 C 64.845 233, 63.552 233.357, 61.455 235.455 M 88.225 249.250 L 88.500 265.500 91.250 265.816 L 94 266.133 94 260.066 L 94 254 99.545 254 C 107.322 254, 110 251.311, 110 243.500 C 110 238.897, 109.566 237.475, 107.545 235.455 C 105.321 233.230, 104.287 233, 96.521 233 L 87.950 233 88.225 249.250 M 122.049 234.018 C 116.635 235.291, 116 236.970, 116 250.003 C 116 264.910, 116.747 266, 126.966 266 C 133.217 266, 134.047 265.756, 135.927 263.365 C 137.748 261.051, 138 259.349, 138 249.365 C 138 239.333, 137.765 237.765, 136 236 C 134.900 234.900, 133.213 233.963, 132.250 233.918 C 131.287 233.873, 129.375 233.694, 128 233.521 C 126.625 233.348, 123.947 233.571, 122.049 234.018 M 145 249.500 L 145 266 148 266 L 151 266 151 259.434 L 151 252.867 153.620 253.184 C 155.795 253.446, 156.673 254.560, 158.796 259.750 C 161.082 265.337, 161.652 266, 164.177 266 C 167.538 266, 167.595 265.553, 165 259.500 C 162.610 253.924, 162.491 251.667, 164.500 250 C 165.512 249.160, 166 246.901, 166 243.052 C 166 234.628, 163.924 233, 153.186 233 L 145 233 145 249.500 M 170 235.455 C 170 237.623, 170.560 238.066, 174 238.616 L 178 239.256 178 252.694 L 178 266.133 180.750 265.816 L 183.500 265.500 184 252 L 184.500 238.500 188.500 238 C 191.667 237.604, 192.500 237.083, 192.500 235.500 C 192.500 233.635, 191.739 233.481, 181.250 233.217 L 170 232.934 170 235.455 M 199.763 234.565 C 196.588 236.288, 195.505 239.550, 196.446 244.562 C 197.483 250.092, 200.057 252, 206.481 252 C 211.437 252, 212.020 252.231, 212.566 254.407 C 212.898 255.731, 212.652 257.781, 212.020 258.963 C 210.401 261.988, 203.940 261.503, 202.513 258.250 C 201.817 256.664, 200.674 256, 198.638 256 C 195.918 256, 195.786 256.189, 196.378 259.250 C 197.356 264.310, 200.180 266, 207.656 266 C 213.236 266, 214.433 265.658, 216.666 263.425 C 218.914 261.177, 219.180 260.226, 218.766 255.915 C 218.118 249.177, 216.086 247.222, 208.877 246.407 L 203 245.742 203 242.371 L 203 239 207.433 239 C 211.029 239, 211.989 239.388, 212.518 241.058 C 213.001 242.579, 213.867 243.036, 215.836 242.808 C 218.144 242.541, 218.459 242.099, 218.192 239.500 C 217.738 235.074, 214.520 233.041, 208 233.062 C 204.975 233.072, 201.268 233.748, 199.763 234.565 M 1211 244.552 L 1211 251.105 1216.250 250.802 C 1221.920 250.476, 1223.218 248.814, 1218.443 247.995 C 1215.726 247.529, 1215.477 247.125, 1215.195 242.745 C 1214.943 238.816, 1214.556 238, 1212.945 238 C 1211.216 238, 1211 238.728, 1211 244.552 M 1223.202 244.171 C 1223.387 247.991, 1223.976 250.498, 1224.750 250.754 C 1225.665 251.056, 1226 249.403, 1226 244.583 C 1226 239.308, 1225.693 238, 1224.452 238 C 1223.190 238, 1222.960 239.139, 1223.202 244.171 M 1229.450 240.435 C 1227.091 244.036, 1227.923 248.210, 1231.324 249.833 C 1234.198 251.204, 1239 250.711, 1239 249.044 C 1239 248.540, 1237.537 247.986, 1235.750 247.813 C 1232.762 247.525, 1232.500 247.218, 1232.500 244 C 1232.500 240.666, 1232.654 240.512, 1235.750 240.754 C 1238.088 240.936, 1239 240.586, 1239 239.504 C 1239 238.417, 1237.896 238, 1235.023 238 C 1231.913 238, 1230.698 238.531, 1229.450 240.435 M 1240.630 240.250 C 1240.299 241.488, 1240.021 244.179, 1240.014 246.231 C 1240.002 249.332, 1240.402 250.063, 1242.379 250.559 C 1245.723 251.398, 1250.273 250.722, 1250.734 249.318 C 1250.967 248.605, 1249.807 248.010, 1247.811 247.818 C 1245.990 247.643, 1244.567 247.050, 1244.648 246.500 C 1244.730 245.950, 1246.192 245.646, 1247.898 245.825 C 1250.192 246.066, 1251 245.741, 1251 244.575 C 1251 243.442, 1250.019 243, 1247.500 243 C 1245.575 243, 1244 242.550, 1244 242 C 1244 241.450, 1245.575 241, 1247.500 241 C 1249.944 241, 1251 240.548, 1251 239.500 C 1251 238.371, 1249.791 238, 1246.117 238 C 1241.898 238, 1241.151 238.306, 1240.630 240.250 M 1254.149 239.722 C 1252.585 242.644, 1253.206 250.500, 1255 250.500 C 1256.060 250.500, 1256.602 249.179, 1256.847 246 L 1257.195 241.500 1259.355 245.988 C 1263.093 253.754, 1267.962 252.414, 1267.648 243.706 C 1267.505 239.748, 1267.064 238.443, 1265.787 238.198 C 1264.445 237.939, 1264.049 238.827, 1263.780 242.688 C 1263.529 246.294, 1263.246 246.999, 1262.649 245.500 C 1259.857 238.492, 1256.154 235.975, 1254.149 239.722 M 1270.667 238.667 C 1270.300 239.033, 1270 240.354, 1270 241.602 C 1270 243.287, 1270.900 244.196, 1273.500 245.136 C 1275.425 245.832, 1277 246.761, 1277 247.201 C 1277 247.640, 1275.425 248, 1273.500 248 C 1269.093 248, 1268.918 249.602, 1273.250 250.287 C 1277.108 250.896, 1281.265 248.642, 1280.809 246.187 C 1280.637 245.259, 1279.034 244.069, 1277.248 243.543 C 1273.176 242.344, 1273.045 241, 1277 241 C 1279 241, 1280 240.500, 1280 239.500 C 1280 238.397, 1278.852 238, 1275.667 238 C 1273.283 238, 1271.033 238.300, 1270.667 238.667 M 1282 243.933 C 1282 250.644, 1283.254 251.738, 1289.587 250.550 C 1294.044 249.714, 1293.985 248, 1289.500 248 C 1287.575 248, 1286 247.550, 1286 247 C 1286 246.450, 1287.575 246, 1289.500 246 C 1291.944 246, 1293 245.548, 1293 244.500 C 1293 243.452, 1291.944 243, 1289.500 243 C 1287.575 243, 1286 242.550, 1286 242 C 1286 241.450, 1287.575 241, 1289.500 241 C 1291.944 241, 1293 240.548, 1293 239.500 C 1293 238.348, 1291.722 238, 1287.500 238 L 1282 238 1282 243.933 M 1295 243.929 C 1295 249.572, 1295.166 250.004, 1297.567 250.606 C 1304.589 252.369, 1310.093 246.831, 1306.934 241.182 C 1305.651 238.887, 1304.681 238.456, 1300.217 238.198 L 1295 237.895 1295 243.929 M 94.195 243.750 L 94.500 248.500 99 248.500 L 103.500 248.500 103.805 243.750 L 104.110 239 99 239 L 93.890 239 94.195 243.750 M 122.451 240.267 C 122.159 241.028, 122.051 245.891, 122.210 251.075 L 122.500 260.500 127 260.500 L 131.500 260.500 131.500 250 L 131.500 239.500 127.241 239.192 C 124.313 238.980, 122.816 239.316, 122.451 240.267 M 151 243.557 L 151 248.115 155.250 247.807 L 159.500 247.500 159.807 243.250 L 160.115 239 155.557 239 L 151 239 151 243.557 M 1299 243.963 C 1299 247.722, 1299.225 248.107, 1301.250 247.820 C 1302.975 247.575, 1303.573 246.741, 1303.813 244.250 C 1303.986 242.463, 1303.685 241, 1303.145 241 C 1302.605 241, 1301.452 240.727, 1300.582 240.393 C 1299.295 239.899, 1299 240.565, 1299 243.963 M 750.188 250 C 747.475 251.152, 746.176 252.419, 743.526 256.500 C 740.668 260.901, 740.996 269.825, 744.151 273.474 C 747.268 277.079, 751.145 279, 755.301 279 C 764.384 279, 769.177 274.196, 769.134 265.136 C 769.101 258.281, 768.073 255.300, 764.639 252.106 C 761.760 249.429, 754.146 248.319, 750.188 250 M 751 254.583 C 748.649 255.888, 748.864 255.971, 754.629 255.985 C 760.463 255.999, 760.816 256.141, 761.976 258.942 C 762.978 261.362, 762.931 262.261, 761.708 264.006 C 760.529 265.690, 760.451 266.734, 761.330 269.064 C 762.510 272.189, 764 272.990, 764 270.500 C 764 269.675, 764.450 269, 765 269 C 766.625 269, 766.141 260.646, 764.369 258.117 C 762.747 255.800, 757.227 252.911, 754.782 253.098 C 754.077 253.152, 752.375 253.820, 751 254.583 M 1225.192 254.802 C 1224.318 255.395, 1223.987 257.453, 1224.192 261.016 C 1224.517 266.645, 1226.414 268.757, 1227.794 265.027 L 1228.586 262.886 1230.448 264.943 C 1231.472 266.074, 1233.192 267, 1234.270 267 C 1236.123 267, 1236.142 266.866, 1234.615 264.535 C 1233.096 262.216, 1233.118 262.007, 1235 261 C 1237.106 259.873, 1237.492 258.323, 1236.180 256.258 C 1235.191 254.700, 1226.950 253.608, 1225.192 254.802 M 1211.202 261.250 C 1211.429 266.007, 1211.858 267.500, 1213 267.500 C 1213.825 267.500, 1214.644 266.488, 1214.820 265.250 C 1215.078 263.432, 1215.777 263, 1218.461 263 C 1221.203 263, 1221.897 262.547, 1222.435 260.404 C 1223.402 256.552, 1221.505 255, 1215.830 255 L 1210.905 255 1211.202 261.250 M 1239.035 256.934 C 1236.193 262.245, 1238.897 267.456, 1244.413 267.300 C 1249.258 267.162, 1251 265.517, 1251 261.078 C 1251 256.312, 1249.561 255, 1244.335 255 C 1241.142 255, 1239.810 255.486, 1239.035 256.934 M 1253.630 257.250 C 1252.754 260.519, 1252.895 265.285, 1253.914 266.895 C 1255.131 268.818, 1263.008 267.709, 1264.715 265.375 C 1266.563 262.848, 1266.297 258.579, 1264.171 256.655 C 1263.103 255.688, 1260.657 255, 1258.288 255 C 1254.928 255, 1254.130 255.386, 1253.630 257.250 M 1268 259.929 C 1268 265.597, 1269.751 268, 1273.880 268 C 1278.176 268, 1279.808 266.059, 1280.172 260.519 C 1280.438 256.474, 1280.182 255.476, 1278.807 255.207 C 1277.437 254.939, 1277.056 255.792, 1276.807 259.688 C 1276.527 264.072, 1276.278 264.500, 1274 264.500 C 1271.675 264.500, 1271.504 264.167, 1271.563 259.750 C 1271.615 255.807, 1271.318 255, 1269.813 255 C 1268.308 255, 1268 255.836, 1268 259.929 M 1283.241 256.986 C 1280.721 261.022, 1282.625 266.781, 1286.599 267.144 C 1290.195 267.472, 1293 266.998, 1293 266.063 C 1293 265.548, 1291.537 264.986, 1289.750 264.813 C 1286.913 264.540, 1286.461 264.098, 1286.193 261.335 C 1285.885 258.160, 1287.852 256.481, 1291.021 257.215 C 1291.697 257.372, 1292.456 256.938, 1292.708 256.250 C 1293.030 255.372, 1291.876 255, 1288.824 255 C 1285.574 255, 1284.169 255.500, 1283.241 256.986 M 1295 256.094 C 1295 256.695, 1295.900 257.423, 1297 257.710 C 1298.607 258.130, 1299 259.074, 1299 262.510 C 1299 265.256, 1299.502 266.979, 1300.402 267.324 C 1302.478 268.121, 1303 267.133, 1303 262.403 C 1303 258.792, 1303.332 258.090, 1305.172 257.820 C 1306.366 257.644, 1307.529 256.938, 1307.755 256.250 C 1308.056 255.335, 1306.403 255, 1301.583 255 C 1297.485 255, 1295 255.413, 1295 256.094 M 746.422 259.245 C 745.076 263.487, 746.127 271, 748.067 271 C 748.580 271, 749 267.850, 749 264 C 749 257.085, 747.806 254.884, 746.422 259.245 M 1242.046 258.445 C 1239.966 260.950, 1241.163 264.461, 1244.215 264.813 C 1246.417 265.067, 1247.052 264.642, 1247.573 262.565 C 1247.926 261.157, 1247.956 259.328, 1247.639 258.502 C 1246.906 256.591, 1243.612 256.558, 1242.046 258.445 M 1256.710 259 C 1255.815 262.423, 1257.035 265, 1259.549 265 C 1262.329 265, 1263.587 261.965, 1262.020 259.038 C 1260.622 256.426, 1257.389 256.403, 1256.710 259 M 753 270.777 C 753 274.803, 753.140 275, 756 275 C 757.650 275, 759 274.578, 759 274.062 C 759 273.546, 757.650 271.645, 756 269.839 L 753 266.554 753 270.777" stroke="none" fill="#fafaf9" fill-rule="evenodd"/></svg>