<svg width="602" height="158" viewBox="0 0 602 158" fill="none" xmlns="http://www.w3.org/2000/svg">
<g clip-path="url(#clip0_370_1040)">
<path d="M186.436 32.8196L186.996 30.7306L186.41 30.3485H181.927L181.137 30.7306L180.042 34.8577L180.628 35.2398H188.856L191.276 36.8703L189.009 45.3281L185.723 46.9586H173.8L171.38 45.3281L172.475 41.2266H178.335L177.774 43.341L178.36 43.7232H182.844L183.634 43.341L184.831 38.8573L184.245 38.4752H176.067L173.647 36.8448L175.813 28.7181L179.099 27.0876H191.022L193.442 28.7181L192.346 32.8196H186.436Z" fill="white"/>
<path d="M219.504 45.3536L216.218 46.984H204.397L201.977 45.3536L206.868 27.1131H212.728L208.371 43.3919L208.932 43.7486H213.467L214.205 43.3919L218.562 27.1131H224.421L219.53 45.3536H219.504Z" fill="white"/>
<path d="M232.369 46.9586L237.693 27.0876H252.622L255.042 28.7181L252.673 37.609L249.386 39.2395H240.342L238.279 46.984H232.42L232.369 46.9586ZM246.482 36.0041L247.272 35.622L248.597 30.7052L248.011 30.3485H242.712L241.183 36.0296H246.482V36.0041Z" fill="white"/>
<path d="M262.812 46.9586L268.136 27.0876H284.95L284.084 30.2976H273.129L271.804 35.2398H279.931L279.065 38.4497H270.938L269.512 43.7232H280.466L279.6 46.9331H262.786L262.812 46.9586Z" fill="white"/>
<path d="M292.262 46.9586L297.587 27.0876H312.745L315.165 28.7181L312.795 37.609L309.509 39.2395L310.299 46.984H304.516L303.726 39.2395H300.211L298.147 46.984H292.288L292.262 46.9586ZM306.707 36.0041L307.471 35.622L308.796 30.7052L308.235 30.3485H302.605L301.077 36.0296H306.707V36.0041Z" fill="white"/>
<path d="M351.543 42.7042H348.486L345.251 33.5584L341.659 46.9586H335.799L341.124 27.0876H348.41L351.671 36.4626L359.95 27.0876H367.236L361.912 46.9586H356.052L359.644 33.5584L351.518 42.7042H351.543Z" fill="white"/>
<path d="M375.236 46.9586L380.56 27.0876H397.374L396.508 30.2976H385.554L384.229 35.2398H392.355L391.489 38.4497H383.363L381.936 43.7232H392.89L392.024 46.9331H375.21L375.236 46.9586Z" fill="white"/>
<path d="M405.145 45.3536L409.603 28.7181L412.889 27.0876H425.117L427.538 28.7181L426.442 32.8196H420.583L421.169 30.6542L420.634 30.2721H415.793L415.004 30.6542L411.615 43.341L412.201 43.7232H417.042L417.78 43.341L418.85 39.3669H415.997L416.863 36.106H425.601L423.13 45.3536L419.844 46.984H407.616L405.195 45.3536H405.145Z" fill="white"/>
<path d="M449.573 42.6787H442.363L439.637 46.9586H433.625L447.254 27.0876H452.986L455.967 46.9586H449.955L449.522 42.6787H449.573ZM449.292 39.4688L448.63 32.7687L444.401 39.4688H449.292Z" fill="white"/>
<path d="M506.766 17.8145L476.501 130.748H548.52C561.615 130.748 573.079 121.959 576.492 109.297L601 17.8145H506.766Z" fill="#2270CB"/>
<path d="M476.424 17.8145L452.172 108.329C450.974 112.813 446.898 115.946 442.236 115.946H151.84L147.866 130.748H486.258C499.352 130.748 510.816 121.959 514.23 109.297L538.737 17.8145H476.424Z" fill="#C90B07"/>
<path d="M527.478 110.418L536.521 76.714H493.417C486.538 76.714 481.52 70.1923 483.303 63.5686L492.933 27.266H522.153L514.205 56.8686C513.517 59.4161 515.428 61.9127 518.077 61.9127H537.566C539.375 61.9127 540.98 60.6899 541.438 58.9321L549.794 27.266H578.785L556.494 110.444H527.503L527.478 110.418Z" fill="white"/>
<path d="M184.909 81.8601L190.641 77.2745L195.557 58.9575L192.271 54.3719H168.783L153.727 110.546H177.215L182.947 105.96L188.169 86.4457L184.883 81.8601H184.909ZM175.253 100.253L173.929 101.374H165.496L169.47 86.5221H177.903L178.642 87.5666L175.228 100.279L175.253 100.253ZM181.673 76.3064L180.349 77.4273H171.916L175.686 63.3139H184.119L184.832 64.4093L181.648 76.3064H181.673Z" fill="white"/>
<path d="M187.71 110.546H197.162L202.894 98.4192H214.23L213.466 110.546H222.918L224.879 54.3719H215.861L187.71 110.546ZM214.842 89.3244H207.123L216.039 70.3961L214.816 89.3244H214.842Z" fill="white"/>
<path d="M248.215 77.4273L247.425 76.3064L250.533 64.6386L251.934 63.5177H258.991L259.781 64.6386L258.201 70.5489H267.5L270.608 58.9575L267.347 54.3719H248.571L242.839 58.9575L236.674 81.9365L239.961 86.5221H252.826L253.616 87.6175L250.227 100.33L248.826 101.451H241.769L240.98 100.33L242.585 94.3431H233.337L230.229 105.96L233.515 110.546H252.291L258.023 105.96L264.443 82.0129L261.156 77.4273H248.215Z" fill="white"/>
<path d="M294.784 86.5221L297.229 77.4273H284.441L288.16 63.4667H305.407L307.853 54.3719H281.358L266.328 110.546H292.797L295.242 101.451H277.995L281.995 86.5221H294.784Z" fill="white"/>
<path d="M332.998 81.8601L338.73 77.2745L343.646 58.9575L340.36 54.3719H316.871L301.815 110.546H325.304L331.036 105.96L336.258 86.4457L332.972 81.8601H332.998ZM323.342 100.253L322.018 101.374H313.585L317.559 86.5221H325.992L326.731 87.5666L323.317 100.279L323.342 100.253ZM329.762 76.3064L328.437 77.4273H320.005L323.775 63.3139H332.208L332.921 64.4093L329.737 76.3064H329.762Z" fill="white"/>
<path d="M335.774 110.546H345.226L350.958 98.4192H362.294L361.53 110.546H370.982L372.943 54.3719H363.925L335.774 110.546ZM362.906 89.3244H355.187L364.103 70.3961L362.88 89.3244H362.906Z" fill="white"/>
<path d="M403.054 54.3719H393.73L378.7 110.546H404.073L406.519 101.451H390.444L403.054 54.3719Z" fill="white"/>
<path d="M436.352 54.3719H427.053L411.997 110.546H437.396L439.816 101.451H423.741L436.352 54.3719Z" fill="white"/>
<path d="M452.835 54.3719H451L450.848 54.8815H451.485L450.567 58.3207H451.153L452.07 54.8815H452.707L452.835 54.3719Z" fill="white"/>
<path d="M455.228 54.3719L453.955 56.41L453.802 54.3719H453.267L452.197 58.3207H452.783L453.445 55.8495L453.522 57.429H453.853L454.77 55.875L454.133 58.3207H454.719L455.763 54.3719H455.228Z" fill="white"/>
<path d="M70.5228 148.046C108.919 148.046 140.046 116.919 140.046 78.5228C140.046 40.1264 108.919 9 70.5228 9C32.1264 9 1 40.1264 1 78.5228C1 116.919 32.1264 148.046 70.5228 148.046Z" fill="white"/>
<path d="M116.251 89.732H118.009V90.0377H117.295V91.5408H116.939V90.0377H116.225V89.732H116.251ZM33.3278 96.7123H29.3281C28.4365 96.7123 27.9779 96.2283 27.9779 95.2347V93.6553C27.9779 93.1967 28.0798 92.84 28.3346 92.5343C28.5639 92.2286 28.895 92.1012 29.3026 92.1012H32.4361C33.1749 92.1012 33.6844 92.4579 33.9137 93.1967L34.3468 94.7252H37.2255V93.0438C37.2255 91.9229 36.8689 91.0058 36.1046 90.2415C35.3404 89.5027 34.3978 89.1206 33.3023 89.1206H28.6403C27.5448 89.1206 26.6022 89.5027 25.8125 90.2925C25.0482 91.0567 24.6661 91.9993 24.6661 93.0948V95.7952C24.6661 96.8906 25.0482 97.8332 25.8125 98.623C26.6022 99.4127 27.5448 99.7949 28.6403 99.7949H32.6399C33.5316 99.7949 33.9647 100.304 33.9647 101.323V103.387C33.9647 103.82 33.8373 104.202 33.608 104.482C33.3533 104.788 33.0221 104.915 32.6399 104.915H29.4555C28.6403 104.915 28.1563 104.559 27.9779 103.845L27.5448 102.113H24.6406V103.973C24.6406 105.119 24.9973 106.036 25.7616 106.775C26.5003 107.514 27.4429 107.896 28.5639 107.896H33.2768C34.3723 107.896 35.3149 107.514 36.1046 106.724C36.8689 105.96 37.251 105.017 37.251 103.896V100.712C37.251 99.6165 36.8689 98.6994 36.0791 97.9097C35.2894 97.1199 34.3723 96.7123 33.2768 96.7123H33.3278ZM52.5109 90.267C53.2751 91.0313 53.6827 91.9739 53.6827 93.0438V96.9926C53.6827 98.088 53.3006 99.0306 52.5109 99.8203C51.7211 100.585 50.7531 100.992 49.6576 100.992H44.4861V107.896H41.1743V89.1206H49.6576C50.7531 89.1206 51.6957 89.5027 52.5109 90.2925V90.267ZM50.3455 93.6807C50.3455 93.2222 50.2181 92.8655 49.9633 92.5853C49.7086 92.2796 49.4029 92.1522 48.9952 92.1522H44.4606V97.9861H48.9952C49.3774 97.9861 49.7086 97.8332 49.9633 97.553C50.2181 97.2473 50.3455 96.8906 50.3455 96.4321V93.6807ZM83.3872 100.126L86.6736 107.896H83.1325L80.0754 100.534H76.9164V107.896H73.6046V89.1206H81.9096C83.0306 89.1206 83.9732 89.5027 84.7374 90.2925C85.5017 91.0567 85.9093 91.9993 85.9093 93.0693V96.3557C85.9093 97.1964 85.68 97.9861 85.196 98.6739C84.712 99.3618 84.1006 99.8458 83.3618 100.152L83.3872 100.126ZM82.5975 93.6807C82.5975 93.2222 82.4701 92.8655 82.2408 92.5853C82.0116 92.2796 81.6804 92.1522 81.2982 92.1522H76.9419V97.5275H81.2982C81.6804 97.5275 82.0116 97.3747 82.2408 97.1199C82.4701 96.8397 82.5975 96.4576 82.5975 96.0245V93.7062V93.6807ZM88.0238 92.1522H92.7877V107.896H96.125V92.1522H100.94V89.1206H88.0238V92.1522ZM111.996 96.7123H107.997C107.105 96.7123 106.646 96.2283 106.646 95.2347V93.6553C106.646 93.1967 106.774 92.84 107.003 92.5343C107.232 92.2286 107.564 92.1012 107.971 92.1012H111.13C111.869 92.1012 112.353 92.4579 112.582 93.1967L113.015 94.7252H115.894V93.0438C115.894 91.9229 115.512 91.0058 114.748 90.2415C113.983 89.5027 113.066 89.1206 111.945 89.1206H107.309C106.213 89.1206 105.245 89.5027 104.481 90.2925C103.717 91.0567 103.309 91.9993 103.309 93.0948V95.7952C103.309 96.8906 103.717 97.8332 104.481 98.623C105.245 99.4127 106.188 99.7949 107.309 99.7949H111.308C112.2 99.7949 112.633 100.304 112.633 101.323V103.387C112.633 103.82 112.506 104.202 112.277 104.482C112.022 104.788 111.691 104.915 111.308 104.915H108.124C107.334 104.915 106.85 104.559 106.646 103.845L106.213 102.113H103.309V103.973C103.309 105.119 103.691 106.036 104.43 106.775C105.194 107.514 106.111 107.896 107.232 107.896H111.92C113.041 107.896 113.983 107.514 114.773 106.724C115.537 105.96 115.945 105.017 115.945 103.896V100.712C115.945 99.6165 115.563 98.6994 114.748 97.9097C113.983 97.1199 113.041 96.7123 111.945 96.7123H111.996ZM120.199 89.732L119.486 90.8275L118.773 89.732H118.467V91.5408H118.773V90.4199C118.773 90.4199 118.747 90.2925 118.747 90.2161C118.773 90.267 118.824 90.3434 118.849 90.3944L119.435 91.3115H119.486L120.072 90.4199C120.072 90.4199 120.123 90.2925 120.148 90.2161C120.148 90.318 120.148 90.3689 120.148 90.4199V91.5408H120.48V89.732H120.199ZM68.4331 90.267C69.2228 91.0313 69.605 91.9739 69.605 93.0693V103.871C69.605 105.017 69.2228 105.96 68.4331 106.724C67.6433 107.514 66.7262 107.896 65.6053 107.896H61.1216C60.0007 107.896 59.0581 107.514 58.2683 106.724C57.5041 105.96 57.0965 105.017 57.0965 103.871V93.0693C57.0965 91.9993 57.5041 91.0567 58.2683 90.2925C59.0581 89.5027 60.0007 89.1206 61.1216 89.1206H65.6053C66.7262 89.1206 67.6433 89.5027 68.4331 90.267ZM66.2931 93.6807C66.2931 93.2222 66.1658 92.8655 65.911 92.5853C65.6563 92.2796 65.3505 92.1522 64.9684 92.1522H61.784C61.3764 92.1522 61.0452 92.3051 60.7904 92.5853C60.5611 92.8655 60.4338 93.2476 60.4338 93.6807V103.31C60.4338 103.744 60.5611 104.1 60.7904 104.406C61.0452 104.712 61.3509 104.864 61.784 104.864H64.9684C65.3505 104.864 65.6817 104.712 65.911 104.406C66.1658 104.1 66.2931 103.744 66.2931 103.31V93.6807ZM80.3047 41.1756H44.5625L39.0853 49.8628H74.802L80.2792 41.1756H80.3047ZM93.8577 67.2371H88.5078L83.0051 75.9498H99.3604L104.863 84.6369H115.308L87.6416 40.8699L65.427 75.9498H41.1233L46.7024 67.2371H61.784L67.2867 58.55H33.6335L28.1308 67.2371H36.2065L25.2011 84.6369H70.4711L87.6416 57.3526L93.8832 67.2371H93.8577Z" fill="black"/>
</g>
<defs>
<clipPath id="clip0_370_1040">
<rect width="600" height="139.071" fill="white" transform="translate(1 9)"/>
</clipPath>
</defs>
</svg>
