<svg xmlns="http://www.w3.org/2000/svg" width="500" height="216" viewBox="0 0 500 216" version="1.1"><path d="M 108.806 14.619 C 108.974 22.112, 108.660 29.538, 108.108 31.121 L 107.104 34 113.852 34 C 117.563 34, 121.102 34.502, 121.715 35.115 C 122.535 35.935, 123.249 35.419, 124.415 33.165 C 126.597 28.945, 126.458 27.276, 124.102 29.408 C 122.772 30.611, 120.902 31.031, 117.852 30.812 L 113.500 30.500 113.838 15.750 L 114.176 1 111.338 0.998 L 108.500 0.997 108.806 14.619 M 135.271 2.901 C 128.113 6.257, 124.705 14.302, 126.987 22.454 C 129.391 31.038, 137.439 35.070, 147.144 32.553 C 157.665 29.824, 163.199 19.055, 159.116 9.259 C 156.183 2.224, 143.772 -1.085, 135.271 2.901 M 194.137 1.894 C 193.033 2.594, 193.022 2.841, 194.083 3.194 C 195.787 3.762, 196.572 20.471, 195.236 27.750 L 194.273 33 202.887 32.984 C 209.948 32.970, 212.204 32.565, 215.406 30.734 C 222.071 26.922, 225.309 20.462, 224.232 13.124 C 223.597 8.798, 218.410 3.485, 213.488 2.118 C 208.769 0.808, 196.083 0.661, 194.137 1.894 M 325.625 1.798 C 325.354 2.237, 325.545 3.249, 326.051 4.048 C 327.215 5.888, 327.237 24.273, 326.081 29.250 L 325.211 33 330.355 32.968 C 334.848 32.940, 335.278 32.768, 333.750 31.608 C 331.226 29.692, 331.198 19.699, 333.718 20.184 C 334.663 20.366, 337.162 22.986, 339.272 26.005 C 343.528 32.097, 345.479 33.241, 349.665 32.099 C 352.187 31.411, 352.279 31.253, 350.500 30.673 C 349.400 30.314, 346.911 27.428, 344.969 24.260 L 341.439 18.500 343.682 16.324 C 348.185 11.955, 347.500 4.460, 342.385 2.130 C 339.567 0.846, 326.375 0.584, 325.625 1.798 M 356.098 3.183 C 356.902 4.686, 357.112 9.674, 356.770 19.183 L 356.273 33 359.672 33 C 362.793 33, 362.981 32.832, 361.968 30.940 C 361.214 29.532, 361.089 24.471, 361.573 14.940 L 362.281 1 358.605 1 C 355.137 1, 354.995 1.123, 356.098 3.183 M 370.266 1.722 L 367.032 2.124 369.171 5.018 C 371.023 7.523, 371.323 9.339, 371.405 18.536 C 371.486 27.570, 371.238 29.352, 369.750 30.441 C 368.788 31.145, 368 32.008, 368 32.360 C 368 33.197, 374.798 33.004, 378 32.077 L 380.500 31.353 378 30.542 C 374.350 29.357, 374.032 28.405, 374.015 18.598 L 374 9.696 385.535 21.598 C 398.494 34.970, 398.954 35.052, 398.992 24 C 399.004 20.425, 399.307 14.402, 399.664 10.615 C 400.186 5.093, 400.679 3.635, 402.157 3.249 C 403.171 2.984, 404 2.311, 404 1.755 C 404 1.113, 402.098 0.995, 398.807 1.431 C 392.452 2.274, 390.974 3.076, 393.829 4.132 C 395.843 4.877, 396 5.606, 396 14.189 L 396 23.442 389.432 16.971 C 385.819 13.412, 381.281 8.363, 379.346 5.750 C 377.412 3.138, 375.305 1.072, 374.665 1.160 C 374.024 1.248, 372.045 1.501, 370.266 1.722 M 163.800 3.200 C 165.508 4.908, 165.464 31.105, 163.750 32.932 C 162.719 34.032, 163.090 34.154, 165.875 33.632 C 167.731 33.285, 170.206 32.986, 171.375 32.970 C 173.299 32.942, 173.334 32.843, 171.750 31.920 C 169.299 30.492, 169.138 19.455, 171.582 20.393 C 172.452 20.727, 173.335 21, 173.545 21 C 173.754 21, 175.759 23.700, 178 27 C 181.905 32.751, 182.250 32.999, 186.287 32.978 L 190.500 32.956 188.395 31.228 C 185.925 29.200, 180 20.619, 180 19.070 C 180 18.481, 180.438 18, 180.974 18 C 182.480 18, 185 12.442, 185 9.122 C 185 3.931, 181.250 2, 171.165 2 C 164.503 2, 162.867 2.267, 163.800 3.200 M 201.527 2.806 C 201.237 3.096, 201 9.528, 201 17.099 C 201 32.525, 201.149 32.813, 208.424 31.448 C 213.146 30.562, 216.621 27.121, 218.013 21.952 C 219.936 14.810, 217.374 7.886, 211.672 4.819 C 209.062 3.414, 202.267 2.066, 201.527 2.806 M 409.846 4.103 C 405.375 6.771, 404 9.588, 404 16.079 C 404 25.954, 408.684 31.975, 416.985 32.773 C 426.096 33.648, 434.473 28.971, 433.825 23.370 C 433.573 21.192, 432.787 20.360, 430.317 19.656 C 428.567 19.158, 425.867 19.104, 424.317 19.537 L 421.500 20.324 424.488 20.920 C 427.686 21.557, 428.590 23.512, 427.570 27.579 C 426.502 31.832, 419.064 30.350, 413.231 24.724 C 406.956 18.672, 406.854 8.678, 413.034 5.483 C 418.997 2.399, 428.577 4.464, 428.421 8.800 C 428.377 10.010, 428.722 11, 429.187 11 C 430.416 11, 433.489 4.156, 432.640 3.307 C 432.245 2.912, 427.777 2.439, 422.711 2.256 C 414.671 1.965, 413.036 2.200, 409.846 4.103 M 438.923 4.923 C 435.780 8.066, 435.461 9.451, 436.966 13.409 C 437.642 15.190, 439.872 16.829, 444.426 18.894 C 449.549 21.217, 451.067 22.417, 451.608 24.574 C 452.604 28.544, 450.936 30.453, 446.160 30.807 C 442.862 31.052, 441.529 30.620, 439.589 28.680 L 437.155 26.246 436.529 28.741 C 435.744 31.866, 435.968 32.073, 441.210 33.068 C 447.450 34.252, 452.660 32.606, 455.042 28.699 C 458.868 22.423, 456.978 18.532, 447.868 13.933 C 442.245 11.095, 441.899 10.715, 442.190 7.705 C 442.451 5.008, 442.955 4.448, 445.371 4.172 C 449.802 3.666, 452.794 4.784, 453.610 7.252 L 454.353 9.500 455.077 7 C 456.498 2.091, 456.387 2, 448.923 2 C 442.435 2, 441.603 2.243, 438.923 4.923 M 170.991 5.683 C 170.987 7.232, 170.699 10.862, 170.352 13.750 C 169.742 18.827, 169.802 19, 172.172 19 C 176.010 19, 179 15.548, 179 11.116 C 179 7.089, 177.233 4.765, 173.250 3.551 C 171.288 2.953, 170.999 3.226, 170.991 5.683 M 332 10.500 C 332 17.668, 332.102 18, 334.309 18 C 337.774 18, 339.980 15.899, 340.613 11.996 C 341.320 7.642, 338.128 3, 334.427 3 C 332.073 3, 332 3.226, 332 10.500 M 133.455 6.455 C 126.398 13.511, 135.333 30, 146.214 30 C 151.484 30, 153.622 28.676, 154.976 24.573 C 156.941 18.620, 153.368 9.859, 147.359 5.898 C 143.128 3.109, 136.537 3.373, 133.455 6.455 M 461.104 9.915 C 459.153 11.150, 460.502 14, 463.038 14 C 464.626 14, 465.061 13.470, 464.820 11.828 C 464.453 9.334, 463.113 8.645, 461.104 9.915 M 55 14.361 C 55 15.295, 55.833 15.563, 57.649 15.216 L 60.297 14.710 59.764 21.355 C 59.259 27.639, 59.346 28, 61.365 28.002 C 63.365 28.004, 63.478 27.584, 63.159 21.371 L 62.818 14.737 65.409 15.388 C 67.345 15.874, 68 15.654, 68 14.519 C 68 13.316, 66.647 13, 61.500 13 C 56.683 13, 55 13.353, 55 14.361 M 69.500 20.500 C 69.500 27.547, 69.632 28, 71.687 28 C 73.628 28, 73.810 27.606, 73.306 24.500 C 72.758 21.124, 72.850 21, 75.869 21 C 78.781 21, 79 21.245, 79 24.500 C 79 27.166, 79.417 28.001, 80.750 28.002 C 82.291 28.004, 82.461 27.107, 82.171 20.502 C 81.893 14.153, 81.573 13, 80.094 13 C 78.721 13, 78.441 13.643, 78.787 16 C 79.195 18.785, 79.004 19, 76.113 19 C 73.321 19, 73 18.691, 73 16 C 73 13.810, 72.528 13, 71.250 13 C 69.739 13, 69.500 14.024, 69.500 20.500 M 85.648 20.250 L 85.795 27.500 90.034 27.814 C 92.365 27.987, 94.751 27.649, 95.336 27.064 C 96.088 26.312, 95.315 26, 92.700 26 C 89.420 26, 89 25.716, 89 23.500 C 89 21.500, 89.500 21, 91.500 21 C 92.875 21, 94 20.550, 94 20 C 94 19.450, 92.875 19, 91.500 19 C 89.470 19, 89 18.508, 89 16.383 C 89 14.125, 89.345 13.833, 91.524 14.249 C 92.912 14.515, 94.289 14.342, 94.583 13.866 C 94.877 13.390, 92.954 13, 90.309 13 L 85.500 12.999 85.648 20.250 M 237.455 15.455 C 232.743 20.166, 235.634 28, 242.084 28 C 246.085 28, 250 24.066, 250 20.045 C 250 13.487, 242.256 10.653, 237.455 15.455 M 253 20.500 C 253 27.054, 253.227 28, 254.799 28 C 256.281 28, 256.523 27.355, 256.172 24.350 C 255.785 21.034, 255.941 20.751, 257.872 21.256 C 259.041 21.562, 260.250 21.404, 260.558 20.906 C 260.866 20.408, 259.966 20, 258.559 20 C 256.361 20, 256 19.560, 256 16.883 C 256 14.090, 256.262 13.817, 258.524 14.249 C 259.912 14.515, 261.289 14.342, 261.583 13.866 C 261.877 13.390, 260.066 13, 257.559 13 L 253 13 253 20.500 M 273 14.406 C 273 15.320, 273.700 15.630, 275 15.290 C 276.851 14.806, 277 15.259, 277 21.383 C 277 27.578, 277.144 28, 279.250 28.002 C 281.390 28.004, 281.483 27.682, 281.161 21.424 C 280.835 15.091, 280.907 14.857, 283.068 15.172 C 284.303 15.352, 285.506 14.938, 285.740 14.250 C 286.053 13.333, 284.411 13, 279.583 13 C 274.593 13, 273 13.340, 273 14.406 M 287.500 20.500 C 287.500 27.393, 287.666 28, 289.549 28 C 291.302 28, 291.539 27.494, 291.190 24.500 C 290.798 21.147, 290.915 21, 293.966 21 C 296.959 21, 297.131 21.196, 296.825 24.250 C 296.548 27.019, 296.850 27.549, 298.861 27.834 C 300.464 28.061, 300.990 27.793, 300.499 26.999 C 300.102 26.355, 299.793 22.943, 299.813 19.415 C 299.847 13.621, 299.654 13, 297.818 13 C 296.423 13, 295.966 13.470, 296.362 14.500 C 297.302 16.952, 295.951 19, 293.393 19 C 291.401 19, 291 18.498, 291 16 C 291 13.810, 290.528 13, 289.250 13 C 287.739 13, 287.500 14.024, 287.500 20.500 M 303.481 20.505 L 303.463 28 308.172 28 C 310.763 28, 313.160 27.550, 313.500 27 C 313.868 26.405, 312.677 26, 310.559 26 C 307.429 26, 307 25.698, 307 23.500 C 307 21.500, 307.500 21, 309.500 21 C 310.875 21, 312 20.550, 312 20 C 312 19.450, 310.875 19, 309.500 19 C 307.470 19, 307 18.508, 307 16.383 C 307 14.132, 307.349 13.833, 309.500 14.245 C 310.875 14.508, 312 14.335, 312 13.861 C 312 13.388, 310.087 13.002, 307.750 13.005 L 303.500 13.010 303.481 20.505 M 238.667 15.667 C 237.289 17.044, 238.052 22.737, 239.829 24.345 C 245.472 29.452, 250.269 22.660, 245.193 16.750 C 243.701 15.012, 239.944 14.389, 238.667 15.667 M 461.104 20.915 C 459.153 22.150, 460.502 25, 463.038 25 C 464.626 25, 465.061 24.470, 464.820 22.828 C 464.453 20.334, 463.113 19.645, 461.104 20.915 M 91 49.035 C 83.575 51.150, 77.376 52.907, 77.224 52.940 C 77.073 52.973, 77.702 54.457, 78.623 56.237 C 80.113 59.119, 80.220 62.138, 79.603 83.773 C 79.222 97.137, 78.668 108.703, 78.372 109.474 C 77.733 111.138, 73.010 111.706, 52.750 112.552 L 38 113.167 38 108.462 C 38 99.904, 40.151 69.555, 40.975 66.500 C 41.419 64.850, 42.097 62.732, 42.482 61.794 C 43.085 60.320, 42.785 60.201, 40.277 60.921 C 34.902 62.462, 6.367 74.011, 4.426 75.430 C 1.335 77.691, 3.568 78.423, 9.334 77.040 C 19.879 74.510, 20.656 76.811, 19.616 107.477 C 19.021 125.017, 14.996 171.626, 13.420 179.214 C 13.111 180.707, 11.772 182.957, 10.446 184.214 C 7.314 187.183, 7.212 189.377, 10.250 188.443 C 14.143 187.245, 37.438 178.036, 38.808 177.153 C 39.841 176.487, 39.631 175.490, 37.808 172.405 C 35.675 168.796, 35.522 167.552, 35.796 156 C 36.157 140.799, 37.468 119.194, 38.065 118.616 C 38.304 118.384, 47.439 117.864, 58.364 117.460 L 78.229 116.726 77.508 136.613 C 76.945 152.130, 76.371 157.701, 74.893 161.965 C 73.852 164.971, 73 167.595, 73 167.795 C 73 168.431, 79.206 166.874, 88.750 163.843 C 97.350 161.113, 99.829 159.248, 97.100 157.562 C 93.520 155.349, 93.742 142.005, 98.507 73 L 99.922 52.500 102.797 50 C 104.378 48.625, 106.533 46.964, 107.586 46.309 C 111.284 44.007, 105.065 45.030, 91 49.035 M 438.860 61.568 C 426.107 65.494, 418.520 79.371, 420.963 94.303 C 423.086 107.276, 430.512 115.727, 447.102 124.049 C 470.636 135.853, 480.956 145.441, 480.956 155.500 C 480.956 164.960, 470.539 175.023, 460.782 174.988 C 450.975 174.953, 434.218 167.014, 430.912 160.836 C 430.257 159.612, 429.799 155.772, 429.894 152.305 C 429.990 148.837, 429.637 146, 429.112 146 C 426.614 146, 417 159.790, 417 163.374 C 417 167.149, 438.158 178.589, 451.410 181.977 C 461.292 184.504, 468.096 184.537, 475.942 182.095 C 489.457 177.889, 497.976 167.225, 497.985 154.500 C 497.990 146.400, 496.691 142.263, 491.880 135.058 C 486.863 127.546, 477.730 120.273, 464.311 113.106 C 444.762 102.665, 436.583 94.765, 435.282 85.068 C 434.124 76.433, 441.508 68.282, 452.569 65.986 C 464.584 63.491, 479.011 70.610, 480.544 79.789 C 480.885 81.830, 481.263 83.907, 481.383 84.405 C 481.750 85.915, 489.008 77.817, 489.677 75.151 C 490.405 72.250, 488.319 70.209, 480.664 66.330 C 469.167 60.504, 449.567 58.271, 438.860 61.568 M 183.332 62.625 L 181.164 63.118 183.091 67.473 C 186.175 74.444, 187.295 90.640, 186.691 119.500 C 186.385 134.080, 185.653 147.150, 185.024 149.256 C 184.391 151.377, 182.604 153.972, 180.919 155.218 C 175.155 159.480, 177.037 160.237, 193.739 160.375 C 205.217 160.469, 209.098 160.187, 209.465 159.232 C 209.760 158.462, 208.359 157.327, 205.898 156.342 C 203.418 155.350, 201.486 153.779, 200.922 152.295 C 200.415 150.961, 200 142.685, 200 133.904 C 200 120.597, 200.251 117.841, 201.508 117.359 C 204.755 116.113, 208.033 120.095, 213.856 132.360 C 217.069 139.128, 221.543 147.382, 223.798 150.703 C 233.668 165.237, 246.315 171.877, 267.052 173.413 C 283.401 174.625, 298.570 171.084, 283.166 169.652 C 258.464 167.356, 242.262 155.999, 230.427 132.684 C 227.304 126.533, 223.897 120.561, 222.855 119.414 L 220.960 117.329 225.230 116.050 C 235.053 113.108, 241.933 103.670, 242.769 91.991 C 243.041 88.184, 242.745 83.756, 242.083 81.753 C 239.601 74.231, 230.777 68.036, 217.500 64.493 C 211.618 62.924, 187.758 61.619, 183.332 62.625 M 109.085 64.398 C 108.166 65.505, 108.476 66.229, 110.574 67.879 L 113.222 69.963 112.700 105.731 C 112.181 141.270, 111.320 150.925, 108.153 156.750 C 106.642 159.530, 104.744 159.322, 129.500 159.081 C 140.500 158.974, 152.650 159.349, 156.500 159.915 C 160.350 160.480, 164.395 161.069, 165.490 161.222 C 167.025 161.436, 168.246 160.056, 170.833 155.177 C 172.678 151.699, 173.929 148.596, 173.614 148.280 C 173.298 147.965, 170.493 148.682, 167.380 149.873 C 160.755 152.408, 145.655 154.243, 135 153.807 L 127.500 153.500 127.228 134.674 L 126.955 115.848 140.728 116.215 C 148.302 116.416, 155.194 116.913, 156.043 117.318 C 157.236 117.888, 157.999 116.904, 159.411 112.979 C 160.414 110.187, 161.028 107.695, 160.774 107.441 C 160.520 107.187, 158.329 107.704, 155.906 108.591 C 153.259 109.560, 146.750 110.420, 139.598 110.745 L 127.697 111.287 128.383 96.394 C 128.761 88.202, 129.342 78.688, 129.673 75.250 L 130.276 69 135.388 69.017 C 141.171 69.037, 157.917 70.690, 161.538 71.599 C 162.853 71.929, 164.200 73.054, 164.532 74.099 C 165.615 77.513, 167.515 76.114, 170.776 69.500 L 173.981 63 142.113 63 C 116.041 63, 110.034 63.254, 109.085 64.398 M 351.306 64.644 C 350.887 65.737, 351.567 66.938, 353.338 68.227 L 356 70.167 355.996 94.833 C 355.991 124.614, 354.569 145.385, 352.019 152.940 C 350.996 155.970, 350.330 158.725, 350.539 159.063 C 350.748 159.401, 360.050 159.485, 371.209 159.250 C 389.520 158.865, 401.764 159.616, 407.594 161.482 C 409.376 162.052, 409.998 161.431, 411.763 157.326 C 414.334 151.348, 415.463 147, 414.446 147 C 414.022 147, 411.774 148.114, 409.450 149.477 C 404.652 152.288, 393.162 153.978, 378.750 153.992 L 370 154 370 135.141 L 370 116.282 378.250 115.778 C 385.431 115.339, 388.710 115.566, 398.442 117.178 C 399.960 117.430, 400.787 116.432, 402.225 112.616 C 403.237 109.929, 403.937 107.615, 403.782 107.472 C 403.627 107.330, 400.350 108.039, 396.500 109.049 C 392.119 110.198, 385.822 110.906, 379.670 110.942 L 369.841 111 370.396 104.750 C 370.702 101.313, 371.199 94, 371.503 88.500 C 371.806 83, 372.317 76.304, 372.638 73.621 L 373.223 68.742 385.862 69.453 C 402.564 70.393, 408.067 71.480, 410.243 74.267 C 411.349 75.685, 412.262 76.117, 412.743 75.452 C 417.531 68.825, 420 64.954, 420 64.070 C 420 63.331, 409.470 63, 385.969 63 C 355.316 63, 351.875 63.163, 351.306 64.644 M 280.772 66.345 C 260.709 73.182, 246.966 92.907, 247.012 114.799 C 247.047 131.633, 257.796 148.545, 273 155.688 C 280.420 159.175, 291.790 162, 298.398 162 C 317.527 162, 336.526 148.160, 343.109 129.429 C 349.101 112.381, 344.588 91.904, 331.878 78.464 C 319.614 65.497, 298.176 60.413, 280.772 66.345 M 200.341 80.250 C 200.699 88.088, 200.994 98.274, 200.996 102.887 L 201 111.274 207.279 110.770 C 221.430 109.634, 229.412 100.287, 227.518 87.071 C 225.953 76.150, 220.689 70.432, 209.540 67.544 C 198.930 64.796, 199.592 63.882, 200.341 80.250 M 287.275 71.593 C 274.251 76.393, 264.968 92.537, 265.017 110.299 C 265.102 140.644, 285.396 161.243, 307.143 153.060 C 322.552 147.262, 331.190 127.148, 328.256 103.901 C 326.345 88.764, 320.086 78.635, 309.416 73.415 C 302.665 70.112, 293.369 69.347, 287.275 71.593 M 340.625 185.798 C 340.354 186.237, 340.545 187.249, 341.051 188.048 C 342.237 189.923, 342.224 204.327, 341.031 209.472 C 340.525 211.656, 340.207 213.540, 340.324 213.658 C 340.442 213.775, 342.493 213.609, 344.882 213.289 C 348.163 212.849, 348.832 212.485, 347.613 211.803 C 345.506 210.624, 345.301 202, 347.380 202 C 348.139 202, 350.628 204.475, 352.912 207.500 C 356.629 212.423, 357.452 213, 360.755 213 C 364.302 213, 364.363 212.942, 362.327 211.517 C 361.163 210.701, 359.013 207.991, 357.550 205.495 L 354.890 200.956 356.945 198.343 C 358.978 195.759, 359.656 190.528, 358.235 188.400 C 356.735 186.153, 352.966 185, 347.125 185 C 343.821 185, 340.896 185.359, 340.625 185.798 M 417.885 185.908 C 418.802 186.489, 419.049 187.667, 418.616 189.393 C 418.148 191.259, 418.354 192, 419.342 192 C 420.290 192, 420.567 191.184, 420.224 189.394 C 419.919 187.794, 420.262 186.448, 421.113 185.909 C 422.088 185.291, 421.609 185.031, 419.500 185.031 C 417.394 185.031, 416.913 185.292, 417.885 185.908 M 423.321 188.504 C 423.223 190.427, 423.560 192, 424.071 192 C 424.582 192, 425.007 191.213, 425.015 190.250 C 425.028 188.782, 425.181 188.737, 425.961 189.971 C 427.463 192.345, 428.185 190.499, 426.877 187.629 C 425.201 183.952, 423.533 184.362, 423.321 188.504 M 428.675 186.404 C 427.985 188.203, 428.963 192, 430.117 192 C 430.602 192, 431 190.425, 431 188.500 C 431 184.981, 429.678 183.789, 428.675 186.404 M 153 195.360 C 153 200.509, 152.714 206.809, 152.364 209.360 L 151.728 214 154.614 213.993 L 157.500 213.986 157.740 199.993 L 157.979 186 155.490 186 L 153 186 153 195.360 M 167.500 187 C 166.400 187.473, 166.063 187.891, 166.750 187.930 C 168.270 188.015, 168.514 204.720, 167.070 209.757 L 166.140 213 173.920 213 C 180.939 213, 182.096 212.713, 185.751 210.066 C 195.437 203.049, 192.888 189.618, 181.362 186.944 C 176.578 185.834, 170.153 185.860, 167.500 187 M 197.208 186.616 C 196.224 187.057, 196.191 187.525, 197.067 188.580 C 197.837 189.509, 198.096 193.768, 197.851 201.483 L 197.486 213 203.993 212.998 C 211.789 212.997, 216.505 210.930, 219.730 206.102 C 223.853 199.930, 221.976 191.596, 215.733 188.356 C 212.515 186.685, 199.733 185.485, 197.208 186.616 M 228.842 194.250 C 229.029 198.787, 228.753 204.863, 228.228 207.750 L 227.273 213 233.437 213 C 236.826 213, 240.102 213.502, 240.715 214.115 C 241.535 214.935, 242.276 214.367, 243.516 211.969 C 245.135 208.839, 245.128 208.741, 243.351 209.532 C 242.333 209.984, 239.294 210.548, 236.598 210.784 L 231.696 211.214 232.396 198.607 L 233.097 186 230.798 186 L 228.500 186 228.842 194.250 M 248.500 199.502 L 248.500 213.001 255.168 213 C 258.836 213, 262.514 213.260, 263.342 213.578 C 264.268 213.933, 265.303 213.302, 266.035 211.934 L 267.224 209.713 262.240 210.374 C 254.943 211.342, 254 210.700, 254 204.763 L 254 199.740 258.443 200.241 C 262.522 200.700, 264 199.963, 264 197.465 C 264 197.261, 261.750 197.361, 259 197.686 L 254 198.279 254 193.010 L 254 187.742 258.886 188.390 C 262.753 188.903, 263.893 188.722, 264.354 187.519 C 264.847 186.236, 263.660 186, 256.719 186.002 L 248.500 186.004 248.500 199.502 M 288.500 199.434 L 288.500 212.864 296.500 213.201 C 303.927 213.514, 307 212.868, 307 210.993 C 307 210.573, 304.075 210.465, 300.500 210.752 L 294 211.274 294 205.507 L 294 199.740 298.443 200.241 C 302.522 200.700, 304 199.963, 304 197.465 C 304 197.261, 301.750 197.361, 299 197.686 L 294 198.279 294 193 L 294 187.721 298.915 188.304 C 302.671 188.748, 303.960 188.545, 304.384 187.443 C 304.838 186.258, 303.469 186, 296.719 186.002 L 288.500 186.004 288.500 199.434 M 318.750 186.623 C 319.438 186.922, 320 187.842, 320 188.668 C 320 190.956, 312.203 209.118, 310.335 211.183 C 308.766 212.916, 308.917 212.999, 313.595 212.968 C 317.888 212.940, 318.282 212.771, 316.750 211.608 C 314.614 209.986, 314.548 208.018, 316.475 203.406 C 317.824 200.178, 318.259 199.903, 321.569 200.188 C 324.915 200.476, 325.363 200.914, 327.498 205.980 C 329.918 211.721, 332.936 214.622, 335.473 213.649 C 336.752 213.158, 336.662 212.541, 334.865 209.495 C 333.704 207.528, 331.039 201.549, 328.942 196.209 L 325.130 186.500 321.315 186.290 C 319.217 186.174, 318.063 186.324, 318.750 186.623 M 364.015 188.750 C 364.024 190.268, 364.360 191.002, 364.765 190.388 C 365.943 188.606, 371.834 188.126, 372.462 189.761 C 373.381 192.157, 373.052 207.732, 372.025 210.435 L 371.050 213 375.581 213 L 380.113 213 378.557 210.777 C 377.393 209.116, 377 205.961, 377 198.277 L 377 188 379.929 188 C 381.539 188, 383.515 188.658, 384.319 189.462 C 385.602 190.745, 385.839 190.622, 386.252 188.462 L 386.723 186 375.361 186 L 364 186 364.015 188.750 M 388 187 C 388 187.550, 388.450 188, 389 188 C 390.343 188, 390.312 208.549, 388.965 211.066 C 388.012 212.846, 388.291 213, 392.465 213 C 394.959 213, 397 212.550, 397 212 C 397 211.450, 396.550 211, 396 211 C 395.450 211, 395 208.525, 395 205.500 L 395 200 400.500 200 L 406 200 406 206.500 L 406 213 410.250 212.968 C 414.068 212.940, 414.316 212.797, 412.690 211.564 C 411.085 210.347, 410.915 208.816, 411.190 198.094 L 411.500 185.996 408.436 185.998 L 405.372 186 405.806 192 L 406.240 198 400.620 198 L 395 198 395 192 L 395 186 391.500 186 C 389.575 186, 388 186.450, 388 187 M 113 187.941 C 113 188.459, 113.499 189.190, 114.108 189.567 C 115.278 190.290, 114.594 203.430, 113.025 210.391 L 112.211 214 115.855 213.968 C 119.100 213.940, 119.308 213.791, 117.750 212.608 C 116.408 211.589, 116.023 209.907, 116.100 205.390 C 116.292 194.007, 117.014 193.827, 121.967 203.933 C 124.418 208.934, 126.860 212.880, 127.394 212.702 C 127.928 212.524, 130.503 208.131, 133.116 202.939 L 137.867 193.500 138.184 203.500 L 138.500 213.500 141.750 213.813 C 144.873 214.115, 146.331 212.611, 143.750 211.750 C 142.841 211.446, 142.500 208.010, 142.500 199.166 C 142.500 187.530, 142.410 187, 140.430 187 C 138.785 187, 137.477 188.948, 134.052 196.500 C 131.682 201.725, 129.453 206, 129.097 206 C 128.742 206, 126.328 201.725, 123.732 196.500 C 119.337 187.653, 118.807 187, 116.007 187 C 114.353 187, 113 187.423, 113 187.941 M 346.986 191.250 C 346.979 193.588, 346.701 196.512, 346.370 197.750 C 345.864 199.637, 346.164 200, 348.228 200 C 353.657 200, 356.238 191.681, 351.777 188.557 C 348.094 185.977, 347.001 186.591, 346.986 191.250 M 172.501 197.146 C 171.496 210.554, 171.716 211.435, 176.172 211.806 C 179.060 212.046, 180.529 211.499, 183.058 209.240 C 185.936 206.668, 186.280 205.774, 186.354 200.671 C 186.427 195.613, 186.098 194.636, 183.418 191.957 C 181.655 190.193, 178.906 188.697, 176.802 188.355 L 173.204 187.771 172.501 197.146 M 202.642 194.147 C 202.289 197.527, 202 202.672, 202 205.579 C 202 211.469, 203.450 212.719, 208.897 211.523 C 215.048 210.172, 218.747 201.572, 216.112 194.750 C 214.856 191.499, 209.569 188.009, 205.892 188.004 C 203.434 188, 203.248 188.352, 202.642 194.147 M 320.140 194.029 C 318.552 198.583, 318.666 199, 321.500 199 C 324.377 199, 324.506 198.433, 322.640 193.995 L 321.280 190.759 320.140 194.029 M 73.321 193.141 C 70.389 194.623, 68.650 199.129, 69.506 203.027 C 70.814 208.980, 79.982 210.381, 84.023 205.244 C 86.537 202.047, 86.587 196.841, 84.124 194.612 C 81.752 192.465, 76.164 191.704, 73.321 193.141 M 88.823 200.498 C 89.098 207.712, 89.405 209, 90.850 209 C 92.234 209, 92.481 208.250, 92.171 205 C 91.836 201.479, 92.042 201, 93.895 201 C 95.053 201, 96.007 201.563, 96.015 202.250 C 96.026 203.108, 96.319 203.044, 96.949 202.048 C 98.260 199.976, 97.435 199.194, 94.524 199.751 C 92.189 200.197, 92 199.953, 92 196.492 C 92 192.868, 92.094 192.769, 95 193.350 C 96.692 193.688, 98 193.525, 98 192.975 C 98 192.439, 95.862 191.999, 93.250 191.998 L 88.500 191.995 88.823 200.498 M 73.200 195.200 C 71.663 196.737, 71.708 201.037, 73.282 203.087 C 77.228 208.226, 83 207.366, 83 201.639 C 83 196.104, 76.540 191.860, 73.200 195.200 M 272 199.496 C 272 201.327, 272.632 201.574, 277.500 201.644 C 282.484 201.716, 283 201.522, 283 199.576 C 283 197.640, 282.459 197.429, 277.500 197.429 C 272.606 197.429, 272 197.657, 272 199.496" stroke="none" fill="#fffcfc" fill-rule="evenodd"/><path d="" stroke="none" fill="#fcfcfc" fill-rule="evenodd"/></svg>