<svg width="250" height="51" viewBox="0 0 250 51" fill="none" xmlns="http://www.w3.org/2000/svg">
<g id="Need_for_Speed_Unbound_logo 2" clip-path="url(#clip0_35_689)">
<g id="NFS">
<path id="Vector" d="M38.7919 0.881167C46.8926 0.879168 54.9951 0.880167 63.0959 0.881167C63.3576 0.844188 63.4254 1.01409 63.5499 1.09704C66.8506 4.11929 70.1677 7.13754 73.4757 10.1568C73.4922 7.06458 73.4721 3.97137 73.4849 0.879168C80.6355 0.880167 87.7861 0.883165 94.9367 0.877169C94.9495 4.22323 94.9495 7.56929 94.9367 10.9153C93.4648 11.1882 92.0589 11.563 90.609 11.8718C89.6278 12.0797 88.8058 12.4445 87.863 12.6923C87.2406 12.8712 86.6987 13.1211 86.0671 13.292C85.0071 13.5658 84.1284 14.0046 83.0923 14.3014C78.8707 14.2954 74.6382 14.3314 70.424 14.2834C67.008 11.2092 63.6853 8.10298 60.2473 5.03676C60.2528 8.12497 60.2437 11.2132 60.2528 14.3014C53.1004 14.3094 45.9498 14.3004 38.7974 14.3064C38.7864 9.83197 38.7992 5.35657 38.7919 0.881167Z" fill="white"/>
<path id="Vector_2" d="M96.8296 0.880928C115.543 0.87793 134.258 0.882927 152.971 0.87793C152.987 2.59893 152.973 4.32093 152.978 6.04193C141.414 6.04193 129.851 6.04193 118.287 6.04193C118.287 6.38574 118.287 6.72954 118.287 7.07434C129.848 7.07234 141.408 7.07733 152.969 7.07134C152.989 8.79434 152.973 10.5183 152.976 12.2413C141.414 12.2403 129.851 12.2413 118.287 12.2413C118.287 12.9289 118.287 13.6165 118.287 14.3041C115.437 14.3061 112.586 14.3011 109.736 14.3071C109.586 13.9144 109.533 13.5066 109.24 13.1358C108.824 12.6261 108.053 12.2413 107.559 11.7576C106.882 11.5417 106.311 11.2449 105.679 10.9951C104.236 10.4774 102.455 10.4484 100.795 10.3544C100.178 10.3045 99.5573 10.3604 98.9477 10.4044C98.2392 10.4584 97.5124 10.4614 96.8333 10.5923C96.8278 7.35517 96.8333 4.11805 96.8296 0.880928Z" fill="white"/>
<path id="Vector_3" d="M154.871 3.86229C154.889 2.29819 157.414 0.902004 160.282 0.882016C174.997 0.877018 189.714 0.882015 204.429 0.880017C205.158 0.883015 205.899 0.855031 206.615 0.950975C208.372 1.15985 209.897 1.86145 210.584 2.76892C211.27 3.63942 210.943 4.60686 211.018 5.52532C203.867 5.52432 196.715 5.52432 189.564 5.52532C189.559 5.00862 189.562 4.49292 189.562 3.97722C185.152 3.97722 180.744 3.97922 176.334 3.97622C176.326 4.49092 176.33 5.00562 176.33 5.52132C186.124 5.81815 195.918 6.10299 205.714 6.39882C207.323 6.44579 208.87 6.89553 209.846 7.59512C210.679 8.17479 211.074 8.91935 211.021 9.65193C210.957 10.6663 211.3 11.7527 210.355 12.6832C210.144 12.4023 209.78 12.1125 209.191 12.0615C208.381 12.0076 207.635 11.7537 206.805 11.8047C205.769 11.8387 204.731 11.7517 203.7 11.8227C203.005 11.8626 202.351 12.0046 201.665 12.0605C200.603 12.1075 199.796 12.5403 199.06 12.916C198.712 13.2968 198.937 13.7476 198.95 14.1553C199.073 14.2043 199.195 14.2553 199.32 14.3082C186.37 14.2982 173.419 14.3082 160.469 14.3032C158.291 14.3072 156.198 13.5507 155.343 12.4593C154.604 11.5778 154.944 10.5894 154.864 9.65493C162.02 9.65293 169.178 9.64993 176.336 9.65593C176.326 10.1716 176.332 10.6863 176.328 11.201C180.738 11.206 185.148 11.2 189.559 11.204C189.564 10.6893 189.559 10.1736 189.566 9.65892C179.722 9.3551 169.875 9.07526 160.032 8.77344C157.672 8.68449 155.559 7.69107 155.028 6.43479C154.717 5.58928 154.92 4.71879 154.871 3.86229Z" fill="white"/>
</g>
<g id="Unbound">
<path id="Vector_4" d="M96.8332 10.5925C97.5124 10.4615 98.2392 10.4585 98.9476 10.4046C99.5573 10.3606 100.178 10.3046 100.795 10.3546C102.455 10.4486 104.236 10.4775 105.679 10.9952C106.311 11.2451 106.882 11.5419 107.559 11.7578C108.053 12.2415 108.824 12.6263 109.24 13.136C109.533 13.5068 109.586 13.9145 109.736 14.3073C109.831 14.4882 109.82 14.6761 109.754 14.859C109.606 15.3067 109.714 15.7635 109.593 16.2132C109.437 16.1253 109.218 16.0383 109.289 15.9014L109.062 15.7985C109.161 16.0823 109.046 16.4521 108.648 16.647L108.634 16.7029C108.559 16.7349 108.409 16.7979 108.333 16.8289C108.445 16.7859 108.669 16.6989 108.78 16.656L108.793 16.8908C108.923 16.6769 109.058 16.4601 109.097 16.2342C109.212 16.2272 109.443 16.2112 109.56 16.2042C109.201 17.2076 108.269 18.0961 107.532 19.0236C107.153 19.4283 106.695 19.8081 106.278 20.2009C106.184 20.1319 106.093 20.061 106.007 19.991C105.728 20.1219 105.43 20.2409 105.209 20.4018C105.088 20.3968 104.848 20.3868 104.727 20.3818C104.498 20.5137 104.286 20.6536 104.088 20.7986C104.354 20.6676 104.562 20.6846 104.714 20.8495C104.599 21.0034 104.456 21.1503 104.332 21.3013C105.196 21.1493 105.432 20.6316 105.89 20.2599C105.966 20.2519 106.12 20.2359 106.197 20.2279C105.721 20.6936 105.049 21.0844 104.548 21.5401C104.56 21.3382 104.427 21.2823 104.143 21.3702C103.879 21.5471 103.667 21.75 103.341 21.8979C103.18 21.835 103.025 21.772 102.871 21.708C102.882 21.781 102.904 21.9269 102.915 21.9999C102.799 21.9959 102.571 21.9889 102.457 21.9859C102.66 22.1408 102.869 22.2967 103.074 22.4526C102.717 22.5855 102.292 22.4806 102.162 22.2657C102.027 22.4076 101.988 22.6245 101.615 22.6335C101.556 22.7694 101.496 22.9063 101.434 23.0432C100.998 23.1622 100.736 23.396 100.449 23.5999C101.144 23.7668 100.841 23.0053 101.67 23.1552C101.598 23.3471 101.683 23.6389 101.155 23.5909C101.209 23.6259 101.317 23.6959 101.37 23.7309C101.514 23.6519 101.659 23.5719 101.805 23.493C101.798 23.7988 102.439 23.7688 102.805 23.8708C102.827 23.9367 102.873 24.0687 102.896 24.1346L102.937 24.1056C102.964 24.0697 103.017 23.9977 103.045 23.9607C103.83 23.8708 104.76 23.9547 105.468 24.1866C106.049 24.3805 106.812 24.3235 107.343 24.5754C108.097 24.9172 109.02 25.114 109.818 25.4209C109.825 23.8278 109.807 22.2337 109.827 20.6396C109.93 18.8287 112.286 17.1507 115.435 16.596C116.967 16.2912 118.613 16.3771 120.209 16.3661C124.908 16.3681 129.61 16.3641 134.309 16.3681C137.575 16.3801 140.669 17.5794 141.807 19.2455C142.164 19.7532 142.355 20.2968 142.355 20.8405C142.353 26.903 142.355 32.9645 142.353 39.027C142.329 39.9964 142.525 41.0058 141.831 41.9263C140.711 43.6143 137.582 44.8306 134.287 44.8376C128.864 44.8436 123.44 44.8396 118.016 44.8396C115.72 44.8456 113.452 44.2869 111.927 43.3525C110.697 42.6089 109.932 41.6345 109.831 40.633C109.778 38.5952 109.873 36.5554 109.783 34.5186C109.3 34.8644 108.709 35.1722 108.383 35.575C108.037 35.9048 107.407 36.1147 107.061 36.4485C106.444 37.0611 105.278 37.4169 104.595 38.0046C103.502 38.4993 102.411 39.007 101.452 39.5847C100.756 39.8365 100.165 40.1733 99.3998 40.3672C99.0044 40.4751 98.6181 40.6021 98.3325 40.79C97.9902 41.0158 97.3861 40.9878 96.9724 41.1547C96.0003 41.5265 94.9202 41.8094 94.0213 42.2351C93.1719 42.3531 92.608 42.7388 91.8428 42.9447C90.911 43.2036 90.1421 43.5983 89.2689 43.9071C89.4794 43.8812 89.6918 43.8562 89.906 43.8312L89.8986 43.9521C89.9847 43.9641 90.1586 43.9881 90.2446 44.0001C90.2721 44.2579 89.8364 44.4918 90.0817 44.7417C90.0689 44.7866 90.0451 44.8746 90.0323 44.9186C90.1879 44.9056 90.4973 44.8796 90.651 44.8656C90.8121 45.3513 91.127 45.846 90.911 46.3427C90.8469 46.2578 90.7206 46.0879 90.6584 46.0029C90.5174 46.1329 90.3819 46.2648 90.2446 46.3957C90.4314 46.4787 90.6181 46.5616 90.8067 46.6446L90.8689 46.4207C91.1124 46.6026 91.2607 46.8115 91.3192 47.0363C91.3888 47.0673 91.5243 47.1283 91.5938 47.1593C91.592 47.4321 91.8648 47.7799 91.4163 47.9888C91.0813 48.2136 90.5302 48.2586 90.0744 48.3766C89.4044 48.5495 88.6758 48.3776 87.9764 48.4165C86.8176 48.4835 85.624 48.3196 84.511 48.5714C84.0954 48.4175 83.5847 48.4155 83.1105 48.3596C83.0519 48.4195 82.9348 48.5395 82.8762 48.5994C82.6345 48.5694 82.3929 48.5415 82.1512 48.5145C81.4867 48.6184 80.813 48.4995 80.1485 48.4695C79.9032 48.0238 79.9911 47.559 79.8885 47.1043C79.4821 47.2052 79.1746 47.3841 78.8249 47.528C78.6583 47.2892 78.2098 47.2632 77.8016 47.3162L77.9224 47.2222C78.0249 47.2032 78.2281 47.1663 78.3288 47.1473C78.1842 47.0643 77.9755 47.0523 77.7833 47.0353C77.7686 47.1832 77.754 47.3322 77.7412 47.4811C77.5636 47.4221 77.386 47.3661 77.2066 47.3122C77.3604 47.4101 77.5178 47.5071 77.6734 47.607C77.4538 47.7459 77.2377 47.8858 77.0217 48.0258C77.2066 48.0058 77.5782 47.9648 77.7631 47.9438C77.5087 48.0467 77.2249 48.1357 77.0602 48.2886C77.0418 48.1067 76.8643 48.0218 76.5274 48.0328C76.4341 48.2057 76.337 48.3776 76.2437 48.5515C76.3499 48.5275 76.5622 48.4785 76.6684 48.4545C75.7915 48.8023 75.3009 49.361 74.3929 49.6888C74.4441 49.405 74.7718 49.2111 75.1764 49.0622C74.6748 49.266 74.153 49.4599 73.4977 49.355C73.7814 49.5119 74.0524 49.6748 74.3489 49.8257C74.316 50.1525 73.8308 50.3684 73.4812 50.6053C73.0034 50.9691 71.8812 50.9631 71.407 50.6053C71.0061 50.5383 70.6858 50.3914 70.3343 50.2755C70.0011 50.2475 69.6642 50.2645 69.3311 50.2525C68.9247 50.1225 68.7452 49.8017 68.1942 49.8037C67.6761 49.7947 67.1709 49.7158 66.8011 49.5089C66.5832 49.352 66.2299 49.374 65.915 49.392C65.8949 49.325 65.8546 49.1911 65.8345 49.1241C65.3732 49.0432 64.7965 48.9582 64.9027 48.6214C64.6976 48.5395 64.3516 48.5065 64.3315 48.3426C64.4377 48.0507 64.5054 47.7539 64.6445 47.4671C65.0345 46.9274 65.7722 46.4966 66.272 45.9889C66.6967 45.4992 67.6377 45.2514 68.2528 44.8446C64.8734 44.8236 61.4903 44.8666 58.1145 44.8236C56.2674 40.8969 54.5118 36.9562 52.6994 33.0235C52.4688 32.5567 52.315 32.078 52.0038 31.6243C52.044 36.0297 52.0166 40.4352 52.0184 44.8406C49.8546 44.8396 47.6889 44.8406 45.525 44.8396C45.0838 44.8356 44.6426 44.8706 44.249 44.9835C44.4431 45.0435 44.6371 45.1035 44.8312 45.1634C44.769 45.2104 44.6408 45.3033 44.5767 45.3493C44.3534 45.3113 44.2106 45.2014 44.033 45.1274C44.1117 45.2284 44.1905 45.3293 44.271 45.4313C44.5896 45.3803 45.3603 45.1194 45.1827 45.4942C45.8527 45.4682 45.9076 45.918 46.1694 46.1568C46.0559 46.1538 45.8307 46.1468 45.7172 46.1438L45.7502 46.2128C45.8619 46.2008 46.0852 46.1768 46.1969 46.1648C46.3177 46.3138 46.4459 46.4627 46.5777 46.6096C46.3781 46.5406 46.1804 46.4717 45.9809 46.4057C45.9973 46.5716 45.9937 46.7385 45.9809 46.9054C46.2042 46.9044 46.4275 46.9054 46.6509 46.9074C46.6509 46.8524 46.6545 46.7405 46.6545 46.6855C46.9053 46.8704 47.1122 47.0713 47.3282 47.2692C47.4582 47.2672 47.72 47.2622 47.85 47.2592C47.7292 47.608 48.293 47.8339 48.5108 48.1277C48.5365 48.3426 48.6463 48.6084 48.3351 48.7793C48.0019 49.0152 47.4619 49.1031 46.9658 49.1911C46.3269 49.375 45.9937 49.7588 45.3713 49.9566C44.6079 50.3024 43.5387 50.0196 42.6728 50.2375C42.2353 50.3874 41.6202 50.2385 41.2907 50.4993C41.0417 50.5303 40.7964 50.5623 40.5493 50.5983C40.412 50.5463 40.2747 50.4953 40.1374 50.4444C39.6742 50.5863 39.2623 50.8011 38.7424 50.8741C37.9113 50.8161 37.4975 50.3424 37.1497 49.9796C36.8403 49.5979 36.2014 49.323 35.9653 48.9232C35.7291 48.5425 35.3209 48.2027 35.0847 47.8229C34.3634 47.3212 33.9955 46.7095 33.6037 46.1179C33.3419 45.6921 32.6939 45.3753 32.4998 44.9346C31.8609 44.136 31.2531 43.3265 30.7186 42.506C30.0064 41.9163 30.0412 41.1617 29.3419 40.5691C29.0984 40.3602 28.9483 40.1253 28.8019 39.8935C28.4632 40.4132 28.3698 40.9828 27.8133 41.4546C27.081 42.1242 26.671 42.9157 25.6183 43.4664C25.0728 43.8022 24.6133 44.189 23.9121 44.4368C23.0078 44.8646 22.0394 45.2823 20.8842 45.4852C20.1391 45.6262 19.4142 45.837 18.605 45.832C17.9753 45.818 17.4004 46.0139 16.7689 45.971C14.973 45.834 13.1478 45.6212 11.6228 45.0555C10.8283 44.7457 9.93496 44.4518 9.4956 43.9521C9.79949 43.9071 9.98805 43.6653 9.52306 43.7342L9.39308 43.8962C8.95372 43.5943 8.36974 43.3575 8.09697 42.9897C7.84983 42.6539 7.11939 42.419 7.10474 42.0522C7.21275 42.0632 7.42877 42.0872 7.53861 42.0992L7.5917 42.1142C7.56058 42.0602 7.49651 41.9543 7.46539 41.9003C7.40681 41.8983 7.28964 41.8943 7.23106 41.8923C7.26951 41.6904 6.95646 41.4516 7.18346 41.2727C7.0242 41.2677 6.8631 41.2627 6.70383 41.2577C7.03518 41.4226 7.18163 41.6575 7.17065 41.8993C7.11207 41.9073 6.9949 41.9223 6.93815 41.9303C6.39078 41.4086 5.91481 40.8579 5.58712 40.2852C6.08872 40.3292 6.05394 40.0714 6.12717 39.8905C6.0155 39.8965 5.79032 39.9075 5.67682 39.9135C5.68048 39.7645 5.75737 39.6306 5.90749 39.5107C5.61641 39.5926 5.41137 39.7116 5.53037 39.9085H5.30153C5.11114 39.3128 4.67728 38.7521 4.48872 38.1555C4.88231 38.2244 4.79993 38.4433 4.85485 38.6162C4.96835 38.7361 5.18437 38.8141 5.36378 38.9031C5.33266 38.984 5.27041 39.1449 5.23929 39.2259C5.437 39.0859 5.63655 38.944 5.8965 38.8361C5.72259 38.7451 5.50657 38.8131 5.31618 38.8501C5.29787 38.6812 5.42968 38.5622 5.70794 38.4913C5.7116 38.3674 5.71343 38.2444 5.7116 38.1215C5.55783 38.3024 5.45897 38.5043 5.19169 38.6492C5.06721 38.3923 4.90977 38.1355 4.92259 37.8666L4.76881 37.8696C4.90062 37.7677 5.03609 37.6678 5.17339 37.5678C4.81458 37.5648 4.50519 37.6528 4.19764 37.7397C4.11343 37.4969 3.93585 37.269 3.75828 37.0431C3.50199 36.7433 3.72899 36.3965 3.50199 36.0927C3.06079 35.527 3.29512 34.8884 2.918 34.3147C3.09375 34.4676 3.20359 34.6375 3.32441 34.8054L3.20908 34.8184C3.47452 35.2402 3.4434 35.7059 3.79123 36.1127C4.02739 35.9917 4.11343 35.8378 4.08597 35.6669C4.3862 35.618 4.71389 35.3751 4.22876 35.3241C4.23608 35.3861 4.25073 35.509 4.25805 35.57C4.15004 35.561 3.93219 35.544 3.82418 35.535C3.92121 35.3681 3.58437 35.1882 3.86629 35.0513C3.77292 34.9144 3.67407 34.7784 3.57704 34.6435C3.77109 34.6735 3.96331 34.7055 4.15736 34.7375C4.15004 34.6785 4.13906 34.5616 4.13174 34.5036C4.04569 34.5006 3.87178 34.4966 3.78574 34.4936C3.87178 34.4656 4.04386 34.4107 4.12991 34.3827C4.09512 34.2268 4.0164 33.9279 3.60816 34.1138C3.58803 34.1648 3.54775 34.2677 3.52945 34.3187L3.49832 34.3217C3.45622 34.1768 3.39581 34.0339 3.32258 33.893C3.32258 33.82 3.32441 33.6751 3.32624 33.6021L3.04615 33.5861C3.1505 33.5821 3.35919 33.5741 3.46354 33.5701C3.29878 33.3683 2.95645 33.2653 2.56468 33.2573C2.4585 32.9915 2.41091 32.7206 2.35599 32.4518C2.48962 32.6777 2.59946 32.9275 2.94729 33.0904C3.00587 32.7356 3.03516 32.3678 2.72029 32.042C2.60862 32.107 2.19306 32.3748 2.20404 32.129C2.15278 31.5203 1.81594 30.9297 1.80495 30.32C2.16743 30.374 2.03379 30.6009 2.11251 30.7478C2.37063 30.6249 2.3688 30.431 2.42189 30.2621C2.53905 30.32 2.65805 30.377 2.77704 30.435C2.76606 30.4869 2.74409 30.5909 2.7331 30.6438C2.80999 30.7268 2.96194 30.8927 3.03883 30.9756L3.13951 30.7868C2.89786 30.5029 2.9656 30.1821 2.90153 29.8783C2.86491 29.8263 2.78802 29.7214 2.74958 29.6694C2.70015 29.6714 2.60313 29.6764 2.5537 29.6784C2.71663 29.8183 2.89054 29.9632 2.6196 30.1072C2.49695 30.0282 2.37429 29.9512 2.24981 29.8753C2.24065 29.6714 2.15644 29.4725 2.03013 29.2826C1.80862 29.3556 1.68047 29.4645 1.64752 29.6094C1.35827 29.1907 1.4498 28.7439 1.38939 28.3082L1.61639 28.3042C1.60358 28.566 1.26857 29.1497 2.04843 29.1327C1.96788 28.9768 2.00999 28.8409 2.17658 28.726C2.04843 28.566 1.891 28.4101 1.82143 28.2392C1.81228 28.0543 1.94592 27.8645 1.80312 27.6856C1.79763 27.4777 1.8434 27.2698 1.89649 27.0649C2.18207 27.1808 2.24248 27.3817 2.37795 27.5496C2.38345 27.4247 2.38894 27.2998 2.39992 27.1759C2.16377 27.0539 1.94042 26.924 1.72074 26.7941C1.61823 26.5002 1.40404 26.2144 1.42784 25.9116C1.38756 25.8686 1.30701 25.7817 1.26674 25.7387L1.72807 25.5758C0.613187 25.6158 1.62738 26.2764 1.09282 26.5792C1.06353 26.2524 1.07269 25.9206 0.849344 25.6118C1.20632 25.6787 1.37658 25.4818 1.58527 25.3759C1.29786 25.244 1.14774 25.0511 1.14042 24.8472C1.28138 24.7513 1.51571 24.7383 1.70244 24.6833C1.62555 24.6793 1.46994 24.6723 1.39305 24.6683C1.33813 24.5354 1.28138 24.4025 1.22646 24.2705C1.07635 24.3795 0.525315 24.6733 0.75781 24.2396C0.781609 23.7378 0.534468 23.2411 0.699229 22.7414C0.788932 22.7894 0.966507 22.8873 1.05621 22.9353C1.17703 22.6945 1.2887 22.4516 1.38939 22.2077C1.09831 22.1628 0.979321 22.0488 1.03241 21.8659C0.636986 21.9279 0.777948 22.1778 0.752318 22.3417C0.466734 21.8869 0.690075 21.3382 0.0859542 20.9555C0.0621555 20.4817 -0.239905 19.9031 0.453919 19.5243C0.913417 19.3794 1.4553 19.3394 1.95141 19.2405C2.88505 19.0656 3.88826 19.2415 4.83288 19.1055C5.35462 19.0236 5.90016 19.0716 6.43472 19.0766C6.71115 19.2325 7.09742 19.2385 7.46722 19.2155C7.55875 19.2445 7.73999 19.3034 7.83152 19.3334C8.45578 19.2435 9.04892 19.4333 9.64388 19.5113C9.82146 19.5123 10.0192 19.4733 10.1858 19.5263C10.7002 19.6732 11.2915 19.6902 11.8389 19.7851C11.8718 20.3058 11.8645 20.8255 11.8205 21.3452C12.0439 22.1748 12.0054 23.0173 12.1757 23.8468C12.0054 24.1736 12.2306 24.5014 12.2929 24.8282C12.3734 25.6008 12.432 26.3783 12.6919 27.1409C12.6828 27.6136 12.6315 28.0953 12.8604 28.5571C13.1643 29.1087 12.864 29.7064 13.2686 30.2451C13.4663 30.4949 13.4883 30.7698 13.4462 31.0386C13.8709 31.8931 13.9093 32.7906 14.3377 33.6461C14.519 34.2218 14.6819 34.8014 14.9089 35.3721C15.3647 35.7969 15.2183 36.3176 15.6265 36.7543C16.0769 37.1711 15.6851 37.7947 16.5016 38.0945C16.584 38.2844 16.7689 38.4733 16.6993 38.6732C16.864 38.6892 17.0197 38.7202 17.1679 38.7661C17.2119 38.7411 17.3034 38.6912 17.3473 38.6662C17.2741 38.3234 17.8251 38.0745 17.8453 37.7407C17.902 37.294 18.3231 36.8962 18.3744 36.4505C18.6819 36.0617 18.5885 35.625 18.8668 35.2342C18.8192 35.1942 18.7258 35.1152 18.6782 35.0753C19.0169 34.7904 18.8723 34.4456 19.0041 34.1318C19.4068 33.1774 19.2329 32.1889 19.449 31.2225C19.5222 30.8257 19.2842 30.438 19.3007 30.0432C19.5222 29.4745 19.2055 28.8989 19.4618 28.3322C19.2091 27.8425 19.394 27.3358 19.3867 26.836C19.5149 26.3733 19.1304 25.9206 19.2805 25.4588C19.3739 24.3555 19.0279 23.2541 19.1084 22.1468C19.156 21.788 18.7588 21.4562 18.865 21.0984C18.9583 20.7626 18.8265 20.4278 18.7002 20.101C18.5867 19.3824 18.1675 18.6768 18.2792 17.9482C18.1382 17.1087 17.9862 16.2662 17.6384 15.4437C17.4901 15.1158 17.6311 14.78 17.7574 14.4582C18.0284 14.2464 18.4805 14.1154 18.6764 13.8696C19.178 13.8306 19.7107 13.8206 20.1739 13.7007C20.648 13.4278 21.2119 13.187 21.8801 13.077C22.5886 13.14 23.3117 13.2249 24.0256 13.145C24.3735 13.0291 24.778 13.109 25.157 13.088C25.3913 12.9691 25.6696 12.8871 25.9899 12.8602C26.1986 12.9451 26.4128 13.0271 26.6307 13.106C27.0645 12.9931 27.4764 12.8522 27.9341 12.7702C28.7726 12.8602 29.6403 12.9031 30.4476 13.063C31.0774 13.3789 30.6691 13.8516 30.8485 14.2464C30.9712 14.5082 30.7955 14.774 30.8504 15.0399C30.9858 15.7435 30.984 16.4551 31.2696 17.1487C30.9895 17.7653 31.7273 18.336 31.5771 18.9546C31.4527 19.5283 31.8939 20.075 31.9286 20.6446C32.1355 21.3432 32.5602 22.0248 32.5968 22.7374C32.7524 23.0353 33.0289 23.3211 32.9941 23.6409C32.9501 24.3255 33.4151 24.9741 33.6055 25.6427C33.655 25.9566 33.9863 26.2294 34.0394 26.5432C34.1804 27.2238 34.6014 27.8724 34.9273 28.5311C35.2806 29.4685 35.7785 30.387 36.1044 31.3274C36.3113 31.7982 36.6774 32.2469 36.7763 32.7316C36.8971 33.2243 37.547 33.6271 37.5909 34.1308C37.5817 34.4576 38.0907 34.6925 38.1328 35.0133C38.2261 35.3721 38.4092 35.7279 38.757 36.0397C38.8321 29.4825 38.768 22.9243 38.7882 16.3671C43.2019 16.3681 47.6157 16.3631 52.0294 16.3691C54.0376 20.5637 56.0276 24.7603 58.0651 28.9498C58.1383 24.7563 58.0633 20.5597 58.1036 16.3651C62.51 16.3681 66.9182 16.3681 71.3247 16.3651C71.3631 17.2356 71.3045 18.1071 71.3558 18.9776C71.4418 18.8767 71.5242 18.7747 71.6048 18.6718C72.2858 18.5479 73.0052 18.4319 73.4867 18.1201C73.4794 17.9392 73.4757 17.7583 73.4849 17.5774C73.3421 17.2946 72.9228 17.0387 73.0565 16.7319C73.1535 16.4631 72.8862 16.2082 72.899 15.9404C73.1352 15.7405 73.397 15.5416 73.7851 15.4227L73.9535 15.6046C74.6107 15.5236 75.1892 15.2828 75.8812 15.2847C75.8885 15.2558 75.9032 15.1978 75.9105 15.1698C76.5073 15.2957 77.0986 15.0519 77.7192 15.1128C78.1165 14.9999 78.5467 15.0159 78.8981 15.1738C79.429 15.0899 79.9929 15.1228 80.5201 15.0309C80.6336 15.0519 80.749 15.0729 80.8643 15.0939C81.5673 14.804 82.3105 14.5282 83.0922 14.3013C84.1284 14.0045 85.0071 13.5657 86.067 13.2919C86.6986 13.121 87.2405 12.8711 87.8629 12.6923C88.8057 12.4444 89.6277 12.0796 90.6089 11.8717C92.0588 11.5629 93.4648 11.1881 94.9366 10.9153C95.603 10.8723 96.2291 10.7464 96.8332 10.5925ZM109.346 15.6995C109.393 15.5286 109.434 15.3557 109.465 15.1838C109.097 15.2618 108.993 15.5876 109.346 15.6995ZM19.2421 16.9548C19.2622 17.1097 19.2842 17.2656 19.3043 17.4215C19.1506 17.6424 19.4215 17.8343 19.4654 18.0441C19.4014 18.0561 19.275 18.0801 19.2128 18.0931C19.6906 18.0651 19.5661 18.3889 19.7107 18.5509C19.74 18.4789 19.7675 18.4019 19.6705 18.338C19.784 18.0242 19.7272 17.7133 19.4563 17.4295C19.5112 17.3905 19.621 17.3136 19.676 17.2756C19.5954 17.2156 19.4343 17.0957 19.3538 17.0367C19.6723 16.8968 19.5295 16.6959 19.4581 16.517C19.059 16.586 18.8961 16.7859 19.2421 16.9548ZM74.4698 16.8628C74.6254 17.1547 74.4405 17.4525 74.5576 17.7403C74.7407 17.6594 74.9293 17.5784 75.1123 17.4955C74.9897 17.4115 74.8707 17.3276 74.7517 17.2436C74.8395 17.2346 75.0171 17.2176 75.105 17.2096C74.9897 17.0667 74.8762 16.9248 74.759 16.7839C74.6876 16.8039 74.5412 16.8428 74.4698 16.8628ZM108.317 17.5225C108.176 17.5654 108.039 17.6094 107.905 17.6544C107.892 17.7823 107.878 17.9102 107.867 18.0382C108.346 17.8513 108.473 17.5284 108.614 17.2356C108.509 17.3296 108.41 17.4255 108.317 17.5225ZM106.173 17.4625C106.252 17.5294 106.252 17.5294 106.173 17.4625V17.4625ZM93.1133 18.281C92.5733 18.4059 92.2382 18.7088 91.6506 18.7857C90.2355 19.0706 89.2817 19.7532 87.9545 20.1219C87.1581 20.3328 86.5375 20.6856 85.7961 20.9425C85.6185 21.2033 85.8693 21.4732 85.9243 21.736C86.0213 22.5325 86.3728 23.3131 86.413 24.1146C86.5064 24.1116 86.6931 24.1066 86.7865 24.1036C87.246 23.5889 88.3792 23.3671 88.6904 22.7984C89.8913 22.1827 90.695 21.3852 91.7916 20.7216C92.7966 20.1139 93.4099 19.3474 94.4131 18.7387C94.8122 18.369 95.5298 18.0551 95.5115 17.5924C94.695 17.8033 93.9518 18.0921 93.1133 18.281ZM107.631 18.28C107.389 18.285 107.18 18.5529 107.517 18.5648C107.753 18.5589 107.947 18.296 107.631 18.28ZM106.704 18.9276C106.622 18.8857 106.459 18.7997 106.377 18.7577C106.373 18.8147 106.367 18.9286 106.366 18.9856C105.778 18.9066 105.996 19.2345 106.173 19.3874C106.168 19.3284 106.16 19.2105 106.155 19.1515C106.234 19.1455 106.391 19.1345 106.468 19.1285C106.962 19.1455 106.38 19.4333 106.274 19.5323C105.926 19.6642 106.316 19.6962 106.53 19.7462C106.849 19.3894 107.283 19.0466 107.389 18.6468C106.999 18.6418 107.036 18.9406 106.704 18.9276ZM79.7842 19.1685C79.8812 19.2255 79.8812 19.2255 79.7842 19.1685V19.1685ZM19.9744 20.2579C19.8682 20.3998 19.9579 20.5897 20.1245 20.7076C20.4485 20.6776 20.3295 20.1949 19.9744 20.2579ZM31.4856 20.7506C31.4856 21.0844 32.033 20.6057 31.4856 20.7506V20.7506ZM20.1263 21.0524C20.1391 21.1104 20.1611 21.2263 20.1721 21.2843C20.2343 21.3532 20.3588 21.4902 20.421 21.5591C20.6883 21.4542 20.3661 21.3193 20.2984 21.2063C20.313 21.1693 20.3405 21.0954 20.3551 21.0584C20.2984 21.0574 20.1849 21.0544 20.1263 21.0524ZM71.3375 21.0074C71.3411 28.4061 71.3265 35.8048 71.3448 43.2036C72.1247 42.8298 72.8551 42.419 73.7997 42.1642C75.1306 41.4786 76.6684 40.9339 78.1531 40.3552C78.4148 40.2623 78.3361 40.0854 78.3197 39.9444C78.2318 39.4747 77.9151 39.013 78.0835 38.5363C77.7375 38.0885 77.7631 37.5988 77.6936 37.1251C77.2835 35.2632 76.7965 33.4102 76.489 31.5413C76.4652 31.2095 76.1393 30.9047 76.1869 30.5699C76.1686 30.1411 76.0386 29.7174 76.0203 29.2886C75.9874 29.0448 75.6597 28.8209 75.797 28.572C75.872 28.4231 75.7421 28.2782 75.7018 28.1333C75.4949 27.5346 75.6579 26.906 75.2862 26.3233C75.343 25.7217 74.9677 25.149 74.9 24.5524C74.8707 23.9067 74.532 23.2821 74.5302 22.6355C74.2904 22.5925 74.0249 22.5585 73.97 22.4036C73.5727 22.2517 73.6899 21.9319 73.4116 21.726C73.4061 21.82 73.3988 22.0079 73.3933 22.1028C73.1535 21.9889 73.062 21.826 72.9704 21.667C72.3901 21.4742 71.9324 21.1903 71.3375 21.0074ZM124.423 21.9469C123.739 22.0678 123.266 22.4536 123.319 22.8454C123.318 28.0084 123.321 33.1714 123.318 38.3334C123.233 38.7971 123.902 39.2648 124.764 39.2948C125.624 39.3098 126.485 39.3058 127.345 39.2968C128.229 39.2858 128.925 38.8121 128.855 38.3414C128.853 33.1774 128.855 28.0134 128.853 22.8504C128.881 22.5295 128.594 22.2067 128.088 22.0378C127.541 21.8429 126.858 21.9089 126.243 21.8959C125.635 21.9079 125.015 21.8619 124.423 21.9469ZM1.2887 24.9501C1.31067 25.0121 1.35644 25.136 1.38024 25.197C1.47909 25.168 1.67864 25.1101 1.77749 25.0811C1.85072 25.121 1.99534 25.201 2.06857 25.241C2.05942 25.181 2.04111 25.0591 2.03196 24.9981C1.78299 24.9831 1.53585 24.9671 1.2887 24.9501ZM79.0519 24.9651C79.1508 25.0201 79.1508 25.0201 79.0519 24.9651V24.9651ZM109.075 25.4678C109.19 25.5138 109.19 25.5138 109.075 25.4678V25.4678ZM105.606 25.6677C105.705 25.7227 105.705 25.7227 105.606 25.6677V25.6677ZM2.13631 26.5902C1.97338 26.7071 2.01548 26.7761 2.26811 26.7991C2.42921 26.6811 2.38528 26.6122 2.13631 26.5902ZM2.26628 27.6156C2.24065 27.6896 2.18756 27.8365 2.16193 27.9104L2.38894 27.9014C2.37612 27.9844 2.34866 28.1513 2.33585 28.2342C2.39809 28.2252 2.52441 28.2063 2.58665 28.1963C2.48962 28.0014 2.43654 27.7965 2.26628 27.6156ZM94.5998 28.9978C94.5138 29.1737 95.2369 29.2516 95.2753 29.0608C95.1783 28.9138 94.803 28.9648 94.5998 28.9978ZM95.8227 29.1467C96.0204 29.1277 96.2456 29.1257 96.4213 29.0668C96.5238 28.7939 95.4346 28.9888 95.8227 29.1467ZM90.0835 29.2087C89.9883 29.2906 89.895 29.3736 89.8035 29.4565C90.2428 29.5185 90.684 29.4435 91.116 29.3956C91.3229 29.4665 91.5627 29.4815 91.8025 29.4905C91.6726 29.3866 91.5371 29.2836 91.4053 29.1827C90.9641 29.1947 90.5229 29.2017 90.0835 29.2087ZM95.138 29.8013C93.397 29.7484 91.7348 30.1191 90.003 30.1141C89.2433 30.1291 88.5311 30.295 87.7769 30.332C87.8703 30.8687 88.0991 31.3994 88.0918 31.9411C88.0881 32.4458 88.3316 32.9365 88.3865 33.4382C88.414 33.846 88.7398 34.2268 88.749 34.6375C88.727 35.2772 89.1572 35.8898 89.1023 36.5314C89.624 36.3185 90.1714 36.1267 90.7517 35.9638C92.3115 35.3881 93.9133 34.8284 95.3083 34.1298C96.0643 33.6281 97.1042 33.2623 97.69 32.6847C97.9499 32.6117 98.1348 32.4888 98.2941 32.3588C98.5504 32.136 98.9714 31.9801 99.1527 31.7312C100.128 31.3025 100.434 30.6169 101.09 30.0642C100.202 29.9842 99.3357 29.8423 98.4314 29.8303C97.3476 29.6624 96.2383 29.8543 95.138 29.8013ZM1.93127 30.7298C2.14546 31.1466 2.41274 31.5623 2.39626 32.0011C2.48962 32.0041 2.67818 32.009 2.77338 32.011C2.59763 31.8401 2.57933 31.6712 2.72212 31.5043C2.57017 31.2085 2.85393 30.6958 1.93127 30.7298ZM2.76789 31.1985C2.88688 31.3964 3.06995 31.5823 3.28414 31.7562C3.32075 31.6233 3.34455 31.4904 3.35553 31.3564C3.16514 31.2965 2.96926 31.2435 2.76789 31.1985ZM2.97475 32.2369C3.09741 32.3439 3.26766 32.3678 3.48734 32.3089C3.63196 32.168 3.01503 32.082 2.97475 32.2369ZM3.62464 32.9835C3.44706 33.1004 3.48185 33.1704 3.72716 33.1924C3.90473 33.0754 3.86995 33.0055 3.62464 32.9835ZM8.03289 33.9609C8.13541 34.0199 8.13541 34.0199 8.03289 33.9609V33.9609ZM4.38071 34.2517C4.45943 34.3217 4.45943 34.3217 4.38071 34.2517V34.2517ZM4.19398 35.1472C4.24707 35.484 4.7084 34.9743 4.19398 35.1472V35.1472ZM6.20772 35.56C6.3084 35.617 6.3084 35.617 6.20772 35.56V35.56ZM3.98894 36.1446C3.65027 36.3615 3.79123 36.6663 3.94684 36.9102C4.00908 37.1021 4.01457 37.335 4.37522 37.4449C4.38803 37.1041 4.95188 36.7543 4.66446 36.4285L4.87865 36.4325L4.88414 36.3355C4.62785 36.4015 4.36057 36.4525 4.08963 36.4974C4.18116 36.3405 4.14821 36.2226 3.98894 36.1446ZM88.5732 36.1516C88.306 36.1976 88.2675 36.4765 88.5439 36.5284C88.8698 36.5144 88.9156 36.1666 88.5732 36.1516ZM37.4939 36.9652C37.6092 37.0171 37.6092 37.0171 37.4939 36.9652V36.9652ZM6.74044 37.8577C6.84296 37.9166 6.84296 37.9166 6.74044 37.8577V37.8577ZM37.1314 37.9586C37.2412 38.0106 37.2412 38.0106 37.1314 37.9586V37.9586ZM36.2069 40.0574C35.8847 40.3362 36.8184 40.0954 36.2069 40.0574V40.0574ZM37.6733 40.0824C37.5085 40.2013 37.5506 40.2683 37.8033 40.2812C37.9698 40.1613 37.9259 40.0954 37.6733 40.0824ZM6.33586 40.9359C6.57934 41.0048 6.82465 41.0748 7.06813 41.1448V41.0498C6.86676 40.9249 6.61596 40.798 6.33586 40.9359ZM95.9362 41.2527C96.0387 41.3146 96.0387 41.3146 95.9362 41.2527V41.2527ZM95.0154 41.5995C95.2662 41.6355 95.6177 41.5535 95.7257 41.4216C95.5719 41.2297 94.911 41.4206 95.0154 41.5995ZM92.0662 42.46C92.1156 42.497 92.2126 42.5709 92.2602 42.6079C92.511 42.5289 92.76 42.445 92.9778 42.3401C92.6648 42.36 92.3609 42.404 92.0662 42.46ZM90.3636 42.6968C90.5156 42.7708 90.6712 42.8458 90.825 42.9217C90.543 43.0007 90.3472 43.1236 90.2355 43.2905C90.6181 43.2365 90.9403 43.1076 91.2259 42.9637C91.4016 42.8488 91.3321 42.7818 91.019 42.7628C90.8451 42.6059 90.6053 42.5259 90.3636 42.6968ZM91.4767 42.6529C91.3723 42.8178 91.4712 42.8697 91.7678 42.8088C91.8684 42.6439 91.7696 42.5919 91.4767 42.6529ZM8.33496 42.8098C8.38072 42.9447 8.55464 43.0396 8.73404 43.1286C8.82191 43.3105 9.05624 43.4494 9.30155 43.5743C9.31802 43.3884 9.13679 43.2485 8.89331 43.1336C8.77798 42.9927 8.59491 42.8757 8.33496 42.8098ZM16.0933 42.8508C16.1995 42.9107 16.1995 42.9107 16.0933 42.8508V42.8508ZM90.0744 43.1576C90.1623 43.2245 90.1623 43.2245 90.0744 43.1576V43.1576ZM89.2726 43.4624C89.1719 43.6073 89.2524 43.6503 89.5142 43.5923C89.6076 43.4514 89.527 43.4074 89.2726 43.4624ZM89.4904 44.2549C89.6002 44.3019 89.6002 44.3019 89.4904 44.2549V44.2549ZM41.3273 44.8636C41.4609 44.8946 41.4609 44.8946 41.3273 44.8636V44.8636ZM79.4071 46.4437C79.0959 46.4787 79.2808 46.7155 79.5462 46.6226C79.8556 46.5826 79.6725 46.3537 79.4071 46.4437ZM78.6675 47.1992C78.7901 47.2122 79.0354 47.2382 79.1563 47.2512C79.3778 47.1323 79.6286 47.0333 79.9142 46.9654C79.8849 46.8624 79.8556 46.7605 79.8263 46.6586C79.4052 46.8145 79.0025 46.9884 78.6675 47.1992ZM76.6812 47.656C76.7892 47.7099 76.7892 47.7099 76.6812 47.656V47.656Z" fill="#00DC00"/>
<path id="Vector_5" d="M201.665 12.0606C202.351 12.0046 203.005 11.8627 203.701 11.8227C204.731 11.7518 205.769 11.8387 206.805 11.8047C207.635 11.7538 208.382 12.0076 209.191 12.0616C209.78 12.1126 210.144 12.4024 210.355 12.6832C210.34 12.9041 210.339 13.129 210.454 13.3428C210.824 14.0974 210.928 14.8799 211.234 15.6425C211.433 16.1212 211.516 16.6119 211.673 17.0957C211.788 17.5264 212.149 17.9222 212.259 18.3549C212.36 18.4729 212.431 18.5968 212.411 18.7297C212.385 19.4563 212.843 20.1479 213.081 20.8545C213.414 21.9508 213.643 23.0622 214.227 24.1296C214.813 26.6501 216.014 29.1117 216.654 31.6282C216.839 32.052 217.101 32.4677 217.088 32.9115C217.152 32.9405 217.279 32.9974 217.341 33.0264C217.324 27.4726 217.324 21.9179 217.341 16.3641C224.989 16.3721 232.64 16.3601 240.288 16.3701C243.783 16.4011 247.131 17.5524 248.737 19.2434C249.464 19.936 249.678 20.7316 250 21.4981V39.6066C249.866 39.9854 249.742 40.3652 249.586 40.7419C248.86 42.408 246.568 43.8342 243.649 44.4588C242.417 44.7306 241.085 44.8506 239.759 44.8416C234.128 44.8446 228.499 44.8316 222.869 44.8476C223.669 45.2923 224.314 45.807 224.894 46.3427C224.836 46.4586 224.777 46.5746 224.728 46.6915C224.837 46.7135 225.059 46.7575 225.169 46.7804C225.172 47.0163 225.367 47.2941 225.066 47.499C224.77 47.6509 224.396 47.7439 224.067 47.8678C222.769 48.2136 221.372 48.4335 219.946 48.5394C218.478 48.7443 217.055 49.0401 215.572 49.215C215.021 49.279 214.593 49.0501 214.231 48.8622C213.897 48.6803 213.476 48.5454 213.209 48.3325C210.959 45.9979 208.332 43.7802 205.634 41.5955C205.269 41.1697 204.583 40.8619 204.235 40.4311C203.344 39.7835 202.412 39.1509 201.637 38.4583C200.654 37.5788 199.464 36.7762 198.434 35.9167C197.972 35.6609 197.577 35.3751 197.322 35.0432C196.856 34.8414 196.544 34.5605 196.134 34.3297C196.09 34.2357 196.048 34.1418 196.01 34.0498C195.446 33.77 195.144 33.3792 194.652 33.0684C194.135 32.7306 193.648 32.3798 193.249 31.998C193.203 32.4468 193.355 32.8875 193.522 33.3232C193.63 33.9929 193.775 34.6605 193.883 35.3291C193.819 35.8628 194.04 36.3875 194.133 36.9162C194.787 36.9122 195.446 36.9252 196.092 36.9931C196.123 37.6737 196.056 38.3573 196.186 39.0369C196.317 39.8365 196.145 40.645 196.402 41.4385C196.261 42.0012 196.513 42.5639 196.447 43.1296C196.576 43.7292 196.435 44.3349 196.599 44.9335C196.757 45.4632 196.393 46.0109 196.715 46.5296C196.912 46.8514 196.87 47.1942 196.872 47.529C196.424 47.7629 195.781 47.7899 195.241 47.9288C193.625 48.3395 191.807 48.3385 190.077 48.4785C189.282 48.5604 188.499 48.3985 187.735 48.3036C186.836 48.2706 185.916 48.2616 185.059 48.0967C184.557 47.627 184.803 47.0483 184.7 46.5306C184.283 44.7346 183.988 42.9307 183.488 41.1397C183.431 40.5351 183.089 39.9164 183.387 39.3188C182.891 38.869 183.272 38.3144 182.91 37.8556C182.924 37.6527 182.955 37.4499 182.996 37.248C182.939 37.263 182.824 37.2919 182.767 37.3069C182.921 37.0791 182.595 36.8362 182.906 36.6253C182.776 36.4244 182.608 36.2306 182.496 36.0267C182.285 35.533 182.392 35.0183 182.205 34.5236C182.089 34.1927 182.031 33.8569 181.947 33.5241C182.104 33.4552 182.271 33.3882 182.434 33.3212C182.311 33.3073 182.064 33.2803 181.939 33.2673C181.789 32.9874 181.635 32.6856 182.069 32.4568L182.263 32.6386C182.26 32.5577 182.251 32.3938 182.245 32.3118C182.176 32.3548 182.036 32.4398 181.967 32.4817C181.897 32.4687 181.758 32.4438 181.69 32.4308C181.716 31.8261 181.465 31.2335 181.403 30.6328C181.262 30.0022 180.938 29.3825 180.962 28.7419C180.986 28.2652 180.66 27.8124 180.607 27.3397C180.555 26.934 180.579 26.5232 180.374 26.1284C180.12 25.5777 180.286 25.0001 180.043 24.4494C179.796 23.8937 179.889 23.3161 179.744 22.7534C179.667 22.5305 179.744 22.2697 179.464 22.0838C179.04 21.7889 178.781 21.4251 178.214 21.1953C178.17 27.6096 178.214 34.0248 178.194 40.4381C178.181 42.334 175.699 44.114 172.372 44.6447C171.074 44.8795 169.69 44.8416 168.343 44.8406C163.462 44.8376 158.584 44.8456 153.703 44.8376C150.223 44.8306 146.963 43.4644 146 41.6434C145.635 41.0238 145.633 40.3682 145.652 39.7255C145.657 31.9391 145.648 24.1516 145.657 16.3651C150.153 16.3681 154.65 16.3651 159.148 16.3671C159.149 23.6868 159.144 31.0076 159.149 38.3283C159.08 38.7991 159.75 39.2788 160.641 39.2938C161.509 39.3098 162.38 39.3128 163.248 39.2918C164.114 39.2648 164.769 38.7941 164.693 38.3323C164.698 31.0096 164.685 23.6868 164.7 16.3641C169.2 16.3701 173.698 16.3641 178.197 16.3671C178.205 17.0967 178.174 17.8272 178.219 18.5568C178.598 18.294 178.928 17.9811 179.532 17.8552C180.812 17.5824 181.7 16.9557 183.012 16.7159C183.816 16.6249 184.261 16.2142 184.982 16.0283C184.903 15.9873 184.748 15.9064 184.669 15.8654C184.993 15.8994 185.365 15.8854 185.646 15.9993C185.936 16.1512 186.068 16.3691 186.322 16.538C186.675 16.7399 187.193 16.8618 187.42 17.1256C187.697 17.4495 187.946 17.7823 188.314 18.0801C188.548 18.0291 188.788 17.9781 189.026 17.9242C189.335 17.9012 189.645 17.8742 189.956 17.8452C189.879 17.7983 189.723 17.7043 189.645 17.6573C189.873 17.7213 190.104 17.7863 190.338 17.8492C190.41 18.3529 190.641 18.8446 190.716 19.3484C190.763 19.5802 190.752 19.8421 191.06 20.027C191.461 20.2828 191.746 20.5856 192.165 20.8355C192.931 21.2642 193.41 21.8129 194.168 22.2477C194.763 22.7754 195.603 23.1981 196.241 23.7098C197.277 24.5084 198.527 25.2189 199.463 26.0575C200.526 26.7421 201.418 27.5006 202.465 28.1942C203.056 28.6839 203.614 29.1906 204.349 29.6234C204.189 29.2516 203.918 28.8958 203.81 28.518C203.779 27.4027 203.089 26.3363 202.868 25.2319C202.747 24.5763 202.194 23.9247 202.43 23.2651C202.761 23.2241 202.617 23.5119 202.738 23.6159C202.778 23.6179 202.855 23.6229 202.895 23.6249C202.879 23.359 202.866 23.0902 202.712 22.8353C202.487 22.8193 202.432 22.9752 202.278 23.0352C202.121 22.6834 201.976 22.3296 201.91 21.9698C202.073 21.9698 202.397 21.9688 202.558 21.9688C202.476 21.8639 202.395 21.76 202.317 21.657C202.401 21.5921 202.489 21.5281 202.58 21.4631C202.472 21.3922 202.368 21.3222 202.265 21.2513C202.415 21.2343 202.712 21.1993 202.86 21.1823C202.639 21.0833 202.436 20.9874 202.218 20.8905C202.695 20.6616 202.485 20.3248 202.386 20.035C202.285 19.8151 202.412 19.5552 202.09 19.3793C202.036 19.4593 201.93 19.6192 201.875 19.6982C201.793 19.5592 201.718 19.4203 201.647 19.2814C201.793 19.2834 202.088 19.2874 202.236 19.2894C202.132 19.0705 202.035 18.8516 201.949 18.6318C201.892 18.6358 201.778 18.6448 201.722 18.6498C201.782 18.8237 201.853 18.9956 201.943 19.1675C201.634 19.2504 201.326 19.3334 201.019 19.4163C200.998 19.2904 200.982 19.1645 200.967 19.0395C201.037 19.0865 201.174 19.1805 201.242 19.2284C201.361 19.1475 201.595 18.9866 201.714 18.9056C201.548 18.8676 201.387 18.8297 201.227 18.7937C201.707 18.6658 201.174 18.5138 201.004 18.3769C200.964 18.4699 200.887 18.6548 200.848 18.7477C200.814 18.6358 200.779 18.5238 200.753 18.4119C201.002 18.3699 201.258 18.3279 201.515 18.285C201.599 18.291 201.769 18.302 201.853 18.308C201.828 18.188 201.806 18.0691 201.793 17.9502C201.723 17.9971 201.586 18.0911 201.517 18.1391C201.094 17.9212 200.728 17.4405 201.312 17.2066C201.387 17.4395 201.474 17.6713 201.59 17.8992C201.63 17.5994 201.579 17.2985 201.447 17.0067C201.205 17.0597 200.96 17.1097 200.722 17.1606C200.748 17.0837 200.799 16.9308 200.825 16.8548C200.66 16.8538 200.499 16.8538 200.339 16.8548C200.31 16.9128 200.253 17.0297 200.226 17.0887C200.231 17.0157 200.242 16.8698 200.246 16.7968C200.36 16.7768 200.583 16.7369 200.695 16.7169L200.513 16.498C200.618 16.504 200.826 16.516 200.929 16.522C200.77 16.463 200.612 16.4051 200.457 16.3471C200.537 16.3011 200.696 16.2102 200.775 16.1642C200.669 16.1432 200.455 16.1012 200.349 16.0802C200.27 16.1702 200.191 16.2601 200.116 16.3511C200.1 16.2731 200.063 16.1192 200.047 16.0413C199.904 15.8324 199.788 15.6175 199.675 15.4046C199.759 15.3817 199.928 15.3367 200.012 15.3137C199.924 15.3177 199.746 15.3237 199.658 15.3267C199.651 15.2347 199.638 15.0518 199.633 14.9609C199.772 15.0169 199.915 15.0708 200.059 15.1238C200.122 14.9919 200.2 14.863 200.277 14.734C200.09 14.6921 199.907 14.6481 199.728 14.6051C199.677 14.6601 199.571 14.769 199.519 14.824C199.448 14.6521 199.398 14.4792 199.32 14.3083C199.195 14.2553 199.073 14.2043 198.95 14.1554C198.937 13.7476 198.712 13.2969 199.06 12.9161C199.796 12.5403 200.603 12.1076 201.665 12.0606ZM201.172 16.6639C201.258 16.7269 201.258 16.7269 201.172 16.6639V16.6639ZM178.996 20.4577C178.957 20.5237 178.921 20.5896 178.888 20.6566C179.073 20.7735 179.252 20.8955 179.431 21.0174C179.384 20.8645 179.34 20.7116 179.303 20.5587C179.226 20.5337 179.073 20.4827 178.996 20.4577ZM192.347 21.3572C192.286 21.4921 192.385 21.5491 192.64 21.5271C192.693 21.3892 192.596 21.3332 192.347 21.3572ZM193.123 21.8619C193.203 21.9309 193.203 21.9309 193.123 21.8619V21.8619ZM230.835 39.3018C232.096 39.2948 233.357 39.3128 234.621 39.2948C235.671 39.2588 236.459 38.6941 236.385 38.1345C236.383 33.1004 236.389 28.0653 236.383 23.0312C236.433 22.4805 235.633 21.9458 234.611 21.9089C233.359 21.8779 232.107 21.9129 230.855 21.8919C230.807 27.6955 230.848 33.4991 230.835 39.3018ZM202.154 22.0138C202.17 22.2607 202.247 22.5035 202.349 22.7434C202.67 22.5685 202.941 22.3686 203.219 22.1727C202.82 22.2257 202.489 22.1048 202.154 22.0138ZM203.34 23.0552C203.091 23.1252 203.078 23.1951 203.301 23.2661C203.541 23.1931 203.554 23.1232 203.34 23.0552ZM202.803 23.7778C202.602 23.8617 202.619 24.1126 202.917 24.1246C203.247 24.0886 203.181 23.6698 202.803 23.7778ZM182.284 33.6381C182.37 33.808 182.677 33.9609 182.551 34.1488C182.617 34.1378 182.749 34.1158 182.814 34.1048C182.75 33.9089 182.728 33.671 182.284 33.6381ZM183.197 36.2725C182.915 36.2655 182.756 36.5354 183.095 36.5564C183.323 36.5484 183.484 36.2925 183.197 36.2725Z" fill="#00DC00"/>
<path id="Vector_6" d="M201.117 19.5542C201.275 19.6352 201.432 19.7171 201.592 19.8001C201.72 19.7701 201.974 19.7091 202.102 19.6791C202.24 19.7741 202.122 19.897 202.122 20.0039C202.417 20.1668 202.531 20.4127 202.43 20.6336C202.342 20.6596 202.165 20.7105 202.077 20.7365C201.98 20.6196 201.839 20.5256 201.654 20.4537C201.725 20.6286 201.376 21.0164 201.938 20.9994C201.894 21.2872 201.972 21.574 201.98 21.8619C201.615 21.3861 201.568 20.8674 201.41 20.3657C201.573 20.3917 201.74 20.4167 201.908 20.4407C201.917 20.2268 201.961 19.9959 201.656 19.831C201.555 19.938 201.456 20.0459 201.357 20.1529C201.368 20.0729 201.39 19.914 201.401 19.834C201.301 19.7411 201.207 19.6481 201.117 19.5542Z" fill="#00DC00"/>
<path id="Vector_7" d="M104.205 21.6519C104.259 21.6549 104.365 21.6609 104.416 21.6638C104.141 21.8877 103.865 22.1126 103.599 22.3405C103.612 22.2395 103.627 22.1386 103.645 22.0386C103.922 21.9537 104.13 21.8238 104.205 21.6519Z" fill="#00DC00"/>
<path id="Vector_8" d="M102.679 22.8493C102.95 22.6814 103.063 22.4105 103.506 22.3516C103.347 22.7283 102.873 23.0342 102.329 23.269C102.428 23.1131 102.589 22.9622 102.569 22.7923C102.431 22.8203 102.159 22.8753 102.023 22.9022C102.118 23.1031 101.75 23.0971 101.496 23.1281C101.598 22.8583 101.88 22.6304 102.225 22.4355C102.373 22.5734 102.523 22.7114 102.679 22.8493Z" fill="#00DC00"/>
<path id="Vector_9" d="M0.904271 24.6631C0.611364 24.9659 1.51388 24.6681 0.904271 24.6631V24.6631Z" fill="#00DC00"/>
<path id="Vector_10" d="M1.27229 27.4219C1.48099 27.6547 1.53774 27.9136 1.50662 28.1704C1.17343 27.9696 1.28694 27.6687 1.27229 27.4219Z" fill="#00DC00"/>
<path id="Vector_11" d="M3.0572 34.3057C2.51898 34.0988 2.51532 33.729 2.75148 33.4282C2.80091 33.726 3.16521 34.0009 3.0572 34.3057Z" fill="#00DC00"/>
<path id="Vector_12" d="M4.19775 36.6456C4.20508 36.9894 4.73597 36.4857 4.19775 36.6456V36.6456Z" fill="#00DC00"/>
<path id="Vector_13" d="M4.27457 37.8129C4.52538 37.7969 4.61874 37.8619 4.55833 38.0078C4.31851 38.0218 4.22331 37.9568 4.27457 37.8129Z" fill="#00DC00"/>
<path id="Vector_14" d="M5.47917 39.9494C5.73913 39.8825 6.03386 40.1913 5.68238 40.2103C5.48283 40.1493 5.4151 40.0624 5.47917 39.9494Z" fill="#00DC00"/>
<path id="Vector_15" d="M45.2926 45.2545C45.0363 45.5613 45.9096 45.2495 45.2926 45.2545V45.2545Z" fill="#00DC00"/>
</g>
</g>
<defs>
<clipPath id="clip0_35_689">
<rect width="250" height="50" fill="white" transform="translate(0 0.875977)"/>
</clipPath>
</defs>
</svg>
