<svg width="250" height="50" viewBox="0 0 250 50" fill="none" xmlns="http://www.w3.org/2000/svg">
<g id="Logo_of_The_Sims_4 2" clip-path="url(#clip0_35_716)">
<g id="layer1">
<g id="g3070">
<g id="g3055">
<path id="path2998" d="M4.20631 31.1175V24.5172H0.127563L1.05235 22.5371H11.4226V24.5172H7.97131V31.1175H4.20631Z" fill="url(#paint0_linear_35_716)"/>
<path id="path3000" d="M12.6776 31.1175V22.5371H15.8151V25.3098C15.8151 25.3098 16.7165 24.5172 18.9525 24.5172C20.292 24.5172 22.3982 24.9615 22.3982 26.1673V31.1175H19.2607V27.1573C19.2607 26.5491 18.9974 26.1879 17.7256 26.1879C16.6449 26.1879 15.8151 26.6665 15.8151 27.1573V31.1175H12.6776Z" fill="url(#paint1_linear_35_716)"/>
<path id="path3002" d="M29.62 24.5215C24.9504 24.5215 23.345 26.4482 23.345 27.8216C23.345 29.8847 26.2588 31.1218 29.62 31.1218C32.9154 31.1218 35.0126 30.1317 35.0126 30.1317L33.2085 28.7292C33.2085 28.7292 31.6504 29.482 29.7769 29.482C28.3252 29.482 27.6199 29.0592 27.6199 29.0592L35.5813 26.45C35.5813 26.45 33.8571 24.5215 29.62 24.5215ZM29.169 26.1406C30.2536 26.0834 30.8554 26.5119 30.8554 26.5119L27.11 27.8216C27.11 27.8216 26.2425 26.9953 27.9336 26.3984C28.3967 26.2378 28.8075 26.1597 29.169 26.1406Z" fill="url(#paint2_linear_35_716)"/>
</g>
<g id="g3018">
<path id="path3006" d="M13.9774 37.5471L24.3423 30.9173C24.3423 30.9173 29.5474 34.0407 38.7972 34.0407C47.1366 34.0407 50.3107 31.3937 50.3107 29.8713C50.3107 23.1592 14.8738 26.9935 14.8738 12.6487C14.8738 5.85423 25.325 0.0668945 42.439 0.0668945C55.8364 0.0668945 64.6582 3.26897 67.1468 4.51619L57.3421 11.087C57.3421 11.087 51.8243 8.0226 43.8956 8.0226C38.656 8.0226 34.091 9.54379 34.091 11.6469C34.091 18.9671 69.2197 14.0183 69.2197 29.061C69.2197 38.6336 55.3659 42.6152 39.8617 42.6152C23.358 42.6152 13.9774 37.5471 13.9774 37.5471Z" fill="url(#paint3_linear_35_716)"/>
<path id="path3008" d="M87.35 42.0079H69.1525V36.3977C69.1525 36.3977 72.29 33.3071 72.29 29.1374C72.29 24.691 69.1525 22.2248 69.1525 22.2248V7.35645H87.35V42.0079Z" fill="url(#paint4_linear_35_716)"/>
<path id="path3010" d="M155.368 39.9654L156.084 42.0082H137.673L134.693 29.1377L130.244 42.0082H113.716L109.537 29.1966L106.175 42.0082H88.3249L100.471 3.72656H115.756L122.255 21.6888L128.541 7.35672H143.937L153.798 35.4867L160.039 31.1236C160.039 31.1236 164.248 34.0882 171.805 34.0407C175.984 34.0407 179.424 32.9523 179.424 31.5067C179.424 26.844 151.131 29.6446 151.131 17.4516C151.131 9.7309 163.998 5.87165 177.912 5.87165C190.777 5.87165 199.314 9.7611 199.314 9.7611L189.173 16.273C189.173 16.273 184.432 14.4461 177.183 14.4461C173.07 14.4461 169.228 15.3444 169.228 16.9802C169.228 21.3578 197.409 18.9389 197.409 30.8584C197.409 38.6095 186.006 42.35 172.589 42.35C161.221 42.35 155.368 39.9654 155.368 39.9654Z" fill="url(#paint5_linear_35_716)"/>
</g>
<path id="path3012" d="M222.262 0.430664L191.221 21.1184C198.129 23.7507 200.3 26.3033 200.3 30.792C200.3 39.0972 187.397 42.0125 187.397 42.0125H221.007V49.9328H240.46V42.0125H249.872V31.782H240.46V0.430664H222.262ZM221.007 17.2614V31.452H201.555L221.007 17.2614Z" fill="url(#paint6_linear_35_716)"/>
</g>
</g>
</g>
<defs>
<linearGradient id="paint0_linear_35_716" x1="7.07286" y1="22.502" x2="7.07286" y2="31.0628" gradientUnits="userSpaceOnUse">
<stop stop-color="#2EB6FE"/>
<stop offset="0.2" stop-color="#28A0FA"/>
<stop offset="0.4" stop-color="#217EF3"/>
<stop offset="0.603125" stop-color="#1956E6"/>
<stop offset="0.8" stop-color="#1340D9"/>
<stop offset="1" stop-color="#1134D0"/>
</linearGradient>
<linearGradient id="paint1_linear_35_716" x1="7.07285" y1="22.502" x2="7.07285" y2="31.0628" gradientUnits="userSpaceOnUse">
<stop stop-color="#2EB6FE"/>
<stop offset="0.2" stop-color="#28A0FA"/>
<stop offset="0.4" stop-color="#217EF3"/>
<stop offset="0.603125" stop-color="#1956E6"/>
<stop offset="0.8" stop-color="#1340D9"/>
<stop offset="1" stop-color="#1134D0"/>
</linearGradient>
<linearGradient id="paint2_linear_35_716" x1="7.07284" y1="22.5021" x2="7.07284" y2="31.0628" gradientUnits="userSpaceOnUse">
<stop stop-color="#AAAF6E"/>
<stop offset="0.2" stop-color="#28A0FA"/>
<stop offset="0.4" stop-color="#217EF3"/>
<stop offset="0.603125" stop-color="#1956E6"/>
<stop offset="0.8" stop-color="#1340D9"/>
<stop offset="1" stop-color="#1134D0"/>
</linearGradient>
<linearGradient id="paint3_linear_35_716" x1="42.7556" y1="0.151995" x2="42.7556" y2="42.2708" gradientUnits="userSpaceOnUse">
<stop stop-color="#C1D7E2"/>
<stop offset="0.2" stop-color="#28A0FA"/>
<stop offset="0.4" stop-color="#217EF3"/>
<stop offset="0.442708" stop-color="#1F76F0"/>
<stop offset="0.603125" stop-color="#1956E6"/>
<stop offset="0.8" stop-color="#1340D9"/>
<stop offset="1" stop-color="#1134D0"/>
</linearGradient>
<linearGradient id="paint4_linear_35_716" x1="42.7556" y1="0.151767" x2="42.7556" y2="42.2706" gradientUnits="userSpaceOnUse">
<stop stop-color="#2EB6FE"/>
<stop offset="0.2" stop-color="#28A0FA"/>
<stop offset="0.4" stop-color="#217EF3"/>
<stop offset="0.603125" stop-color="#1956E6"/>
<stop offset="0.8" stop-color="#1340D9"/>
<stop offset="1" stop-color="#1134D0"/>
</linearGradient>
<linearGradient id="paint5_linear_35_716" x1="42.7556" y1="0.152041" x2="42.7556" y2="42.2708" gradientUnits="userSpaceOnUse">
<stop stop-color="#A7AF8E"/>
<stop offset="0.2" stop-color="#28A0FA"/>
<stop offset="0.4" stop-color="#217EF3"/>
<stop offset="0.603125" stop-color="#1956E6"/>
<stop offset="0.8" stop-color="#1340D9"/>
<stop offset="1" stop-color="#1134D0"/>
</linearGradient>
<linearGradient id="paint6_linear_35_716" x1="237.597" y1="0.430509" x2="237.597" y2="49.9375" gradientUnits="userSpaceOnUse">
<stop stop-color="#A8E728" stop-opacity="0.996078"/>
<stop offset="0.2" stop-color="#71DB24"/>
<stop offset="0.4" stop-color="#2CC320"/>
<stop offset="0.603125" stop-color="#04AA1B" stop-opacity="0.996078"/>
<stop offset="0.8" stop-color="#079A14"/>
<stop offset="1" stop-color="#0B9212"/>
</linearGradient>
<clipPath id="clip0_35_716">
<rect width="250" height="50" fill="white"/>
</clipPath>
</defs>
</svg>
