<svg xmlns="http://www.w3.org/2000/svg" width="2254" height="952" viewBox="0 0 2254 952" version="1.1"><path d="M 1030.245 122.750 C 1026.568 128.098, 1012 151.747, 1012 152.369 C 1012 152.716, 1041.820 153, 1078.266 153 L 1144.532 153 1153.462 138.750 C 1158.373 130.912, 1163.030 123.487, 1163.811 122.250 L 1165.230 120 1098.683 120 L 1032.136 120 1030.245 122.750 M 1150.549 185.054 L 1109.599 250 1064.314 250 L 1019.030 250 1026.841 237.750 C 1031.138 231.012, 1035.743 223.818, 1037.076 221.762 L 1039.500 218.025 1067.614 218.012 L 1095.729 218 1105.864 202.019 C 1111.439 193.230, 1116 185.802, 1116 185.512 C 1116 185.222, 1087.791 185.101, 1053.312 185.242 L 990.625 185.500 980.824 201 C 975.433 209.525, 971.018 216.825, 971.012 217.223 C 971.005 217.621, 977.495 218.071, 985.432 218.223 L 999.864 218.500 979.941 250 C 968.984 267.325, 960.014 281.840, 960.009 282.256 C 960.004 282.671, 997.861 282.896, 1044.136 282.756 L 1128.272 282.500 1159.683 232.504 C 1176.958 205.006, 1191.409 182.204, 1191.796 181.833 C 1192.412 181.244, 1215 215.877, 1215 217.411 C 1215 217.735, 1210.562 218, 1205.139 218 L 1195.277 218 1185.185 234 L 1175.092 250 1205.485 250 L 1235.878 250 1244.689 264.089 C 1258.079 285.498, 1253.919 283, 1276.180 283 C 1291.008 283, 1295.103 282.724, 1294.712 281.750 C 1293.574 278.912, 1193.165 120.560, 1192.368 120.344 C 1191.891 120.215, 1173.072 149.334, 1150.549 185.054 M 968.403 299.686 C 964.947 300.367, 959.991 305.245, 958.603 309.331 C 956.629 315.144, 957.408 328.306, 959.972 332.454 C 963.115 337.540, 967.240 339, 978.467 339 C 991.585 339, 992 339.289, 992 348.413 C 992 353.489, 991.568 356.114, 990.599 356.918 C 989.702 357.662, 986.013 357.976, 980.349 357.790 L 971.500 357.500 970 352.755 L 968.500 348.010 963.250 348.005 L 958 348 958 353.852 C 958 358.292, 958.552 360.524, 960.287 363.102 C 964.031 368.664, 966.827 369.500, 981.678 369.500 C 993.429 369.500, 995.155 369.277, 997.616 367.438 C 1003.714 362.883, 1004.500 360.790, 1004.500 349.103 C 1004.500 339.283, 1004.284 338.036, 1002 334.681 C 998.284 329.223, 994.838 328, 983.170 328 C 970.895 328, 970 327.392, 970 319.051 C 970 311.399, 971.006 310.642, 981.194 310.629 C 989.985 310.619, 991.509 311.497, 992.687 317.250 C 993.219 319.848, 993.554 320, 998.741 320 L 1004.233 320 1003.820 313.517 C 1003.471 308.033, 1002.961 306.569, 1000.511 304.011 C 998.917 302.348, 996.013 300.543, 994.057 299.999 C 990.639 299.050, 972.740 298.831, 968.403 299.686 M 1019.382 300.446 C 1019.157 301.033, 1019.091 316.810, 1019.236 335.507 L 1019.500 369.500 1025.500 369.500 L 1031.500 369.500 1031.780 356.750 L 1032.060 344 1042.714 344 C 1062.243 344, 1066.445 339.635, 1065.836 319.981 C 1065.474 308.310, 1064.585 306.019, 1058.719 301.640 C 1056.316 299.845, 1054.328 299.642, 1037.927 299.518 C 1025.880 299.426, 1019.654 299.738, 1019.382 300.446 M 1089.500 299.733 C 1086.201 300.559, 1082.077 303.957, 1080.281 307.329 C 1078.832 310.050, 1078.591 313.908, 1078.583 334.543 C 1078.572 362.219, 1078.931 363.633, 1087.023 367.813 C 1091.076 369.906, 1092.589 370.096, 1103 369.812 C 1112.877 369.542, 1115.014 369.179, 1118.144 367.233 C 1124.757 363.123, 1125.136 361.184, 1124.799 333.246 C 1124.461 305.292, 1124.372 304.948, 1116.434 301.015 C 1113.081 299.353, 1110.539 299.020, 1101.934 299.116 C 1096.195 299.180, 1090.600 299.457, 1089.500 299.733 M 1140.237 334.169 L 1140.500 369.500 1146.500 369.500 L 1152.500 369.500 1152.779 355.701 L 1153.057 341.902 1158.758 342.201 L 1164.458 342.500 1170.073 356 L 1175.688 369.500 1182.470 369.799 C 1187.719 370.030, 1189.133 369.804, 1188.726 368.799 C 1188.437 368.084, 1185.670 361.518, 1182.577 354.206 L 1176.952 340.911 1180.012 338.337 C 1185.023 334.120, 1186 331.161, 1186 320.198 C 1186 311.575, 1185.709 309.869, 1183.750 306.990 C 1178.903 299.869, 1177.804 299.536, 1157.917 299.169 L 1139.974 298.838 1140.237 334.169 M 1194 305 L 1194 311 1203 311 L 1212 311 1212 340.399 L 1212 369.797 1217.750 369.586 L 1223.500 369.375 1223.765 340.188 L 1224.030 311 1233.015 311 L 1242 311 1242 305 L 1242 299 1218 299 L 1194 299 1194 305 M 1261.619 299.984 C 1254.340 302.291, 1251 308.502, 1251 319.733 C 1251 328.778, 1252.827 333.219, 1257.999 336.750 C 1260.911 338.738, 1262.543 339, 1271.993 339 C 1285.004 339, 1286 339.668, 1286 348.394 C 1286 357.541, 1285.474 358, 1274.988 358 C 1265.227 358, 1264.134 357.360, 1262.600 350.750 C 1261.997 348.152, 1261.651 348, 1256.344 348 L 1250.726 348 1251.240 354.398 C 1251.801 361.393, 1253.592 364.664, 1258.500 367.666 C 1261.004 369.197, 1263.648 369.500, 1274.500 369.500 C 1289.136 369.500, 1292.553 368.422, 1296.040 362.701 C 1298.911 357.993, 1298.888 339.969, 1296.005 335.241 C 1292.412 329.348, 1288.871 328.008, 1276.872 328.004 C 1264.277 327.999, 1263.543 327.516, 1263.673 319.303 C 1263.795 311.678, 1265.123 310.591, 1274.291 310.615 C 1278.314 310.626, 1282.345 310.919, 1283.250 311.266 C 1284.155 311.613, 1285.386 313.720, 1285.986 315.949 L 1287.077 320 1292.539 320 L 1298 320 1298 315.234 C 1298 309.273, 1295.334 304.126, 1290.887 301.500 C 1288.105 299.858, 1285.446 299.462, 1276 299.286 C 1269.675 299.167, 1263.204 299.482, 1261.619 299.984 M 1032.216 321.750 L 1032.500 332.500 1041.275 332.439 C 1052.715 332.359, 1053.495 331.655, 1053.381 321.513 C 1053.267 311.342, 1052.875 311, 1041.344 311 L 1031.932 311 1032.216 321.750 M 1092.035 312.934 C 1091.422 314.079, 1091 322.880, 1091 334.500 C 1091 346.120, 1091.422 354.921, 1092.035 356.066 C 1092.933 357.743, 1094.189 358, 1101.478 358 C 1113.267 358, 1113 358.544, 1113 334.500 C 1113 310.456, 1113.267 311, 1101.478 311 C 1094.189 311, 1092.933 311.257, 1092.035 312.934 M 1153 321 L 1153 331 1161.500 331 C 1172.376 331, 1174 329.730, 1174 321.223 C 1174 312.048, 1172.764 311, 1161.943 311 L 1153 311 1153 321" stroke="none" fill="#080808" fillRule="evenodd"/><path d="M 1101.715 1.025 C 1022.660 10.032, 953.884 52.337, 910.733 118.500 C 875.691 172.230, 861.956 238.708, 872.615 303 C 876.680 327.516, 883.786 349.504, 895.408 373.523 C 908.095 399.741, 921.973 419.651, 942 440.365 C 983.392 483.177, 1032.604 508.366, 1093 517.654 C 1107.478 519.880, 1146.712 520.174, 1161 518.163 C 1232.711 508.069, 1293.872 472.460, 1336.349 416.071 C 1363.327 380.257, 1380.817 336.577, 1386.474 290.889 C 1388.249 276.546, 1388.486 246.345, 1386.933 232.211 C 1377.687 148.034, 1327.947 73.060, 1254.170 32.094 C 1227.934 17.527, 1198.714 7.663, 1166.323 2.440 C 1154.775 0.578, 1113.558 -0.325, 1101.715 1.025 M 1030.245 122.750 C 1026.568 128.098, 1012 151.747, 1012 152.369 C 1012 152.716, 1041.820 153, 1078.266 153 L 1144.532 153 1153.462 138.750 C 1158.373 130.912, 1163.030 123.487, 1163.811 122.250 L 1165.230 120 1098.683 120 L 1032.136 120 1030.245 122.750 M 1150.549 185.054 L 1109.599 250 1064.314 250 L 1019.030 250 1026.841 237.750 C 1031.138 231.012, 1035.743 223.818, 1037.076 221.762 L 1039.500 218.025 1067.614 218.012 L 1095.729 218 1105.864 202.019 C 1111.439 193.230, 1116 185.802, 1116 185.512 C 1116 185.222, 1087.791 185.101, 1053.312 185.242 L 990.625 185.500 980.824 201 C 975.433 209.525, 971.018 216.825, 971.012 217.223 C 971.005 217.621, 977.495 218.071, 985.432 218.223 L 999.864 218.500 979.941 250 C 968.984 267.325, 960.014 281.840, 960.009 282.256 C 960.004 282.671, 997.861 282.896, 1044.136 282.756 L 1128.272 282.500 1159.683 232.504 C 1176.958 205.006, 1191.409 182.204, 1191.796 181.833 C 1192.412 181.244, 1215 215.877, 1215 217.411 C 1215 217.735, 1210.562 218, 1205.139 218 L 1195.277 218 1185.185 234 L 1175.092 250 1205.485 250 L 1235.878 250 1244.689 264.089 C 1258.079 285.498, 1253.919 283, 1276.180 283 C 1291.008 283, 1295.103 282.724, 1294.712 281.750 C 1293.574 278.912, 1193.165 120.560, 1192.368 120.344 C 1191.891 120.215, 1173.072 149.334, 1150.549 185.054 M 968.403 299.686 C 964.947 300.367, 959.991 305.245, 958.603 309.331 C 956.629 315.144, 957.408 328.306, 959.972 332.454 C 963.115 337.540, 967.240 339, 978.467 339 C 991.585 339, 992 339.289, 992 348.413 C 992 353.489, 991.568 356.114, 990.599 356.918 C 989.702 357.662, 986.013 357.976, 980.349 357.790 L 971.500 357.500 970 352.755 L 968.500 348.010 963.250 348.005 L 958 348 958 353.852 C 958 358.292, 958.552 360.524, 960.287 363.102 C 964.031 368.664, 966.827 369.500, 981.678 369.500 C 993.429 369.500, 995.155 369.277, 997.616 367.438 C 1003.714 362.883, 1004.500 360.790, 1004.500 349.103 C 1004.500 339.283, 1004.284 338.036, 1002 334.681 C 998.284 329.223, 994.838 328, 983.170 328 C 970.895 328, 970 327.392, 970 319.051 C 970 311.399, 971.006 310.642, 981.194 310.629 C 989.985 310.619, 991.509 311.497, 992.687 317.250 C 993.219 319.848, 993.554 320, 998.741 320 L 1004.233 320 1003.820 313.517 C 1003.471 308.033, 1002.961 306.569, 1000.511 304.011 C 998.917 302.348, 996.013 300.543, 994.057 299.999 C 990.639 299.050, 972.740 298.831, 968.403 299.686 M 1019.382 300.446 C 1019.157 301.033, 1019.091 316.810, 1019.236 335.507 L 1019.500 369.500 1025.500 369.500 L 1031.500 369.500 1031.780 356.750 L 1032.060 344 1042.714 344 C 1062.243 344, 1066.445 339.635, 1065.836 319.981 C 1065.474 308.310, 1064.585 306.019, 1058.719 301.640 C 1056.316 299.845, 1054.328 299.642, 1037.927 299.518 C 1025.880 299.426, 1019.654 299.738, 1019.382 300.446 M 1089.500 299.733 C 1086.201 300.559, 1082.077 303.957, 1080.281 307.329 C 1078.832 310.050, 1078.591 313.908, 1078.583 334.543 C 1078.572 362.219, 1078.931 363.633, 1087.023 367.813 C 1091.076 369.906, 1092.589 370.096, 1103 369.812 C 1112.877 369.542, 1115.014 369.179, 1118.144 367.233 C 1124.757 363.123, 1125.136 361.184, 1124.799 333.246 C 1124.461 305.292, 1124.372 304.948, 1116.434 301.015 C 1113.081 299.353, 1110.539 299.020, 1101.934 299.116 C 1096.195 299.180, 1090.600 299.457, 1089.500 299.733 M 1140.237 334.169 L 1140.500 369.500 1146.500 369.500 L 1152.500 369.500 1152.779 355.701 L 1153.057 341.902 1158.758 342.201 L 1164.458 342.500 1170.073 356 L 1175.688 369.500 1182.470 369.799 C 1187.719 370.030, 1189.133 369.804, 1188.726 368.799 C 1188.437 368.084, 1185.670 361.518, 1182.577 354.206 L 1176.952 340.911 1180.012 338.337 C 1185.023 334.120, 1186 331.161, 1186 320.198 C 1186 311.575, 1185.709 309.869, 1183.750 306.990 C 1178.903 299.869, 1177.804 299.536, 1157.917 299.169 L 1139.974 298.838 1140.237 334.169 M 1194 305 L 1194 311 1203 311 L 1212 311 1212 340.399 L 1212 369.797 1217.750 369.586 L 1223.500 369.375 1223.765 340.188 L 1224.030 311 1233.015 311 L 1242 311 1242 305 L 1242 299 1218 299 L 1194 299 1194 305 M 1261.619 299.984 C 1254.340 302.291, 1251 308.502, 1251 319.733 C 1251 328.778, 1252.827 333.219, 1257.999 336.750 C 1260.911 338.738, 1262.543 339, 1271.993 339 C 1285.004 339, 1286 339.668, 1286 348.394 C 1286 357.541, 1285.474 358, 1274.988 358 C 1265.227 358, 1264.134 357.360, 1262.600 350.750 C 1261.997 348.152, 1261.651 348, 1256.344 348 L 1250.726 348 1251.240 354.398 C 1251.801 361.393, 1253.592 364.664, 1258.500 367.666 C 1261.004 369.197, 1263.648 369.500, 1274.500 369.500 C 1289.136 369.500, 1292.553 368.422, 1296.040 362.701 C 1298.911 357.993, 1298.888 339.969, 1296.005 335.241 C 1292.412 329.348, 1288.871 328.008, 1276.872 328.004 C 1264.277 327.999, 1263.543 327.516, 1263.673 319.303 C 1263.795 311.678, 1265.123 310.591, 1274.291 310.615 C 1278.314 310.626, 1282.345 310.919, 1283.250 311.266 C 1284.155 311.613, 1285.386 313.720, 1285.986 315.949 L 1287.077 320 1292.539 320 L 1298 320 1298 315.234 C 1298 309.273, 1295.334 304.126, 1290.887 301.500 C 1288.105 299.858, 1285.446 299.462, 1276 299.286 C 1269.675 299.167, 1263.204 299.482, 1261.619 299.984 M 1032.216 321.750 L 1032.500 332.500 1041.275 332.439 C 1052.715 332.359, 1053.495 331.655, 1053.381 321.513 C 1053.267 311.342, 1052.875 311, 1041.344 311 L 1031.932 311 1032.216 321.750 M 1092.035 312.934 C 1091.422 314.079, 1091 322.880, 1091 334.500 C 1091 346.120, 1091.422 354.921, 1092.035 356.066 C 1092.933 357.743, 1094.189 358, 1101.478 358 C 1113.267 358, 1113 358.544, 1113 334.500 C 1113 310.456, 1113.267 311, 1101.478 311 C 1094.189 311, 1092.933 311.257, 1092.035 312.934 M 1153 321 L 1153 331 1161.500 331 C 1172.376 331, 1174 329.730, 1174 321.223 C 1174 312.048, 1172.764 311, 1161.943 311 L 1153 311 1153 321 M 410 661.684 C 328.955 663.491, 288.629 676.415, 241.411 715.715 C 230.966 724.408, 81.805 871.093, 19.016 934.418 L 7.533 946 88.516 945.940 L 169.500 945.880 230.500 886.354 C 264.050 853.615, 297.331 821.429, 304.457 814.829 C 339.048 782.792, 360.062 773.574, 406.500 770.066 C 415.699 769.371, 491.704 769.007, 628.132 769.004 L 835.764 769 889.882 715.895 C 919.647 686.687, 944 662.387, 944 661.895 C 944 661.125, 443.941 660.927, 410 661.684 M 824 803.500 L 681.503 946 770.503 946 L 859.503 946 1001.251 804.249 C 1079.213 726.285, 1143 662.160, 1143 661.749 C 1143 661.337, 1103.287 661, 1054.749 661 L 966.497 661 824 803.500 M 1996.500 662.094 C 1987.994 663.353, 1979.034 668.056, 1973.575 674.128 C 1964.983 683.684, 1965.553 675.173, 1965.215 799 C 1965.006 875.362, 1965.249 910.467, 1966.016 915 C 1968.223 928.037, 1974.520 937.520, 1984.500 942.836 L 1989.500 945.500 2106.500 945.500 L 2223.500 945.500 2229.722 942.626 C 2237.815 938.888, 2245.023 931.365, 2247.595 923.973 C 2249.425 918.716, 2249.500 914.021, 2249.500 805 L 2249.500 691.500 2247.221 685 C 2244.554 677.392, 2240.713 671.970, 2235.029 667.790 C 2226.069 661.200, 2232.756 661.549, 2112 661.370 C 2051.775 661.280, 1999.800 661.606, 1996.500 662.094 M 1158 705 L 1158 748 1298.500 748 L 1439 748 1439 755.500 L 1439 763 1353.750 763.020 C 1264.820 763.040, 1257.025 763.351, 1240.924 767.518 C 1202.487 777.465, 1175.564 800.139, 1164.464 831.909 C 1158.828 848.041, 1158.741 848.995, 1158.285 899.750 L 1157.861 947 1342.930 947 L 1528 947 1528 904 L 1528 861 1391.500 861 L 1255 861 1255 853.552 L 1255 846.103 1349.250 845.715 C 1451.945 845.293, 1448.954 845.452, 1468.155 839.395 C 1494.862 830.970, 1515.306 813.148, 1524.568 790.217 C 1532.922 769.535, 1533.875 744.967, 1527.088 725.271 C 1517.764 698.211, 1493.568 676.531, 1462.711 667.589 C 1443.192 661.933, 1445.202 662, 1295.622 662 L 1158 662 1158 705 M 1544 704.971 L 1544 748 1684.500 748 L 1825 748 1825 755.460 L 1825 762.920 1735.250 763.229 C 1646.284 763.535, 1645.406 763.558, 1634.700 765.815 C 1607.543 771.540, 1588.189 781.463, 1572 797.963 C 1559.089 811.121, 1551.054 826.227, 1546.718 845.487 C 1544.880 853.652, 1544.649 858.851, 1544.266 900.750 L 1543.843 947 1728.264 947 L 1912.684 947 1913.339 928.250 C 1913.699 917.938, 1913.996 898.587, 1913.997 885.250 L 1914 861 1777.500 861 L 1641 861 1641 853.556 L 1641 846.111 1735.750 845.723 C 1827.103 845.349, 1830.841 845.260, 1840 843.262 C 1887.484 832.902, 1914.740 803.330, 1917.644 759.020 C 1920.320 718.190, 1895.208 683.002, 1853.500 669.136 C 1832.373 662.113, 1844.834 662.626, 1686.750 662.266 L 1544 661.941 1544 704.971 M 1996.407 670.018 C 1986.647 671.983, 1980.397 676.426, 1976.201 684.380 L 1973.500 689.500 1973.500 802.500 C 1973.500 891.321, 1973.773 916.400, 1974.777 919.708 C 1976.823 926.449, 1981.760 932.130, 1988.500 935.500 L 1994.500 938.500 2106.500 938.500 C 2234.216 938.500, 2224.977 939.118, 2234.133 929.963 C 2242.565 921.531, 2242.079 929.636, 2241.771 802.422 L 2241.500 690.500 2239.111 685.212 C 2236.399 679.211, 2230.037 673.080, 2224.326 670.965 C 2221.121 669.778, 2202.643 669.519, 2110.500 669.371 C 2050 669.273, 1998.658 669.565, 1996.407 670.018 M 2064.176 703.070 C 2055.890 704.701, 2049.338 708.612, 2039.793 717.626 C 2024.065 732.478, 2000 756.434, 2000 757.238 C 2000 757.657, 2007.020 758, 2015.599 758 L 2031.199 758 2046.642 742.925 C 2056.930 732.882, 2063.658 727.123, 2066.793 725.675 C 2071.370 723.560, 2072.743 723.491, 2116.581 723.187 L 2161.662 722.873 2172.063 712.437 L 2182.464 702 2125.482 702.110 C 2094.142 702.170, 2066.554 702.602, 2064.176 703.070 M 2158.243 729.257 C 2143.259 744.248, 2131 756.848, 2131 757.257 C 2131 757.666, 2138.541 758, 2147.757 758 L 2164.513 758 2192.500 730 L 2220.487 702 2202.986 702 L 2185.486 702 2158.243 729.257 M 2069.500 727.529 C 2067.300 728.321, 2065.311 728.977, 2065.080 728.985 C 2064.268 729.014, 2037 756.417, 2037 757.204 C 2037 757.642, 2043.431 758, 2051.292 758 L 2065.584 758 2070.042 753.420 C 2077.465 745.794, 2076.376 746, 2109.219 746 L 2138.538 746 2148.500 736 L 2158.462 726 2115.981 726.044 C 2081.594 726.079, 2072.738 726.362, 2069.500 727.529 M 2000 797 L 2000 813 2002.500 813 C 2004.929 813, 2005 812.800, 2005 806 L 2005 799 2014.500 799 C 2023.967 799, 2024 798.991, 2024 796.500 C 2024 794.009, 2023.967 794, 2014.500 794 L 2005 794 2005 790 L 2005 786 2014.500 786 C 2023.967 786, 2024 785.991, 2024 783.500 L 2024 781 2012 781 L 2000 781 2000 797 M 2145 797 L 2145 813 2147.500 813 L 2150 813 2150 797 L 2150 781 2147.500 781 L 2145 781 2145 797 M 2188 783.500 C 2188 785.750, 2188.400 786, 2192 786 L 2196 786 2196 797 L 2196 808 2191.500 808 C 2187.367 808, 2187 808.204, 2187 810.500 L 2187 813 2198.500 813 L 2210 813 2210 810.500 C 2210 808.250, 2209.600 808, 2206 808 L 2202 808 2202 796.434 C 2202 790.073, 2201.534 783.998, 2200.965 782.934 C 2200.119 781.354, 2198.839 781, 2193.965 781 C 2188.269 781, 2188 781.113, 2188 783.500 M 408.500 786.108 C 375.264 788.602, 355.099 795.133, 335.344 809.800 C 329.422 814.197, 305.275 837.516, 262.250 880.387 C 226.912 915.599, 198 944.766, 198 945.204 C 198 945.642, 231.371 946, 272.157 946 L 346.314 946 369.407 923.236 C 402.119 890.989, 406.884 888.231, 433.727 886.007 C 440.619 885.436, 502.505 885.025, 583.004 885.016 L 720.508 885 770.500 835 L 820.492 785 619.996 785.141 C 509.723 785.218, 414.550 785.653, 408.500 786.108 M 2030.819 788.536 C 2029.344 789.337, 2027.905 790.781, 2027.622 791.746 C 2025.195 800.007, 2026.395 807.592, 2030.659 810.946 C 2033.849 813.456, 2043.582 813.785, 2047.941 811.530 C 2054.508 808.135, 2054.656 791.562, 2048.150 788.080 C 2045.237 786.521, 2033.985 786.817, 2030.819 788.536 M 2058.693 789.027 C 2056.063 791.096, 2056 791.399, 2056 802.073 L 2056 813 2058.465 813 C 2060.906 813, 2060.933 812.901, 2061.215 802.750 L 2061.500 792.500 2066.500 792 C 2070.667 791.583, 2071.500 791.167, 2071.500 789.500 C 2071.500 786.427, 2062.424 786.092, 2058.693 789.027 M 2075 799.934 L 2075 813 2077.500 813 L 2080 813 2080 802.500 L 2080 792 2085.465 792 L 2090.930 792 2091.215 802.250 C 2091.498 812.441, 2091.514 812.500, 2094 812.500 C 2096.486 812.500, 2096.502 812.444, 2096.786 802.199 L 2097.071 791.898 2102.286 792.199 L 2107.500 792.500 2107.785 802.750 C 2108.067 812.901, 2108.094 813, 2110.535 813 C 2112.997 813, 2113 812.987, 2113 802.611 C 2113 787.171, 2113.556 787.581, 2092.090 787.184 L 2075 786.868 2075 799.934 M 2117 796.453 C 2117 801.652, 2117.512 807.030, 2118.138 808.403 C 2119.664 811.753, 2123.736 813, 2133.149 813 L 2141 813 2141 799.934 L 2141 786.867 2138.250 787.184 L 2135.500 787.500 2135.215 797.750 L 2134.930 808 2129.665 808 C 2126.769 808, 2123.860 807.460, 2123.200 806.800 C 2122.439 806.039, 2122 802.200, 2122 796.300 C 2122 787.047, 2121.987 787, 2119.500 787 C 2117.010 787, 2117 787.036, 2117 796.453 M 2155 789.355 C 2155 791.809, 2155.261 791.920, 2161.684 792.204 L 2168.367 792.500 2161.333 797.626 C 2154.055 802.929, 2152.717 805.003, 2154.122 808.802 C 2155.304 811.996, 2158.898 813, 2169.156 813 L 2178.182 813 2177.841 802.525 C 2177.385 788.528, 2176.586 787.642, 2163.973 787.151 L 2155 786.801 2155 789.355 M 2033.571 792.571 C 2031.337 794.806, 2031.397 805.256, 2033.655 807.128 C 2035.865 808.959, 2044.873 808.813, 2046.067 806.925 C 2046.563 806.141, 2046.976 802.703, 2046.985 799.285 C 2046.997 794.155, 2046.662 792.890, 2045.066 792.035 C 2042.129 790.464, 2035.363 790.779, 2033.571 792.571 M 2165.199 800.625 C 2161.733 803.137, 2159.068 805.711, 2159.278 806.346 C 2159.496 807.006, 2162.299 807.627, 2165.829 807.798 L 2172 808.095 2172 802.048 C 2172 798.721, 2171.887 796.013, 2171.750 796.029 C 2171.613 796.046, 2168.664 798.114, 2165.199 800.625 M 2212.828 810.778 L 2213.369 813.500 2213.991 811 L 2214.613 808.500 2215.234 810.829 C 2216.030 813.819, 2220.351 813.539, 2220.791 810.469 C 2221.042 808.715, 2220.483 808.412, 2216.685 808.247 C 2212.400 808.061, 2212.302 808.125, 2212.828 810.778 M 1994.011 836.951 C 1987.710 839.136, 1984.525 842.336, 1982.994 848.021 C 1982.304 850.585, 1982.024 863.360, 1982.210 883.785 C 1982.499 915.492, 1982.505 915.570, 1985.012 920.438 C 1986.773 923.858, 1988.717 925.942, 1991.512 927.408 C 1995.489 929.494, 1995.807 929.500, 2107.027 929.500 L 2218.554 929.500 2223.527 926.973 C 2227.285 925.063, 2229.050 923.362, 2230.750 920.011 C 2232.947 915.681, 2233 914.803, 2233 882.967 L 2233 850.359 2230.250 844.946 C 2228.455 841.412, 2226.285 838.833, 2224 837.516 C 2220.555 835.532, 2218.761 835.496, 2110 835.274 C 2003.634 835.056, 1999.295 835.119, 1994.011 836.951 M 1992.842 842.021 C 1986.241 845.508, 1985.846 847.976, 1986.196 883.537 C 1986.470 911.489, 1986.683 914.869, 1988.385 918.294 C 1991.945 925.461, 1983.779 925, 2107.216 925 C 2213.114 925, 2218.697 924.911, 2221.938 923.173 C 2223.812 922.168, 2226.182 919.805, 2227.204 917.923 C 2228.925 914.753, 2229.042 912.095, 2228.782 882 C 2228.532 853.151, 2228.301 849.137, 2226.733 846.267 C 2223.091 839.603, 2230.598 839.995, 2107.800 840.044 C 1999.765 840.087, 1996.393 840.145, 1992.842 842.021 M 2100.400 850.452 C 2098.694 851.181, 2097.007 852.539, 2096.650 853.471 C 2096.292 854.402, 2096 860.752, 2096 867.582 L 2096 880 2099.968 880 L 2103.937 880 2104.218 868.250 L 2104.500 856.500 2108 865.369 C 2112.345 876.379, 2115.425 880, 2120.447 880 C 2122.983 880, 2124.837 879.253, 2126.545 877.545 C 2128.891 875.200, 2129 874.532, 2129 862.545 L 2129 850 2124.500 850 L 2120 850 2119.971 861.250 L 2119.941 872.500 2115.934 863 C 2113.730 857.775, 2111.156 852.767, 2110.214 851.871 C 2107.708 849.490, 2103.929 848.943, 2100.400 850.452 M 2000 865 L 2000 880 2011.500 880 L 2023 880 2023 876 L 2023 872 2015.500 872 L 2008 872 2008 861 L 2008 850 2004 850 L 2000 850 2000 865 M 2026 865.057 L 2026 880.115 2030.250 879.807 L 2034.500 879.500 2034.777 864.750 L 2035.053 850 2030.527 850 L 2026 850 2026 865.057 M 2044.213 851.507 C 2036.024 855.064, 2035.785 873.252, 2043.872 877.434 C 2045.928 878.497, 2049.645 879, 2055.450 879 L 2064 879 2064 875.500 L 2064 872 2056.700 872 C 2052.356 872, 2048.914 871.514, 2048.200 870.800 C 2046.728 869.328, 2046.620 861.578, 2048.035 858.934 C 2048.917 857.287, 2050.178 857, 2056.535 857 L 2064 857 2064 853.500 L 2064 850 2055.750 850.039 C 2050.887 850.062, 2046.150 850.665, 2044.213 851.507 M 2067 865.031 L 2067 880.062 2079.250 879.781 L 2091.500 879.500 2091.810 875.750 L 2092.121 872 2083.560 872 C 2075.667 872, 2075 871.844, 2075 870 C 2075 868.157, 2075.667 868, 2083.500 868 L 2092 868 2092 864.500 L 2092 861 2083.500 861 C 2075.667 861, 2075 860.843, 2075 859 C 2075 857.157, 2075.667 857, 2083.500 857 L 2092 857 2092 853.500 L 2092 850 2079.500 850 L 2067 850 2067 865.031 M 2135.389 852.342 C 2131.833 855.401, 2131.702 860.179, 2135.083 863.482 C 2136.412 864.780, 2140.345 866.666, 2143.823 867.674 C 2147.300 868.681, 2150.118 869.954, 2150.084 870.503 C 2150.050 871.051, 2146.305 871.725, 2141.761 872 L 2133.500 872.500 2133.190 876.250 L 2132.879 880 2140.190 879.994 C 2153.065 879.985, 2158.400 877.184, 2158.400 870.436 C 2158.400 865.867, 2156.489 864.153, 2148.331 861.408 C 2138.778 858.193, 2139.072 857, 2149.417 857 L 2158 857 2158 853.500 L 2158 850 2148.056 850 C 2139.070 850, 2137.849 850.226, 2135.389 852.342 M 2162 865 L 2162 880 2174.560 880 L 2187.121 880 2186.810 876.250 L 2186.500 872.500 2178.250 872.210 C 2170.822 871.948, 2170 871.724, 2170 869.960 C 2170 868.167, 2170.725 868, 2178.500 868 L 2187 868 2187 864.500 L 2187 861 2178.500 861 C 2170.667 861, 2170 860.843, 2170 859 C 2170 857.069, 2170.662 857.001, 2189.250 857.015 C 2199.838 857.024, 2209.086 857.402, 2209.802 857.856 C 2210.706 858.430, 2211.011 860.640, 2210.802 865.091 L 2210.500 871.500 2204.750 871.800 L 2199 872.100 2199 865.992 L 2199 859.885 2194.750 860.193 L 2190.500 860.500 2190.500 870 L 2190.500 879.500 2201 879.492 C 2212.497 879.483, 2216.766 878.004, 2218.915 873.288 C 2220.534 869.734, 2220.248 859.380, 2218.434 855.872 C 2215.678 850.544, 2212.678 850, 2186.032 850 L 2162 850 2162 865 M 2004.667 888.667 C 2004.300 889.033, 2004 895.783, 2004 903.667 L 2004 918 2008.500 918 L 2013 918 2013 913.642 L 2013 909.285 2019.046 908.653 C 2025.104 908.020, 2028.860 906.659, 2030.235 904.600 C 2031.455 902.773, 2031.089 893.504, 2029.723 891.636 C 2029.021 890.676, 2026.658 889.476, 2024.473 888.969 C 2019.868 887.901, 2005.649 887.684, 2004.667 888.667 M 2034.667 888.667 C 2034.300 889.033, 2034 895.783, 2034 903.667 L 2034 918 2038.500 918 L 2043 918 2043 906.450 L 2043 894.900 2048.750 895.200 C 2053.705 895.459, 2054.500 895.773, 2054.500 897.472 C 2054.500 899.025, 2053.557 899.606, 2050.073 900.200 C 2042.511 901.491, 2042.134 904.526, 2048.555 912.408 C 2052.999 917.864, 2053.233 918, 2058.183 918 L 2063.256 918 2060.631 914.750 C 2059.187 912.962, 2057.074 910.263, 2055.935 908.750 L 2053.864 906 2055.977 906 C 2059.503 906, 2063 901.636, 2063 897.237 C 2063 892.203, 2061.337 890.097, 2056.473 888.969 C 2051.880 887.904, 2035.654 887.679, 2034.667 888.667 M 2071.198 889.673 C 2066.575 891.951, 2065 895.604, 2065 904.050 C 2065 910.783, 2065.189 911.389, 2068.250 914.449 C 2075.304 921.501, 2091.135 919.707, 2094.579 911.466 C 2097.989 903.304, 2095.318 892.908, 2089 889.752 C 2084.577 887.542, 2075.603 887.502, 2071.198 889.673 M 2099.750 888.558 C 2099.338 888.984, 2099 895.783, 2099 903.667 L 2099 918 2108.935 918 C 2119.736 918, 2122.730 917.280, 2125.848 913.933 C 2128.676 910.897, 2129.634 902.401, 2127.776 896.829 C 2125.679 890.536, 2122.104 888.794, 2110.138 888.234 C 2104.837 887.985, 2100.162 888.131, 2099.750 888.558 M 2132 899.489 C 2132 916.706, 2133.422 918.502, 2147.047 918.498 C 2158.731 918.494, 2161.311 914.599, 2160.788 897.754 L 2160.500 888.500 2156.500 888.500 L 2152.500 888.500 2152.213 898.942 C 2152.055 904.685, 2151.437 909.973, 2150.840 910.692 C 2150.244 911.412, 2148.065 912, 2146 912 C 2143.935 912, 2141.756 911.412, 2141.160 910.692 C 2140.563 909.973, 2139.945 904.685, 2139.787 898.942 L 2139.500 888.500 2135.750 888.190 L 2132 887.879 2132 899.489 M 2173.014 889.024 C 2171.097 889.475, 2168.285 891.236, 2166.764 892.938 C 2164.343 895.648, 2164 896.842, 2164 902.565 C 2164 914.210, 2168.044 918, 2180.468 918 L 2187 918 2187 914.500 L 2187 911 2181.934 911 C 2174.093 911, 2173 910.014, 2173 902.940 C 2173 897.431, 2173.206 896.872, 2175.565 895.975 C 2176.976 895.439, 2182.376 895, 2187.565 895 L 2197 895 2197 906.500 L 2197 918 2201 918 L 2205 918 2205 906.500 L 2205 895 2210.500 895 L 2216 895 2216 891.500 L 2216 888 2196.250 888.102 C 2185.387 888.159, 2174.931 888.574, 2173.014 889.024 M 2013 898.500 L 2013 902.110 2017.750 901.805 C 2022.293 901.513, 2022.500 901.370, 2022.500 898.500 C 2022.500 895.630, 2022.293 895.487, 2017.750 895.195 L 2013 894.890 2013 898.500 M 2075.072 896.413 C 2074.367 897.262, 2074.020 900.351, 2074.200 904.163 L 2074.500 910.500 2079.328 910.808 C 2085.847 911.224, 2087 910.038, 2087 902.913 C 2087 898.160, 2086.639 896.877, 2085.066 896.035 C 2082.276 894.542, 2076.442 894.763, 2075.072 896.413 M 2108 903 L 2108 911 2112.965 911 C 2118.809 911, 2120 909.585, 2120 902.637 C 2120 896.849, 2118.167 895, 2112.429 895 L 2108 895 2108 903 M 931 913 C 931 915.970, 931.056 916, 936.500 916 L 942 916 942 931 L 942 946 945.500 946 L 949 946 949 931 L 949 916 954.500 916 C 959.944 916, 960 915.970, 960 913 L 960 910 945.500 910 L 931 910 931 913 M 964 928 L 964 946 966.970 946 L 969.940 946 970.220 933.313 L 970.500 920.625 974.978 933.313 C 979.377 945.777, 979.509 946, 982.478 945.998 C 985.437 945.997, 985.597 945.733, 990.184 933.248 L 994.868 920.500 994.934 933.250 L 995 946 998 946 L 1001 946 1001 927.945 L 1001 909.890 996.328 910.195 L 991.656 910.500 987.176 923.956 L 982.696 937.412 978.322 924.956 C 975.916 918.105, 973.748 911.938, 973.505 911.250 C 973.239 910.499, 971.254 910, 968.531 910 L 964 910 964 928" stroke="none" fill="#fbfbfb" fillRule="evenodd"/></svg>