<?xml version="1.0" encoding="utf-8"?>
<!-- Generator: Adobe Illustrator 23.0.2, SVG Export Plug-In . SVG Version: 6.00 Build 0)  -->
<svg version="1.1" baseProfile="tiny" id="Layer_1" xmlns="http://www.w3.org/2000/svg" xmlns:xlink="http://www.w3.org/1999/xlink"
	 x="0px" y="0px" width="215px" height="57px" viewBox="0 0 215 57" xml:space="preserve">
<path fill="#FFFFFF" stroke="#929497" stroke-width="0.35" stroke-miterlimit="10" d="M198.24,0H62.86h0.77H0.08v29.03
	c0,6.19,4.85,11.28,11.04,11.6l1.61,0.08C14.9,50.04,23.27,57,33.24,57c0.02,0,0.03,0,0.03,0l0.01,0h30.2h-0.82h135.58h-0.99h10.34
	c3.95,0,7.15-3.2,7.15-7.15V7.15c0-3.95-3.2-7.15-7.15-7.15h-10.34"/>
<g>
	<path fill="#5FC323" d="M6.07,5.98V29c0,3.66,2.87,6.61,6.48,6.8c-0.19-9.89,6.82-18.74,16.86-20.51c1.18-0.21,2.37-0.32,3.57-0.32
		c9.93,0,18.38,7.11,20.11,16.89c0.23,1.33,0.32,2.64,0.3,3.94c3.6-0.2,6.47-3.15,6.47-6.8V5.98H6.07z"/>
	<path d="M26.41,35.4c0-3.64,2.95-6.58,6.59-6.58c3.64,0,6.58,2.95,6.58,6.58H26.41z M17.31,35.41c0,8.61,7.01,15.61,15.61,15.61
		c4.18,0,8.11-1.63,11.06-4.6l-3.18-3.16c-2.1,2.12-4.9,3.28-7.88,3.28c-6.14,0-11.12-4.99-11.12-11.12
		c0-6.13,4.98-11.12,11.12-11.12c6.14,0,11.12,4.99,11.12,11.12h4.49c0-8.6-7-15.6-15.6-15.6C24.33,19.8,17.31,26.81,17.31,35.41"/>
</g>
<g>
	<path fill="#004676" d="M78.26,43.9h0.89v7.83h-0.89V43.9z"/>
	<path fill="#004676" d="M81,45.93h0.73l0.08,0.84h0.03c0.23-0.28,0.48-0.51,0.75-0.7c0.27-0.19,0.56-0.28,0.88-0.28
		c0.4,0,0.71,0.1,0.94,0.29s0.39,0.47,0.5,0.82c0.27-0.33,0.55-0.6,0.82-0.81s0.57-0.3,0.9-0.3c0.54,0,0.94,0.19,1.2,0.57
		c0.26,0.38,0.39,0.95,0.39,1.7v3.68h-0.88v-3.55c0-0.55-0.08-0.95-0.24-1.19c-0.16-0.24-0.4-0.36-0.73-0.36
		c-0.39,0-0.83,0.3-1.31,0.9v4.2h-0.88v-3.55c0-0.55-0.08-0.95-0.24-1.19c-0.16-0.24-0.4-0.36-0.74-0.36c-0.39,0-0.83,0.3-1.31,0.9
		v4.2H81V45.93z"/>
	<path fill="#004676" d="M90.79,52.23v1.96h-0.88v-8.25h0.73l0.08,0.67h0.03c0.24-0.22,0.5-0.41,0.78-0.57
		c0.28-0.16,0.58-0.24,0.89-0.24c0.34,0,0.63,0.07,0.89,0.21c0.26,0.14,0.47,0.34,0.65,0.6c0.17,0.26,0.3,0.57,0.39,0.93
		c0.09,0.36,0.13,0.77,0.13,1.22c0,0.49-0.06,0.93-0.18,1.32c-0.12,0.39-0.29,0.71-0.49,0.99c-0.21,0.27-0.45,0.48-0.72,0.62
		c-0.27,0.14-0.56,0.21-0.86,0.21c-0.24,0-0.49-0.06-0.73-0.18c-0.24-0.12-0.48-0.28-0.73-0.49L90.79,52.23z M90.79,50.45
		c0.24,0.22,0.47,0.38,0.69,0.47c0.22,0.09,0.42,0.14,0.59,0.14c0.21,0,0.41-0.05,0.6-0.16s0.34-0.26,0.47-0.45
		c0.13-0.19,0.24-0.44,0.31-0.72c0.08-0.29,0.11-0.61,0.11-0.97c0-0.32-0.02-0.61-0.08-0.87s-0.13-0.49-0.24-0.67
		c-0.11-0.19-0.25-0.33-0.43-0.44c-0.18-0.1-0.39-0.16-0.63-0.16c-0.22,0-0.45,0.07-0.67,0.2c-0.23,0.13-0.47,0.33-0.73,0.58V50.45z
		"/>
	<path fill="#004676" d="M95.8,45.93h0.89v3.55c0,0.55,0.08,0.95,0.23,1.19c0.15,0.24,0.4,0.36,0.75,0.36
		c0.27,0,0.51-0.08,0.72-0.23c0.21-0.16,0.44-0.4,0.69-0.75v-4.12h0.88v5.8h-0.73l-0.08-0.91h-0.03c-0.24,0.32-0.5,0.57-0.77,0.76
		c-0.27,0.19-0.59,0.29-0.95,0.29c-0.56,0-0.97-0.19-1.22-0.57c-0.25-0.38-0.38-0.95-0.38-1.7V45.93z"/>
	<path fill="#004676" d="M101.72,43.24h0.88v7.4c0,0.16,0.03,0.27,0.08,0.33c0.05,0.06,0.11,0.09,0.17,0.09c0.03,0,0.06,0,0.08,0
		c0.02,0,0.06-0.01,0.11-0.02l0.12,0.74c-0.06,0.03-0.13,0.06-0.2,0.07c-0.08,0.02-0.18,0.02-0.3,0.02c-0.34,0-0.58-0.11-0.72-0.33
		c-0.14-0.22-0.21-0.55-0.21-0.98V43.24z"/>
	<path fill="#004676" d="M104.32,50.42c0.23,0.21,0.46,0.37,0.7,0.5c0.24,0.13,0.52,0.19,0.83,0.19c0.34,0,0.6-0.09,0.77-0.26
		c0.17-0.17,0.26-0.39,0.26-0.64c0-0.15-0.04-0.28-0.11-0.39c-0.07-0.11-0.16-0.21-0.27-0.29c-0.11-0.08-0.24-0.16-0.38-0.22
		c-0.14-0.06-0.29-0.13-0.43-0.19c-0.19-0.07-0.37-0.15-0.56-0.24c-0.19-0.09-0.35-0.2-0.5-0.33c-0.15-0.13-0.27-0.28-0.36-0.46
		c-0.09-0.17-0.14-0.39-0.14-0.63c0-0.23,0.04-0.45,0.12-0.65c0.08-0.2,0.2-0.38,0.35-0.53c0.15-0.15,0.34-0.26,0.56-0.35
		c0.22-0.08,0.47-0.13,0.75-0.13c0.33,0,0.63,0.06,0.91,0.19s0.51,0.28,0.71,0.47l-0.42,0.62c-0.18-0.15-0.37-0.27-0.56-0.37
		c-0.19-0.09-0.4-0.14-0.63-0.14c-0.33,0-0.57,0.08-0.73,0.25c-0.15,0.17-0.23,0.36-0.23,0.59c0,0.13,0.03,0.25,0.1,0.35
		s0.15,0.19,0.26,0.26c0.11,0.08,0.23,0.14,0.37,0.2c0.14,0.06,0.28,0.12,0.44,0.19c0.19,0.08,0.37,0.16,0.56,0.25
		c0.19,0.09,0.36,0.2,0.51,0.33c0.15,0.13,0.27,0.29,0.37,0.48c0.1,0.19,0.15,0.42,0.15,0.69c0,0.24-0.04,0.46-0.12,0.67
		c-0.08,0.21-0.2,0.39-0.37,0.55s-0.36,0.29-0.6,0.38c-0.24,0.09-0.51,0.14-0.82,0.14c-0.37,0-0.73-0.08-1.06-0.23
		c-0.34-0.15-0.63-0.34-0.88-0.57L104.32,50.42z"/>
	<path fill="#004676" d="M108.7,50.23c0-0.64,0.26-1.12,0.77-1.46c0.51-0.34,1.33-0.58,2.44-0.71c0-0.18-0.02-0.36-0.05-0.54
		s-0.09-0.33-0.17-0.47c-0.08-0.13-0.19-0.24-0.33-0.33c-0.14-0.08-0.31-0.12-0.53-0.12c-0.31,0-0.59,0.06-0.85,0.19
		c-0.26,0.13-0.5,0.27-0.7,0.43l-0.35-0.68c0.24-0.17,0.54-0.34,0.89-0.51s0.74-0.25,1.16-0.25c0.64,0,1.1,0.22,1.39,0.65
		c0.29,0.43,0.43,1.01,0.43,1.74v3.56h-0.73l-0.08-0.69h-0.02c-0.25,0.23-0.52,0.43-0.81,0.59s-0.6,0.25-0.92,0.25
		c-0.44,0-0.81-0.14-1.1-0.43C108.85,51.16,108.7,50.76,108.7,50.23z M109.57,50.16c0,0.33,0.09,0.57,0.26,0.72
		c0.18,0.14,0.39,0.21,0.65,0.21c0.25,0,0.49-0.07,0.71-0.2c0.23-0.13,0.46-0.32,0.71-0.58V48.7c-0.44,0.06-0.81,0.14-1.11,0.23
		s-0.54,0.19-0.73,0.31c-0.18,0.12-0.31,0.26-0.39,0.41C109.61,49.81,109.57,49.98,109.57,50.16z"/>
	<path fill="#004676" d="M114.09,48.85c0-0.47,0.06-0.89,0.19-1.27c0.12-0.38,0.29-0.7,0.5-0.96c0.21-0.26,0.45-0.47,0.72-0.61
		c0.27-0.14,0.56-0.21,0.86-0.21s0.56,0.06,0.78,0.18c0.22,0.12,0.45,0.28,0.68,0.49l-0.04-0.99v-2.23h0.89v8.5h-0.73l-0.08-0.68
		h-0.03c-0.21,0.22-0.45,0.42-0.71,0.58c-0.27,0.16-0.56,0.25-0.87,0.25c-0.66,0-1.18-0.26-1.57-0.79
		C114.28,50.57,114.09,49.82,114.09,48.85z M115,48.83c0,0.7,0.13,1.25,0.38,1.64c0.25,0.39,0.61,0.58,1.06,0.58
		c0.24,0,0.47-0.07,0.69-0.2c0.21-0.13,0.43-0.33,0.64-0.6v-3.03c-0.22-0.22-0.44-0.38-0.64-0.47c-0.2-0.09-0.41-0.14-0.63-0.14
		c-0.21,0-0.4,0.05-0.59,0.16s-0.34,0.26-0.48,0.45c-0.14,0.2-0.24,0.43-0.32,0.7C115.04,48.2,115,48.5,115,48.83z"/>
	<path fill="#004676" d="M120.04,48.85c0-0.49,0.07-0.92,0.2-1.29c0.13-0.38,0.31-0.7,0.53-0.96c0.22-0.26,0.48-0.46,0.77-0.6
		c0.29-0.13,0.6-0.2,0.92-0.2s0.63,0.07,0.92,0.2c0.29,0.14,0.55,0.33,0.77,0.6s0.4,0.58,0.53,0.96c0.13,0.38,0.2,0.81,0.2,1.29
		c0,0.48-0.07,0.91-0.2,1.28c-0.13,0.38-0.31,0.7-0.53,0.96s-0.48,0.46-0.77,0.59c-0.29,0.13-0.6,0.2-0.92,0.2s-0.63-0.07-0.92-0.2
		c-0.29-0.14-0.55-0.33-0.77-0.59c-0.22-0.26-0.4-0.58-0.53-0.96C120.11,49.75,120.04,49.32,120.04,48.85z M120.95,48.85
		c0,0.33,0.04,0.64,0.11,0.91c0.07,0.27,0.17,0.5,0.31,0.7c0.13,0.19,0.29,0.35,0.48,0.45c0.19,0.11,0.39,0.16,0.61,0.16
		s0.43-0.05,0.61-0.16c0.19-0.11,0.35-0.26,0.48-0.45c0.13-0.2,0.23-0.43,0.31-0.7c0.07-0.27,0.11-0.57,0.11-0.91
		c0-0.33-0.04-0.64-0.11-0.91s-0.17-0.51-0.31-0.71c-0.13-0.2-0.29-0.35-0.48-0.46c-0.19-0.11-0.39-0.16-0.61-0.16
		s-0.43,0.05-0.61,0.16c-0.19,0.11-0.35,0.26-0.48,0.46c-0.13,0.2-0.23,0.44-0.31,0.71S120.95,48.51,120.95,48.85z"/>
	<path fill="#004676" d="M129.3,52.23v1.96h-0.88v-8.25h0.73l0.08,0.67h0.03c0.24-0.22,0.5-0.41,0.78-0.57
		c0.28-0.16,0.58-0.24,0.89-0.24c0.34,0,0.63,0.07,0.89,0.21c0.26,0.14,0.47,0.34,0.65,0.6c0.17,0.26,0.3,0.57,0.39,0.93
		c0.09,0.36,0.13,0.77,0.13,1.22c0,0.49-0.06,0.93-0.18,1.32c-0.12,0.39-0.29,0.71-0.49,0.99c-0.21,0.27-0.45,0.48-0.72,0.62
		c-0.27,0.14-0.56,0.21-0.86,0.21c-0.24,0-0.49-0.06-0.73-0.18c-0.24-0.12-0.48-0.28-0.73-0.49L129.3,52.23z M129.3,50.45
		c0.24,0.22,0.47,0.38,0.69,0.47c0.22,0.09,0.42,0.14,0.59,0.14c0.21,0,0.41-0.05,0.6-0.16s0.34-0.26,0.47-0.45
		c0.13-0.19,0.24-0.44,0.31-0.72c0.08-0.29,0.11-0.61,0.11-0.97c0-0.32-0.02-0.61-0.08-0.87s-0.13-0.49-0.24-0.67
		c-0.11-0.19-0.25-0.33-0.43-0.44c-0.18-0.1-0.39-0.16-0.63-0.16c-0.22,0-0.45,0.07-0.67,0.2c-0.23,0.13-0.47,0.33-0.73,0.58V50.45z
		"/>
	<path fill="#004676" d="M134,48.85c0-0.49,0.07-0.92,0.2-1.29c0.13-0.38,0.31-0.7,0.53-0.96c0.22-0.26,0.48-0.46,0.77-0.6
		c0.29-0.13,0.6-0.2,0.92-0.2s0.63,0.07,0.92,0.2c0.29,0.14,0.55,0.33,0.77,0.6c0.22,0.26,0.4,0.58,0.53,0.96
		c0.13,0.38,0.2,0.81,0.2,1.29c0,0.48-0.07,0.91-0.2,1.28c-0.13,0.38-0.31,0.7-0.53,0.96c-0.22,0.26-0.48,0.46-0.77,0.59
		c-0.29,0.13-0.6,0.2-0.92,0.2s-0.63-0.07-0.92-0.2c-0.29-0.14-0.55-0.33-0.77-0.59c-0.22-0.26-0.4-0.58-0.53-0.96
		C134.07,49.75,134,49.32,134,48.85z M134.91,48.85c0,0.33,0.04,0.64,0.11,0.91c0.07,0.27,0.17,0.5,0.31,0.7
		c0.13,0.19,0.29,0.35,0.48,0.45s0.39,0.16,0.61,0.16s0.43-0.05,0.61-0.16s0.35-0.26,0.48-0.45c0.13-0.2,0.23-0.43,0.31-0.7
		c0.07-0.27,0.11-0.57,0.11-0.91c0-0.33-0.04-0.64-0.11-0.91c-0.07-0.27-0.17-0.51-0.31-0.71c-0.13-0.2-0.29-0.35-0.48-0.46
		s-0.39-0.16-0.61-0.16s-0.43,0.05-0.61,0.16s-0.35,0.26-0.48,0.46c-0.13,0.2-0.23,0.44-0.31,0.71
		C134.95,48.21,134.91,48.51,134.91,48.85z"/>
	<path fill="#004676" d="M140.21,45.93h0.73l0.08,1.05h0.03c0.18-0.37,0.4-0.66,0.65-0.87c0.25-0.21,0.53-0.32,0.83-0.32
		c0.21,0,0.39,0.04,0.56,0.12l-0.17,0.86c-0.09-0.03-0.17-0.06-0.24-0.07c-0.07-0.02-0.16-0.02-0.27-0.02c-0.22,0-0.45,0.1-0.69,0.3
		c-0.24,0.2-0.45,0.54-0.63,1.04v3.73h-0.88V45.93z"/>
</g>
<g>
	<g>
		<path d="M104.97,8.66v10.76H102V8.66H97.9V5.92h11.18v2.74H104.97z"/>
		<path d="M118.77,19.42l-2.89-4.32h-2.33v4.32h-2.97V5.92h6.16c3.19,0,5.09,1.68,5.09,4.45v0.04c0,2.18-1.17,3.55-2.89,4.18
			l3.3,4.82H118.77z M118.83,10.53c0-1.27-0.89-1.93-2.33-1.93h-2.95v3.88h3c1.45,0,2.28-0.77,2.28-1.91V10.53z"/>
		<path d="M129.75,19.63c-3.63,0-5.84-2.02-5.84-6V5.92h2.97v7.63c0,2.2,1.1,3.33,2.91,3.33c1.81,0,2.91-1.1,2.91-3.24V5.92h2.97
			v7.61C135.67,17.62,133.38,19.63,129.75,19.63z"/>
		<path d="M143.12,19.61c-2.05,0-4.11-0.71-5.73-2.16l1.75-2.1c1.21,1,2.49,1.64,4.03,1.64c1.21,0,1.95-0.48,1.95-1.27v-0.04
			c0-0.75-0.46-1.14-2.72-1.71c-2.72-0.69-4.47-1.45-4.47-4.13V9.8c0-2.45,1.96-4.07,4.72-4.07c1.97,0,3.64,0.62,5.01,1.72
			l-1.54,2.23c-1.19-0.83-2.37-1.33-3.51-1.33c-1.13,0-1.73,0.52-1.73,1.18v0.04c0,0.89,0.58,1.18,2.91,1.77
			c2.73,0.71,4.27,1.7,4.27,4.05v0.04C148.06,18.11,146.02,19.61,143.12,19.61z"/>
		<path d="M155.6,8.66v10.76h-2.97V8.66h-4.11V5.92h11.18v2.74H155.6z"/>
		<path d="M168.96,15.27h-7.19c0.29,1.33,1.22,2.02,2.53,2.02c0.98,0,1.7-0.31,2.51-1.06l1.67,1.48c-0.96,1.2-2.35,1.93-4.22,1.93
			c-3.1,0-5.4-2.18-5.4-5.34v-0.04c0-2.95,2.1-5.38,5.1-5.38c3.45,0,5.03,2.68,5.03,5.61v0.04C169,14.83,168.98,15,168.96,15.27z
			 M163.96,11.24c-1.2,0-2,0.87-2.23,2.2h4.41C165.97,12.13,165.2,11.24,163.96,11.24z"/>
	</g>
</g>
<g>
	<path fill="#004676" d="M148.73,45.25h-2.53v-1.26h6.5v1.26h-2.53v6.41h-1.45V45.25z M154.06,51.66v-4.25
		c0.24-0.14,0.61-0.22,1.04-0.22c0.29,0,0.57,0.03,0.84,0.11l0.35-1.14c-0.35-0.13-0.75-0.18-1.23-0.18c-1.06,0-1.91,0.42-2.33,0.79
		v4.89H154.06z M160.97,46.16v4.26c-0.34,0.14-0.71,0.21-1.15,0.21c-1.12,0-1.36-0.51-1.36-1.42v-3.06h-1.35v3.45
		c0,1.36,0.78,2.22,2.53,2.22c1.24,0,2.1-0.32,2.67-0.59v-5.08H160.97z M163.44,50.97c0,0,0.78,0.82,2.16,0.82
		c1.32,0,2.13-0.74,2.13-1.67c0-1.79-2.71-1.7-2.71-2.48c0-0.35,0.35-0.5,0.71-0.5c0.85,0,1.37,0.48,1.37,0.48l0.51-1.03
		c0,0-0.61-0.63-1.87-0.63c-1.2,0-2.13,0.6-2.13,1.64c0,1.79,2.71,1.68,2.71,2.52c0,0.33-0.34,0.5-0.73,0.5
		c-0.91,0-1.52-0.61-1.52-0.61L163.44,50.97z M168.89,49.61c0,1.87,1.54,2.1,2.32,2.1c0.26,0,0.43-0.03,0.43-0.03v-1.21
		c0,0-0.1,0.02-0.25,0.02c-0.38,0-1.1-0.13-1.1-1.05v-2.08h1.27v-1.19h-1.27v-1.61h-1.36L168.89,49.61z M181.31,51.66v-4.25
		c0.24-0.14,0.61-0.22,1.04-0.22c0.29,0,0.57,0.03,0.84,0.11l0.35-1.14c-0.35-0.13-0.75-0.18-1.23-0.18c-1.06,0-1.91,0.42-2.33,0.79
		v4.89H181.31z M186.66,46.05c-1.8,0-2.95,1.3-2.95,2.85c0,1.58,1.15,2.85,2.95,2.85c1.46,0,2.24-0.89,2.24-0.89l-0.52-0.96
		c0,0-0.68,0.69-1.6,0.69c-1.03,0-1.69-0.79-1.69-1.71c0-0.93,0.65-1.68,1.65-1.68c0.85,0,1.42,0.59,1.42,0.59l0.6-0.93
		C188.75,46.86,188.07,46.05,186.66,46.05 M177.07,49.67h-2.54l-0.68,1.95h-1.42l2.66-7.57h1.42l2.66,7.57h-1.42L177.07,49.67z
		 M176.68,48.55l-0.88-2.49l-0.88,2.49H176.68z"/>
</g>
<line fill="none" stroke="#231F20" stroke-width="0.5" stroke-miterlimit="10" x1="65.17" y1="40.24" x2="200.28" y2="40.23"/>
<g>
	<path d="M68.02,25.5h3.02c0.54,0,1.04,0.05,1.48,0.15c0.45,0.1,0.83,0.26,1.15,0.49c0.32,0.22,0.56,0.52,0.74,0.89
		s0.26,0.82,0.26,1.36c0,0.52-0.09,0.97-0.26,1.35s-0.42,0.7-0.74,0.94c-0.32,0.25-0.7,0.44-1.15,0.56
		c-0.45,0.13-0.94,0.19-1.48,0.19h-1.77v3.9h-1.25V25.5z M70.89,30.42c0.86,0,1.5-0.16,1.91-0.49c0.41-0.33,0.62-0.84,0.62-1.54
		c0-0.71-0.21-1.2-0.63-1.48c-0.42-0.27-1.06-0.41-1.91-0.41h-1.62v3.92H70.89z"/>
	<path d="M76.54,28.05h1.02l0.11,1.32h0.04c0.25-0.46,0.55-0.83,0.91-1.1c0.35-0.27,0.74-0.4,1.16-0.4c0.29,0,0.55,0.05,0.78,0.15
		l-0.24,1.08c-0.12-0.04-0.23-0.07-0.33-0.09c-0.1-0.02-0.22-0.03-0.38-0.03c-0.31,0-0.63,0.13-0.97,0.38
		c-0.34,0.25-0.63,0.69-0.88,1.31v4.68h-1.23V28.05z"/>
	<path d="M82.38,26.55c-0.24,0-0.44-0.08-0.61-0.22c-0.17-0.15-0.25-0.34-0.25-0.57c0-0.24,0.08-0.43,0.25-0.58
		c0.17-0.15,0.37-0.22,0.61-0.22c0.24,0,0.44,0.07,0.61,0.22c0.17,0.14,0.25,0.34,0.25,0.58c0,0.23-0.08,0.42-0.25,0.57
		C82.82,26.48,82.62,26.55,82.38,26.55z M81.75,28.05h1.23v7.29h-1.23V28.05z"/>
	<path d="M84.39,28.05h1.28l1.38,4.14c0.11,0.36,0.22,0.72,0.34,1.08c0.11,0.36,0.23,0.72,0.34,1.07h0.06
		c0.11-0.35,0.22-0.71,0.33-1.07c0.11-0.36,0.22-0.72,0.33-1.08l1.38-4.14h1.21l-2.58,7.29h-1.44L84.39,28.05z"/>
	<path d="M91.78,33.46c0-0.8,0.36-1.41,1.07-1.84s1.85-0.72,3.41-0.89c0-0.23-0.02-0.46-0.07-0.67s-0.12-0.42-0.24-0.58
		c-0.12-0.17-0.27-0.31-0.46-0.41c-0.19-0.1-0.43-0.16-0.73-0.16c-0.43,0-0.83,0.08-1.19,0.24s-0.69,0.34-0.98,0.54l-0.5-0.86
		c0.34-0.22,0.75-0.43,1.25-0.64s1.03-0.31,1.62-0.31c0.89,0,1.54,0.27,1.94,0.82c0.4,0.54,0.6,1.27,0.6,2.18v4.47h-1.02l-0.11-0.87
		h-0.03c-0.35,0.29-0.73,0.54-1.13,0.74c-0.41,0.21-0.83,0.31-1.28,0.31c-0.62,0-1.13-0.18-1.54-0.54
		C91.99,34.62,91.78,34.11,91.78,33.46z M93,33.36c0,0.42,0.12,0.72,0.37,0.9s0.55,0.27,0.91,0.27c0.35,0,0.68-0.08,1-0.25
		c0.32-0.17,0.65-0.41,1-0.73v-2.02c-0.61,0.08-1.12,0.17-1.55,0.28c-0.42,0.11-0.76,0.24-1.01,0.39c-0.25,0.15-0.44,0.32-0.55,0.52
		C93.05,32.92,93,33.13,93,33.36z"/>
	<path d="M99.28,31.71c0-0.61,0.09-1.15,0.28-1.63c0.19-0.47,0.45-0.88,0.77-1.21c0.32-0.33,0.69-0.58,1.12-0.75
		s0.87-0.25,1.34-0.25c0.48,0,0.89,0.09,1.24,0.26c0.34,0.17,0.64,0.38,0.89,0.61l-0.62,0.79c-0.22-0.19-0.45-0.35-0.68-0.46
		c-0.23-0.12-0.5-0.18-0.79-0.18c-0.33,0-0.64,0.07-0.92,0.2c-0.28,0.13-0.52,0.33-0.72,0.58c-0.2,0.25-0.36,0.55-0.47,0.89
		c-0.12,0.34-0.17,0.73-0.17,1.15s0.05,0.8,0.17,1.14s0.26,0.63,0.46,0.88c0.19,0.25,0.43,0.43,0.71,0.57
		c0.28,0.14,0.58,0.2,0.92,0.2c0.35,0,0.67-0.07,0.95-0.22c0.28-0.14,0.54-0.32,0.76-0.52l0.56,0.81c-0.33,0.29-0.7,0.52-1.1,0.69
		c-0.41,0.17-0.83,0.25-1.27,0.25c-0.48,0-0.93-0.08-1.35-0.25s-0.78-0.42-1.09-0.74c-0.31-0.33-0.55-0.72-0.72-1.2
		C99.37,32.85,99.28,32.31,99.28,31.71z"/>
	<path d="M107.29,26.55c-0.24,0-0.44-0.08-0.61-0.22c-0.17-0.15-0.25-0.34-0.25-0.57c0-0.24,0.08-0.43,0.25-0.58
		c0.17-0.15,0.37-0.22,0.61-0.22c0.24,0,0.44,0.07,0.61,0.22c0.17,0.14,0.25,0.34,0.25,0.58c0,0.23-0.08,0.42-0.25,0.57
		C107.74,26.48,107.53,26.55,107.29,26.55z M106.66,28.05h1.23v7.29h-1.23V28.05z"/>
	<path d="M109.83,31.71c0-0.59,0.09-1.12,0.26-1.6c0.17-0.47,0.41-0.88,0.7-1.21c0.29-0.33,0.62-0.58,1-0.77
		c0.38-0.18,0.78-0.27,1.2-0.27s0.79,0.08,1.09,0.22c0.31,0.15,0.62,0.36,0.95,0.62l-0.06-1.25v-2.8h1.25v10.68h-1.02l-0.11-0.86
		h-0.04c-0.29,0.28-0.62,0.52-1,0.73c-0.38,0.21-0.78,0.31-1.21,0.31c-0.92,0-1.65-0.33-2.2-0.99
		C110.1,33.88,109.83,32.93,109.83,31.71z M111.1,31.7c0,0.88,0.17,1.56,0.52,2.05s0.84,0.73,1.49,0.73c0.34,0,0.66-0.08,0.96-0.25
		s0.6-0.42,0.9-0.76v-3.81c-0.31-0.28-0.61-0.48-0.89-0.59c-0.28-0.11-0.58-0.17-0.88-0.17c-0.29,0-0.56,0.07-0.82,0.2
		s-0.48,0.33-0.67,0.57c-0.19,0.25-0.34,0.54-0.45,0.88C111.16,30.9,111.1,31.28,111.1,31.7z"/>
	<path d="M118.32,33.46c0-0.8,0.36-1.41,1.07-1.84s1.85-0.72,3.41-0.89c0-0.23-0.02-0.46-0.07-0.67s-0.12-0.42-0.24-0.58
		c-0.12-0.17-0.27-0.31-0.46-0.41c-0.19-0.1-0.43-0.16-0.73-0.16c-0.43,0-0.83,0.08-1.19,0.24s-0.69,0.34-0.98,0.54l-0.5-0.86
		c0.34-0.22,0.75-0.43,1.25-0.64s1.03-0.31,1.62-0.31c0.89,0,1.54,0.27,1.94,0.82c0.4,0.54,0.6,1.27,0.6,2.18v4.47h-1.02l-0.11-0.87
		h-0.03c-0.35,0.29-0.73,0.54-1.13,0.74c-0.41,0.21-0.83,0.31-1.28,0.31c-0.62,0-1.13-0.18-1.54-0.54
		C118.52,34.62,118.32,34.11,118.32,33.46z M119.53,33.36c0,0.42,0.12,0.72,0.37,0.9s0.55,0.27,0.91,0.27c0.35,0,0.68-0.08,1-0.25
		c0.32-0.17,0.65-0.41,1-0.73v-2.02c-0.61,0.08-1.12,0.17-1.55,0.28c-0.42,0.11-0.76,0.24-1.01,0.39c-0.25,0.15-0.44,0.32-0.55,0.52
		C119.59,32.92,119.53,33.13,119.53,33.36z"/>
	<path d="M125.83,31.71c0-0.59,0.09-1.12,0.26-1.6c0.17-0.47,0.41-0.88,0.7-1.21c0.29-0.33,0.62-0.58,1-0.77
		c0.38-0.18,0.78-0.27,1.2-0.27s0.79,0.08,1.09,0.22c0.31,0.15,0.62,0.36,0.95,0.62l-0.06-1.25v-2.8h1.25v10.68h-1.02l-0.11-0.86
		h-0.04c-0.29,0.28-0.62,0.52-1,0.73c-0.38,0.21-0.78,0.31-1.21,0.31c-0.92,0-1.65-0.33-2.2-0.99
		C126.11,33.88,125.83,32.93,125.83,31.71z M127.11,31.7c0,0.88,0.17,1.56,0.52,2.05s0.84,0.73,1.49,0.73
		c0.34,0,0.66-0.08,0.96-0.25s0.6-0.42,0.9-0.76v-3.81c-0.31-0.28-0.61-0.48-0.89-0.59c-0.28-0.11-0.58-0.17-0.88-0.17
		c-0.29,0-0.56,0.07-0.82,0.2s-0.48,0.33-0.67,0.57c-0.19,0.25-0.34,0.54-0.45,0.88C127.16,30.9,127.11,31.28,127.11,31.7z"/>
	<path d="M136.48,25.5h1.33l1.58,5.31c0.18,0.59,0.34,1.14,0.47,1.64c0.13,0.5,0.3,1.04,0.49,1.62h0.06
		c0.18-0.58,0.34-1.12,0.48-1.62c0.14-0.5,0.29-1.04,0.46-1.64l1.58-5.31h1.27l-3.12,9.84h-1.46L136.48,25.5z"/>
	<path d="M144.67,31.71c0-0.6,0.09-1.14,0.28-1.61c0.18-0.48,0.43-0.88,0.73-1.21c0.31-0.33,0.65-0.58,1.04-0.76
		c0.39-0.18,0.79-0.26,1.21-0.26c0.46,0,0.87,0.08,1.24,0.24c0.37,0.16,0.67,0.39,0.92,0.69s0.43,0.66,0.56,1.08s0.2,0.89,0.2,1.41
		c0,0.27-0.01,0.5-0.04,0.67h-4.92c0.05,0.79,0.29,1.42,0.73,1.88c0.43,0.46,1,0.69,1.7,0.69c0.35,0,0.67-0.05,0.97-0.16
		c0.29-0.1,0.58-0.24,0.85-0.41l0.43,0.81c-0.32,0.2-0.67,0.38-1.07,0.53c-0.39,0.15-0.83,0.22-1.33,0.22
		c-0.49,0-0.95-0.09-1.37-0.26c-0.42-0.18-0.79-0.43-1.11-0.75c-0.31-0.33-0.56-0.72-0.74-1.19
		C144.76,32.85,144.67,32.31,144.67,31.71z M149.77,31.16c0-0.75-0.16-1.32-0.47-1.72c-0.31-0.4-0.76-0.59-1.33-0.59
		c-0.26,0-0.51,0.05-0.74,0.16c-0.23,0.11-0.45,0.26-0.64,0.45c-0.19,0.2-0.35,0.44-0.47,0.72c-0.12,0.29-0.21,0.61-0.25,0.98
		H149.77z"/>
	<path d="M152.65,28.05h1.02l0.11,1.32h0.04c0.25-0.46,0.55-0.83,0.91-1.1c0.35-0.27,0.74-0.4,1.16-0.4c0.29,0,0.55,0.05,0.78,0.15
		l-0.24,1.08c-0.12-0.04-0.23-0.07-0.33-0.09c-0.1-0.02-0.22-0.03-0.38-0.03c-0.31,0-0.63,0.13-0.97,0.38
		c-0.34,0.25-0.63,0.69-0.88,1.31v4.68h-1.23V28.05z"/>
	<path d="M158.49,26.55c-0.24,0-0.44-0.08-0.61-0.22c-0.17-0.15-0.25-0.34-0.25-0.57c0-0.24,0.08-0.43,0.25-0.58
		c0.17-0.15,0.37-0.22,0.61-0.22c0.24,0,0.44,0.07,0.61,0.22c0.17,0.14,0.25,0.34,0.25,0.58c0,0.23-0.08,0.42-0.25,0.57
		C158.93,26.48,158.73,26.55,158.49,26.55z M157.86,28.05h1.23v7.29h-1.23V28.05z"/>
	<path d="M164.83,25.67c-0.27-0.12-0.54-0.18-0.82-0.18c-0.68,0-1.02,0.47-1.02,1.41v1.16h1.54v1h-1.54v6.29h-1.23v-6.29h-0.99
		v-0.93l0.99-0.08V26.9c0-0.75,0.17-1.34,0.52-1.77c0.35-0.43,0.88-0.65,1.61-0.65c0.23,0,0.45,0.02,0.65,0.07
		c0.21,0.05,0.39,0.1,0.56,0.17L164.83,25.67z"/>
	<path d="M166.56,26.55c-0.24,0-0.44-0.08-0.61-0.22c-0.17-0.15-0.25-0.34-0.25-0.57c0-0.24,0.08-0.43,0.25-0.58
		c0.17-0.15,0.37-0.22,0.61-0.22c0.24,0,0.44,0.07,0.61,0.22c0.17,0.14,0.25,0.34,0.25,0.58c0,0.23-0.08,0.42-0.25,0.57
		C167,26.48,166.8,26.55,166.56,26.55z M165.93,28.05h1.23v7.29h-1.23V28.05z"/>
	<path d="M169.08,31.71c0-0.61,0.09-1.15,0.28-1.63c0.19-0.47,0.45-0.88,0.77-1.21c0.32-0.33,0.69-0.58,1.12-0.75
		s0.87-0.25,1.34-0.25c0.48,0,0.89,0.09,1.24,0.26c0.34,0.17,0.64,0.38,0.89,0.61l-0.62,0.79c-0.22-0.19-0.45-0.35-0.68-0.46
		c-0.23-0.12-0.5-0.18-0.79-0.18c-0.33,0-0.64,0.07-0.92,0.2c-0.28,0.13-0.52,0.33-0.72,0.58c-0.2,0.25-0.36,0.55-0.47,0.89
		c-0.12,0.34-0.17,0.73-0.17,1.15s0.05,0.8,0.17,1.14s0.26,0.63,0.46,0.88c0.19,0.25,0.43,0.43,0.71,0.57
		c0.28,0.14,0.58,0.2,0.92,0.2c0.35,0,0.67-0.07,0.95-0.22c0.28-0.14,0.54-0.32,0.76-0.52l0.56,0.81c-0.33,0.29-0.7,0.52-1.1,0.69
		c-0.41,0.17-0.83,0.25-1.27,0.25c-0.48,0-0.93-0.08-1.35-0.25s-0.78-0.42-1.09-0.74c-0.31-0.33-0.55-0.72-0.72-1.2
		C169.16,32.85,169.08,32.31,169.08,31.71z"/>
	<path d="M175.95,33.46c0-0.8,0.36-1.41,1.07-1.84s1.85-0.72,3.41-0.89c0-0.23-0.02-0.46-0.07-0.67s-0.12-0.42-0.24-0.58
		c-0.12-0.17-0.27-0.31-0.46-0.41c-0.19-0.1-0.43-0.16-0.73-0.16c-0.43,0-0.83,0.08-1.19,0.24s-0.69,0.34-0.98,0.54l-0.5-0.86
		c0.34-0.22,0.75-0.43,1.25-0.64s1.03-0.31,1.62-0.31c0.89,0,1.54,0.27,1.94,0.82c0.4,0.54,0.6,1.27,0.6,2.18v4.47h-1.02l-0.11-0.87
		h-0.03c-0.35,0.29-0.73,0.54-1.13,0.74c-0.41,0.21-0.83,0.31-1.28,0.31c-0.62,0-1.13-0.18-1.54-0.54
		C176.15,34.62,175.95,34.11,175.95,33.46z M177.16,33.36c0,0.42,0.12,0.72,0.37,0.9s0.55,0.27,0.91,0.27c0.35,0,0.68-0.08,1-0.25
		c0.32-0.17,0.65-0.41,1-0.73v-2.02c-0.61,0.08-1.12,0.17-1.55,0.28c-0.42,0.11-0.76,0.24-1.01,0.39c-0.25,0.15-0.44,0.32-0.55,0.52
		C177.22,32.92,177.16,33.13,177.16,33.36z"/>
	<path d="M183.46,31.71c0-0.59,0.09-1.12,0.26-1.6c0.17-0.47,0.41-0.88,0.7-1.21c0.29-0.33,0.62-0.58,1-0.77
		c0.38-0.18,0.78-0.27,1.2-0.27s0.79,0.08,1.09,0.22c0.31,0.15,0.62,0.36,0.95,0.62l-0.06-1.25v-2.8h1.25v10.68h-1.02l-0.11-0.86
		h-0.04c-0.29,0.28-0.62,0.52-1,0.73c-0.38,0.21-0.78,0.31-1.21,0.31c-0.92,0-1.65-0.33-2.2-0.99
		C183.73,33.88,183.46,32.93,183.46,31.71z M184.74,31.7c0,0.88,0.17,1.56,0.52,2.05s0.84,0.73,1.49,0.73
		c0.34,0,0.66-0.08,0.96-0.25s0.6-0.42,0.9-0.76v-3.81c-0.31-0.28-0.61-0.48-0.89-0.59c-0.28-0.11-0.58-0.17-0.88-0.17
		c-0.29,0-0.56,0.07-0.82,0.2s-0.48,0.33-0.67,0.57c-0.19,0.25-0.34,0.54-0.45,0.88C184.79,30.9,184.74,31.28,184.74,31.7z"/>
	<path d="M191.95,33.46c0-0.8,0.36-1.41,1.07-1.84s1.85-0.72,3.41-0.89c0-0.23-0.02-0.46-0.07-0.67s-0.12-0.42-0.24-0.58
		c-0.12-0.17-0.27-0.31-0.46-0.41c-0.19-0.1-0.43-0.16-0.73-0.16c-0.43,0-0.83,0.08-1.19,0.24s-0.69,0.34-0.98,0.54l-0.5-0.86
		c0.34-0.22,0.75-0.43,1.25-0.64s1.03-0.31,1.62-0.31c0.89,0,1.54,0.27,1.94,0.82c0.4,0.54,0.6,1.27,0.6,2.18v4.47h-1.02l-0.11-0.87
		h-0.03c-0.35,0.29-0.73,0.54-1.13,0.74c-0.41,0.21-0.83,0.31-1.28,0.31c-0.62,0-1.13-0.18-1.54-0.54
		C192.15,34.62,191.95,34.11,191.95,33.46z M193.17,33.36c0,0.42,0.12,0.72,0.37,0.9s0.55,0.27,0.91,0.27c0.35,0,0.68-0.08,1-0.25
		c0.32-0.17,0.65-0.41,1-0.73v-2.02c-0.61,0.08-1.12,0.17-1.55,0.28c-0.42,0.11-0.76,0.24-1.01,0.39c-0.25,0.15-0.44,0.32-0.55,0.52
		C193.22,32.92,193.17,33.13,193.17,33.36z"/>
</g>
<g>
</g>
<g>
</g>
<g>
</g>
<g>
</g>
<g>
</g>
<g>
</g>
</svg>
